<svg width="732" height="477" viewBox="0 0 732 477" fill="none" xmlns="http://www.w3.org/2000/svg">
<g filter="url(#filter0_d_2414_650)">
<rect x="14" y="12.9977" width="702.084" height="446.998" rx="8" fill="#2A2A2E" shape-rendering="crispEdges"/>
<rect x="424.5" y="37.4977" width="79" height="34" rx="17" stroke="#D6C8B0"/>
<path d="M453.454 48.8613H454.517V57.2534C454.513 58.0109 454.376 58.6435 454.107 59.1511C453.839 59.6549 453.467 60.0318 452.994 60.2818C452.52 60.5318 451.977 60.6568 451.363 60.6568C450.761 60.6568 450.223 60.545 449.75 60.3215C449.276 60.0981 448.903 59.7837 448.63 59.3784C448.361 58.9731 448.227 58.4977 448.227 57.9522H449.272C449.272 58.2969 449.363 58.6018 449.545 58.867C449.727 59.1284 449.975 59.3329 450.289 59.4806C450.607 59.6284 450.965 59.7022 451.363 59.7022C451.776 59.7022 452.138 59.6151 452.448 59.4409C452.763 59.2666 453.009 58.9996 453.187 58.6397C453.365 58.2761 453.454 57.814 453.454 57.2534V48.8613ZM460.789 60.6795C460.035 60.6795 459.369 60.4882 458.789 60.1056C458.214 59.7231 457.763 59.1947 457.437 58.5204C457.111 57.8424 456.948 57.0602 456.948 56.1738C456.948 55.2799 457.111 54.4939 457.437 53.8159C457.763 53.134 458.214 52.6037 458.789 52.225C459.369 51.8424 460.035 51.6511 460.789 51.6511C461.543 51.6511 462.208 51.8424 462.784 52.225C463.359 52.6075 463.81 53.1378 464.136 53.8159C464.465 54.4939 464.63 55.2799 464.63 56.1738C464.63 57.0602 464.467 57.8424 464.142 58.5204C463.816 59.1947 463.363 59.7231 462.784 60.1056C462.208 60.4882 461.543 60.6795 460.789 60.6795ZM460.789 59.7534C461.395 59.7534 461.909 59.5905 462.329 59.2647C462.75 58.939 463.068 58.5053 463.284 57.9636C463.503 57.4219 463.613 56.8253 463.613 56.1738C463.613 55.5223 463.503 54.9238 463.284 54.3784C463.068 53.8329 462.75 53.3954 462.329 53.0659C461.909 52.7363 461.395 52.5715 460.789 52.5715C460.187 52.5715 459.674 52.7363 459.25 53.0659C458.829 53.3954 458.509 53.8329 458.289 54.3784C458.073 54.9238 457.965 55.5223 457.965 56.1738C457.965 56.8253 458.073 57.4219 458.289 57.9636C458.509 58.5053 458.829 58.939 459.25 59.2647C459.67 59.5905 460.183 59.7534 460.789 59.7534ZM472.396 57.1625V51.7704H473.407V60.4977H472.396V59.0488H472.316C472.112 59.4958 471.788 59.8689 471.345 60.1681C470.902 60.4636 470.36 60.6113 469.72 60.6113C469.163 60.6113 468.669 60.4901 468.237 60.2477C467.805 60.0015 467.466 59.6416 467.22 59.1681C466.973 58.6947 466.85 58.1132 466.85 57.4238V51.7704H467.862V57.3613C467.862 58.0431 468.062 58.5924 468.464 59.009C468.866 59.4219 469.381 59.6284 470.009 59.6284C470.403 59.6284 470.782 59.5337 471.146 59.3443C471.509 59.1549 471.809 58.8784 472.044 58.5147C472.278 58.1473 472.396 57.6965 472.396 57.1625ZM476.085 60.4977V51.7704H477.068V53.1113H477.142C477.316 52.6719 477.619 52.3178 478.051 52.0488C478.486 51.7761 478.979 51.6397 479.528 51.6397C479.611 51.6397 479.704 51.6416 479.806 51.6454C479.909 51.6492 479.994 51.653 480.062 51.6568V52.6852C480.017 52.6776 479.937 52.6662 479.823 52.6511C479.71 52.6359 479.587 52.6284 479.454 52.6284C479 52.6284 478.594 52.725 478.238 52.9181C477.886 53.1075 477.607 53.3708 477.403 53.7079C477.198 54.045 477.096 54.4295 477.096 54.8613V60.4977H476.085Z" fill="#B1B1B1"/>
<rect x="518" y="36.9977" width="80" height="35" rx="17.5" fill="#D6C8B0"/>
<path d="M533.363 51.7704C533.299 51.1227 533.013 50.6075 532.505 50.225C531.998 49.8424 531.359 49.6511 530.59 49.6511C530.049 49.6511 529.571 49.7439 529.159 49.9295C528.75 50.1151 528.428 50.3727 528.193 50.7022C527.962 51.028 527.846 51.3992 527.846 51.8159C527.846 52.1227 527.912 52.3916 528.045 52.6227C528.178 52.8537 528.356 53.0526 528.579 53.2193C528.806 53.3822 529.056 53.5223 529.329 53.6397C529.606 53.7572 529.884 53.8556 530.164 53.9352L531.392 54.2875C531.763 54.3897 532.134 54.5204 532.505 54.6795C532.876 54.8386 533.215 55.0393 533.522 55.2818C533.833 55.5204 534.081 55.814 534.267 56.1625C534.456 56.5072 534.551 56.9219 534.551 57.4068C534.551 58.028 534.39 58.5867 534.068 59.0829C533.746 59.5791 533.284 59.9731 532.681 60.2647C532.079 60.5526 531.357 60.6965 530.517 60.6965C529.725 60.6965 529.037 60.5659 528.454 60.3045C527.871 60.0393 527.412 59.6738 527.079 59.2079C526.746 58.742 526.558 58.2022 526.517 57.5886H527.607C527.645 58.0469 527.797 58.4352 528.062 58.7534C528.327 59.0715 528.672 59.314 529.096 59.4806C529.52 59.6435 529.994 59.725 530.517 59.725C531.096 59.725 531.611 59.6284 532.062 59.4352C532.517 59.2382 532.873 58.9655 533.13 58.617C533.392 58.2647 533.522 57.8556 533.522 57.3897C533.522 56.9958 533.42 56.6662 533.215 56.4011C533.011 56.1322 532.725 55.9068 532.357 55.725C531.994 55.5431 531.571 55.3822 531.09 55.242L529.698 54.8329C528.785 54.5602 528.077 54.1833 527.573 53.7022C527.07 53.2212 526.818 52.6075 526.818 51.8613C526.818 51.2363 526.984 50.6871 527.318 50.2136C527.655 49.7363 528.109 49.3651 528.681 49.1C529.257 48.831 529.903 48.6965 530.619 48.6965C531.342 48.6965 531.982 48.8291 532.539 49.0943C533.096 49.3594 533.537 49.725 533.863 50.1909C534.193 50.653 534.369 51.1795 534.392 51.7704H533.363ZM540.426 60.6795C539.611 60.6795 538.907 60.4901 538.312 60.1113C537.717 59.7287 537.257 59.2003 536.931 58.5261C536.609 57.8481 536.448 57.0678 536.448 56.1852C536.448 55.3064 536.609 54.5261 536.931 53.8443C537.257 53.1587 537.706 52.6227 538.278 52.2363C538.854 51.8462 539.518 51.6511 540.272 51.6511C540.746 51.6511 541.202 51.7382 541.642 51.9125C542.081 52.0829 542.475 52.3462 542.823 52.7022C543.176 53.0545 543.454 53.4996 543.659 54.0375C543.863 54.5715 543.965 55.2041 543.965 55.9352V56.4352H537.147V55.5431H542.931C542.931 54.9825 542.818 54.4787 542.59 54.0318C542.367 53.581 542.054 53.225 541.653 52.9636C541.255 52.7022 540.795 52.5715 540.272 52.5715C539.719 52.5715 539.232 52.7193 538.812 53.0147C538.392 53.3102 538.062 53.7003 537.823 54.1852C537.589 54.67 537.469 55.2003 537.465 55.7761V56.3102C537.465 57.0034 537.585 57.6094 537.823 58.1284C538.066 58.6435 538.409 59.0431 538.852 59.3272C539.295 59.6113 539.82 59.7534 540.426 59.7534C540.839 59.7534 541.2 59.689 541.511 59.5602C541.825 59.4314 542.089 59.259 542.301 59.0431C542.517 58.8234 542.679 58.5829 542.789 58.3215L543.75 58.634C543.617 59.0015 543.399 59.3405 543.096 59.6511C542.797 59.9617 542.422 60.2117 541.971 60.4011C541.524 60.5867 541.009 60.6795 540.426 60.6795ZM546.194 60.4977V51.7704H547.177V53.1113H547.268C547.442 52.6606 547.732 52.3064 548.137 52.0488C548.546 51.7875 549.037 51.6568 549.609 51.6568C550.211 51.6568 550.705 51.7988 551.092 52.0829C551.482 52.3632 551.774 52.7496 551.967 53.242H552.041C552.238 52.7572 552.558 52.3727 553.001 52.0886C553.448 51.8007 553.99 51.6568 554.626 51.6568C555.437 51.6568 556.077 51.9125 556.546 52.4238C557.016 52.9314 557.251 53.6738 557.251 54.6511V60.4977H556.24V54.6511C556.24 53.9617 556.063 53.4447 555.711 53.1C555.359 52.7553 554.895 52.5829 554.319 52.5829C553.652 52.5829 553.139 52.7875 552.779 53.1965C552.419 53.6056 552.24 54.1246 552.24 54.7534V60.4977H551.205V54.5602C551.205 53.9693 551.041 53.492 550.711 53.1284C550.382 52.7647 549.918 52.5829 549.319 52.5829C548.918 52.5829 548.556 52.6814 548.234 52.8784C547.916 53.0753 547.664 53.35 547.478 53.7022C547.296 54.0507 547.205 54.4522 547.205 54.9068V60.4977H546.194ZM562.366 60.6965C561.839 60.6965 561.358 60.5943 560.923 60.3897C560.487 60.1814 560.141 59.8822 559.883 59.492C559.625 59.0981 559.497 58.6208 559.497 58.0602C559.497 57.6284 559.578 57.2647 559.741 56.9693C559.904 56.6738 560.135 56.4314 560.434 56.242C560.733 56.0526 561.088 55.903 561.497 55.7931C561.906 55.6833 562.357 55.5981 562.849 55.5375C563.338 55.4768 563.75 55.4238 564.088 55.3784C564.428 55.3329 564.688 55.2609 564.866 55.1625C565.044 55.064 565.133 54.9049 565.133 54.6852V54.4806C565.133 53.8859 564.955 53.4181 564.599 53.0772C564.247 52.7325 563.739 52.5602 563.076 52.5602C562.447 52.5602 561.934 52.6984 561.536 52.975C561.143 53.2515 560.866 53.5772 560.707 53.9522L559.747 53.6056C559.944 53.1284 560.216 52.7477 560.565 52.4636C560.913 52.1757 561.303 51.9693 561.735 51.8443C562.167 51.7155 562.605 51.6511 563.048 51.6511C563.381 51.6511 563.728 51.6947 564.088 51.7818C564.451 51.8689 564.788 52.0204 565.099 52.2363C565.41 52.4484 565.661 52.7458 565.855 53.1284C566.048 53.5072 566.144 53.9882 566.144 54.5715V60.4977H565.133V59.117H565.071C564.949 59.3746 564.769 59.6246 564.531 59.867C564.292 60.1094 563.993 60.3083 563.633 60.4636C563.273 60.6189 562.851 60.6965 562.366 60.6965ZM562.502 59.7704C563.04 59.7704 563.506 59.6511 563.9 59.4125C564.294 59.1738 564.597 58.8575 564.809 58.4636C565.025 58.0659 565.133 57.6284 565.133 57.1511V55.8897C565.057 55.9617 564.93 56.0261 564.752 56.0829C564.578 56.1397 564.375 56.1909 564.144 56.2363C563.917 56.278 563.69 56.314 563.463 56.3443C563.235 56.3746 563.031 56.4011 562.849 56.4238C562.357 56.4844 561.936 56.5791 561.588 56.7079C561.239 56.8367 560.972 57.0147 560.786 57.242C560.601 57.4655 560.508 57.7534 560.508 58.1056C560.508 58.6359 560.697 59.0469 561.076 59.3386C561.455 59.6265 561.93 59.7704 562.502 59.7704ZM568.846 60.4977V51.7704H569.863V60.4977H568.846ZM569.363 50.2704C569.155 50.2704 568.977 50.2003 568.829 50.0602C568.681 49.9162 568.607 49.7439 568.607 49.5431C568.607 49.3424 568.681 49.1719 568.829 49.0318C568.977 48.8878 569.155 48.8159 569.363 48.8159C569.571 48.8159 569.75 48.8878 569.897 49.0318C570.045 49.1719 570.119 49.3424 570.119 49.5431C570.119 49.7439 570.045 49.9162 569.897 50.0602C569.75 50.2003 569.571 50.2704 569.363 50.2704ZM573.549 55.0431V60.4977H572.538V51.7704H573.521V53.1397H573.612C573.816 52.6928 574.134 52.3348 574.566 52.0659C575.002 51.7931 575.54 51.6568 576.18 51.6568C576.767 51.6568 577.282 51.7799 577.725 52.0261C578.172 52.2685 578.519 52.6265 578.765 53.1C579.015 53.5734 579.14 54.1549 579.14 54.8443V60.4977H578.129V54.9068C578.129 54.1909 577.928 53.6246 577.527 53.2079C577.129 52.7912 576.595 52.5829 575.924 52.5829C575.466 52.5829 575.059 52.6814 574.703 52.8784C574.347 53.0753 574.064 53.3594 573.856 53.7306C573.652 54.0981 573.549 54.5356 573.549 55.0431ZM585.332 60.6795C584.518 60.6795 583.813 60.4901 583.218 60.1113C582.624 59.7287 582.163 59.2003 581.838 58.5261C581.516 57.8481 581.355 57.0678 581.355 56.1852C581.355 55.3064 581.516 54.5261 581.838 53.8443C582.163 53.1587 582.612 52.6227 583.184 52.2363C583.76 51.8462 584.425 51.6511 585.178 51.6511C585.652 51.6511 586.108 51.7382 586.548 51.9125C586.987 52.0829 587.381 52.3462 587.73 52.7022C588.082 53.0545 588.36 53.4996 588.565 54.0375C588.769 54.5715 588.872 55.2041 588.872 55.9352V56.4352H582.053V55.5431H587.838C587.838 54.9825 587.724 54.4787 587.497 54.0318C587.273 53.581 586.961 53.225 586.559 52.9636C586.161 52.7022 585.701 52.5715 585.178 52.5715C584.625 52.5715 584.139 52.7193 583.718 53.0147C583.298 53.3102 582.968 53.7003 582.73 54.1852C582.495 54.67 582.375 55.2003 582.372 55.7761V56.3102C582.372 57.0034 582.491 57.6094 582.73 58.1284C582.972 58.6435 583.315 59.0431 583.758 59.3272C584.201 59.6113 584.726 59.7534 585.332 59.7534C585.745 59.7534 586.107 59.689 586.417 59.5602C586.732 59.4314 586.995 59.259 587.207 59.0431C587.423 58.8234 587.586 58.5829 587.696 58.3215L588.656 58.634C588.523 59.0015 588.305 59.3405 588.002 59.6511C587.703 59.9617 587.328 60.2117 586.877 60.4011C586.43 60.5867 585.915 60.6795 585.332 60.6795Z" fill="#1C1C1F"/>
<rect x="612.5" y="37.4977" width="79" height="34" rx="17" stroke="#D6C8B0"/>
<path d="M635.545 48.8613H636.772L640.994 58.9977H641.096L645.318 48.8613H646.545V60.4977H645.545V51.1056H645.454L641.528 60.4977H640.562L636.636 51.1056H636.545V60.4977H635.545V48.8613ZM652.821 60.6795C652.067 60.6795 651.4 60.4882 650.821 60.1056C650.245 59.7231 649.794 59.1947 649.468 58.5204C649.143 57.8424 648.98 57.0602 648.98 56.1738C648.98 55.2799 649.143 54.4939 649.468 53.8159C649.794 53.134 650.245 52.6037 650.821 52.225C651.4 51.8424 652.067 51.6511 652.821 51.6511C653.574 51.6511 654.239 51.8424 654.815 52.225C655.391 52.6075 655.841 53.1378 656.167 53.8159C656.497 54.4939 656.661 55.2799 656.661 56.1738C656.661 57.0602 656.499 57.8424 656.173 58.5204C655.847 59.1947 655.394 59.7231 654.815 60.1056C654.239 60.4882 653.574 60.6795 652.821 60.6795ZM652.821 59.7534C653.427 59.7534 653.94 59.5905 654.36 59.2647C654.781 58.939 655.099 58.5053 655.315 57.9636C655.535 57.4219 655.644 56.8253 655.644 56.1738C655.644 55.5223 655.535 54.9238 655.315 54.3784C655.099 53.8329 654.781 53.3954 654.36 53.0659C653.94 52.7363 653.427 52.5715 652.821 52.5715C652.218 52.5715 651.705 52.7363 651.281 53.0659C650.86 53.3954 650.54 53.8329 650.321 54.3784C650.105 54.9238 649.997 55.5223 649.997 56.1738C649.997 56.8253 650.105 57.4219 650.321 57.9636C650.54 58.5053 650.86 58.939 651.281 59.2647C651.701 59.5905 652.214 59.7534 652.821 59.7534ZM658.893 60.4977V51.7704H659.91V60.4977H658.893ZM659.41 50.2704C659.202 50.2704 659.024 50.2003 658.876 50.0602C658.728 49.9162 658.654 49.7439 658.654 49.5431C658.654 49.3424 658.728 49.1719 658.876 49.0318C659.024 48.8878 659.202 48.8159 659.41 48.8159C659.618 48.8159 659.796 48.8878 659.944 49.0318C660.092 49.1719 660.166 49.3424 660.166 49.5431C660.166 49.7439 660.092 49.9162 659.944 50.0602C659.796 50.2003 659.618 50.2704 659.41 50.2704ZM668.448 53.6852L667.522 53.9465C667.431 53.6852 667.303 53.4484 667.136 53.2363C666.969 53.0242 666.751 52.8556 666.482 52.7306C666.217 52.6056 665.888 52.5431 665.494 52.5431C664.903 52.5431 664.418 52.6833 664.039 52.9636C663.66 53.2439 663.471 53.6056 663.471 54.0488C663.471 54.4238 663.6 54.7287 663.857 54.9636C664.119 55.1947 664.52 55.3784 665.062 55.5147L666.38 55.8386C667.111 56.0166 667.659 56.2988 668.022 56.6852C668.39 57.0715 668.573 57.5564 668.573 58.1397C668.573 58.6322 668.437 59.0697 668.164 59.4522C667.892 59.8348 667.511 60.1359 667.022 60.3556C666.537 60.5715 665.975 60.6795 665.335 60.6795C664.482 60.6795 663.78 60.4882 663.227 60.1056C662.674 59.7193 662.32 59.1625 662.164 58.4352L663.136 58.1965C663.261 58.7155 663.505 59.1075 663.869 59.3727C664.236 59.6378 664.719 59.7704 665.318 59.7704C665.988 59.7704 666.524 59.6208 666.926 59.3215C667.327 59.0185 667.528 58.6397 667.528 58.1852C667.528 57.8329 667.41 57.5375 667.176 57.2988C666.941 57.0564 666.585 56.8784 666.107 56.7647L664.681 56.4238C663.924 56.242 663.363 55.9541 663 55.5602C662.636 55.1662 662.454 54.6776 662.454 54.0943C662.454 53.6132 662.585 53.1909 662.846 52.8272C663.107 52.4598 663.467 52.1719 663.926 51.9636C664.384 51.7553 664.907 51.6511 665.494 51.6511C666.293 51.6511 666.931 51.8329 667.409 52.1965C667.89 52.5564 668.236 53.0526 668.448 53.6852Z" fill="#B1B1B1"/>
<path d="M68.8015 429.277V429.995H63.6404V429.277H68.8015ZM63.8865 420.042V429.995H63.0456V420.042H63.8865ZM74.3554 428.286V422.599H75.1757V429.995H74.3896L74.3554 428.286ZM74.5058 426.919L74.9296 426.905C74.9296 427.37 74.8749 427.799 74.7655 428.19C74.6562 428.582 74.4853 428.924 74.2528 429.216C74.0204 429.507 73.7196 429.733 73.3505 429.893C72.9814 430.052 72.537 430.132 72.0175 430.132C71.6575 430.132 71.3271 430.082 71.0263 429.981C70.7301 429.877 70.4748 429.713 70.2607 429.489C70.0465 429.266 69.8801 428.977 69.7616 428.621C69.6477 428.266 69.5907 427.835 69.5907 427.329V422.599H70.4042V427.343C70.4042 427.739 70.4475 428.07 70.5341 428.334C70.6252 428.598 70.7483 428.81 70.9032 428.97C71.0627 429.129 71.245 429.243 71.4501 429.312C71.6552 429.38 71.8762 429.414 72.1132 429.414C72.7148 429.414 73.1887 429.298 73.5351 429.065C73.886 428.833 74.1344 428.528 74.2802 428.149C74.4306 427.767 74.5058 427.356 74.5058 426.919ZM77.8106 424.178V429.995H76.9972V422.599H77.7765L77.8106 424.178ZM77.6261 425.839L77.2638 425.634C77.2911 425.196 77.38 424.786 77.5304 424.403C77.6808 424.021 77.8836 423.683 78.1388 423.392C78.3985 423.1 78.7016 422.872 79.0479 422.708C79.3989 422.544 79.7862 422.462 80.21 422.462C80.5792 422.462 80.9096 422.512 81.2013 422.612C81.4929 422.713 81.7413 422.872 81.9464 423.091C82.1515 423.31 82.3064 423.59 82.4112 423.932C82.5206 424.273 82.5753 424.69 82.5753 425.183V429.995H81.755V425.176C81.755 424.665 81.6843 424.267 81.5431 423.979C81.4018 423.688 81.2013 423.48 80.9415 423.357C80.6817 423.234 80.3741 423.173 80.0186 423.173C79.6267 423.173 79.2826 423.259 78.9864 423.433C78.6947 423.601 78.4487 423.822 78.2481 424.096C78.0522 424.365 77.9018 424.654 77.797 424.964C77.6921 425.269 77.6352 425.561 77.6261 425.839Z" fill="#EDEDED"/>
<path d="M53.9526 149.498H54.0825C54.6294 149.498 55.0988 149.432 55.4907 149.3C55.8872 149.163 56.213 148.967 56.4682 148.712C56.7234 148.457 56.9126 148.145 57.0356 147.775C57.1586 147.402 57.2202 146.978 57.2202 146.504V144.617C57.2202 144.257 57.1837 143.94 57.1108 143.667C57.0424 143.394 56.9422 143.168 56.81 142.99C56.6824 142.808 56.532 142.671 56.3588 142.58C56.1902 142.489 56.0034 142.443 55.7983 142.443C55.5795 142.443 55.3859 142.498 55.2172 142.607C55.0486 142.712 54.9051 142.856 54.7866 143.038C54.6726 143.22 54.5838 143.43 54.52 143.667C54.4607 143.899 54.4311 144.143 54.4311 144.398C54.4311 144.654 54.4607 144.897 54.52 145.13C54.5792 145.358 54.6681 145.561 54.7866 145.738C54.9051 145.911 55.0532 146.05 55.2309 146.155C55.4086 146.256 55.6183 146.306 55.8598 146.306C56.0922 146.306 56.2996 146.262 56.4819 146.176C56.6687 146.085 56.826 145.966 56.9536 145.82C57.0857 145.674 57.186 145.513 57.2544 145.335C57.3273 145.157 57.3637 144.977 57.3637 144.795L58.0131 145.15C58.0131 145.469 57.9448 145.784 57.8081 146.094C57.6713 146.404 57.4799 146.686 57.2338 146.941C56.9923 147.192 56.712 147.393 56.393 147.543C56.074 147.693 55.7322 147.769 55.3676 147.769C54.9028 147.769 54.4904 147.684 54.1303 147.516C53.7703 147.342 53.465 147.105 53.2143 146.805C52.9682 146.499 52.7814 146.144 52.6538 145.738C52.5262 145.333 52.4624 144.893 52.4624 144.419C52.4624 143.936 52.5398 143.482 52.6948 143.059C52.8543 142.635 53.0799 142.261 53.3715 141.938C53.6678 141.614 54.021 141.361 54.4311 141.179C54.8458 140.992 55.3061 140.898 55.812 140.898C56.3178 140.898 56.7781 140.996 57.1928 141.192C57.6075 141.388 57.963 141.666 58.2592 142.026C58.5555 142.382 58.7833 142.808 58.9428 143.305C59.1069 143.801 59.1889 144.353 59.1889 144.959V145.643C59.1889 146.29 59.1183 146.891 58.977 147.447C58.8403 148.003 58.6329 148.507 58.3549 148.958C58.0815 149.405 57.7397 149.787 57.3295 150.106C56.9239 150.425 56.4523 150.669 55.9145 150.838C55.3767 151.007 54.7752 151.091 54.1098 151.091H53.9526V149.498ZM61.6735 149.498H61.8034C62.3502 149.498 62.8196 149.432 63.2116 149.3C63.608 149.163 63.9339 148.967 64.1891 148.712C64.4443 148.457 64.6334 148.145 64.7565 147.775C64.8795 147.402 64.9411 146.978 64.9411 146.504V144.617C64.9411 144.257 64.9046 143.94 64.8317 143.667C64.7633 143.394 64.6631 143.168 64.5309 142.99C64.4033 142.808 64.2529 142.671 64.0797 142.58C63.9111 142.489 63.7243 142.443 63.5192 142.443C63.3004 142.443 63.1067 142.498 62.9381 142.607C62.7695 142.712 62.6259 142.856 62.5075 143.038C62.3935 143.22 62.3047 143.43 62.2409 143.667C62.1816 143.899 62.152 144.143 62.152 144.398C62.152 144.654 62.1816 144.897 62.2409 145.13C62.3001 145.358 62.389 145.561 62.5075 145.738C62.6259 145.911 62.7741 146.05 62.9518 146.155C63.1295 146.256 63.3392 146.306 63.5807 146.306C63.8131 146.306 64.0205 146.262 64.2028 146.176C64.3896 146.085 64.5468 145.966 64.6744 145.82C64.8066 145.674 64.9069 145.513 64.9752 145.335C65.0481 145.157 65.0846 144.977 65.0846 144.795L65.734 145.15C65.734 145.469 65.6657 145.784 65.5289 146.094C65.3922 146.404 65.2008 146.686 64.9547 146.941C64.7132 147.192 64.4329 147.393 64.1139 147.543C63.7949 147.693 63.4531 147.769 63.0885 147.769C62.6237 147.769 62.2112 147.684 61.8512 147.516C61.4912 147.342 61.1858 147.105 60.9352 146.805C60.6891 146.499 60.5022 146.144 60.3746 145.738C60.247 145.333 60.1832 144.893 60.1832 144.419C60.1832 143.936 60.2607 143.482 60.4157 143.059C60.5752 142.635 60.8008 142.261 61.0924 141.938C61.3886 141.614 61.7418 141.361 62.152 141.179C62.5667 140.992 63.027 140.898 63.5328 140.898C64.0387 140.898 64.499 140.996 64.9137 141.192C65.3284 141.388 65.6839 141.666 65.9801 142.026C66.2763 142.382 66.5042 142.808 66.6637 143.305C66.8278 143.801 66.9098 144.353 66.9098 144.959V145.643C66.9098 146.29 66.8392 146.891 66.6979 147.447C66.5612 148.003 66.3538 148.507 66.0758 148.958C65.8024 149.405 65.4606 149.787 65.0504 150.106C64.6448 150.425 64.1731 150.669 63.6354 150.838C63.0976 151.007 62.4961 151.091 61.8307 151.091H61.6735V149.498ZM73.2188 145.13V150.995H71.2432V143.599H73.0957L73.2188 145.13ZM72.9453 147.037H72.3984C72.3984 146.522 72.46 146.048 72.583 145.615C72.7106 145.178 72.8952 144.799 73.1367 144.48C73.3828 144.157 73.6859 143.906 74.0459 143.729C74.4059 143.551 74.8229 143.462 75.2969 143.462C75.625 143.462 75.9258 143.512 76.1992 143.612C76.4727 143.708 76.7074 143.861 76.9033 144.07C77.1038 144.275 77.2588 144.544 77.3682 144.877C77.4775 145.205 77.5322 145.599 77.5322 146.06V150.995H75.5635V146.278C75.5635 145.941 75.5179 145.681 75.4268 145.499C75.3356 145.317 75.2057 145.189 75.0371 145.116C74.873 145.043 74.6748 145.007 74.4424 145.007C74.1872 145.007 73.9639 145.059 73.7725 145.164C73.5856 145.269 73.4307 145.415 73.3076 145.602C73.1846 145.784 73.0934 145.998 73.0342 146.244C72.9749 146.49 72.9453 146.755 72.9453 147.037ZM77.3477 146.812L76.6436 146.9C76.6436 146.417 76.7028 145.968 76.8213 145.554C76.9443 145.139 77.1243 144.774 77.3613 144.46C77.6029 144.146 77.9014 143.902 78.2568 143.729C78.6123 143.551 79.0225 143.462 79.4873 143.462C79.8428 143.462 80.1663 143.514 80.458 143.619C80.7497 143.719 80.998 143.881 81.2031 144.104C81.4128 144.323 81.5723 144.61 81.6816 144.966C81.7956 145.321 81.8525 145.757 81.8525 146.271V150.995H79.877V146.271C79.877 145.93 79.8314 145.67 79.7402 145.492C79.6536 145.31 79.526 145.185 79.3574 145.116C79.1934 145.043 78.9974 145.007 78.7695 145.007C78.5326 145.007 78.3252 145.055 78.1475 145.15C77.9697 145.242 77.8216 145.369 77.7031 145.533C77.5846 145.697 77.4958 145.889 77.4365 146.107C77.3773 146.322 77.3477 146.556 77.3477 146.812ZM85.1369 143.599V150.995H83.1613V143.599H85.1369ZM83.0383 141.671C83.0383 141.384 83.1385 141.147 83.339 140.96C83.5396 140.773 83.8084 140.68 84.1457 140.68C84.4784 140.68 84.745 140.773 84.9455 140.96C85.1506 141.147 85.2531 141.384 85.2531 141.671C85.2531 141.958 85.1506 142.195 84.9455 142.382C84.745 142.569 84.4784 142.662 84.1457 142.662C83.8084 142.662 83.5396 142.569 83.339 142.382C83.1385 142.195 83.0383 141.958 83.0383 141.671ZM88.3734 145.178V150.995H86.4047V143.599H88.2504L88.3734 145.178ZM88.0863 147.037H87.5531C87.5531 146.49 87.6237 145.998 87.765 145.561C87.9063 145.118 88.1045 144.743 88.3597 144.433C88.6149 144.118 88.918 143.879 89.2689 143.715C89.6244 143.546 90.0209 143.462 90.4584 143.462C90.8047 143.462 91.1215 143.512 91.4086 143.612C91.6957 143.713 91.9418 143.872 92.1468 144.091C92.3565 144.31 92.516 144.599 92.6254 144.959C92.7393 145.319 92.7963 145.759 92.7963 146.278V150.995H90.8138V146.271C90.8138 145.943 90.7683 145.688 90.6771 145.506C90.586 145.324 90.4515 145.196 90.2738 145.123C90.1006 145.046 89.8864 145.007 89.6312 145.007C89.3669 145.007 89.1368 145.059 88.9408 145.164C88.7494 145.269 88.5899 145.415 88.4623 145.602C88.3392 145.784 88.2458 145.998 88.182 146.244C88.1182 146.49 88.0863 146.755 88.0863 147.037Z" fill="#EDEDED"/>
<rect x="67.542" y="173.995" width="10" height="220" rx="5" fill="#D6C8B0"/>
<path d="M159.376 420.042H160.223L163.901 428.806L167.586 420.042H168.426L164.222 429.995H163.58L159.376 420.042ZM159.116 420.042H159.861L159.95 425.647V429.995H159.116V420.042ZM167.955 420.042H168.7V429.995H167.859V425.647L167.955 420.042ZM175.218 428.669V424.854C175.218 424.504 175.145 424.201 174.999 423.945C174.853 423.69 174.639 423.494 174.356 423.357C174.074 423.221 173.725 423.152 173.31 423.152C172.928 423.152 172.586 423.221 172.285 423.357C171.989 423.49 171.754 423.67 171.581 423.897C171.412 424.121 171.328 424.369 171.328 424.643L170.508 424.636C170.508 424.358 170.576 424.089 170.713 423.829C170.85 423.569 171.043 423.337 171.294 423.132C171.545 422.927 171.843 422.765 172.189 422.646C172.54 422.523 172.925 422.462 173.345 422.462C173.873 422.462 174.338 422.551 174.739 422.729C175.145 422.906 175.461 423.173 175.689 423.528C175.917 423.884 176.031 424.33 176.031 424.868V428.443C176.031 428.699 176.049 428.963 176.086 429.236C176.127 429.51 176.184 429.735 176.257 429.913V429.995H175.389C175.334 429.831 175.291 429.626 175.259 429.38C175.231 429.129 175.218 428.892 175.218 428.669ZM175.409 425.688L175.423 426.317H173.816C173.397 426.317 173.021 426.356 172.688 426.434C172.36 426.507 172.082 426.616 171.854 426.762C171.627 426.903 171.451 427.074 171.328 427.274C171.21 427.475 171.15 427.703 171.15 427.958C171.15 428.222 171.216 428.464 171.349 428.683C171.485 428.901 171.677 429.077 171.923 429.209C172.173 429.337 172.47 429.4 172.811 429.4C173.267 429.4 173.668 429.316 174.015 429.147C174.365 428.979 174.655 428.758 174.883 428.484C175.111 428.211 175.263 427.912 175.341 427.589L175.696 428.061C175.637 428.288 175.528 428.523 175.368 428.765C175.213 429.002 175.01 429.225 174.76 429.435C174.509 429.64 174.213 429.808 173.871 429.94C173.534 430.068 173.151 430.132 172.723 430.132C172.239 430.132 171.818 430.041 171.458 429.858C171.102 429.676 170.824 429.428 170.624 429.113C170.428 428.794 170.33 428.434 170.33 428.033C170.33 427.669 170.407 427.343 170.562 427.056C170.717 426.764 170.941 426.518 171.232 426.317C171.529 426.112 171.884 425.957 172.299 425.853C172.718 425.743 173.187 425.688 173.707 425.688H175.409ZM178.721 423.822V429.995H177.907V422.599H178.7L178.721 423.822ZM181.339 422.544L181.318 423.296C181.227 423.282 181.138 423.271 181.052 423.262C180.965 423.253 180.872 423.248 180.772 423.248C180.416 423.248 180.104 423.314 179.835 423.446C179.571 423.574 179.347 423.754 179.165 423.986C178.983 424.214 178.844 424.483 178.748 424.793C178.652 425.098 178.598 425.426 178.584 425.777L178.283 425.894C178.283 425.41 178.333 424.962 178.434 424.547C178.534 424.132 178.687 423.77 178.892 423.46C179.101 423.146 179.363 422.902 179.678 422.729C179.997 422.551 180.371 422.462 180.799 422.462C180.904 422.462 181.006 422.471 181.107 422.489C181.211 422.503 181.289 422.521 181.339 422.544Z" fill="#EDEDED"/>
<path d="M156.264 183.268C156.264 183.892 156.118 184.418 155.827 184.847C155.535 185.271 155.134 185.592 154.623 185.811C154.118 186.025 153.543 186.132 152.901 186.132C152.258 186.132 151.682 186.025 151.171 185.811C150.661 185.592 150.258 185.271 149.961 184.847C149.665 184.418 149.517 183.892 149.517 183.268C149.517 182.848 149.601 182.47 149.77 182.133C149.939 181.791 150.173 181.499 150.474 181.258C150.779 181.012 151.137 180.825 151.547 180.697C151.957 180.565 152.404 180.499 152.887 180.499C153.534 180.499 154.113 180.613 154.623 180.841C155.134 181.069 155.535 181.39 155.827 181.805C156.118 182.219 156.264 182.707 156.264 183.268ZM154.282 183.138C154.282 182.832 154.222 182.57 154.104 182.352C153.99 182.128 153.828 181.957 153.619 181.839C153.409 181.72 153.165 181.661 152.887 181.661C152.609 181.661 152.365 181.72 152.156 181.839C151.946 181.957 151.782 182.128 151.664 182.352C151.55 182.57 151.493 182.832 151.493 183.138C151.493 183.438 151.55 183.698 151.664 183.917C151.782 184.136 151.946 184.304 152.156 184.423C152.37 184.537 152.618 184.594 152.901 184.594C153.183 184.594 153.427 184.537 153.632 184.423C153.842 184.304 154.001 184.136 154.111 183.917C154.225 183.698 154.282 183.438 154.282 183.138ZM156.052 178.681C156.052 179.187 155.918 179.635 155.649 180.027C155.38 180.415 155.006 180.718 154.528 180.937C154.054 181.155 153.512 181.265 152.901 181.265C152.286 181.265 151.739 181.155 151.26 180.937C150.782 180.718 150.408 180.415 150.139 180.027C149.87 179.635 149.736 179.187 149.736 178.681C149.736 178.079 149.87 177.573 150.139 177.163C150.413 176.748 150.786 176.434 151.26 176.22C151.739 176.006 152.281 175.898 152.887 175.898C153.502 175.898 154.047 176.006 154.521 176.22C154.999 176.434 155.373 176.748 155.642 177.163C155.915 177.573 156.052 178.079 156.052 178.681ZM154.083 178.77C154.083 178.501 154.036 178.268 153.94 178.072C153.844 177.872 153.707 177.717 153.53 177.607C153.357 177.498 153.142 177.443 152.887 177.443C152.641 177.443 152.429 177.496 152.251 177.601C152.078 177.705 151.944 177.858 151.848 178.059C151.757 178.255 151.711 178.492 151.711 178.77C151.711 179.038 151.757 179.275 151.848 179.48C151.944 179.681 152.081 179.838 152.258 179.952C152.436 180.066 152.65 180.123 152.901 180.123C153.151 180.123 153.363 180.066 153.537 179.952C153.714 179.838 153.849 179.681 153.94 179.48C154.036 179.275 154.083 179.038 154.083 178.77ZM164.252 182.276V183.821H157.081L156.985 182.625L161.134 176.042H162.7L161.005 178.879L158.94 182.276H164.252ZM163.124 176.042V185.995H161.155V176.042H163.124ZM170.219 180.13V185.995H168.243V178.599H170.096L170.219 180.13ZM169.945 182.037H169.398C169.398 181.522 169.46 181.048 169.583 180.615C169.711 180.178 169.895 179.799 170.137 179.48C170.383 179.157 170.686 178.906 171.046 178.729C171.406 178.551 171.823 178.462 172.297 178.462C172.625 178.462 172.926 178.512 173.199 178.612C173.473 178.708 173.707 178.861 173.903 179.07C174.104 179.275 174.259 179.544 174.368 179.877C174.478 180.205 174.532 180.599 174.532 181.06V185.995H172.563V181.278C172.563 180.941 172.518 180.681 172.427 180.499C172.336 180.317 172.206 180.189 172.037 180.116C171.873 180.043 171.675 180.007 171.442 180.007C171.187 180.007 170.964 180.059 170.772 180.164C170.586 180.269 170.431 180.415 170.308 180.602C170.185 180.784 170.093 180.998 170.034 181.244C169.975 181.49 169.945 181.755 169.945 182.037ZM174.348 181.812L173.644 181.9C173.644 181.417 173.703 180.968 173.821 180.554C173.944 180.139 174.124 179.774 174.361 179.46C174.603 179.146 174.901 178.902 175.257 178.729C175.612 178.551 176.022 178.462 176.487 178.462C176.843 178.462 177.166 178.514 177.458 178.619C177.75 178.719 177.998 178.881 178.203 179.104C178.413 179.323 178.572 179.61 178.682 179.966C178.796 180.321 178.853 180.757 178.853 181.271V185.995H176.877V181.271C176.877 180.93 176.831 180.67 176.74 180.492C176.654 180.31 176.526 180.185 176.357 180.116C176.193 180.043 175.997 180.007 175.77 180.007C175.533 180.007 175.325 180.055 175.147 180.15C174.97 180.242 174.822 180.369 174.703 180.533C174.585 180.697 174.496 180.889 174.437 181.107C174.377 181.322 174.348 181.556 174.348 181.812ZM182.137 178.599V185.995H180.161V178.599H182.137ZM180.038 176.671C180.038 176.384 180.139 176.147 180.339 175.96C180.54 175.773 180.808 175.68 181.146 175.68C181.478 175.68 181.745 175.773 181.945 175.96C182.151 176.147 182.253 176.384 182.253 176.671C182.253 176.958 182.151 177.195 181.945 177.382C181.745 177.569 181.478 177.662 181.146 177.662C180.808 177.662 180.54 177.569 180.339 177.382C180.139 177.195 180.038 176.958 180.038 176.671ZM185.373 180.178V185.995H183.405V178.599H185.25L185.373 180.178ZM185.086 182.037H184.553C184.553 181.49 184.624 180.998 184.765 180.561C184.906 180.118 185.105 179.743 185.36 179.433C185.615 179.118 185.918 178.879 186.269 178.715C186.624 178.546 187.021 178.462 187.458 178.462C187.805 178.462 188.121 178.512 188.409 178.612C188.696 178.713 188.942 178.872 189.147 179.091C189.356 179.31 189.516 179.599 189.625 179.959C189.739 180.319 189.796 180.759 189.796 181.278V185.995H187.814V181.271C187.814 180.943 187.768 180.688 187.677 180.506C187.586 180.324 187.452 180.196 187.274 180.123C187.101 180.046 186.886 180.007 186.631 180.007C186.367 180.007 186.137 180.059 185.941 180.164C185.749 180.269 185.59 180.415 185.462 180.602C185.339 180.784 185.246 180.998 185.182 181.244C185.118 181.49 185.086 181.755 185.086 182.037Z" fill="#EDEDED"/>
<rect x="164.542" y="208.995" width="10" height="185" rx="5" fill="#B1B1B1"/>
<path d="M257.506 420.042H258.353L262.031 428.806L265.716 420.042H266.556L262.352 429.995H261.71L257.506 420.042ZM257.246 420.042H257.991L258.08 425.647V429.995H257.246V420.042ZM266.085 420.042H266.83V429.995H265.989V425.647L266.085 420.042ZM271.707 430.132C271.224 430.132 270.78 430.043 270.374 429.865C269.973 429.688 269.622 429.437 269.321 429.113C269.025 428.79 268.795 428.407 268.631 427.965C268.471 427.518 268.392 427.031 268.392 426.502V426.208C268.392 425.638 268.476 425.123 268.644 424.663C268.813 424.203 269.045 423.809 269.342 423.48C269.638 423.152 269.975 422.902 270.353 422.729C270.736 422.551 271.137 422.462 271.557 422.462C272.026 422.462 272.443 422.546 272.808 422.715C273.172 422.879 273.477 423.114 273.724 423.419C273.974 423.72 274.163 424.077 274.291 424.492C274.419 424.902 274.482 425.356 274.482 425.853V426.352H268.884V425.654H273.669V425.559C273.66 425.144 273.575 424.757 273.416 424.396C273.261 424.032 273.029 423.736 272.719 423.508C272.409 423.28 272.021 423.166 271.557 423.166C271.21 423.166 270.891 423.239 270.6 423.385C270.312 423.531 270.064 423.74 269.854 424.014C269.649 424.283 269.49 424.604 269.376 424.978C269.267 425.347 269.212 425.757 269.212 426.208V426.502C269.212 426.912 269.271 427.295 269.39 427.65C269.513 428.001 269.686 428.311 269.909 428.58C270.137 428.849 270.406 429.059 270.716 429.209C271.026 429.359 271.367 429.435 271.741 429.435C272.179 429.435 272.566 429.355 272.903 429.195C273.24 429.031 273.544 428.774 273.812 428.423L274.325 428.819C274.166 429.056 273.965 429.275 273.724 429.476C273.487 429.676 273.202 429.836 272.869 429.954C272.536 430.073 272.149 430.132 271.707 430.132ZM276.591 423.822V429.995H275.777V422.599H276.57L276.591 423.822ZM279.209 422.544L279.189 423.296C279.097 423.282 279.009 423.271 278.922 423.262C278.835 423.253 278.742 423.248 278.642 423.248C278.286 423.248 277.974 423.314 277.705 423.446C277.441 423.574 277.218 423.754 277.035 423.986C276.853 424.214 276.714 424.483 276.618 424.793C276.523 425.098 276.468 425.426 276.454 425.777L276.153 425.894C276.153 425.41 276.204 424.962 276.304 424.547C276.404 424.132 276.557 423.77 276.762 423.46C276.971 423.146 277.233 422.902 277.548 422.729C277.867 422.551 278.241 422.462 278.669 422.462C278.774 422.462 278.876 422.471 278.977 422.489C279.081 422.503 279.159 422.521 279.209 422.544Z" fill="#EDEDED"/>
<path d="M249.411 241.463L247.838 241.087L248.406 236.042H253.998V237.635H250.026L249.78 239.843C249.912 239.765 250.112 239.683 250.381 239.597C250.65 239.506 250.951 239.46 251.284 239.46C251.767 239.46 252.195 239.535 252.569 239.686C252.943 239.836 253.259 240.055 253.519 240.342C253.783 240.629 253.984 240.98 254.121 241.395C254.257 241.809 254.326 242.279 254.326 242.803C254.326 243.245 254.257 243.666 254.121 244.067C253.984 244.464 253.776 244.819 253.498 245.134C253.22 245.444 252.872 245.688 252.453 245.865C252.033 246.043 251.537 246.132 250.962 246.132C250.534 246.132 250.119 246.068 249.718 245.94C249.322 245.813 248.964 245.624 248.645 245.373C248.331 245.122 248.078 244.819 247.886 244.464C247.699 244.104 247.601 243.694 247.592 243.233H249.547C249.575 243.516 249.648 243.76 249.766 243.965C249.889 244.165 250.051 244.32 250.251 244.43C250.452 244.539 250.687 244.594 250.956 244.594C251.206 244.594 251.42 244.546 251.598 244.45C251.776 244.354 251.919 244.222 252.029 244.054C252.138 243.881 252.218 243.68 252.268 243.452C252.323 243.22 252.35 242.969 252.35 242.7C252.35 242.431 252.318 242.188 252.254 241.969C252.191 241.75 252.093 241.561 251.96 241.401C251.828 241.242 251.66 241.119 251.455 241.032C251.254 240.946 251.019 240.902 250.75 240.902C250.386 240.902 250.103 240.959 249.903 241.073C249.707 241.187 249.543 241.317 249.411 241.463ZM260.358 235.939H260.645V237.512H260.529C260.009 237.512 259.547 237.589 259.141 237.744C258.736 237.899 258.392 238.12 258.109 238.407C257.831 238.69 257.617 239.032 257.466 239.433C257.321 239.834 257.248 240.283 257.248 240.779V242.434C257.248 242.789 257.282 243.104 257.35 243.377C257.423 243.646 257.526 243.871 257.658 244.054C257.795 244.231 257.954 244.366 258.136 244.457C258.319 244.544 258.524 244.587 258.752 244.587C258.966 244.587 259.159 244.541 259.333 244.45C259.51 244.359 259.661 244.231 259.784 244.067C259.911 243.899 260.007 243.703 260.071 243.479C260.139 243.252 260.173 243.003 260.173 242.734C260.173 242.465 260.139 242.217 260.071 241.989C260.007 241.761 259.911 241.565 259.784 241.401C259.656 241.233 259.501 241.103 259.319 241.012C259.137 240.921 258.932 240.875 258.704 240.875C258.394 240.875 258.12 240.948 257.883 241.094C257.651 241.235 257.469 241.417 257.337 241.641C257.204 241.864 257.134 242.099 257.125 242.345L256.53 241.962C256.544 241.611 256.617 241.278 256.749 240.964C256.885 240.649 257.072 240.371 257.309 240.13C257.551 239.884 257.84 239.692 258.177 239.556C258.515 239.414 258.895 239.344 259.319 239.344C259.784 239.344 260.192 239.433 260.543 239.61C260.898 239.788 261.194 240.032 261.431 240.342C261.668 240.652 261.846 241.009 261.964 241.415C262.083 241.821 262.142 242.254 262.142 242.714C262.142 243.197 262.062 243.646 261.903 244.061C261.748 244.475 261.522 244.838 261.226 245.147C260.935 245.457 260.584 245.699 260.173 245.872C259.763 246.045 259.303 246.132 258.793 246.132C258.264 246.132 257.783 246.036 257.35 245.845C256.922 245.649 256.553 245.375 256.243 245.024C255.933 244.674 255.694 244.257 255.525 243.773C255.361 243.29 255.279 242.762 255.279 242.188V241.422C255.279 240.62 255.395 239.886 255.628 239.221C255.865 238.551 256.204 237.972 256.646 237.484C257.088 236.992 257.621 236.612 258.246 236.343C258.87 236.074 259.574 235.939 260.358 235.939ZM268.219 240.13V245.995H266.243V238.599H268.096L268.219 240.13ZM267.945 242.037H267.398C267.398 241.522 267.46 241.048 267.583 240.615C267.711 240.178 267.895 239.799 268.137 239.48C268.383 239.157 268.686 238.906 269.046 238.729C269.406 238.551 269.823 238.462 270.297 238.462C270.625 238.462 270.926 238.512 271.199 238.612C271.473 238.708 271.707 238.861 271.903 239.07C272.104 239.275 272.259 239.544 272.368 239.877C272.478 240.205 272.532 240.599 272.532 241.06V245.995H270.563V241.278C270.563 240.941 270.518 240.681 270.427 240.499C270.336 240.317 270.206 240.189 270.037 240.116C269.873 240.043 269.675 240.007 269.442 240.007C269.187 240.007 268.964 240.059 268.772 240.164C268.586 240.269 268.431 240.415 268.308 240.602C268.185 240.784 268.093 240.998 268.034 241.244C267.975 241.49 267.945 241.755 267.945 242.037ZM272.348 241.812L271.644 241.9C271.644 241.417 271.703 240.968 271.821 240.554C271.944 240.139 272.124 239.774 272.361 239.46C272.603 239.146 272.901 238.902 273.257 238.729C273.612 238.551 274.022 238.462 274.487 238.462C274.843 238.462 275.166 238.514 275.458 238.619C275.75 238.719 275.998 238.881 276.203 239.104C276.413 239.323 276.572 239.61 276.682 239.966C276.796 240.321 276.853 240.757 276.853 241.271V245.995H274.877V241.271C274.877 240.93 274.831 240.67 274.74 240.492C274.654 240.31 274.526 240.185 274.357 240.116C274.193 240.043 273.997 240.007 273.77 240.007C273.533 240.007 273.325 240.055 273.147 240.15C272.97 240.242 272.822 240.369 272.703 240.533C272.585 240.697 272.496 240.889 272.437 241.107C272.377 241.322 272.348 241.556 272.348 241.812ZM280.137 238.599V245.995H278.161V238.599H280.137ZM278.038 236.671C278.038 236.384 278.139 236.147 278.339 235.96C278.54 235.773 278.808 235.68 279.146 235.68C279.478 235.68 279.745 235.773 279.945 235.96C280.151 236.147 280.253 236.384 280.253 236.671C280.253 236.958 280.151 237.195 279.945 237.382C279.745 237.569 279.478 237.662 279.146 237.662C278.808 237.662 278.54 237.569 278.339 237.382C278.139 237.195 278.038 236.958 278.038 236.671ZM283.373 240.178V245.995H281.405V238.599H283.25L283.373 240.178ZM283.086 242.037H282.553C282.553 241.49 282.624 240.998 282.765 240.561C282.906 240.118 283.105 239.743 283.36 239.433C283.615 239.118 283.918 238.879 284.269 238.715C284.624 238.546 285.021 238.462 285.458 238.462C285.805 238.462 286.121 238.512 286.409 238.612C286.696 238.713 286.942 238.872 287.147 239.091C287.356 239.31 287.516 239.599 287.625 239.959C287.739 240.319 287.796 240.759 287.796 241.278V245.995H285.814V241.271C285.814 240.943 285.768 240.688 285.677 240.506C285.586 240.324 285.452 240.196 285.274 240.123C285.101 240.046 284.886 240.007 284.631 240.007C284.367 240.007 284.137 240.059 283.941 240.164C283.749 240.269 283.59 240.415 283.462 240.602C283.339 240.784 283.246 240.998 283.182 241.244C283.118 241.49 283.086 241.755 283.086 242.037Z" fill="#EDEDED"/>
<rect x="261.542" y="268.995" width="10" height="125" rx="5" fill="#B1B1B1"/>
<path d="M359.352 427.028V420.042H360.193V427.028C360.193 427.698 360.061 428.263 359.797 428.724C359.537 429.184 359.181 429.535 358.73 429.776C358.279 430.013 357.764 430.132 357.185 430.132C356.593 430.132 356.069 430.027 355.613 429.817C355.162 429.608 354.811 429.291 354.56 428.867C354.31 428.439 354.184 427.899 354.184 427.247H355.025C355.025 427.726 355.109 428.127 355.278 428.45C355.451 428.769 355.7 429.011 356.023 429.175C356.347 429.334 356.734 429.414 357.185 429.414C357.591 429.414 357.955 429.325 358.279 429.147C358.607 428.965 358.867 428.699 359.058 428.348C359.254 427.992 359.352 427.552 359.352 427.028ZM365.016 430.132C364.532 430.132 364.088 430.043 363.683 429.865C363.281 429.688 362.931 429.437 362.63 429.113C362.334 428.79 362.103 428.407 361.939 427.965C361.78 427.518 361.7 427.031 361.7 426.502V426.208C361.7 425.638 361.784 425.123 361.953 424.663C362.122 424.203 362.354 423.809 362.65 423.48C362.947 423.152 363.284 422.902 363.662 422.729C364.045 422.551 364.446 422.462 364.865 422.462C365.335 422.462 365.752 422.546 366.116 422.715C366.481 422.879 366.786 423.114 367.032 423.419C367.283 423.72 367.472 424.077 367.6 424.492C367.727 424.902 367.791 425.356 367.791 425.853V426.352H362.192V425.654H366.977V425.559C366.968 425.144 366.884 424.757 366.725 424.396C366.57 424.032 366.337 423.736 366.027 423.508C365.717 423.28 365.33 423.166 364.865 423.166C364.519 423.166 364.2 423.239 363.908 423.385C363.621 423.531 363.373 423.74 363.163 424.014C362.958 424.283 362.798 424.604 362.684 424.978C362.575 425.347 362.52 425.757 362.52 426.208V426.502C362.52 426.912 362.58 427.295 362.698 427.65C362.821 428.001 362.994 428.311 363.218 428.58C363.446 428.849 363.714 429.059 364.024 429.209C364.334 429.359 364.676 429.435 365.05 429.435C365.487 429.435 365.875 429.355 366.212 429.195C366.549 429.031 366.852 428.774 367.121 428.423L367.634 428.819C367.474 429.056 367.274 429.275 367.032 429.476C366.795 429.676 366.51 429.836 366.178 429.954C365.845 430.073 365.458 430.132 365.016 430.132ZM373.823 428.286V422.599H374.644V429.995H373.858L373.823 428.286ZM373.974 426.919L374.398 426.905C374.398 427.37 374.343 427.799 374.233 428.19C374.124 428.582 373.953 428.924 373.721 429.216C373.488 429.507 373.188 429.733 372.818 429.893C372.449 430.052 372.005 430.132 371.485 430.132C371.125 430.132 370.795 430.082 370.494 429.981C370.198 429.877 369.943 429.713 369.729 429.489C369.514 429.266 369.348 428.977 369.23 428.621C369.116 428.266 369.059 427.835 369.059 427.329V422.599H369.872V427.343C369.872 427.739 369.915 428.07 370.002 428.334C370.093 428.598 370.216 428.81 370.371 428.97C370.531 429.129 370.713 429.243 370.918 429.312C371.123 429.38 371.344 429.414 371.581 429.414C372.183 429.414 372.657 429.298 373.003 429.065C373.354 428.833 373.602 428.528 373.748 428.149C373.899 427.767 373.974 427.356 373.974 426.919Z" fill="#EDEDED"/>
<path d="M351.319 188.042V189.102L347.47 197.995H345.392L349.241 189.58H344.285V188.042H351.319ZM353.673 196.498H353.803C354.35 196.498 354.82 196.432 355.212 196.3C355.608 196.163 355.934 195.967 356.189 195.712C356.444 195.457 356.633 195.145 356.756 194.775C356.88 194.402 356.941 193.978 356.941 193.504V191.617C356.941 191.257 356.905 190.94 356.832 190.667C356.763 190.394 356.663 190.168 356.531 189.99C356.403 189.808 356.253 189.671 356.08 189.58C355.911 189.489 355.724 189.443 355.519 189.443C355.3 189.443 355.107 189.498 354.938 189.607C354.77 189.712 354.626 189.856 354.507 190.038C354.394 190.22 354.305 190.43 354.241 190.667C354.182 190.899 354.152 191.143 354.152 191.398C354.152 191.654 354.182 191.897 354.241 192.13C354.3 192.358 354.389 192.561 354.507 192.738C354.626 192.911 354.774 193.05 354.952 193.155C355.13 193.256 355.339 193.306 355.581 193.306C355.813 193.306 356.02 193.262 356.203 193.176C356.39 193.085 356.547 192.966 356.674 192.82C356.807 192.674 356.907 192.513 356.975 192.335C357.048 192.157 357.085 191.977 357.085 191.795L357.734 192.15C357.734 192.469 357.666 192.784 357.529 193.094C357.392 193.404 357.201 193.686 356.955 193.941C356.713 194.192 356.433 194.393 356.114 194.543C355.795 194.693 355.453 194.769 355.089 194.769C354.624 194.769 354.211 194.684 353.851 194.516C353.491 194.342 353.186 194.105 352.935 193.805C352.689 193.499 352.502 193.144 352.375 192.738C352.247 192.333 352.183 191.893 352.183 191.419C352.183 190.936 352.261 190.482 352.416 190.059C352.575 189.635 352.801 189.261 353.092 188.938C353.389 188.614 353.742 188.361 354.152 188.179C354.567 187.992 355.027 187.898 355.533 187.898C356.039 187.898 356.499 187.996 356.914 188.192C357.328 188.388 357.684 188.666 357.98 189.026C358.276 189.382 358.504 189.808 358.664 190.305C358.828 190.801 358.91 191.353 358.91 191.959V192.643C358.91 193.29 358.839 193.891 358.698 194.447C358.561 195.003 358.354 195.507 358.076 195.958C357.802 196.405 357.461 196.787 357.05 197.106C356.645 197.425 356.173 197.669 355.635 197.838C355.098 198.007 354.496 198.091 353.831 198.091H353.673V196.498ZM365.219 192.13V197.995H363.243V190.599H365.096L365.219 192.13ZM364.945 194.037H364.398C364.398 193.522 364.46 193.048 364.583 192.615C364.711 192.178 364.895 191.799 365.137 191.48C365.383 191.157 365.686 190.906 366.046 190.729C366.406 190.551 366.823 190.462 367.297 190.462C367.625 190.462 367.926 190.512 368.199 190.612C368.473 190.708 368.707 190.861 368.903 191.07C369.104 191.275 369.259 191.544 369.368 191.877C369.478 192.205 369.532 192.599 369.532 193.06V197.995H367.563V193.278C367.563 192.941 367.518 192.681 367.427 192.499C367.336 192.317 367.206 192.189 367.037 192.116C366.873 192.043 366.675 192.007 366.442 192.007C366.187 192.007 365.964 192.059 365.772 192.164C365.586 192.269 365.431 192.415 365.308 192.602C365.185 192.784 365.093 192.998 365.034 193.244C364.975 193.49 364.945 193.755 364.945 194.037ZM369.348 193.812L368.644 193.9C368.644 193.417 368.703 192.968 368.821 192.554C368.944 192.139 369.124 191.774 369.361 191.46C369.603 191.146 369.901 190.902 370.257 190.729C370.612 190.551 371.022 190.462 371.487 190.462C371.843 190.462 372.166 190.514 372.458 190.619C372.75 190.719 372.998 190.881 373.203 191.104C373.413 191.323 373.572 191.61 373.682 191.966C373.796 192.321 373.853 192.757 373.853 193.271V197.995H371.877V193.271C371.877 192.93 371.831 192.67 371.74 192.492C371.654 192.31 371.526 192.185 371.357 192.116C371.193 192.043 370.997 192.007 370.77 192.007C370.533 192.007 370.325 192.055 370.147 192.15C369.97 192.242 369.822 192.369 369.703 192.533C369.585 192.697 369.496 192.889 369.437 193.107C369.377 193.322 369.348 193.556 369.348 193.812ZM377.137 190.599V197.995H375.161V190.599H377.137ZM375.038 188.671C375.038 188.384 375.139 188.147 375.339 187.96C375.54 187.773 375.808 187.68 376.146 187.68C376.478 187.68 376.745 187.773 376.945 187.96C377.151 188.147 377.253 188.384 377.253 188.671C377.253 188.958 377.151 189.195 376.945 189.382C376.745 189.569 376.478 189.662 376.146 189.662C375.808 189.662 375.54 189.569 375.339 189.382C375.139 189.195 375.038 188.958 375.038 188.671ZM380.373 192.178V197.995H378.405V190.599H380.25L380.373 192.178ZM380.086 194.037H379.553C379.553 193.49 379.624 192.998 379.765 192.561C379.906 192.118 380.105 191.743 380.36 191.433C380.615 191.118 380.918 190.879 381.269 190.715C381.624 190.546 382.021 190.462 382.458 190.462C382.805 190.462 383.121 190.512 383.409 190.612C383.696 190.713 383.942 190.872 384.147 191.091C384.356 191.31 384.516 191.599 384.625 191.959C384.739 192.319 384.796 192.759 384.796 193.278V197.995H382.814V193.271C382.814 192.943 382.768 192.688 382.677 192.506C382.586 192.324 382.452 192.196 382.274 192.123C382.101 192.046 381.886 192.007 381.631 192.007C381.367 192.007 381.137 192.059 380.941 192.164C380.749 192.269 380.59 192.415 380.462 192.602C380.339 192.784 380.246 192.998 380.182 193.244C380.118 193.49 380.086 193.755 380.086 194.037Z" fill="#EDEDED"/>
<rect x="358.542" y="220.995" width="10" height="173" rx="5" fill="#B1B1B1"/>
<path d="M455.753 428.758L458.89 420.042H459.806L456.101 429.995H455.425L455.753 428.758ZM452.512 420.042L455.636 428.758L455.978 429.995H455.295L451.596 420.042H452.512ZM463.33 430.132C462.847 430.132 462.403 430.043 461.997 429.865C461.596 429.688 461.245 429.437 460.944 429.113C460.648 428.79 460.418 428.407 460.254 427.965C460.094 427.518 460.015 427.031 460.015 426.502V426.208C460.015 425.638 460.099 425.123 460.267 424.663C460.436 424.203 460.669 423.809 460.965 423.48C461.261 423.152 461.598 422.902 461.976 422.729C462.359 422.551 462.76 422.462 463.18 422.462C463.649 422.462 464.066 422.546 464.431 422.715C464.795 422.879 465.1 423.114 465.347 423.419C465.597 423.72 465.786 424.077 465.914 424.492C466.042 424.902 466.105 425.356 466.105 425.853V426.352H460.507V425.654H465.292V425.559C465.283 425.144 465.198 424.757 465.039 424.396C464.884 424.032 464.652 423.736 464.342 423.508C464.032 423.28 463.644 423.166 463.18 423.166C462.833 423.166 462.514 423.239 462.223 423.385C461.935 423.531 461.687 423.74 461.477 424.014C461.272 424.283 461.113 424.604 460.999 424.978C460.89 425.347 460.835 425.757 460.835 426.208V426.502C460.835 426.912 460.894 427.295 461.013 427.65C461.136 428.001 461.309 428.311 461.532 428.58C461.76 428.849 462.029 429.059 462.339 429.209C462.649 429.359 462.99 429.435 463.364 429.435C463.802 429.435 464.189 429.355 464.526 429.195C464.864 429.031 465.167 428.774 465.435 428.423L465.948 428.819C465.789 429.056 465.588 429.275 465.347 429.476C465.11 429.676 464.825 429.836 464.492 429.954C464.159 430.073 463.772 430.132 463.33 430.132ZM468.214 424.178V429.995H467.4V422.599H468.18L468.214 424.178ZM468.029 425.839L467.667 425.634C467.694 425.196 467.783 424.786 467.934 424.403C468.084 424.021 468.287 423.683 468.542 423.392C468.802 423.1 469.105 422.872 469.451 422.708C469.802 422.544 470.19 422.462 470.613 422.462C470.983 422.462 471.313 422.512 471.605 422.612C471.896 422.713 472.145 422.872 472.35 423.091C472.555 423.31 472.71 423.59 472.815 423.932C472.924 424.273 472.979 424.69 472.979 425.183V429.995H472.158V425.176C472.158 424.665 472.088 424.267 471.946 423.979C471.805 423.688 471.605 423.48 471.345 423.357C471.085 423.234 470.777 423.173 470.422 423.173C470.03 423.173 469.686 423.259 469.39 423.433C469.098 423.601 468.852 423.822 468.651 424.096C468.455 424.365 468.305 424.654 468.2 424.964C468.095 425.269 468.038 425.561 468.029 425.839Z" fill="#EDEDED"/>
<path d="M447.637 206.939H447.924V208.512H447.808C447.289 208.512 446.826 208.589 446.42 208.744C446.015 208.899 445.671 209.12 445.388 209.407C445.11 209.69 444.896 210.032 444.746 210.433C444.6 210.834 444.527 211.283 444.527 211.779V213.434C444.527 213.789 444.561 214.104 444.629 214.377C444.702 214.646 444.805 214.871 444.937 215.054C445.074 215.231 445.233 215.366 445.415 215.457C445.598 215.544 445.803 215.587 446.031 215.587C446.245 215.587 446.439 215.541 446.612 215.45C446.79 215.359 446.94 215.231 447.063 215.067C447.191 214.899 447.286 214.703 447.35 214.479C447.418 214.252 447.453 214.003 447.453 213.734C447.453 213.465 447.418 213.217 447.35 212.989C447.286 212.761 447.191 212.565 447.063 212.401C446.935 212.233 446.78 212.103 446.598 212.012C446.416 211.921 446.211 211.875 445.983 211.875C445.673 211.875 445.4 211.948 445.163 212.094C444.93 212.235 444.748 212.417 444.616 212.641C444.484 212.864 444.413 213.099 444.404 213.345L443.809 212.962C443.823 212.611 443.896 212.278 444.028 211.964C444.165 211.649 444.351 211.371 444.588 211.13C444.83 210.884 445.119 210.692 445.456 210.556C445.794 210.414 446.174 210.344 446.598 210.344C447.063 210.344 447.471 210.433 447.822 210.61C448.177 210.788 448.473 211.032 448.71 211.342C448.947 211.652 449.125 212.009 449.244 212.415C449.362 212.821 449.421 213.254 449.421 213.714C449.421 214.197 449.342 214.646 449.182 215.061C449.027 215.475 448.802 215.838 448.505 216.147C448.214 216.457 447.863 216.699 447.453 216.872C447.042 217.045 446.582 217.132 446.072 217.132C445.543 217.132 445.062 217.036 444.629 216.845C444.201 216.649 443.832 216.375 443.522 216.024C443.212 215.674 442.973 215.257 442.804 214.773C442.64 214.29 442.558 213.762 442.558 213.188V212.422C442.558 211.62 442.674 210.886 442.907 210.221C443.144 209.551 443.483 208.972 443.925 208.484C444.367 207.992 444.901 207.612 445.525 207.343C446.149 207.074 446.853 206.939 447.637 206.939ZM451.673 215.498H451.803C452.35 215.498 452.82 215.432 453.212 215.3C453.608 215.163 453.934 214.967 454.189 214.712C454.444 214.457 454.633 214.145 454.756 213.775C454.88 213.402 454.941 212.978 454.941 212.504V210.617C454.941 210.257 454.905 209.94 454.832 209.667C454.763 209.394 454.663 209.168 454.531 208.99C454.403 208.808 454.253 208.671 454.08 208.58C453.911 208.489 453.724 208.443 453.519 208.443C453.3 208.443 453.107 208.498 452.938 208.607C452.77 208.712 452.626 208.856 452.507 209.038C452.394 209.22 452.305 209.43 452.241 209.667C452.182 209.899 452.152 210.143 452.152 210.398C452.152 210.654 452.182 210.897 452.241 211.13C452.3 211.358 452.389 211.561 452.507 211.738C452.626 211.911 452.774 212.05 452.952 212.155C453.13 212.256 453.339 212.306 453.581 212.306C453.813 212.306 454.02 212.262 454.203 212.176C454.39 212.085 454.547 211.966 454.674 211.82C454.807 211.674 454.907 211.513 454.975 211.335C455.048 211.157 455.085 210.977 455.085 210.795L455.734 211.15C455.734 211.469 455.666 211.784 455.529 212.094C455.392 212.404 455.201 212.686 454.955 212.941C454.713 213.192 454.433 213.393 454.114 213.543C453.795 213.693 453.453 213.769 453.089 213.769C452.624 213.769 452.211 213.684 451.851 213.516C451.491 213.342 451.186 213.105 450.935 212.805C450.689 212.499 450.502 212.144 450.375 211.738C450.247 211.333 450.183 210.893 450.183 210.419C450.183 209.936 450.261 209.482 450.416 209.059C450.575 208.635 450.801 208.261 451.092 207.938C451.389 207.614 451.742 207.361 452.152 207.179C452.567 206.992 453.027 206.898 453.533 206.898C454.039 206.898 454.499 206.996 454.914 207.192C455.328 207.388 455.684 207.666 455.98 208.026C456.276 208.382 456.504 208.808 456.664 209.305C456.828 209.801 456.91 210.353 456.91 210.959V211.643C456.91 212.29 456.839 212.891 456.698 213.447C456.561 214.003 456.354 214.507 456.076 214.958C455.802 215.405 455.461 215.787 455.05 216.106C454.645 216.425 454.173 216.669 453.635 216.838C453.098 217.007 452.496 217.091 451.831 217.091H451.673V215.498ZM463.219 211.13V216.995H461.243V209.599H463.096L463.219 211.13ZM462.945 213.037H462.398C462.398 212.522 462.46 212.048 462.583 211.615C462.711 211.178 462.895 210.799 463.137 210.48C463.383 210.157 463.686 209.906 464.046 209.729C464.406 209.551 464.823 209.462 465.297 209.462C465.625 209.462 465.926 209.512 466.199 209.612C466.473 209.708 466.707 209.861 466.903 210.07C467.104 210.275 467.259 210.544 467.368 210.877C467.478 211.205 467.532 211.599 467.532 212.06V216.995H465.563V212.278C465.563 211.941 465.518 211.681 465.427 211.499C465.336 211.317 465.206 211.189 465.037 211.116C464.873 211.043 464.675 211.007 464.442 211.007C464.187 211.007 463.964 211.059 463.772 211.164C463.586 211.269 463.431 211.415 463.308 211.602C463.185 211.784 463.093 211.998 463.034 212.244C462.975 212.49 462.945 212.755 462.945 213.037ZM467.348 212.812L466.644 212.9C466.644 212.417 466.703 211.968 466.821 211.554C466.944 211.139 467.124 210.774 467.361 210.46C467.603 210.146 467.901 209.902 468.257 209.729C468.612 209.551 469.022 209.462 469.487 209.462C469.843 209.462 470.166 209.514 470.458 209.619C470.75 209.719 470.998 209.881 471.203 210.104C471.413 210.323 471.572 210.61 471.682 210.966C471.796 211.321 471.853 211.757 471.853 212.271V216.995H469.877V212.271C469.877 211.93 469.831 211.67 469.74 211.492C469.654 211.31 469.526 211.185 469.357 211.116C469.193 211.043 468.997 211.007 468.77 211.007C468.533 211.007 468.325 211.055 468.147 211.15C467.97 211.242 467.822 211.369 467.703 211.533C467.585 211.697 467.496 211.889 467.437 212.107C467.377 212.322 467.348 212.556 467.348 212.812ZM475.137 209.599V216.995H473.161V209.599H475.137ZM473.038 207.671C473.038 207.384 473.139 207.147 473.339 206.96C473.54 206.773 473.808 206.68 474.146 206.68C474.478 206.68 474.745 206.773 474.945 206.96C475.151 207.147 475.253 207.384 475.253 207.671C475.253 207.958 475.151 208.195 474.945 208.382C474.745 208.569 474.478 208.662 474.146 208.662C473.808 208.662 473.54 208.569 473.339 208.382C473.139 208.195 473.038 207.958 473.038 207.671ZM478.373 211.178V216.995H476.405V209.599H478.25L478.373 211.178ZM478.086 213.037H477.553C477.553 212.49 477.624 211.998 477.765 211.561C477.906 211.118 478.105 210.743 478.36 210.433C478.615 210.118 478.918 209.879 479.269 209.715C479.624 209.546 480.021 209.462 480.458 209.462C480.805 209.462 481.121 209.512 481.409 209.612C481.696 209.713 481.942 209.872 482.147 210.091C482.356 210.31 482.516 210.599 482.625 210.959C482.739 211.319 482.796 211.759 482.796 212.278V216.995H480.814V212.271C480.814 211.943 480.768 211.688 480.677 211.506C480.586 211.324 480.452 211.196 480.274 211.123C480.101 211.046 479.886 211.007 479.631 211.007C479.367 211.007 479.137 211.059 478.941 211.164C478.749 211.269 478.59 211.415 478.462 211.602C478.339 211.784 478.246 211.998 478.182 212.244C478.118 212.49 478.086 212.755 478.086 213.037Z" fill="#EDEDED"/>
<rect x="456.542" y="239.995" width="10" height="154" rx="5" fill="#B1B1B1"/>
<path d="M552.807 427.548C552.807 427.274 552.762 427.031 552.671 426.816C552.579 426.602 552.429 426.411 552.219 426.242C552.014 426.069 551.736 425.91 551.385 425.764C551.039 425.613 550.606 425.465 550.087 425.319C549.59 425.178 549.141 425.023 548.74 424.854C548.339 424.686 547.995 424.492 547.708 424.273C547.425 424.055 547.209 423.799 547.058 423.508C546.908 423.212 546.833 422.868 546.833 422.476C546.833 422.093 546.915 421.744 547.079 421.43C547.243 421.115 547.473 420.844 547.769 420.616C548.07 420.388 548.423 420.213 548.829 420.09C549.239 419.967 549.688 419.905 550.176 419.905C550.873 419.905 551.474 420.037 551.98 420.302C552.491 420.566 552.885 420.924 553.163 421.375C553.445 421.822 553.587 422.323 553.587 422.879H552.746C552.746 422.446 552.643 422.061 552.438 421.724C552.238 421.382 551.946 421.115 551.563 420.924C551.185 420.728 550.722 420.63 550.176 420.63C549.629 420.63 549.168 420.714 548.795 420.883C548.426 421.047 548.145 421.268 547.954 421.546C547.767 421.819 547.674 422.125 547.674 422.462C547.674 422.699 547.719 422.918 547.81 423.118C547.901 423.314 548.05 423.499 548.255 423.672C548.464 423.84 548.74 424 549.082 424.15C549.424 424.296 549.845 424.435 550.346 424.567C550.875 424.713 551.344 424.875 551.755 425.053C552.165 425.23 552.511 425.436 552.794 425.668C553.076 425.896 553.29 426.162 553.436 426.468C553.582 426.773 553.655 427.129 553.655 427.534C553.655 427.94 553.568 428.304 553.395 428.628C553.227 428.947 552.987 429.218 552.677 429.441C552.372 429.665 552.01 429.836 551.591 429.954C551.176 430.073 550.722 430.132 550.23 430.132C549.788 430.132 549.348 430.075 548.911 429.961C548.473 429.847 548.072 429.672 547.708 429.435C547.348 429.193 547.058 428.883 546.84 428.505C546.625 428.127 546.518 427.675 546.518 427.151H547.352C547.352 427.571 547.437 427.924 547.605 428.211C547.774 428.498 547.997 428.73 548.275 428.908C548.558 429.086 548.868 429.216 549.205 429.298C549.547 429.375 549.888 429.414 550.23 429.414C550.754 429.414 551.208 429.337 551.591 429.182C551.978 429.027 552.276 428.81 552.486 428.532C552.7 428.25 552.807 427.922 552.807 427.548ZM559.462 428.669V424.854C559.462 424.504 559.389 424.201 559.243 423.945C559.097 423.69 558.883 423.494 558.6 423.357C558.318 423.221 557.969 423.152 557.555 423.152C557.172 423.152 556.83 423.221 556.529 423.357C556.233 423.49 555.998 423.67 555.825 423.897C555.656 424.121 555.572 424.369 555.572 424.643L554.752 424.636C554.752 424.358 554.82 424.089 554.957 423.829C555.094 423.569 555.287 423.337 555.538 423.132C555.789 422.927 556.087 422.765 556.434 422.646C556.784 422.523 557.17 422.462 557.589 422.462C558.117 422.462 558.582 422.551 558.983 422.729C559.389 422.906 559.706 423.173 559.934 423.528C560.161 423.884 560.275 424.33 560.275 424.868V428.443C560.275 428.699 560.294 428.963 560.33 429.236C560.371 429.51 560.428 429.735 560.501 429.913V429.995H559.633C559.578 429.831 559.535 429.626 559.503 429.38C559.475 429.129 559.462 428.892 559.462 428.669ZM559.653 425.688L559.667 426.317H558.06C557.641 426.317 557.265 426.356 556.933 426.434C556.604 426.507 556.326 426.616 556.099 426.762C555.871 426.903 555.695 427.074 555.572 427.274C555.454 427.475 555.394 427.703 555.394 427.958C555.394 428.222 555.461 428.464 555.593 428.683C555.729 428.901 555.921 429.077 556.167 429.209C556.418 429.337 556.714 429.4 557.056 429.4C557.511 429.4 557.912 429.316 558.259 429.147C558.61 428.979 558.899 428.758 559.127 428.484C559.355 428.211 559.507 427.912 559.585 427.589L559.94 428.061C559.881 428.288 559.772 428.523 559.612 428.765C559.457 429.002 559.254 429.225 559.004 429.435C558.753 429.64 558.457 429.808 558.115 429.94C557.778 430.068 557.395 430.132 556.967 430.132C556.484 430.132 556.062 430.041 555.702 429.858C555.347 429.676 555.069 429.428 554.868 429.113C554.672 428.794 554.574 428.434 554.574 428.033C554.574 427.669 554.652 427.343 554.807 427.056C554.961 426.764 555.185 426.518 555.476 426.317C555.773 426.112 556.128 425.957 556.543 425.853C556.962 425.743 557.432 425.688 557.951 425.688H559.653ZM562.924 424.13V429.995H562.104V422.599H562.89L562.924 424.13ZM562.774 425.839L562.377 425.634C562.404 425.196 562.486 424.786 562.623 424.403C562.764 424.021 562.96 423.683 563.211 423.392C563.462 423.1 563.762 422.872 564.113 422.708C564.464 422.544 564.863 422.462 565.31 422.462C565.67 422.462 565.996 422.512 566.287 422.612C566.583 422.708 566.834 422.861 567.039 423.07C567.249 423.275 567.411 423.544 567.525 423.877C567.638 424.21 567.695 424.608 567.695 425.073V429.995H566.882V425.101C566.882 424.608 566.804 424.223 566.65 423.945C566.499 423.667 566.287 423.469 566.014 423.351C565.745 423.232 565.433 423.173 565.077 423.173C564.658 423.173 564.302 423.259 564.011 423.433C563.724 423.601 563.489 423.822 563.307 424.096C563.129 424.365 562.997 424.654 562.91 424.964C562.824 425.269 562.778 425.561 562.774 425.839ZM567.689 425.196L567.142 425.21C567.164 424.85 567.247 424.506 567.388 424.178C567.534 423.85 567.732 423.558 567.983 423.303C568.233 423.043 568.532 422.838 568.878 422.688C569.229 422.537 569.623 422.462 570.061 422.462C570.443 422.462 570.785 422.514 571.086 422.619C571.387 422.719 571.64 422.881 571.845 423.104C572.054 423.323 572.214 423.604 572.323 423.945C572.433 424.287 572.487 424.697 572.487 425.176V429.995H571.667V425.169C571.667 424.645 571.59 424.239 571.435 423.952C571.284 423.66 571.075 423.458 570.806 423.344C570.537 423.23 570.222 423.173 569.862 423.173C569.507 423.177 569.195 423.243 568.926 423.371C568.657 423.494 568.431 423.658 568.249 423.863C568.071 424.064 567.935 424.28 567.839 424.513C567.748 424.745 567.698 424.973 567.689 425.196Z" fill="#EDEDED"/>
<path d="M541.411 241.463L539.838 241.087L540.406 236.042H545.998V237.635H542.026L541.78 239.843C541.912 239.765 542.112 239.683 542.381 239.597C542.65 239.506 542.951 239.46 543.284 239.46C543.767 239.46 544.195 239.535 544.569 239.686C544.943 239.836 545.259 240.055 545.519 240.342C545.783 240.629 545.984 240.98 546.121 241.395C546.257 241.809 546.326 242.279 546.326 242.803C546.326 243.245 546.257 243.666 546.121 244.067C545.984 244.464 545.776 244.819 545.498 245.134C545.22 245.444 544.872 245.688 544.453 245.865C544.033 246.043 543.537 246.132 542.962 246.132C542.534 246.132 542.119 246.068 541.718 245.94C541.322 245.813 540.964 245.624 540.645 245.373C540.331 245.122 540.078 244.819 539.886 244.464C539.699 244.104 539.601 243.694 539.592 243.233H541.547C541.575 243.516 541.648 243.76 541.766 243.965C541.889 244.165 542.051 244.32 542.251 244.43C542.452 244.539 542.687 244.594 542.956 244.594C543.206 244.594 543.42 244.546 543.598 244.45C543.776 244.354 543.919 244.222 544.029 244.054C544.138 243.881 544.218 243.68 544.268 243.452C544.323 243.22 544.35 242.969 544.35 242.7C544.35 242.431 544.318 242.188 544.254 241.969C544.191 241.75 544.093 241.561 543.96 241.401C543.828 241.242 543.66 241.119 543.455 241.032C543.254 240.946 543.019 240.902 542.75 240.902C542.386 240.902 542.103 240.959 541.903 241.073C541.707 241.187 541.543 241.317 541.411 241.463ZM554.04 236.042V237.102L550.191 245.995H548.113L551.962 237.58H547.006V236.042H554.04ZM560.219 240.13V245.995H558.243V238.599H560.096L560.219 240.13ZM559.945 242.037H559.398C559.398 241.522 559.46 241.048 559.583 240.615C559.711 240.178 559.895 239.799 560.137 239.48C560.383 239.157 560.686 238.906 561.046 238.729C561.406 238.551 561.823 238.462 562.297 238.462C562.625 238.462 562.926 238.512 563.199 238.612C563.473 238.708 563.707 238.861 563.903 239.07C564.104 239.275 564.259 239.544 564.368 239.877C564.478 240.205 564.532 240.599 564.532 241.06V245.995H562.563V241.278C562.563 240.941 562.518 240.681 562.427 240.499C562.336 240.317 562.206 240.189 562.037 240.116C561.873 240.043 561.675 240.007 561.442 240.007C561.187 240.007 560.964 240.059 560.772 240.164C560.586 240.269 560.431 240.415 560.308 240.602C560.185 240.784 560.093 240.998 560.034 241.244C559.975 241.49 559.945 241.755 559.945 242.037ZM564.348 241.812L563.644 241.9C563.644 241.417 563.703 240.968 563.821 240.554C563.944 240.139 564.124 239.774 564.361 239.46C564.603 239.146 564.901 238.902 565.257 238.729C565.612 238.551 566.022 238.462 566.487 238.462C566.843 238.462 567.166 238.514 567.458 238.619C567.75 238.719 567.998 238.881 568.203 239.104C568.413 239.323 568.572 239.61 568.682 239.966C568.796 240.321 568.853 240.757 568.853 241.271V245.995H566.877V241.271C566.877 240.93 566.831 240.67 566.74 240.492C566.654 240.31 566.526 240.185 566.357 240.116C566.193 240.043 565.997 240.007 565.77 240.007C565.533 240.007 565.325 240.055 565.147 240.15C564.97 240.242 564.822 240.369 564.703 240.533C564.585 240.697 564.496 240.889 564.437 241.107C564.377 241.322 564.348 241.556 564.348 241.812ZM572.137 238.599V245.995H570.161V238.599H572.137ZM570.038 236.671C570.038 236.384 570.139 236.147 570.339 235.96C570.54 235.773 570.808 235.68 571.146 235.68C571.478 235.68 571.745 235.773 571.945 235.96C572.151 236.147 572.253 236.384 572.253 236.671C572.253 236.958 572.151 237.195 571.945 237.382C571.745 237.569 571.478 237.662 571.146 237.662C570.808 237.662 570.54 237.569 570.339 237.382C570.139 237.195 570.038 236.958 570.038 236.671ZM575.373 240.178V245.995H573.405V238.599H575.25L575.373 240.178ZM575.086 242.037H574.553C574.553 241.49 574.624 240.998 574.765 240.561C574.906 240.118 575.105 239.743 575.36 239.433C575.615 239.118 575.918 238.879 576.269 238.715C576.624 238.546 577.021 238.462 577.458 238.462C577.805 238.462 578.121 238.512 578.409 238.612C578.696 238.713 578.942 238.872 579.147 239.091C579.356 239.31 579.516 239.599 579.625 239.959C579.739 240.319 579.796 240.759 579.796 241.278V245.995H577.814V241.271C577.814 240.943 577.768 240.688 577.677 240.506C577.586 240.324 577.452 240.196 577.274 240.123C577.101 240.046 576.886 240.007 576.631 240.007C576.367 240.007 576.137 240.059 575.941 240.164C575.749 240.269 575.59 240.415 575.462 240.602C575.339 240.784 575.246 240.998 575.182 241.244C575.118 241.49 575.086 241.755 575.086 242.037Z" fill="#EDEDED"/>
<rect x="553.542" y="268.995" width="10" height="125" rx="5" fill="#B1B1B1"/>
<path d="M649.638 429.995H647.383L647.396 429.277H649.638C650.354 429.277 650.969 429.118 651.484 428.799C652.004 428.475 652.405 428.029 652.687 427.459C652.97 426.889 653.111 426.229 653.111 425.477V424.547C653.111 423.973 653.029 423.453 652.865 422.988C652.705 422.523 652.475 422.127 652.175 421.799C651.874 421.466 651.514 421.211 651.094 421.033C650.68 420.855 650.215 420.767 649.7 420.767H647.342V420.042H649.7C650.32 420.042 650.887 420.149 651.402 420.363C651.922 420.573 652.371 420.878 652.749 421.279C653.132 421.676 653.426 422.152 653.631 422.708C653.84 423.264 653.945 423.884 653.945 424.567V425.477C653.945 426.16 653.84 426.78 653.631 427.336C653.426 427.892 653.132 428.368 652.749 428.765C652.366 429.161 651.912 429.466 651.388 429.681C650.864 429.89 650.281 429.995 649.638 429.995ZM647.759 420.042V429.995H646.918V420.042H647.759ZM656.491 422.599V429.995H655.678V422.599H656.491ZM655.534 420.459C655.534 420.304 655.582 420.174 655.678 420.069C655.778 419.96 655.915 419.905 656.088 419.905C656.261 419.905 656.398 419.96 656.498 420.069C656.603 420.174 656.655 420.304 656.655 420.459C656.655 420.609 656.603 420.739 656.498 420.849C656.398 420.953 656.261 421.006 656.088 421.006C655.915 421.006 655.778 420.953 655.678 420.849C655.582 420.739 655.534 420.609 655.534 420.459ZM659.181 424.13V429.995H658.36V422.599H659.147L659.181 424.13ZM659.03 425.839L658.634 425.634C658.661 425.196 658.743 424.786 658.88 424.403C659.021 424.021 659.217 423.683 659.468 423.392C659.719 423.1 660.019 422.872 660.37 422.708C660.721 422.544 661.12 422.462 661.566 422.462C661.927 422.462 662.252 422.512 662.544 422.612C662.84 422.708 663.091 422.861 663.296 423.07C663.506 423.275 663.667 423.544 663.781 423.877C663.895 424.21 663.952 424.608 663.952 425.073V429.995H663.139V425.101C663.139 424.608 663.061 424.223 662.906 423.945C662.756 423.667 662.544 423.469 662.271 423.351C662.002 423.232 661.69 423.173 661.334 423.173C660.915 423.173 660.559 423.259 660.268 423.433C659.981 423.601 659.746 423.822 659.564 424.096C659.386 424.365 659.254 424.654 659.167 424.964C659.08 425.269 659.035 425.561 659.03 425.839ZM663.945 425.196L663.399 425.21C663.421 424.85 663.503 424.506 663.645 424.178C663.79 423.85 663.989 423.558 664.239 423.303C664.49 423.043 664.788 422.838 665.135 422.688C665.486 422.537 665.88 422.462 666.317 422.462C666.7 422.462 667.042 422.514 667.343 422.619C667.644 422.719 667.897 422.881 668.102 423.104C668.311 423.323 668.471 423.604 668.58 423.945C668.69 424.287 668.744 424.697 668.744 425.176V429.995H667.924V425.169C667.924 424.645 667.846 424.239 667.691 423.952C667.541 423.66 667.331 423.458 667.063 423.344C666.794 423.23 666.479 423.173 666.119 423.173C665.764 423.177 665.452 423.243 665.183 423.371C664.914 423.494 664.688 423.658 664.506 423.863C664.328 424.064 664.191 424.28 664.096 424.513C664.005 424.745 663.955 424.973 663.945 425.196Z" fill="#EDEDED"/>
<path d="M644.319 188.042V189.102L640.47 197.995H638.392L642.241 189.58H637.285V188.042H644.319ZM652.04 188.042V189.102L648.191 197.995H646.113L649.962 189.58H645.006V188.042H652.04ZM658.219 192.13V197.995H656.243V190.599H658.096L658.219 192.13ZM657.945 194.037H657.398C657.398 193.522 657.46 193.048 657.583 192.615C657.711 192.178 657.895 191.799 658.137 191.48C658.383 191.157 658.686 190.906 659.046 190.729C659.406 190.551 659.823 190.462 660.297 190.462C660.625 190.462 660.926 190.512 661.199 190.612C661.473 190.708 661.707 190.861 661.903 191.07C662.104 191.275 662.259 191.544 662.368 191.877C662.478 192.205 662.532 192.599 662.532 193.06V197.995H660.563V193.278C660.563 192.941 660.518 192.681 660.427 192.499C660.336 192.317 660.206 192.189 660.037 192.116C659.873 192.043 659.675 192.007 659.442 192.007C659.187 192.007 658.964 192.059 658.772 192.164C658.586 192.269 658.431 192.415 658.308 192.602C658.185 192.784 658.093 192.998 658.034 193.244C657.975 193.49 657.945 193.755 657.945 194.037ZM662.348 193.812L661.644 193.9C661.644 193.417 661.703 192.968 661.821 192.554C661.944 192.139 662.124 191.774 662.361 191.46C662.603 191.146 662.901 190.902 663.257 190.729C663.612 190.551 664.022 190.462 664.487 190.462C664.843 190.462 665.166 190.514 665.458 190.619C665.75 190.719 665.998 190.881 666.203 191.104C666.413 191.323 666.572 191.61 666.682 191.966C666.796 192.321 666.853 192.757 666.853 193.271V197.995H664.877V193.271C664.877 192.93 664.831 192.67 664.74 192.492C664.654 192.31 664.526 192.185 664.357 192.116C664.193 192.043 663.997 192.007 663.77 192.007C663.533 192.007 663.325 192.055 663.147 192.15C662.97 192.242 662.822 192.369 662.703 192.533C662.585 192.697 662.496 192.889 662.437 193.107C662.377 193.322 662.348 193.556 662.348 193.812ZM670.137 190.599V197.995H668.161V190.599H670.137ZM668.038 188.671C668.038 188.384 668.139 188.147 668.339 187.96C668.54 187.773 668.808 187.68 669.146 187.68C669.478 187.68 669.745 187.773 669.945 187.96C670.151 188.147 670.253 188.384 670.253 188.671C670.253 188.958 670.151 189.195 669.945 189.382C669.745 189.569 669.478 189.662 669.146 189.662C668.808 189.662 668.54 189.569 668.339 189.382C668.139 189.195 668.038 188.958 668.038 188.671ZM673.373 192.178V197.995H671.405V190.599H673.25L673.373 192.178ZM673.086 194.037H672.553C672.553 193.49 672.624 192.998 672.765 192.561C672.906 192.118 673.105 191.743 673.36 191.433C673.615 191.118 673.918 190.879 674.269 190.715C674.624 190.546 675.021 190.462 675.458 190.462C675.805 190.462 676.121 190.512 676.409 190.612C676.696 190.713 676.942 190.872 677.147 191.091C677.356 191.31 677.516 191.599 677.625 191.959C677.739 192.319 677.796 192.759 677.796 193.278V197.995H675.814V193.271C675.814 192.943 675.768 192.688 675.677 192.506C675.586 192.324 675.452 192.196 675.274 192.123C675.101 192.046 674.886 192.007 674.631 192.007C674.367 192.007 674.137 192.059 673.941 192.164C673.749 192.269 673.59 192.415 673.462 192.602C673.339 192.784 673.246 192.998 673.182 193.244C673.118 193.49 673.086 193.755 673.086 194.037Z" fill="#EDEDED"/>
<rect x="651.542" y="220.995" width="10" height="173" rx="5" fill="#B1B1B1"/>
</g>
<defs>
<filter id="filter0_d_2414_650" x="0.428053" y="0.4498" width="731.276" height="476.19" filterUnits="userSpaceOnUse" color-interpolation-filters="sRGB">
<feFlood flood-opacity="0" result="BackgroundImageFix"/>
<feColorMatrix in="SourceAlpha" type="matrix" values="0 0 0 0 0 0 0 0 0 0 0 0 0 0 0 0 0 0 127 0" result="hardAlpha"/>
<feMorphology radius="2" operator="dilate" in="SourceAlpha" result="effect1_dropShadow_2414_650"/>
<feOffset dx="1.02407" dy="2.04813"/>
<feGaussianBlur stdDeviation="6.29801"/>
<feComposite in2="hardAlpha" operator="out"/>
<feColorMatrix type="matrix" values="0 0 0 0 0 0 0 0 0 0 0 0 0 0 0 0 0 0 0.1 0"/>
<feBlend mode="normal" in2="BackgroundImageFix" result="effect1_dropShadow_2414_650"/>
<feBlend mode="normal" in="SourceGraphic" in2="effect1_dropShadow_2414_650" result="shape"/>
</filter>
</defs>
</svg>
