<svg width="286" height="164" viewBox="0 0 286 164" fill="none" xmlns="http://www.w3.org/2000/svg">
<g filter="url(#filter0_d_2385_1876)">
<rect x="14" y="12.9977" width="256" height="134" rx="8" fill="#2A2A2E" shape-rendering="crispEdges"/>
<path d="M38.972 60.4417V54.7177H48.944V80.9977H42.536V60.4417H38.972ZM53.3712 62.1337C53.4672 59.5657 54.3072 57.5857 55.8912 56.1937C57.4752 54.8017 59.6232 54.1057 62.3352 54.1057C64.1352 54.1057 65.6712 54.4177 66.9432 55.0417C68.2392 55.6657 69.2112 56.5177 69.8592 57.5977C70.5312 58.6777 70.8672 59.8897 70.8672 61.2337C70.8672 62.8177 70.4712 64.1137 69.6792 65.1217C68.8872 66.1057 67.9632 66.7777 66.9072 67.1377V67.2817C68.2752 67.7377 69.3552 68.4937 70.1472 69.5497C70.9392 70.6057 71.3352 71.9617 71.3352 73.6177C71.3352 75.1057 70.9872 76.4257 70.2912 77.5777C69.6192 78.7057 68.6232 79.5937 67.3032 80.2417C66.0072 80.8897 64.4592 81.2137 62.6592 81.2137C59.7792 81.2137 57.4752 80.5057 55.7472 79.0897C54.0432 77.6737 53.1432 75.5377 53.0472 72.6817H59.0232C59.0472 73.7377 59.3472 74.5777 59.9232 75.2017C60.4992 75.8017 61.3392 76.1017 62.4432 76.1017C63.3792 76.1017 64.0992 75.8377 64.6032 75.3097C65.1312 74.7577 65.3952 74.0377 65.3952 73.1497C65.3952 71.9977 65.0232 71.1697 64.2792 70.6657C63.5592 70.1377 62.3952 69.8737 60.7872 69.8737H59.6352V64.8697H60.7872C62.0112 64.8697 62.9952 64.6657 63.7392 64.2577C64.5072 63.8257 64.8912 63.0697 64.8912 61.9897C64.8912 61.1257 64.6512 60.4537 64.1712 59.9737C63.6912 59.4937 63.0312 59.2537 62.1912 59.2537C61.2792 59.2537 60.5952 59.5297 60.1392 60.0817C59.7072 60.6337 59.4552 61.3177 59.3832 62.1337H53.3712Z" fill="#EDEDED"/>
<path d="M39.0568 92.2704H40.3182L43.2841 99.5147H43.3864L46.3523 92.2704H47.6136V100.998H46.625V94.367H46.5398L43.8125 100.998H42.858L40.1307 94.367H40.0455V100.998H39.0568V92.2704ZM52.3406 101.134C51.7099 101.134 51.1658 100.995 50.7085 100.716C50.2539 100.435 49.9031 100.043 49.6559 99.5403C49.4116 99.0346 49.2894 98.4465 49.2894 97.7761C49.2894 97.1056 49.4116 96.5147 49.6559 96.0034C49.9031 95.4892 50.2468 95.0886 50.6871 94.8017C51.1303 94.5119 51.6474 94.367 52.2383 94.367C52.5792 94.367 52.9158 94.4238 53.2482 94.5375C53.5806 94.6511 53.8832 94.8357 54.1559 95.0914C54.4286 95.3443 54.646 95.6795 54.8079 96.0971C54.9698 96.5147 55.0508 97.0289 55.0508 97.6397V98.0659H50.0053V97.1965H54.0281C54.0281 96.8272 53.9542 96.4977 53.8065 96.2079C53.6616 95.9181 53.4542 95.6894 53.1843 95.5218C52.9173 95.3542 52.6019 95.2704 52.2383 95.2704C51.8377 95.2704 51.4911 95.3698 51.1985 95.5687C50.9087 95.7647 50.6857 96.0204 50.5295 96.3357C50.3732 96.6511 50.2951 96.9892 50.2951 97.35V97.9295C50.2951 98.4238 50.3803 98.8429 50.5508 99.1866C50.7241 99.5275 50.9641 99.7875 51.271 99.9664C51.5778 100.143 51.9343 100.231 52.3406 100.231C52.6048 100.231 52.8434 100.194 53.0565 100.12C53.2724 100.043 53.4585 99.9295 53.6147 99.7789C53.771 99.6255 53.8917 99.4352 53.9769 99.2079L54.9485 99.4806C54.8462 99.8102 54.6744 100.1 54.4329 100.35C54.1914 100.597 53.8931 100.79 53.538 100.929C53.1829 101.066 52.7837 101.134 52.3406 101.134ZM51.7269 93.5659L52.7667 91.5886H53.9428L52.6133 93.5659H51.7269ZM59.0522 101.134C58.5067 101.134 58.0252 100.996 57.6076 100.721C57.19 100.442 56.8633 100.05 56.6275 99.5446C56.3917 99.036 56.2738 98.4352 56.2738 97.742C56.2738 97.0545 56.3917 96.4579 56.6275 95.9522C56.8633 95.4465 57.1914 95.0559 57.6119 94.7804C58.0323 94.5048 58.5181 94.367 59.0692 94.367C59.4954 94.367 59.832 94.438 60.0792 94.5801C60.3292 94.7193 60.5195 94.8784 60.6502 95.0573C60.7837 95.2335 60.8874 95.3784 60.9613 95.492H61.0465V92.2704H62.0522V100.998H61.0806V99.992H60.9613C60.8874 100.111 60.7823 100.262 60.646 100.444C60.5096 100.623 60.315 100.783 60.0621 100.925C59.8093 101.064 59.4727 101.134 59.0522 101.134ZM59.1886 100.231C59.592 100.231 59.9329 100.126 60.2113 99.9153C60.4897 99.7022 60.7013 99.4082 60.8462 99.0332C60.9911 98.6554 61.0636 98.2193 61.0636 97.725C61.0636 97.2363 60.9925 96.8088 60.8505 96.4423C60.7085 96.073 60.4982 95.786 60.2198 95.5815C59.9414 95.3741 59.5977 95.2704 59.1886 95.2704C58.7624 95.2704 58.4073 95.3798 58.1232 95.5985C57.842 95.8144 57.6303 96.1085 57.4883 96.4806C57.3491 96.85 57.2795 97.2647 57.2795 97.725C57.2795 98.1909 57.3505 98.6142 57.4925 98.9948C57.6374 99.3727 57.8505 99.6738 58.1317 99.8982C58.4158 100.12 58.7681 100.231 59.1886 100.231ZM64.0337 100.998V94.4522H65.0394V100.998H64.0337ZM64.5451 93.3613C64.3491 93.3613 64.18 93.2946 64.038 93.161C63.8988 93.0275 63.8292 92.867 63.8292 92.6795C63.8292 92.492 63.8988 92.3315 64.038 92.198C64.18 92.0644 64.3491 91.9977 64.5451 91.9977C64.7411 91.9977 64.9087 92.0644 65.0479 92.198C65.19 92.3315 65.261 92.492 65.261 92.6795C65.261 92.867 65.19 93.0275 65.0479 93.161C64.9087 93.2946 64.7411 93.3613 64.5451 93.3613ZM68.8075 101.151C68.3928 101.151 68.0163 101.073 67.6783 100.917C67.3402 100.758 67.0717 100.529 66.8729 100.231C66.674 99.9295 66.5746 99.5659 66.5746 99.1397C66.5746 98.7647 66.6484 98.4607 66.7962 98.2278C66.9439 97.992 67.1413 97.8073 67.3885 97.6738C67.6357 97.5403 67.9084 97.4409 68.2067 97.3755C68.5078 97.3073 68.8104 97.2534 69.1143 97.2136C69.5121 97.1625 69.8345 97.1241 70.0817 97.0985C70.3317 97.0701 70.5135 97.0232 70.6271 96.9579C70.7436 96.8926 70.8018 96.7789 70.8018 96.617V96.5829C70.8018 96.1625 70.6868 95.8357 70.4567 95.6028C70.2294 95.3698 69.8842 95.2534 69.4212 95.2534C68.9411 95.2534 68.5646 95.3585 68.2919 95.5687C68.0192 95.7789 67.8274 96.0034 67.7166 96.242L66.7621 95.9011C66.9325 95.5034 67.1598 95.1937 67.4439 94.9721C67.7308 94.7477 68.0433 94.5914 68.3814 94.5034C68.7223 94.4125 69.0575 94.367 69.3871 94.367C69.5973 94.367 69.8388 94.3926 70.1115 94.4437C70.3871 94.492 70.6527 94.5929 70.9084 94.7463C71.1669 94.8997 71.3814 95.1312 71.5518 95.4409C71.7223 95.7505 71.8075 96.1653 71.8075 96.6852V100.998H70.8018V100.111H70.7507C70.6825 100.253 70.5689 100.405 70.4098 100.567C70.2507 100.729 70.0391 100.867 69.7749 100.981C69.5107 101.094 69.1882 101.151 68.8075 101.151ZM68.9609 100.248C69.3587 100.248 69.6939 100.17 69.9666 100.013C70.2422 99.8571 70.4496 99.6554 70.5888 99.4082C70.7308 99.161 70.8018 98.9011 70.8018 98.6284V97.7079C70.7592 97.759 70.6655 97.8059 70.5206 97.8485C70.3786 97.8883 70.2138 97.9238 70.0263 97.9551C69.8416 97.9835 69.6612 98.009 69.4851 98.0318C69.3118 98.0517 69.1712 98.0687 69.0632 98.0829C68.8018 98.117 68.5575 98.1724 68.3303 98.2491C68.1058 98.323 67.924 98.4352 67.7848 98.5857C67.6484 98.7335 67.5803 98.9352 67.5803 99.1909C67.5803 99.5403 67.7095 99.8045 67.968 99.9835C68.2294 100.16 68.5604 100.248 68.9609 100.248ZM78.2795 95.9181L77.3761 96.1738C77.3192 96.0232 77.2354 95.8769 77.1246 95.7349C77.0167 95.59 76.869 95.4707 76.6815 95.3769C76.494 95.2832 76.2539 95.2363 75.9613 95.2363C75.5607 95.2363 75.2269 95.3286 74.9599 95.5133C74.6957 95.6951 74.5636 95.9267 74.5636 96.2079C74.5636 96.4579 74.6545 96.6554 74.8363 96.8002C75.0181 96.9451 75.3022 97.0659 75.6886 97.1625L76.6602 97.4011C77.2454 97.5431 77.6815 97.7605 77.9684 98.0531C78.2553 98.3429 78.3988 98.7164 78.3988 99.1738C78.3988 99.5488 78.2908 99.884 78.0749 100.179C77.8619 100.475 77.5636 100.708 77.18 100.878C76.7965 101.049 76.3505 101.134 75.842 101.134C75.1744 101.134 74.6218 100.989 74.1843 100.699C73.7468 100.41 73.4698 99.9863 73.3533 99.4295L74.3079 99.1909C74.3988 99.5431 74.5707 99.8073 74.8235 99.9835C75.0792 100.16 75.413 100.248 75.8249 100.248C76.2937 100.248 76.6658 100.148 76.9414 99.9494C77.2198 99.7477 77.359 99.5062 77.359 99.225C77.359 98.9977 77.2795 98.8073 77.1204 98.6539C76.9613 98.4977 76.717 98.3812 76.3874 98.3045L75.2965 98.0488C74.6971 97.9068 74.2567 97.6866 73.9755 97.3883C73.6971 97.0872 73.5579 96.7107 73.5579 96.259C73.5579 95.8897 73.6616 95.563 73.869 95.2789C74.0792 94.9948 74.3647 94.7718 74.7255 94.6099C75.0891 94.448 75.5011 94.367 75.9613 94.367C76.609 94.367 77.1175 94.509 77.4869 94.7931C77.859 95.0772 78.1232 95.4522 78.2795 95.9181ZM88.6399 94.4522L86.2195 100.998H85.1967L82.7763 94.4522H83.8672L85.674 99.6681H85.7422L87.549 94.4522H88.6399ZM89.9673 100.998V94.4522H90.973V100.998H89.9673ZM90.4787 93.3613C90.2827 93.3613 90.1136 93.2946 89.9716 93.161C89.8324 93.0275 89.7628 92.867 89.7628 92.6795C89.7628 92.492 89.8324 92.3315 89.9716 92.198C90.1136 92.0644 90.2827 91.9977 90.4787 91.9977C90.6747 91.9977 90.8423 92.0644 90.9815 92.198C91.1236 92.3315 91.1946 92.492 91.1946 92.6795C91.1946 92.867 91.1236 93.0275 90.9815 93.161C90.8423 93.2946 90.6747 93.3613 90.4787 93.3613ZM97.4513 95.9181L96.5479 96.1738C96.4911 96.0232 96.4073 95.8769 96.2965 95.7349C96.1886 95.59 96.0408 95.4707 95.8533 95.3769C95.6658 95.2832 95.4258 95.2363 95.1332 95.2363C94.7326 95.2363 94.3988 95.3286 94.1317 95.5133C93.8675 95.6951 93.7354 95.9267 93.7354 96.2079C93.7354 96.4579 93.8263 96.6554 94.0082 96.8002C94.19 96.9451 94.4741 97.0659 94.8604 97.1625L95.832 97.4011C96.4173 97.5431 96.8533 97.7605 97.1403 98.0531C97.4272 98.3429 97.5707 98.7164 97.5707 99.1738C97.5707 99.5488 97.4627 99.884 97.2468 100.179C97.0337 100.475 96.7354 100.708 96.3519 100.878C95.9684 101.049 95.5224 101.134 95.0138 101.134C94.3462 101.134 93.7937 100.989 93.3562 100.699C92.9187 100.41 92.6417 99.9863 92.5252 99.4295L93.4798 99.1909C93.5707 99.5431 93.7425 99.8073 93.9954 99.9835C94.2511 100.16 94.5849 100.248 94.9968 100.248C95.4656 100.248 95.8377 100.148 96.1133 99.9494C96.3917 99.7477 96.5309 99.5062 96.5309 99.225C96.5309 98.9977 96.4513 98.8073 96.2923 98.6539C96.1332 98.4977 95.8888 98.3812 95.5593 98.3045L94.4684 98.0488C93.869 97.9068 93.4286 97.6866 93.1474 97.3883C92.869 97.0872 92.7298 96.7107 92.7298 96.259C92.7298 95.8897 92.8335 95.563 93.0408 95.2789C93.2511 94.9948 93.5366 94.7718 93.8974 94.6099C94.261 94.448 94.6729 94.367 95.1332 94.367C95.7809 94.367 96.2894 94.509 96.6587 94.7931C97.0309 95.0772 97.2951 95.4522 97.4513 95.9181ZM99.0845 100.998V94.4522H100.09V100.998H99.0845ZM99.5959 93.3613C99.3999 93.3613 99.2308 93.2946 99.0888 93.161C98.9496 93.0275 98.88 92.867 98.88 92.6795C98.88 92.492 98.9496 92.3315 99.0888 92.198C99.2308 92.0644 99.3999 91.9977 99.5959 91.9977C99.7919 91.9977 99.9595 92.0644 100.099 92.198C100.241 92.3315 100.312 92.492 100.312 92.6795C100.312 92.867 100.241 93.0275 100.099 93.161C99.9595 93.2946 99.7919 93.3613 99.5959 93.3613ZM104.591 101.134C104 101.134 103.482 100.993 103.036 100.712C102.593 100.431 102.246 100.037 101.996 99.5318C101.749 99.0261 101.625 98.4352 101.625 97.759C101.625 97.0772 101.749 96.4821 101.996 95.9735C102.246 95.465 102.593 95.0701 103.036 94.7889C103.482 94.5076 104 94.367 104.591 94.367C105.182 94.367 105.699 94.5076 106.142 94.7889C106.588 95.0701 106.935 95.465 107.182 95.9735C107.432 96.4821 107.557 97.0772 107.557 97.759C107.557 98.4352 107.432 99.0261 107.182 99.5318C106.935 100.037 106.588 100.431 106.142 100.712C105.699 100.993 105.182 101.134 104.591 101.134ZM104.591 100.231C105.04 100.231 105.409 100.116 105.699 99.8855C105.989 99.6554 106.203 99.3528 106.343 98.9778C106.482 98.6028 106.551 98.1965 106.551 97.759C106.551 97.3215 106.482 96.9139 106.343 96.536C106.203 96.1582 105.989 95.8528 105.699 95.6198C105.409 95.3869 105.04 95.2704 104.591 95.2704C104.142 95.2704 103.773 95.3869 103.483 95.6198C103.194 95.8528 102.979 96.1582 102.84 96.536C102.701 96.9139 102.631 97.3215 102.631 97.759C102.631 98.1965 102.701 98.6028 102.84 98.9778C102.979 99.3528 103.194 99.6554 103.483 99.8855C103.773 100.116 104.142 100.231 104.591 100.231ZM110.098 97.0602V100.998H109.092V94.4522H110.064V95.475H110.149C110.303 95.1426 110.536 94.8755 110.848 94.6738C111.161 94.4693 111.564 94.367 112.058 94.367C112.501 94.367 112.889 94.4579 113.222 94.6397C113.554 94.8187 113.813 95.0914 113.997 95.4579C114.182 95.8215 114.274 96.2818 114.274 96.8386V100.998H113.268V96.9068C113.268 96.3926 113.135 95.992 112.868 95.7051C112.601 95.4153 112.234 95.2704 111.768 95.2704C111.447 95.2704 111.161 95.34 110.908 95.4792C110.658 95.6184 110.46 95.8215 110.315 96.0886C110.17 96.3556 110.098 96.6795 110.098 97.0602ZM117.118 97.0602V100.998H116.112V94.4522H117.083V95.475H117.169C117.322 95.1426 117.555 94.8755 117.868 94.6738C118.18 94.4693 118.583 94.367 119.078 94.367C119.521 94.367 119.909 94.4579 120.241 94.6397C120.574 94.8187 120.832 95.0914 121.017 95.4579C121.201 95.8215 121.294 96.2818 121.294 96.8386V100.998H120.288V96.9068C120.288 96.3926 120.154 95.992 119.887 95.7051C119.62 95.4153 119.254 95.2704 118.788 95.2704C118.467 95.2704 118.18 95.34 117.927 95.4792C117.677 95.6184 117.48 95.8215 117.335 96.0886C117.19 96.3556 117.118 96.6795 117.118 97.0602ZM125.876 101.134C125.245 101.134 124.701 100.995 124.244 100.716C123.789 100.435 123.438 100.043 123.191 99.5403C122.947 99.0346 122.825 98.4465 122.825 97.7761C122.825 97.1056 122.947 96.5147 123.191 96.0034C123.438 95.4892 123.782 95.0886 124.222 94.8017C124.665 94.5119 125.183 94.367 125.773 94.367C126.114 94.367 126.451 94.4238 126.783 94.5375C127.116 94.6511 127.418 94.8357 127.691 95.0914C127.964 95.3443 128.181 95.6795 128.343 96.0971C128.505 96.5147 128.586 97.0289 128.586 97.6397V98.0659H123.54V97.1965H127.563C127.563 96.8272 127.489 96.4977 127.342 96.2079C127.197 95.9181 126.989 95.6894 126.719 95.5218C126.452 95.3542 126.137 95.2704 125.773 95.2704C125.373 95.2704 125.026 95.3698 124.734 95.5687C124.444 95.7647 124.221 96.0204 124.065 96.3357C123.908 96.6511 123.83 96.9892 123.83 97.35V97.9295C123.83 98.4238 123.915 98.8429 124.086 99.1866C124.259 99.5275 124.499 99.7875 124.806 99.9664C125.113 100.143 125.469 100.231 125.876 100.231C126.14 100.231 126.379 100.194 126.592 100.12C126.808 100.043 126.994 99.9295 127.15 99.7789C127.306 99.6255 127.427 99.4352 127.512 99.2079L128.484 99.4806C128.381 99.8102 128.21 100.1 127.968 100.35C127.727 100.597 127.428 100.79 127.073 100.929C126.718 101.066 126.319 101.134 125.876 101.134ZM125.262 93.5659L126.302 91.5886H127.478L126.148 93.5659H125.262ZM134.752 95.9181L133.849 96.1738C133.792 96.0232 133.708 95.8769 133.597 95.7349C133.489 95.59 133.342 95.4707 133.154 95.3769C132.967 95.2832 132.727 95.2363 132.434 95.2363C132.033 95.2363 131.7 95.3286 131.433 95.5133C131.168 95.6951 131.036 95.9267 131.036 96.2079C131.036 96.4579 131.127 96.6554 131.309 96.8002C131.491 96.9451 131.775 97.0659 132.161 97.1625L133.133 97.4011C133.718 97.5431 134.154 97.7605 134.441 98.0531C134.728 98.3429 134.871 98.7164 134.871 99.1738C134.871 99.5488 134.763 99.884 134.548 100.179C134.335 100.475 134.036 100.708 133.653 100.878C133.269 101.049 132.823 101.134 132.315 101.134C131.647 101.134 131.094 100.989 130.657 100.699C130.219 100.41 129.942 99.9863 129.826 99.4295L130.781 99.1909C130.871 99.5431 131.043 99.8073 131.296 99.9835C131.552 100.16 131.886 100.248 132.298 100.248C132.766 100.248 133.138 100.148 133.414 99.9494C133.692 99.7477 133.832 99.5062 133.832 99.225C133.832 98.9977 133.752 98.8073 133.593 98.6539C133.434 98.4977 133.19 98.3812 132.86 98.3045L131.769 98.0488C131.17 97.9068 130.729 97.6866 130.448 97.3883C130.17 97.0872 130.031 96.7107 130.031 96.259C130.031 95.8897 130.134 95.563 130.342 95.2789C130.552 94.9948 130.837 94.7718 131.198 94.6099C131.562 94.448 131.974 94.367 132.434 94.367C133.082 94.367 133.59 94.509 133.96 94.7931C134.332 95.0772 134.596 95.4522 134.752 95.9181Z" fill="#EDEDED"/>
<path d="M173.991 105.099C172.054 106.776 169.101 106.577 167.643 104.47C163.791 98.9053 161.295 92.4901 160.385 85.7396C159.268 77.4513 160.593 69.0173 164.196 61.4703C167.8 53.9232 173.526 47.5908 180.673 43.2484C187.821 38.906 196.079 36.7421 204.438 37.0217C212.796 37.3013 220.892 40.0123 227.733 44.8226C234.574 49.633 239.864 56.3339 242.955 64.1049C246.046 71.8758 246.804 80.3795 245.136 88.5746C243.777 95.2493 240.857 101.483 236.642 106.778C235.047 108.783 232.087 108.784 230.266 106.982C228.445 105.18 228.46 102.259 229.996 100.208C232.973 96.2316 235.047 91.6296 236.045 86.7242C237.354 80.2971 236.759 73.6281 234.335 67.5337C231.911 61.4393 227.762 56.184 222.397 52.4115C217.032 48.639 210.683 46.5129 204.127 46.2936C197.572 46.0743 191.095 47.7714 185.49 51.1769C179.885 54.5825 175.394 59.5487 172.568 65.4675C169.742 71.3863 168.703 78.0007 169.579 84.5008C170.248 89.462 172.009 94.1922 174.714 98.3592C176.109 100.508 175.929 103.423 173.991 105.099Z" fill="#B1B1B1"/>
<g filter="url(#filter1_i_2385_1876)">
<path d="M174.069 105.189C172.137 106.872 169.184 106.682 167.719 104.58C163.18 98.0654 160.515 90.393 160.067 82.4052C159.533 72.8673 162.189 63.4229 167.618 55.5624C173.046 47.7019 180.938 41.8728 190.047 38.9951C197.675 36.5851 205.794 36.36 213.494 38.2978C215.979 38.9231 217.202 41.6178 216.313 44.0204C215.424 46.423 212.758 47.6158 210.256 47.0646C204.51 45.7985 198.503 46.0525 192.841 47.8412C185.697 50.0981 179.509 54.6696 175.251 60.8342C170.994 66.9989 168.911 74.4057 169.33 81.8858C169.662 87.8144 171.552 93.5214 174.771 98.4469C176.173 100.591 176.001 103.507 174.069 105.189Z" fill="#CB692C"/>
</g>
<path d="M185.148 78.9977V70.2704H186.729V77.6724H190.573V78.9977H185.148ZM191.877 78.9977V72.4522H193.419V78.9977H191.877ZM192.652 71.5232C192.408 71.5232 192.198 71.4423 192.021 71.2804C191.845 71.1156 191.757 70.9181 191.757 70.688C191.757 70.4551 191.845 70.2576 192.021 70.0957C192.198 69.9309 192.408 69.8485 192.652 69.8485C192.899 69.8485 193.11 69.9309 193.283 70.0957C193.459 70.2576 193.547 70.4551 193.547 70.688C193.547 70.9181 193.459 71.1156 193.283 71.2804C193.11 71.4423 192.899 71.5232 192.652 71.5232ZM195.006 78.9977V72.4522H196.48V73.5644H196.557C196.693 73.1894 196.919 72.8968 197.234 72.6866C197.55 72.4735 197.926 72.367 198.363 72.367C198.807 72.367 199.18 72.475 199.484 72.6909C199.791 72.9039 200.007 73.1951 200.132 73.5644H200.2C200.345 73.2008 200.589 72.911 200.933 72.6951C201.28 72.4764 201.69 72.367 202.165 72.367C202.767 72.367 203.258 72.5573 203.639 72.938C204.02 73.3187 204.21 73.8741 204.21 74.6042V78.9977H202.663V74.8429C202.663 74.4366 202.555 74.1397 202.339 73.9522C202.123 73.7619 201.859 73.6667 201.547 73.6667C201.175 73.6667 200.883 73.7832 200.673 74.0161C200.466 74.2463 200.362 74.546 200.362 74.9153V78.9977H198.849V74.7789C198.849 74.4409 198.747 74.171 198.542 73.9693C198.341 73.7676 198.077 73.6667 197.75 73.6667C197.528 73.6667 197.327 73.7235 197.145 73.8372C196.963 73.948 196.818 74.1056 196.71 74.3102C196.602 74.5119 196.548 74.7477 196.548 75.0176V78.9977H195.006ZM205.775 78.9977V72.4522H207.318V78.9977H205.775ZM206.551 71.5232C206.306 71.5232 206.096 71.4423 205.92 71.2804C205.744 71.1156 205.656 70.9181 205.656 70.688C205.656 70.4551 205.744 70.2576 205.92 70.0957C206.096 69.9309 206.306 69.8485 206.551 69.8485C206.798 69.8485 207.008 69.9309 207.181 70.0957C207.357 70.2576 207.445 70.4551 207.445 70.688C207.445 70.9181 207.357 71.1156 207.181 71.2804C207.008 71.4423 206.798 71.5232 206.551 71.5232ZM212.172 72.4522V73.6454H208.41V72.4522H212.172ZM209.339 70.884H210.881V77.0289C210.881 77.2363 210.912 77.3954 210.975 77.5062C211.04 77.6142 211.126 77.688 211.231 77.7278C211.336 77.7676 211.452 77.7875 211.58 77.7875C211.677 77.7875 211.765 77.7804 211.844 77.7661C211.927 77.7519 211.989 77.7392 212.032 77.7278L212.292 78.9338C212.209 78.9622 212.091 78.9934 211.938 79.0275C211.787 79.0616 211.603 79.0815 211.384 79.0872C210.998 79.0985 210.65 79.0403 210.34 78.9125C210.03 78.7818 209.785 78.5801 209.603 78.3073C209.424 78.0346 209.336 77.6937 209.339 77.2846V70.884ZM216.29 79.1255C215.634 79.1255 215.067 78.9892 214.59 78.7164C214.115 78.4409 213.75 78.0517 213.494 77.5488C213.239 77.0431 213.111 76.448 213.111 75.7633C213.111 75.09 213.239 74.4991 213.494 73.9906C213.753 73.4792 214.114 73.0815 214.577 72.7974C215.04 72.5105 215.584 72.367 216.209 72.367C216.612 72.367 216.993 72.4323 217.351 72.563C217.712 72.6909 218.03 72.8897 218.306 73.1596C218.584 73.4295 218.803 73.7732 218.962 74.1909C219.121 74.6056 219.2 75.1 219.2 75.6738V76.1468H213.835V75.1071H217.722C217.719 74.8116 217.655 74.5488 217.53 74.3187C217.405 74.0857 217.23 73.9025 217.006 73.769C216.784 73.6355 216.526 73.5687 216.23 73.5687C215.915 73.5687 215.638 73.6454 215.399 73.7988C215.161 73.9494 214.975 74.1482 214.841 74.3954C214.71 74.6397 214.644 74.9082 214.641 75.2008V76.1085C214.641 76.4892 214.71 76.8159 214.85 77.0886C214.989 77.3585 215.183 77.5659 215.433 77.7107C215.683 77.8528 215.976 77.9238 216.311 77.9238C216.536 77.9238 216.739 77.8926 216.921 77.8301C217.102 77.7647 217.26 77.6696 217.394 77.5446C217.527 77.4196 217.628 77.2647 217.696 77.0801L219.137 77.242C219.046 77.6227 218.872 77.9551 218.617 78.2392C218.364 78.5204 218.04 78.7392 217.645 78.8954C217.25 79.0488 216.798 79.1255 216.29 79.1255Z" fill="#B1B1B1"/>
<path d="M195.047 91.9977V90.8556L198.077 87.8855C198.367 87.5929 198.608 87.3329 198.801 87.1056C198.994 86.8784 199.139 86.6582 199.236 86.4451C199.333 86.2321 199.381 86.0048 199.381 85.7633C199.381 85.4877 199.318 85.2519 199.193 85.0559C199.068 84.8571 198.896 84.7036 198.678 84.5957C198.459 84.4877 198.21 84.4338 197.932 84.4338C197.645 84.4338 197.394 84.4934 197.178 84.6127C196.962 84.7292 196.794 84.8954 196.675 85.1113C196.558 85.3272 196.5 85.5843 196.5 85.8826H194.996C194.996 85.3286 195.122 84.8471 195.375 84.438C195.628 84.0289 195.976 83.7122 196.419 83.4877C196.865 83.2633 197.377 83.1511 197.953 83.1511C198.539 83.1511 199.053 83.2605 199.496 83.4792C199.939 83.698 200.283 83.9977 200.527 84.3784C200.774 84.759 200.898 85.1937 200.898 85.6823C200.898 86.009 200.835 86.3301 200.71 86.6454C200.585 86.9607 200.365 87.3102 200.05 87.6937C199.737 88.0772 199.298 88.5417 198.733 89.0872L197.229 90.617V90.6767H201.03V91.9977H195.047ZM205.726 92.1639C205.024 92.1639 204.422 91.9863 203.919 91.6312C203.419 91.2732 203.034 90.7576 202.764 90.0843C202.497 89.4082 202.364 88.5943 202.364 87.6426C202.367 86.6909 202.502 85.8812 202.769 85.2136C203.039 84.5431 203.423 84.0318 203.923 83.6795C204.426 83.3272 205.027 83.1511 205.726 83.1511C206.425 83.1511 207.026 83.3272 207.529 83.6795C208.031 84.0318 208.416 84.5431 208.683 85.2136C208.953 85.884 209.088 86.6937 209.088 87.6426C209.088 88.5971 208.953 89.4125 208.683 90.0886C208.416 90.7619 208.031 91.2761 207.529 91.6312C207.029 91.9863 206.428 92.1639 205.726 92.1639ZM205.726 90.8301C206.271 90.8301 206.702 90.5616 207.017 90.0247C207.335 89.4849 207.494 88.6909 207.494 87.6426C207.494 86.9494 207.422 86.367 207.277 85.8954C207.132 85.4238 206.928 85.0687 206.664 84.8301C206.399 84.5886 206.087 84.4679 205.726 84.4679C205.183 84.4679 204.754 84.7377 204.439 85.2775C204.124 85.8144 203.965 86.6028 203.962 87.6426C203.959 88.3386 204.029 88.9238 204.171 89.3982C204.316 89.8727 204.52 90.2306 204.784 90.4721C205.048 90.7107 205.362 90.8301 205.726 90.8301Z" fill="#B1B1B1"/>
</g>
<defs>
<filter id="filter0_d_2385_1876" x="0.428053" y="0.4498" width="285.192" height="163.192" filterUnits="userSpaceOnUse" color-interpolation-filters="sRGB">
<feFlood flood-opacity="0" result="BackgroundImageFix"/>
<feColorMatrix in="SourceAlpha" type="matrix" values="0 0 0 0 0 0 0 0 0 0 0 0 0 0 0 0 0 0 127 0" result="hardAlpha"/>
<feMorphology radius="2" operator="dilate" in="SourceAlpha" result="effect1_dropShadow_2385_1876"/>
<feOffset dx="1.02407" dy="2.04813"/>
<feGaussianBlur stdDeviation="6.29801"/>
<feComposite in2="hardAlpha" operator="out"/>
<feColorMatrix type="matrix" values="0 0 0 0 0 0 0 0 0 0 0 0 0 0 0 0 0 0 0.1 0"/>
<feBlend mode="normal" in2="BackgroundImageFix" result="effect1_dropShadow_2385_1876"/>
<feBlend mode="normal" in="SourceGraphic" in2="effect1_dropShadow_2385_1876" result="shape"/>
</filter>
<filter id="filter1_i_2385_1876" x="160" y="36.9977" width="56.6021" height="73.3219" filterUnits="userSpaceOnUse" color-interpolation-filters="sRGB">
<feFlood flood-opacity="0" result="BackgroundImageFix"/>
<feBlend mode="normal" in="SourceGraphic" in2="BackgroundImageFix" result="shape"/>
<feColorMatrix in="SourceAlpha" type="matrix" values="0 0 0 0 0 0 0 0 0 0 0 0 0 0 0 0 0 0 127 0" result="hardAlpha"/>
<feOffset dy="4"/>
<feGaussianBlur stdDeviation="2"/>
<feComposite in2="hardAlpha" operator="arithmetic" k2="-1" k3="1"/>
<feColorMatrix type="matrix" values="0 0 0 0 0 0 0 0 0 0 0 0 0 0 0 0 0 0 0.25 0"/>
<feBlend mode="normal" in2="shape" result="effect1_innerShadow_2385_1876"/>
</filter>
</defs>
</svg>
