<svg width="733" height="438" viewBox="0 0 733 438" fill="none" xmlns="http://www.w3.org/2000/svg">
<g filter="url(#filter0_d_2385_552)">
<rect x="14.458" y="13" width="702.084" height="407.998" rx="8" fill="#2A2A2E" shape-rendering="crispEdges"/>
<g clip-path="url(#clip0_2385_552)">
<g filter="url(#filter1_i_2385_552)">
<path d="M285.369 289.82C283.12 291.821 279.664 291.627 277.765 289.291C264.091 272.47 255.116 252.286 251.81 230.796C248.226 207.507 251.452 183.679 261.099 162.181C270.746 140.684 286.403 122.434 306.183 109.63C324.435 97.8146 345.481 91.1013 367.137 90.1348C370.144 90.0006 372.586 92.4537 372.586 95.464V121.222C372.586 124.232 370.143 126.655 367.139 126.846C352.556 127.777 338.421 132.431 326.104 140.404C312.258 149.367 301.298 162.142 294.545 177.19C287.792 192.239 285.534 208.918 288.043 225.22C290.274 239.723 296.193 253.376 305.192 264.889C307.046 267.26 306.86 270.696 304.612 272.697L285.369 289.82Z" fill="#5D4032"/>
</g>
<g filter="url(#filter2_i_2385_552)">
<path d="M372.586 95.464C372.586 92.4537 375.028 90.0006 378.035 90.1348C402.724 91.2363 426.504 99.8007 446.225 114.694C448.627 116.508 448.944 119.954 447.025 122.273L430.601 142.116C428.682 144.435 425.256 144.744 422.819 142.976C409.719 133.471 394.186 127.877 378.033 126.846C375.029 126.655 372.586 124.232 372.586 121.222V95.464Z" fill="#E2D3CA"/>
</g>
<g filter="url(#filter3_i_2385_552)">
<path d="M447.025 122.273C448.944 119.954 452.389 119.621 454.62 121.642C468.148 133.895 478.777 149.039 485.7 165.976C493.311 184.597 496.208 204.809 494.132 224.818C492.057 244.827 485.074 264.015 473.803 280.677C463.551 295.833 450.04 308.473 434.286 317.689C431.688 319.209 428.385 318.176 426.982 315.512L414.981 292.721C413.578 290.057 414.611 286.776 417.18 285.206C427.607 278.836 436.568 270.294 443.438 260.138C451.327 248.474 456.216 235.043 457.668 221.036C459.121 207.03 457.094 192.881 451.766 179.846C447.126 168.497 440.11 158.297 431.212 149.922C429.019 147.859 428.682 144.435 430.601 142.116L447.025 122.273Z" fill="#CCAFA3"/>
</g>
<g filter="url(#filter4_i_2385_552)">
<path d="M426.982 315.512C428.385 318.176 427.367 321.484 424.643 322.766C401.669 333.585 375.847 336.996 350.772 332.447C325.698 327.897 302.719 315.633 285.01 297.433C282.91 295.276 283.12 291.821 285.369 289.82L304.612 272.697C306.86 270.696 310.294 270.911 312.434 273.028C324.668 285.128 340.303 293.289 357.316 296.376C374.33 299.463 391.836 297.314 407.54 290.282C410.288 289.052 413.578 290.057 414.981 292.721L426.982 315.512Z" fill="#AF826E"/>
</g>
<rect x="485.416" y="191.534" width="34.8845" height="34.8845" rx="17.4423" fill="#1C1C1F"/>
<path d="M491.603 213.476V212.709L494.484 209.556C494.822 209.186 495.1 208.865 495.319 208.593C495.538 208.317 495.7 208.058 495.805 207.817C495.913 207.573 495.967 207.317 495.967 207.05C495.967 206.743 495.893 206.477 495.745 206.253C495.6 206.029 495.401 205.855 495.149 205.733C494.896 205.611 494.612 205.55 494.296 205.55C493.961 205.55 493.668 205.62 493.418 205.759C493.171 205.895 492.98 206.087 492.843 206.334C492.71 206.581 492.643 206.871 492.643 207.203H491.637C491.637 206.692 491.755 206.243 491.991 205.857C492.227 205.47 492.548 205.169 492.954 204.953C493.363 204.737 493.822 204.629 494.33 204.629C494.842 204.629 495.295 204.737 495.69 204.953C496.085 205.169 496.394 205.46 496.619 205.827C496.843 206.193 496.955 206.601 496.955 207.05C496.955 207.371 496.897 207.685 496.781 207.992C496.667 208.296 496.468 208.635 496.184 209.01C495.903 209.382 495.512 209.837 495.012 210.374L493.052 212.47V212.539H497.109V213.476H491.603ZM501.596 213.595C501.096 213.595 500.646 213.496 500.245 213.297C499.845 213.098 499.524 212.826 499.282 212.479C499.041 212.132 498.909 211.737 498.886 211.294H499.909C499.948 211.689 500.127 212.016 500.445 212.274C500.766 212.53 501.15 212.658 501.596 212.658C501.954 212.658 502.272 212.574 502.551 212.406C502.832 212.239 503.052 212.009 503.211 211.716C503.373 211.421 503.454 211.087 503.454 210.715C503.454 210.334 503.37 209.995 503.203 209.696C503.038 209.395 502.811 209.158 502.521 208.985C502.231 208.811 501.9 208.723 501.528 208.72C501.261 208.718 500.987 208.759 500.705 208.844C500.424 208.926 500.193 209.033 500.011 209.164L499.022 209.044L499.551 204.749H504.085V205.686H500.437L500.13 208.26H500.181C500.36 208.118 500.585 208 500.855 207.906C501.124 207.813 501.406 207.766 501.698 207.766C502.232 207.766 502.708 207.894 503.126 208.149C503.546 208.402 503.876 208.749 504.114 209.189C504.356 209.629 504.477 210.132 504.477 210.698C504.477 211.254 504.352 211.752 504.102 212.189C503.855 212.624 503.514 212.968 503.079 213.22C502.644 213.47 502.15 213.595 501.596 213.595ZM510.618 211.84V211.379C510.618 211.061 510.684 210.77 510.814 210.506C510.948 210.239 511.141 210.026 511.394 209.867C511.65 209.705 511.959 209.624 512.323 209.624C512.692 209.624 513.002 209.705 513.252 209.867C513.502 210.026 513.691 210.239 513.819 210.506C513.947 210.77 514.01 211.061 514.01 211.379V211.84C514.01 212.158 513.945 212.451 513.814 212.718C513.687 212.982 513.496 213.195 513.243 213.357C512.993 213.516 512.687 213.595 512.323 213.595C511.954 213.595 511.643 213.516 511.39 213.357C511.137 213.195 510.945 212.982 510.814 212.718C510.684 212.451 510.618 212.158 510.618 211.84ZM511.488 211.379V211.84C511.488 212.104 511.55 212.341 511.675 212.551C511.8 212.759 512.016 212.862 512.323 212.862C512.621 212.862 512.831 212.759 512.954 212.551C513.079 212.341 513.141 212.104 513.141 211.84V211.379C513.141 211.115 513.081 210.879 512.962 210.672C512.843 210.462 512.63 210.357 512.323 210.357C512.025 210.357 511.81 210.462 511.679 210.672C511.552 210.879 511.488 211.115 511.488 211.379ZM506.272 206.845V206.385C506.272 206.067 506.337 205.776 506.468 205.512C506.601 205.245 506.795 205.031 507.047 204.872C507.303 204.71 507.613 204.629 507.976 204.629C508.346 204.629 508.655 204.71 508.905 204.872C509.155 205.031 509.344 205.245 509.472 205.512C509.6 205.776 509.664 206.067 509.664 206.385V206.845C509.664 207.164 509.598 207.456 509.468 207.723C509.34 207.987 509.15 208.201 508.897 208.362C508.647 208.522 508.34 208.601 507.976 208.601C507.607 208.601 507.296 208.522 507.043 208.362C506.79 208.201 506.598 207.987 506.468 207.723C506.337 207.456 506.272 207.164 506.272 206.845ZM507.141 206.385V206.845C507.141 207.11 507.204 207.347 507.329 207.557C507.454 207.764 507.67 207.868 507.976 207.868C508.275 207.868 508.485 207.764 508.607 207.557C508.732 207.347 508.795 207.11 508.795 206.845V206.385C508.795 206.121 508.735 205.885 508.616 205.678C508.496 205.468 508.283 205.362 507.976 205.362C507.678 205.362 507.464 205.468 507.333 205.678C507.205 205.885 507.141 206.121 507.141 206.385ZM506.596 213.476L512.596 204.749H513.567L507.567 213.476H506.596Z" fill="#7D869C"/>
<rect x="398.204" y="72.7084" width="34.8845" height="34.8845" rx="17.4423" fill="#1C1C1F"/>
<path d="M408.21 85.9234V94.6507H407.153V87.0314H407.102L404.971 88.4461V87.3723L407.153 85.9234H408.21ZM413.618 94.77C413.26 94.7643 412.902 94.6962 412.544 94.5655C412.186 94.4348 411.859 94.2146 411.564 93.905C411.268 93.5925 411.031 93.1706 410.852 92.6393C410.673 92.1052 410.583 91.4348 410.583 90.628C410.583 89.8552 410.656 89.1706 410.801 88.574C410.946 87.9746 411.156 87.4703 411.431 87.0612C411.707 86.6493 412.039 86.3368 412.429 86.1237C412.821 85.9106 413.262 85.8041 413.754 85.8041C414.243 85.8041 414.677 85.9021 415.058 86.0981C415.441 86.2913 415.754 86.5612 415.995 86.9078C416.237 87.2544 416.393 87.6535 416.464 88.1052H415.424C415.328 87.7132 415.14 87.3879 414.862 87.1294C414.583 86.8709 414.214 86.7416 413.754 86.7416C413.078 86.7416 412.545 87.0356 412.156 87.6237C411.77 88.2118 411.575 89.0371 411.572 90.0996H411.64C411.799 89.8581 411.988 89.6521 412.207 89.4817C412.429 89.3084 412.673 89.1748 412.94 89.0811C413.207 88.9873 413.49 88.9405 413.788 88.9405C414.288 88.9405 414.745 89.0655 415.16 89.3155C415.575 89.5626 415.907 89.905 416.157 90.3425C416.407 90.7771 416.532 91.2757 416.532 91.8382C416.532 92.378 416.412 92.8723 416.17 93.3212C415.929 93.7672 415.589 94.1223 415.152 94.3865C414.717 94.6479 414.206 94.7757 413.618 94.77ZM413.618 93.8325C413.975 93.8325 414.297 93.743 414.581 93.564C414.868 93.3851 415.093 93.145 415.258 92.8439C415.426 92.5427 415.51 92.2075 415.51 91.8382C415.51 91.4774 415.429 91.1493 415.267 90.8538C415.108 90.5555 414.887 90.3183 414.606 90.1422C414.328 89.966 414.01 89.878 413.652 89.878C413.382 89.878 413.13 89.9319 412.897 90.0399C412.664 90.145 412.46 90.2899 412.284 90.4746C412.11 90.6592 411.974 90.8709 411.875 91.1095C411.775 91.3453 411.725 91.5939 411.725 91.8552C411.725 92.2018 411.806 92.5257 411.968 92.8268C412.133 93.128 412.358 93.3709 412.642 93.5555C412.929 93.7402 413.254 93.8325 413.618 93.8325ZM422.657 93.0143V92.5541C422.657 92.2359 422.722 91.9447 422.853 91.6805C422.987 91.4135 423.18 91.2004 423.433 91.0413C423.688 90.8794 423.998 90.7984 424.362 90.7984C424.731 90.7984 425.04 90.8794 425.29 91.0413C425.54 91.2004 425.729 91.4135 425.857 91.6805C425.985 91.9447 426.049 92.2359 426.049 92.5541V93.0143C426.049 93.3325 425.984 93.6251 425.853 93.8922C425.725 94.1564 425.535 94.3694 425.282 94.5314C425.032 94.6905 424.725 94.77 424.362 94.77C423.992 94.77 423.681 94.6905 423.428 94.5314C423.175 94.3694 422.984 94.1564 422.853 93.8922C422.722 93.6251 422.657 93.3325 422.657 93.0143ZM423.526 92.5541V93.0143C423.526 93.2785 423.589 93.5158 423.714 93.726C423.839 93.9334 424.055 94.0371 424.362 94.0371C424.66 94.0371 424.87 93.9334 424.992 93.726C425.117 93.5158 425.18 93.2785 425.18 93.0143V92.5541C425.18 92.2899 425.12 92.0541 425.001 91.8467C424.881 91.6365 424.668 91.5314 424.362 91.5314C424.063 91.5314 423.849 91.6365 423.718 91.8467C423.59 92.0541 423.526 92.2899 423.526 92.5541ZM418.31 88.02V87.5598C418.31 87.2416 418.376 86.9504 418.506 86.6862C418.64 86.4192 418.833 86.2061 419.086 86.047C419.342 85.8851 419.651 85.8041 420.015 85.8041C420.384 85.8041 420.694 85.8851 420.944 86.047C421.194 86.2061 421.383 86.4192 421.511 86.6862C421.638 86.9504 421.702 87.2416 421.702 87.5598V88.02C421.702 88.3382 421.637 88.6308 421.506 88.8979C421.379 89.1621 421.188 89.3751 420.935 89.5371C420.685 89.6962 420.379 89.7757 420.015 89.7757C419.646 89.7757 419.335 89.6962 419.082 89.5371C418.829 89.3751 418.637 89.1621 418.506 88.8979C418.376 88.6308 418.31 88.3382 418.31 88.02ZM419.18 87.5598V88.02C419.18 88.2842 419.242 88.5214 419.367 88.7317C419.492 88.939 419.708 89.0427 420.015 89.0427C420.313 89.0427 420.523 88.939 420.646 88.7317C420.771 88.5214 420.833 88.2842 420.833 88.02V87.5598C420.833 87.2956 420.773 87.0598 420.654 86.8524C420.535 86.6422 420.322 86.5371 420.015 86.5371C419.717 86.5371 419.502 86.6422 419.371 86.8524C419.244 87.0598 419.18 87.2956 419.18 87.5598ZM418.634 94.6507L424.634 85.9234H425.606L419.606 94.6507H418.634Z" fill="#A2ABAB"/>
<rect x="239.043" y="137.027" width="34.8845" height="34.8845" rx="17.4423" fill="#1C1C1F"/>
<path d="M247.899 159.088C247.336 159.088 246.835 158.992 246.394 158.799C245.957 158.605 245.609 158.337 245.35 157.993C245.095 157.647 244.955 157.245 244.933 156.787H246.007C246.029 157.068 246.126 157.311 246.296 157.516C246.467 157.718 246.69 157.874 246.965 157.985C247.241 158.095 247.546 158.151 247.882 158.151C248.257 158.151 248.589 158.085 248.879 157.955C249.169 157.824 249.396 157.642 249.561 157.409C249.725 157.176 249.808 156.906 249.808 156.6C249.808 156.279 249.728 155.996 249.569 155.752C249.41 155.505 249.177 155.311 248.87 155.172C248.563 155.033 248.188 154.963 247.745 154.963H247.046V154.026H247.745C248.092 154.026 248.396 153.963 248.657 153.838C248.921 153.713 249.127 153.537 249.275 153.31C249.426 153.083 249.501 152.816 249.501 152.509C249.501 152.213 249.436 151.956 249.305 151.737C249.174 151.519 248.99 151.348 248.751 151.226C248.515 151.104 248.237 151.043 247.916 151.043C247.615 151.043 247.33 151.098 247.063 151.209C246.799 151.317 246.583 151.475 246.416 151.682C246.248 151.887 246.157 152.134 246.143 152.424H245.12C245.137 151.966 245.275 151.566 245.534 151.222C245.792 150.875 246.13 150.605 246.548 150.412C246.968 150.219 247.43 150.122 247.933 150.122C248.473 150.122 248.936 150.232 249.322 150.451C249.708 150.666 250.005 150.952 250.213 151.307C250.42 151.662 250.524 152.046 250.524 152.458C250.524 152.949 250.394 153.368 250.136 153.715C249.88 154.061 249.532 154.301 249.092 154.435V154.503C249.643 154.594 250.073 154.828 250.383 155.206C250.693 155.581 250.848 156.046 250.848 156.6C250.848 157.074 250.718 157.5 250.46 157.878C250.204 158.253 249.855 158.549 249.411 158.764C248.968 158.98 248.464 159.088 247.899 159.088ZM255.369 150.122C255.727 150.125 256.085 150.193 256.443 150.327C256.801 150.46 257.127 150.682 257.423 150.992C257.718 151.299 257.955 151.718 258.134 152.249C258.313 152.78 258.403 153.446 258.403 154.247C258.403 155.023 258.329 155.712 258.181 156.314C258.036 156.914 257.826 157.419 257.551 157.831C257.278 158.243 256.946 158.556 256.553 158.769C256.164 158.982 255.724 159.088 255.232 159.088C254.744 159.088 254.308 158.992 253.924 158.799C253.544 158.603 253.231 158.331 252.987 157.985C252.745 157.635 252.59 157.23 252.522 156.77H253.562C253.656 157.171 253.842 157.502 254.12 157.763C254.402 158.022 254.772 158.151 255.232 158.151C255.906 158.151 256.437 157.857 256.826 157.269C257.218 156.681 257.414 155.85 257.414 154.776H257.346C257.187 155.014 256.998 155.22 256.779 155.394C256.561 155.567 256.318 155.701 256.051 155.794C255.784 155.888 255.5 155.935 255.198 155.935C254.698 155.935 254.24 155.811 253.822 155.564C253.407 155.314 253.075 154.972 252.825 154.537C252.578 154.1 252.454 153.6 252.454 153.037C252.454 152.503 252.573 152.014 252.812 151.571C253.053 151.125 253.392 150.77 253.826 150.506C254.264 150.242 254.778 150.114 255.369 150.122ZM255.369 151.06C255.011 151.06 254.688 151.149 254.402 151.328C254.117 151.505 253.892 151.743 253.724 152.044C253.559 152.343 253.477 152.674 253.477 153.037C253.477 153.401 253.556 153.732 253.715 154.03C253.877 154.326 254.098 154.561 254.376 154.737C254.657 154.911 254.977 154.997 255.335 154.997C255.605 154.997 255.856 154.945 256.089 154.84C256.322 154.732 256.525 154.585 256.698 154.401C256.875 154.213 257.012 154.002 257.112 153.766C257.211 153.527 257.261 153.279 257.261 153.02C257.261 152.679 257.178 152.36 257.014 152.061C256.852 151.763 256.627 151.522 256.34 151.337C256.056 151.152 255.732 151.06 255.369 151.06ZM264.528 157.333V156.872C264.528 156.554 264.593 156.263 264.724 155.999C264.857 155.732 265.05 155.519 265.303 155.36C265.559 155.198 265.868 155.117 266.232 155.117C266.601 155.117 266.911 155.198 267.161 155.36C267.411 155.519 267.6 155.732 267.728 155.999C267.856 156.263 267.92 156.554 267.92 156.872V157.333C267.92 157.651 267.854 157.943 267.724 158.21C267.596 158.475 267.405 158.688 267.153 158.85C266.903 159.009 266.596 159.088 266.232 159.088C265.863 159.088 265.552 159.009 265.299 158.85C265.046 158.688 264.854 158.475 264.724 158.21C264.593 157.943 264.528 157.651 264.528 157.333ZM265.397 156.872V157.333C265.397 157.597 265.459 157.834 265.584 158.044C265.709 158.252 265.925 158.355 266.232 158.355C266.53 158.355 266.741 158.252 266.863 158.044C266.988 157.834 267.05 157.597 267.05 157.333V156.872C267.05 156.608 266.991 156.372 266.871 156.165C266.752 155.955 266.539 155.85 266.232 155.85C265.934 155.85 265.719 155.955 265.589 156.165C265.461 156.372 265.397 156.608 265.397 156.872ZM260.181 152.338V151.878C260.181 151.56 260.246 151.269 260.377 151.005C260.511 150.737 260.704 150.524 260.957 150.365C261.212 150.203 261.522 150.122 261.886 150.122C262.255 150.122 262.564 150.203 262.814 150.365C263.064 150.524 263.253 150.737 263.381 151.005C263.509 151.269 263.573 151.56 263.573 151.878V152.338C263.573 152.656 263.508 152.949 263.377 153.216C263.249 153.48 263.059 153.693 262.806 153.855C262.556 154.014 262.249 154.094 261.886 154.094C261.516 154.094 261.205 154.014 260.952 153.855C260.699 153.693 260.508 153.48 260.377 153.216C260.246 152.949 260.181 152.656 260.181 152.338ZM261.05 151.878V152.338C261.05 152.603 261.113 152.84 261.238 153.05C261.363 153.257 261.579 153.361 261.886 153.361C262.184 153.361 262.394 153.257 262.516 153.05C262.641 152.84 262.704 152.603 262.704 152.338V151.878C262.704 151.614 262.644 151.378 262.525 151.171C262.405 150.96 262.192 150.855 261.886 150.855C261.587 150.855 261.373 150.96 261.242 151.171C261.114 151.378 261.05 151.614 261.05 151.878ZM260.505 158.969L266.505 150.242H267.476L261.476 158.969H260.505Z" fill="#B4C4AE"/>
<rect x="338.247" y="316.9" width="34.8845" height="34.8845" rx="17.4423" fill="#1C1C1F"/>
<path d="M348.252 330.115V338.842H347.196V331.223H347.144L345.014 332.638V331.564L347.196 330.115H348.252ZM353.541 329.996C353.899 329.998 354.257 330.067 354.615 330.2C354.973 330.334 355.299 330.555 355.595 330.865C355.89 331.172 356.127 331.591 356.306 332.122C356.485 332.653 356.575 333.319 356.575 334.121C356.575 334.896 356.501 335.585 356.353 336.187C356.208 336.787 355.998 337.292 355.723 337.704C355.45 338.116 355.117 338.429 354.725 338.642C354.336 338.855 353.896 338.961 353.404 338.961C352.916 338.961 352.48 338.865 352.096 338.672C351.715 338.476 351.403 338.204 351.159 337.858C350.917 337.508 350.762 337.104 350.694 336.643H351.734C351.828 337.044 352.014 337.375 352.292 337.636C352.573 337.895 352.944 338.024 353.404 338.024C354.078 338.024 354.609 337.73 354.998 337.142C355.39 336.554 355.586 335.723 355.586 334.649H355.518C355.359 334.888 355.17 335.094 354.951 335.267C354.732 335.44 354.49 335.574 354.223 335.667C353.955 335.761 353.671 335.808 353.37 335.808C352.87 335.808 352.411 335.684 351.994 335.437C351.579 335.187 351.247 334.845 350.997 334.41C350.75 333.973 350.626 333.473 350.626 332.91C350.626 332.376 350.745 331.888 350.984 331.444C351.225 330.998 351.563 330.643 351.998 330.379C352.436 330.115 352.95 329.987 353.541 329.996ZM353.541 330.933C353.183 330.933 352.86 331.023 352.573 331.202C352.289 331.378 352.063 331.616 351.896 331.917C351.731 332.216 351.649 332.547 351.649 332.91C351.649 333.274 351.728 333.605 351.887 333.903C352.049 334.199 352.269 334.434 352.548 334.611C352.829 334.784 353.149 334.871 353.507 334.871C353.777 334.871 354.028 334.818 354.261 334.713C354.494 334.605 354.697 334.459 354.87 334.274C355.046 334.086 355.184 333.875 355.284 333.639C355.383 333.4 355.433 333.152 355.433 332.893C355.433 332.552 355.35 332.233 355.186 331.934C355.024 331.636 354.799 331.395 354.512 331.21C354.228 331.025 353.904 330.933 353.541 330.933ZM362.699 337.206V336.746C362.699 336.427 362.765 336.136 362.895 335.872C363.029 335.605 363.222 335.392 363.475 335.233C363.731 335.071 364.04 334.99 364.404 334.99C364.773 334.99 365.083 335.071 365.333 335.233C365.583 335.392 365.772 335.605 365.9 335.872C366.028 336.136 366.091 336.427 366.091 336.746V337.206C366.091 337.524 366.026 337.817 365.895 338.084C365.768 338.348 365.577 338.561 365.324 338.723C365.074 338.882 364.768 338.961 364.404 338.961C364.035 338.961 363.724 338.882 363.471 338.723C363.218 338.561 363.026 338.348 362.895 338.084C362.765 337.817 362.699 337.524 362.699 337.206ZM363.569 336.746V337.206C363.569 337.47 363.631 337.707 363.756 337.917C363.881 338.125 364.097 338.229 364.404 338.229C364.702 338.229 364.913 338.125 365.035 337.917C365.16 337.707 365.222 337.47 365.222 337.206V336.746C365.222 336.481 365.163 336.246 365.043 336.038C364.924 335.828 364.711 335.723 364.404 335.723C364.106 335.723 363.891 335.828 363.761 336.038C363.633 336.246 363.569 336.481 363.569 336.746ZM358.353 332.211V331.751C358.353 331.433 358.418 331.142 358.549 330.878C358.682 330.611 358.876 330.398 359.128 330.238C359.384 330.077 359.694 329.996 360.057 329.996C360.427 329.996 360.736 330.077 360.986 330.238C361.236 330.398 361.425 330.611 361.553 330.878C361.681 331.142 361.745 331.433 361.745 331.751V332.211C361.745 332.53 361.68 332.822 361.549 333.089C361.421 333.354 361.231 333.567 360.978 333.729C360.728 333.888 360.421 333.967 360.057 333.967C359.688 333.967 359.377 333.888 359.124 333.729C358.871 333.567 358.68 333.354 358.549 333.089C358.418 332.822 358.353 332.53 358.353 332.211ZM359.222 331.751V332.211C359.222 332.476 359.285 332.713 359.41 332.923C359.535 333.131 359.751 333.234 360.057 333.234C360.356 333.234 360.566 333.131 360.688 332.923C360.813 332.713 360.876 332.476 360.876 332.211V331.751C360.876 331.487 360.816 331.251 360.697 331.044C360.577 330.834 360.364 330.729 360.057 330.729C359.759 330.729 359.545 330.834 359.414 331.044C359.286 331.251 359.222 331.487 359.222 331.751ZM358.677 338.842L364.677 330.115H365.648L359.648 338.842H358.677Z" fill="#E5E8B6"/>
<path d="M39.4694 113.549H42.5035L45.708 121.368H45.8444L49.0489 113.549H52.083V125.186H49.6966V117.612H49.6001L46.5887 125.129H44.9637L41.9523 117.584H41.8557V125.186H39.4694V113.549ZM58.0077 125.356C57.1251 125.356 56.3619 125.169 55.718 124.794C55.0778 124.415 54.5835 123.889 54.235 123.214C53.8865 122.536 53.7123 121.75 53.7123 120.856C53.7123 119.955 53.8865 119.167 54.235 118.493C54.5835 117.815 55.0778 117.288 55.718 116.913C56.3619 116.534 57.1251 116.345 58.0077 116.345C58.8903 116.345 59.6517 116.534 60.2918 116.913C60.9358 117.288 61.432 117.815 61.7805 118.493C62.1289 119.167 62.3032 119.955 62.3032 120.856C62.3032 121.75 62.1289 122.536 61.7805 123.214C61.432 123.889 60.9358 124.415 60.2918 124.794C59.6517 125.169 58.8903 125.356 58.0077 125.356ZM58.0191 123.481C58.4206 123.481 58.7558 123.368 59.0248 123.14C59.2937 122.909 59.4964 122.595 59.6327 122.197C59.7729 121.799 59.843 121.347 59.843 120.839C59.843 120.332 59.7729 119.879 59.6327 119.481C59.4964 119.084 59.2937 118.769 59.0248 118.538C58.7558 118.307 58.4206 118.192 58.0191 118.192C57.6138 118.192 57.2729 118.307 56.9964 118.538C56.7236 118.769 56.5172 119.084 56.377 119.481C56.2407 119.879 56.1725 120.332 56.1725 120.839C56.1725 121.347 56.2407 121.799 56.377 122.197C56.5172 122.595 56.7236 122.909 56.9964 123.14C57.2729 123.368 57.6138 123.481 58.0191 123.481ZM67.093 125.328C66.4301 125.328 65.8297 125.157 65.2918 124.817C64.7577 124.472 64.3335 123.966 64.0191 123.299C63.7085 122.629 63.5532 121.807 63.5532 120.834C63.5532 119.834 63.7142 119.002 64.0361 118.339C64.3581 117.673 64.7861 117.174 65.3202 116.845C65.8581 116.512 66.4471 116.345 67.0873 116.345C67.5759 116.345 67.9831 116.428 68.3089 116.595C68.6384 116.758 68.9036 116.962 69.1043 117.209C69.3089 117.451 69.4642 117.69 69.5702 117.924H69.6441V113.549H72.0589V125.186H69.6725V123.788H69.5702C69.4566 124.031 69.2956 124.271 69.0873 124.51C68.8827 124.745 68.6157 124.94 68.2861 125.095C67.9604 125.25 67.5626 125.328 67.093 125.328ZM67.86 123.402C68.2501 123.402 68.5797 123.296 68.8486 123.084C69.1214 122.868 69.3297 122.567 69.4736 122.18C69.6214 121.794 69.6952 121.341 69.6952 120.822C69.6952 120.303 69.6233 119.853 69.4793 119.47C69.3354 119.087 69.127 118.792 68.8543 118.584C68.5816 118.375 68.2501 118.271 67.86 118.271C67.4623 118.271 67.127 118.379 66.8543 118.595C66.5816 118.811 66.3751 119.11 66.235 119.493C66.0948 119.875 66.0248 120.318 66.0248 120.822C66.0248 121.33 66.0948 121.779 66.235 122.169C66.3789 122.555 66.5854 122.858 66.8543 123.078C67.127 123.294 67.4623 123.402 67.86 123.402ZM78.0262 125.356C77.1285 125.356 76.3557 125.174 75.708 124.811C75.0641 124.443 74.5679 123.924 74.2194 123.254C73.8709 122.58 73.6966 121.782 73.6966 120.862C73.6966 119.964 73.8709 119.176 74.2194 118.498C74.5679 117.82 75.0584 117.292 75.691 116.913C76.3273 116.534 77.0735 116.345 77.9296 116.345C78.5054 116.345 79.0413 116.438 79.5376 116.623C80.0376 116.805 80.4732 117.08 80.8444 117.447C81.2194 117.815 81.511 118.277 81.7194 118.834C81.9277 119.387 82.0319 120.034 82.0319 120.777V121.442H74.6626V119.942H79.7535C79.7535 119.593 79.6777 119.284 79.5262 119.015C79.3747 118.746 79.1644 118.536 78.8955 118.385C78.6304 118.229 78.3216 118.152 77.9694 118.152C77.6019 118.152 77.2762 118.237 76.9921 118.407C76.7118 118.574 76.4921 118.799 76.333 119.084C76.1739 119.364 76.0925 119.676 76.0887 120.021V121.447C76.0887 121.879 76.1682 122.252 76.3273 122.567C76.4902 122.881 76.7194 123.123 77.0148 123.294C77.3103 123.464 77.6607 123.549 78.066 123.549C78.3349 123.549 78.5811 123.512 78.8046 123.436C79.0281 123.36 79.2194 123.246 79.3785 123.095C79.5376 122.943 79.6588 122.758 79.7421 122.538L81.9807 122.686C81.8671 123.224 81.6341 123.693 81.2819 124.095C80.9334 124.493 80.4826 124.803 79.9296 125.027C79.3804 125.246 78.7459 125.356 78.0262 125.356ZM97.627 117.623H95.1384C95.093 117.301 95.0001 117.015 94.86 116.765C94.7198 116.512 94.5399 116.296 94.3202 116.118C94.1005 115.94 93.8467 115.803 93.5589 115.709C93.2748 115.614 92.9661 115.567 92.6327 115.567C92.0305 115.567 91.5058 115.716 91.0589 116.015C90.6119 116.311 90.2653 116.743 90.0191 117.311C89.7729 117.875 89.6498 118.561 89.6498 119.368C89.6498 120.197 89.7729 120.894 90.0191 121.459C90.2691 122.023 90.6176 122.449 91.0645 122.737C91.5115 123.025 92.0286 123.169 92.6157 123.169C92.9452 123.169 93.2501 123.125 93.5305 123.038C93.8145 122.951 94.0664 122.824 94.2861 122.657C94.5058 122.487 94.6876 122.281 94.8316 122.038C94.9793 121.796 95.0816 121.519 95.1384 121.209L97.627 121.22C97.5626 121.754 97.4017 122.269 97.1441 122.765C96.8903 123.258 96.5475 123.699 96.1157 124.089C95.6876 124.476 95.1763 124.782 94.5816 125.01C93.9907 125.233 93.3221 125.345 92.5759 125.345C91.538 125.345 90.61 125.11 89.7918 124.64C88.9774 124.171 88.3335 123.491 87.86 122.601C87.3903 121.71 87.1555 120.633 87.1555 119.368C87.1555 118.099 87.3941 117.019 87.8714 116.129C88.3486 115.239 88.9964 114.561 89.8145 114.095C90.6327 113.625 91.5532 113.39 92.5759 113.39C93.2501 113.39 93.8751 113.485 94.4509 113.674C95.0305 113.864 95.5437 114.14 95.9907 114.504C96.4376 114.864 96.8013 115.305 97.0816 115.828C97.3657 116.351 97.5475 116.949 97.627 117.623ZM103.289 125.356C102.406 125.356 101.643 125.169 100.999 124.794C100.359 124.415 99.8647 123.889 99.5162 123.214C99.1678 122.536 98.9935 121.75 98.9935 120.856C98.9935 119.955 99.1678 119.167 99.5162 118.493C99.8647 117.815 100.359 117.288 100.999 116.913C101.643 116.534 102.406 116.345 103.289 116.345C104.172 116.345 104.933 116.534 105.573 116.913C106.217 117.288 106.713 117.815 107.062 118.493C107.41 119.167 107.584 119.955 107.584 120.856C107.584 121.75 107.41 122.536 107.062 123.214C106.713 123.889 106.217 124.415 105.573 124.794C104.933 125.169 104.172 125.356 103.289 125.356ZM103.3 123.481C103.702 123.481 104.037 123.368 104.306 123.14C104.575 122.909 104.778 122.595 104.914 122.197C105.054 121.799 105.124 121.347 105.124 120.839C105.124 120.332 105.054 119.879 104.914 119.481C104.778 119.084 104.575 118.769 104.306 118.538C104.037 118.307 103.702 118.192 103.3 118.192C102.895 118.192 102.554 118.307 102.278 118.538C102.005 118.769 101.798 119.084 101.658 119.481C101.522 119.879 101.454 120.332 101.454 120.839C101.454 121.347 101.522 121.799 101.658 122.197C101.798 122.595 102.005 122.909 102.278 123.14C102.554 123.368 102.895 123.481 103.3 123.481ZM113.101 125.356C112.208 125.356 111.439 125.167 110.795 124.788C110.155 124.406 109.662 123.875 109.317 123.197C108.976 122.519 108.806 121.739 108.806 120.856C108.806 119.962 108.978 119.178 109.323 118.504C109.672 117.826 110.166 117.298 110.806 116.919C111.446 116.536 112.208 116.345 113.09 116.345C113.851 116.345 114.518 116.483 115.09 116.76C115.662 117.036 116.115 117.424 116.448 117.924C116.781 118.424 116.965 119.012 116.999 119.686H114.715C114.651 119.25 114.48 118.9 114.204 118.635C113.931 118.366 113.573 118.231 113.13 118.231C112.755 118.231 112.427 118.334 112.147 118.538C111.87 118.739 111.655 119.032 111.499 119.419C111.344 119.805 111.266 120.273 111.266 120.822C111.266 121.379 111.342 121.853 111.494 122.243C111.649 122.633 111.867 122.93 112.147 123.135C112.427 123.339 112.755 123.442 113.13 123.442C113.406 123.442 113.655 123.385 113.874 123.271C114.098 123.157 114.281 122.993 114.425 122.777C114.573 122.557 114.67 122.294 114.715 121.987H116.999C116.961 122.654 116.78 123.241 116.454 123.748C116.132 124.252 115.687 124.646 115.119 124.93C114.55 125.214 113.878 125.356 113.101 125.356ZM122.492 125.356C121.61 125.356 120.846 125.169 120.202 124.794C119.562 124.415 119.068 123.889 118.719 123.214C118.371 122.536 118.197 121.75 118.197 120.856C118.197 119.955 118.371 119.167 118.719 118.493C119.068 117.815 119.562 117.288 120.202 116.913C120.846 116.534 121.61 116.345 122.492 116.345C123.375 116.345 124.136 116.534 124.776 116.913C125.42 117.288 125.916 117.815 126.265 118.493C126.613 119.167 126.788 119.955 126.788 120.856C126.788 121.75 126.613 122.536 126.265 123.214C125.916 123.889 125.42 124.415 124.776 124.794C124.136 125.169 123.375 125.356 122.492 125.356ZM122.503 123.481C122.905 123.481 123.24 123.368 123.509 123.14C123.778 122.909 123.981 122.595 124.117 122.197C124.257 121.799 124.327 121.347 124.327 120.839C124.327 120.332 124.257 119.879 124.117 119.481C123.981 119.084 123.778 118.769 123.509 118.538C123.24 118.307 122.905 118.192 122.503 118.192C122.098 118.192 121.757 118.307 121.481 118.538C121.208 118.769 121.002 119.084 120.861 119.481C120.725 119.879 120.657 120.332 120.657 120.839C120.657 121.347 120.725 121.799 120.861 122.197C121.002 122.595 121.208 122.909 121.481 123.14C121.757 123.368 122.098 123.481 122.503 123.481ZM132.305 125.356C131.422 125.356 130.659 125.169 130.015 124.794C129.375 124.415 128.88 123.889 128.532 123.214C128.183 122.536 128.009 121.75 128.009 120.856C128.009 119.955 128.183 119.167 128.532 118.493C128.88 117.815 129.375 117.288 130.015 116.913C130.659 116.534 131.422 116.345 132.305 116.345C133.187 116.345 133.949 116.534 134.589 116.913C135.233 117.288 135.729 117.815 136.077 118.493C136.426 119.167 136.6 119.955 136.6 120.856C136.6 121.75 136.426 122.536 136.077 123.214C135.729 123.889 135.233 124.415 134.589 124.794C133.949 125.169 133.187 125.356 132.305 125.356ZM132.316 123.481C132.717 123.481 133.053 123.368 133.322 123.14C133.591 122.909 133.793 122.595 133.93 122.197C134.07 121.799 134.14 121.347 134.14 120.839C134.14 120.332 134.07 119.879 133.93 119.481C133.793 119.084 133.591 118.769 133.322 118.538C133.053 118.307 132.717 118.192 132.316 118.192C131.911 118.192 131.57 118.307 131.293 118.538C131.021 118.769 130.814 119.084 130.674 119.481C130.538 119.879 130.469 120.332 130.469 120.839C130.469 121.347 130.538 121.799 130.674 122.197C130.814 122.595 131.021 122.909 131.293 123.14C131.57 123.368 131.911 123.481 132.316 123.481ZM140.594 120.14V125.186H138.174V116.459H140.481V117.998H140.583C140.776 117.491 141.1 117.089 141.555 116.794C142.009 116.495 142.56 116.345 143.208 116.345C143.814 116.345 144.342 116.478 144.793 116.743C145.244 117.008 145.594 117.387 145.844 117.879C146.094 118.368 146.219 118.951 146.219 119.629V125.186H143.799V120.061C143.803 119.527 143.666 119.11 143.39 118.811C143.113 118.508 142.733 118.356 142.248 118.356C141.922 118.356 141.634 118.426 141.384 118.567C141.138 118.707 140.945 118.911 140.805 119.18C140.668 119.445 140.598 119.765 140.594 120.14Z" fill="#EDEDED"/>
<path d="M218.331 144.141L193.212 129.186H38.458" stroke="#B4C4AE" stroke-width="1.09014"/>
<path d="M463.694 39.4538H466.728L469.933 47.272H470.069L473.274 39.4538H476.308V51.0901H473.921V43.5163H473.825L470.813 51.0333H469.188L466.177 43.4879H466.08V51.0901H463.694V39.4538ZM482.232 51.2606C481.35 51.2606 480.586 51.0731 479.943 50.6981C479.302 50.3193 478.808 49.7928 478.46 49.1186C478.111 48.4405 477.937 47.6545 477.937 46.7606C477.937 45.8591 478.111 45.0712 478.46 44.397C478.808 43.7189 479.302 43.1924 479.943 42.8174C480.586 42.4386 481.35 42.2492 482.232 42.2492C483.115 42.2492 483.876 42.4386 484.516 42.8174C485.16 43.1924 485.657 43.7189 486.005 44.397C486.354 45.0712 486.528 45.8591 486.528 46.7606C486.528 47.6545 486.354 48.4405 486.005 49.1186C485.657 49.7928 485.16 50.3193 484.516 50.6981C483.876 51.0731 483.115 51.2606 482.232 51.2606ZM482.244 49.3856C482.645 49.3856 482.98 49.272 483.249 49.0447C483.518 48.8136 483.721 48.4992 483.857 48.1015C483.997 47.7038 484.068 47.2511 484.068 46.7436C484.068 46.236 483.997 45.7833 483.857 45.3856C483.721 44.9879 483.518 44.6735 483.249 44.4424C482.98 44.2114 482.645 44.0958 482.244 44.0958C481.838 44.0958 481.497 44.2114 481.221 44.4424C480.948 44.6735 480.742 44.9879 480.602 45.3856C480.465 45.7833 480.397 46.236 480.397 46.7436C480.397 47.2511 480.465 47.7038 480.602 48.1015C480.742 48.4992 480.948 48.8136 481.221 49.0447C481.497 49.272 481.838 49.3856 482.244 49.3856ZM491.318 51.2322C490.655 51.2322 490.054 51.0617 489.516 50.7208C488.982 50.3761 488.558 49.8705 488.244 49.2038C487.933 48.5333 487.778 47.7114 487.778 46.7379C487.778 45.7379 487.939 44.9064 488.261 44.2436C488.583 43.5769 489.011 43.0788 489.545 42.7492C490.083 42.4159 490.672 42.2492 491.312 42.2492C491.801 42.2492 492.208 42.3326 492.533 42.4992C492.863 42.6621 493.128 42.8667 493.329 43.1129C493.533 43.3553 493.689 43.5939 493.795 43.8288H493.869V39.4538H496.283V51.0901H493.897V49.6924H493.795C493.681 49.9348 493.52 50.1754 493.312 50.414C493.107 50.6489 492.84 50.8439 492.511 50.9992C492.185 51.1545 491.787 51.2322 491.318 51.2322ZM492.085 49.3061C492.475 49.3061 492.804 49.2 493.073 48.9879C493.346 48.772 493.554 48.4708 493.698 48.0845C493.846 47.6981 493.92 47.2455 493.92 46.7265C493.92 46.2076 493.848 45.7568 493.704 45.3742C493.56 44.9917 493.352 44.6962 493.079 44.4879C492.806 44.2795 492.475 44.1754 492.085 44.1754C491.687 44.1754 491.352 44.2833 491.079 44.4992C490.806 44.7151 490.6 45.0144 490.46 45.397C490.319 45.7795 490.249 46.2227 490.249 46.7265C490.249 47.2341 490.319 47.683 490.46 48.0731C490.604 48.4595 490.81 48.7625 491.079 48.9822C491.352 49.1981 491.687 49.3061 492.085 49.3061ZM502.251 51.2606C501.353 51.2606 500.58 51.0788 499.933 50.7151C499.289 50.3477 498.792 49.8288 498.444 49.1583C498.095 48.4841 497.921 47.6867 497.921 46.7663C497.921 45.8686 498.095 45.0807 498.444 44.4026C498.792 43.7246 499.283 43.1962 499.916 42.8174C500.552 42.4386 501.298 42.2492 502.154 42.2492C502.73 42.2492 503.266 42.342 503.762 42.5276C504.262 42.7095 504.698 42.9841 505.069 43.3515C505.444 43.7189 505.736 44.1811 505.944 44.7379C506.152 45.2909 506.256 45.9386 506.256 46.6811V47.3458H498.887V45.8458H503.978C503.978 45.4973 503.902 45.1886 503.751 44.9197C503.599 44.6508 503.389 44.4405 503.12 44.289C502.855 44.1337 502.546 44.0561 502.194 44.0561C501.827 44.0561 501.501 44.1413 501.217 44.3117C500.936 44.4784 500.717 44.7038 500.558 44.9879C500.399 45.2682 500.317 45.5807 500.313 45.9254V47.3515C500.313 47.7833 500.393 48.1564 500.552 48.4708C500.715 48.7852 500.944 49.0276 501.239 49.1981C501.535 49.3686 501.885 49.4538 502.291 49.4538C502.56 49.4538 502.806 49.4159 503.029 49.3401C503.253 49.2644 503.444 49.1508 503.603 48.9992C503.762 48.8477 503.883 48.6621 503.967 48.4424L506.205 48.5901C506.092 49.128 505.859 49.5977 505.506 49.9992C505.158 50.397 504.707 50.7076 504.154 50.9311C503.605 51.1508 502.97 51.2606 502.251 51.2606ZM513.59 51.0901H510.954L514.971 39.4538H518.141L522.153 51.0901H519.516L516.602 42.1129H516.511L513.59 51.0901ZM513.426 46.5163H519.653V48.4367H513.426V46.5163ZM529.104 47.3742V42.3629H531.525V51.0901H529.201V49.5049H529.11C528.913 50.0163 528.586 50.4273 528.127 50.7379C527.673 51.0485 527.118 51.2038 526.462 51.2038C525.879 51.2038 525.366 51.0712 524.923 50.8061C524.479 50.5409 524.133 50.164 523.883 49.6754C523.637 49.1867 523.512 48.6015 523.508 47.9197V42.3629H525.928V47.4879C525.932 48.003 526.07 48.4102 526.343 48.7095C526.616 49.0087 526.981 49.1583 527.44 49.1583C527.731 49.1583 528.004 49.092 528.258 48.9595C528.512 48.8231 528.716 48.6223 528.872 48.3572C529.031 48.092 529.108 47.7644 529.104 47.3742ZM538.103 42.3629V44.1811H532.847V42.3629H538.103ZM534.041 40.272H536.461V48.4083C536.461 48.6318 536.495 48.8061 536.563 48.9311C536.631 49.0523 536.726 49.1375 536.847 49.1867C536.972 49.236 537.116 49.2606 537.279 49.2606C537.393 49.2606 537.506 49.2511 537.62 49.2322C537.734 49.2095 537.821 49.1924 537.881 49.1811L538.262 50.9822C538.141 51.0201 537.97 51.0636 537.751 51.1129C537.531 51.1659 537.264 51.1981 536.95 51.2095C536.366 51.2322 535.855 51.1545 535.416 50.9765C534.98 50.7985 534.641 50.522 534.399 50.147C534.156 49.772 534.037 49.2985 534.041 48.7265V40.272ZM543.529 51.2606C542.647 51.2606 541.883 51.0731 541.239 50.6981C540.599 50.3193 540.105 49.7928 539.756 49.1186C539.408 48.4405 539.234 47.6545 539.234 46.7606C539.234 45.8591 539.408 45.0712 539.756 44.397C540.105 43.7189 540.599 43.1924 541.239 42.8174C541.883 42.4386 542.647 42.2492 543.529 42.2492C544.412 42.2492 545.173 42.4386 545.813 42.8174C546.457 43.1924 546.953 43.7189 547.302 44.397C547.65 45.0712 547.825 45.8591 547.825 46.7606C547.825 47.6545 547.65 48.4405 547.302 49.1186C546.953 49.7928 546.457 50.3193 545.813 50.6981C545.173 51.0731 544.412 51.2606 543.529 51.2606ZM543.541 49.3856C543.942 49.3856 544.277 49.272 544.546 49.0447C544.815 48.8136 545.018 48.4992 545.154 48.1015C545.294 47.7038 545.364 47.2511 545.364 46.7436C545.364 46.236 545.294 45.7833 545.154 45.3856C545.018 44.9879 544.815 44.6735 544.546 44.4424C544.277 44.2114 543.942 44.0958 543.541 44.0958C543.135 44.0958 542.794 44.2114 542.518 44.4424C542.245 44.6735 542.039 44.9879 541.899 45.3856C541.762 45.7833 541.694 46.236 541.694 46.7436C541.694 47.2511 541.762 47.7038 541.899 48.1015C542.039 48.4992 542.245 48.8136 542.518 49.0447C542.794 49.272 543.135 49.3856 543.541 49.3856ZM554.836 45.3515V47.272H549.529V45.3515H554.836ZM561.069 51.0901H556.944V39.4538H561.103C562.274 39.4538 563.281 39.6867 564.126 40.1526C564.97 40.6148 565.62 41.2795 566.075 42.147C566.533 43.0144 566.762 44.0523 566.762 45.2606C566.762 46.4727 566.533 47.5144 566.075 48.3856C565.62 49.2568 564.967 49.9254 564.114 50.3913C563.266 50.8572 562.251 51.0901 561.069 51.0901ZM559.404 48.9822H560.967C561.694 48.9822 562.306 48.8534 562.802 48.5958C563.302 48.3345 563.677 47.9311 563.927 47.3856C564.181 46.8364 564.308 46.128 564.308 45.2606C564.308 44.4008 564.181 43.6981 563.927 43.1526C563.677 42.6072 563.304 42.2057 562.808 41.9481C562.311 41.6905 561.7 41.5617 560.972 41.5617H559.404V48.9822ZM572.516 51.2606C571.619 51.2606 570.846 51.0788 570.198 50.7151C569.554 50.3477 569.058 49.8288 568.71 49.1583C568.361 48.4841 568.187 47.6867 568.187 46.7663C568.187 45.8686 568.361 45.0807 568.71 44.4026C569.058 43.7246 569.549 43.1962 570.181 42.8174C570.818 42.4386 571.564 42.2492 572.42 42.2492C572.996 42.2492 573.532 42.342 574.028 42.5276C574.528 42.7095 574.963 42.9841 575.335 43.3515C575.71 43.7189 576.001 44.1811 576.21 44.7379C576.418 45.2909 576.522 45.9386 576.522 46.6811V47.3458H569.153V45.8458H574.244C574.244 45.4973 574.168 45.1886 574.016 44.9197C573.865 44.6508 573.655 44.4405 573.386 44.289C573.121 44.1337 572.812 44.0561 572.46 44.0561C572.092 44.0561 571.766 44.1413 571.482 44.3117C571.202 44.4784 570.982 44.7038 570.823 44.9879C570.664 45.2682 570.583 45.5807 570.579 45.9254V47.3515C570.579 47.7833 570.658 48.1564 570.818 48.4708C570.98 48.7852 571.21 49.0276 571.505 49.1981C571.801 49.3686 572.151 49.4538 572.556 49.4538C572.825 49.4538 573.071 49.4159 573.295 49.3401C573.518 49.2644 573.71 49.1508 573.869 48.9992C574.028 48.8477 574.149 48.6621 574.232 48.4424L576.471 48.5901C576.357 49.128 576.124 49.5977 575.772 49.9992C575.424 50.397 574.973 50.7076 574.42 50.9311C573.871 51.1508 573.236 51.2606 572.516 51.2606ZM571.494 41.2379L572.698 38.6526H574.937L573.204 41.2379H571.494ZM582.795 42.3629V44.1811H577.408V42.3629H582.795ZM578.641 51.0901V41.7322C578.641 41.0996 578.765 40.575 579.011 40.1583C579.261 39.7417 579.602 39.4292 580.033 39.2208C580.465 39.0125 580.956 38.9083 581.505 38.9083C581.876 38.9083 582.215 38.9367 582.522 38.9936C582.833 39.0504 583.064 39.1015 583.215 39.147L582.783 40.9651C582.689 40.9348 582.571 40.9064 582.431 40.8799C582.295 40.8534 582.155 40.8401 582.011 40.8401C581.655 40.8401 581.407 40.9235 581.266 41.0901C581.126 41.253 581.056 41.4822 581.056 41.7776V51.0901H578.641ZM587.938 51.2606C587.041 51.2606 586.268 51.0788 585.62 50.7151C584.976 50.3477 584.48 49.8288 584.131 49.1583C583.783 48.4841 583.609 47.6867 583.609 46.7663C583.609 45.8686 583.783 45.0807 584.131 44.4026C584.48 43.7246 584.97 43.1962 585.603 42.8174C586.239 42.4386 586.986 42.2492 587.842 42.2492C588.417 42.2492 588.953 42.342 589.45 42.5276C589.95 42.7095 590.385 42.9841 590.756 43.3515C591.131 43.7189 591.423 44.1811 591.631 44.7379C591.84 45.2909 591.944 45.9386 591.944 46.6811V47.3458H584.575V45.8458H589.666C589.666 45.4973 589.59 45.1886 589.438 44.9197C589.287 44.6508 589.077 44.4405 588.808 44.289C588.542 44.1337 588.234 44.0561 587.881 44.0561C587.514 44.0561 587.188 44.1413 586.904 44.3117C586.624 44.4784 586.404 44.7038 586.245 44.9879C586.086 45.2682 586.005 45.5807 586.001 45.9254V47.3515C586.001 47.7833 586.08 48.1564 586.239 48.4708C586.402 48.7852 586.631 49.0276 586.927 49.1981C587.222 49.3686 587.573 49.4538 587.978 49.4538C588.247 49.4538 588.493 49.4159 588.717 49.3401C588.94 49.2644 589.131 49.1508 589.291 48.9992C589.45 48.8477 589.571 48.6621 589.654 48.4424L591.893 48.5901C591.779 49.128 591.546 49.5977 591.194 49.9992C590.845 50.397 590.395 50.7076 589.842 50.9311C589.292 51.1508 588.658 51.2606 587.938 51.2606ZM595.944 46.0447V51.0901H593.524V42.3629H595.83V43.9026H595.933C596.126 43.3951 596.45 42.9936 596.904 42.6981C597.359 42.3989 597.91 42.2492 598.558 42.2492C599.164 42.2492 599.692 42.3818 600.143 42.647C600.594 42.9121 600.944 43.2909 601.194 43.7833C601.444 44.272 601.569 44.8553 601.569 45.5333V51.0901H599.149V45.9651C599.152 45.4311 599.016 45.0144 598.739 44.7151C598.463 44.4121 598.082 44.2606 597.597 44.2606C597.272 44.2606 596.984 44.3307 596.734 44.4708C596.488 44.611 596.294 44.8155 596.154 45.0845C596.018 45.3496 595.948 45.6697 595.944 46.0447ZM610.738 44.8515L608.522 44.9879C608.484 44.7985 608.403 44.628 608.278 44.4765C608.153 44.3212 607.988 44.1981 607.783 44.1072C607.583 44.0125 607.342 43.9651 607.062 43.9651C606.687 43.9651 606.371 44.0447 606.113 44.2038C605.855 44.3591 605.727 44.5674 605.727 44.8288C605.727 45.0371 605.81 45.2133 605.977 45.3572C606.143 45.5011 606.429 45.6167 606.835 45.7038L608.414 46.022C609.263 46.1962 609.895 46.4765 610.312 46.8629C610.729 47.2492 610.937 47.7568 610.937 48.3856C610.937 48.9576 610.768 49.4595 610.431 49.8913C610.098 50.3231 609.64 50.6602 609.056 50.9026C608.477 51.1413 607.808 51.2606 607.051 51.2606C605.895 51.2606 604.975 51.0201 604.289 50.539C603.607 50.0542 603.208 49.3951 603.09 48.5617L605.471 48.4367C605.543 48.789 605.717 49.058 605.994 49.2436C606.27 49.4254 606.624 49.5163 607.056 49.5163C607.48 49.5163 607.821 49.4348 608.079 49.272C608.34 49.1053 608.473 48.8913 608.477 48.6299C608.473 48.4102 608.38 48.2303 608.198 48.0901C608.016 47.9462 607.736 47.8364 607.357 47.7606L605.846 47.4595C604.994 47.289 604.359 46.9936 603.943 46.5731C603.53 46.1526 603.323 45.6167 603.323 44.9651C603.323 44.4045 603.475 43.9216 603.778 43.5163C604.085 43.111 604.515 42.7985 605.068 42.5788C605.624 42.3591 606.276 42.2492 607.022 42.2492C608.124 42.2492 608.992 42.4822 609.624 42.9481C610.261 43.414 610.632 44.0485 610.738 44.8515ZM616.438 51.2606C615.541 51.2606 614.768 51.0788 614.12 50.7151C613.476 50.3477 612.98 49.8288 612.631 49.1583C612.283 48.4841 612.109 47.6867 612.109 46.7663C612.109 45.8686 612.283 45.0807 612.631 44.4026C612.98 43.7246 613.47 43.1962 614.103 42.8174C614.739 42.4386 615.486 42.2492 616.342 42.2492C616.917 42.2492 617.453 42.342 617.95 42.5276C618.45 42.7095 618.885 42.9841 619.256 43.3515C619.631 43.7189 619.923 44.1811 620.131 44.7379C620.34 45.2909 620.444 45.9386 620.444 46.6811V47.3458H613.075V45.8458H618.166C618.166 45.4973 618.09 45.1886 617.938 44.9197C617.787 44.6508 617.577 44.4405 617.308 44.289C617.042 44.1337 616.734 44.0561 616.381 44.0561C616.014 44.0561 615.688 44.1413 615.404 44.3117C615.124 44.4784 614.904 44.7038 614.745 44.9879C614.586 45.2682 614.505 45.5807 614.501 45.9254V47.3515C614.501 47.7833 614.58 48.1564 614.739 48.4708C614.902 48.7852 615.131 49.0276 615.427 49.1981C615.722 49.3686 616.073 49.4538 616.478 49.4538C616.747 49.4538 616.993 49.4159 617.217 49.3401C617.44 49.2644 617.631 49.1508 617.791 48.9992C617.95 48.8477 618.071 48.6621 618.154 48.4424L620.393 48.5901C620.279 49.128 620.046 49.5977 619.694 49.9992C619.345 50.397 618.895 50.7076 618.342 50.9311C617.792 51.1508 617.158 51.2606 616.438 51.2606Z" fill="#EDEDED"/>
<path d="M441.809 70.0457L466.928 55.0901H621.683" stroke="#616567" stroke-width="1.09014"/>
<path d="M512.669 233.135L537.788 248.09H692.542" stroke="#7D869C" stroke-width="1.09014"/>
<path d="M576.553 252.454H579.587L582.792 260.272H582.928L586.133 252.454H589.167V264.091H586.781V256.517H586.684L583.673 264.034H582.048L579.036 256.488H578.94V264.091H576.553V252.454ZM595.092 264.261C594.209 264.261 593.446 264.074 592.802 263.699C592.162 263.32 591.667 262.793 591.319 262.119C590.97 261.441 590.796 260.655 590.796 259.761C590.796 258.86 590.97 258.072 591.319 257.397C591.667 256.719 592.162 256.193 592.802 255.818C593.446 255.439 594.209 255.25 595.092 255.25C595.974 255.25 596.736 255.439 597.376 255.818C598.02 256.193 598.516 256.719 598.864 257.397C599.213 258.072 599.387 258.86 599.387 259.761C599.387 260.655 599.213 261.441 598.864 262.119C598.516 262.793 598.02 263.32 597.376 263.699C596.736 264.074 595.974 264.261 595.092 264.261ZM595.103 262.386C595.505 262.386 595.84 262.272 596.109 262.045C596.378 261.814 596.58 261.5 596.717 261.102C596.857 260.704 596.927 260.252 596.927 259.744C596.927 259.236 596.857 258.784 596.717 258.386C596.58 257.988 596.378 257.674 596.109 257.443C595.84 257.212 595.505 257.096 595.103 257.096C594.698 257.096 594.357 257.212 594.08 257.443C593.808 257.674 593.601 257.988 593.461 258.386C593.325 258.784 593.256 259.236 593.256 259.744C593.256 260.252 593.325 260.704 593.461 261.102C593.601 261.5 593.808 261.814 594.08 262.045C594.357 262.272 594.698 262.386 595.103 262.386ZM604.177 264.233C603.514 264.233 602.914 264.062 602.376 263.721C601.842 263.377 601.417 262.871 601.103 262.204C600.792 261.534 600.637 260.712 600.637 259.738C600.637 258.738 600.798 257.907 601.12 257.244C601.442 256.577 601.87 256.079 602.404 255.75C602.942 255.416 603.531 255.25 604.171 255.25C604.66 255.25 605.067 255.333 605.393 255.5C605.722 255.663 605.988 255.867 606.188 256.113C606.393 256.356 606.548 256.594 606.654 256.829H606.728V252.454H609.143V264.091H606.756V262.693H606.654C606.541 262.935 606.38 263.176 606.171 263.414C605.967 263.649 605.7 263.844 605.37 264C605.044 264.155 604.647 264.233 604.177 264.233ZM604.944 262.306C605.334 262.306 605.664 262.2 605.933 261.988C606.205 261.772 606.414 261.471 606.558 261.085C606.705 260.699 606.779 260.246 606.779 259.727C606.779 259.208 606.707 258.757 606.563 258.375C606.419 257.992 606.211 257.697 605.938 257.488C605.666 257.28 605.334 257.176 604.944 257.176C604.546 257.176 604.211 257.284 603.938 257.5C603.666 257.716 603.459 258.015 603.319 258.397C603.179 258.78 603.109 259.223 603.109 259.727C603.109 260.235 603.179 260.683 603.319 261.074C603.463 261.46 603.669 261.763 603.938 261.983C604.211 262.199 604.546 262.306 604.944 262.306ZM615.11 264.261C614.212 264.261 613.44 264.079 612.792 263.716C612.148 263.348 611.652 262.829 611.303 262.159C610.955 261.485 610.781 260.687 610.781 259.767C610.781 258.869 610.955 258.081 611.303 257.403C611.652 256.725 612.142 256.197 612.775 255.818C613.411 255.439 614.158 255.25 615.014 255.25C615.589 255.25 616.125 255.342 616.622 255.528C617.122 255.71 617.557 255.985 617.928 256.352C618.303 256.719 618.595 257.181 618.803 257.738C619.012 258.291 619.116 258.939 619.116 259.681V260.346H611.747V258.846H616.837C616.837 258.498 616.762 258.189 616.61 257.92C616.459 257.651 616.248 257.441 615.979 257.289C615.714 257.134 615.406 257.056 615.053 257.056C614.686 257.056 614.36 257.142 614.076 257.312C613.796 257.479 613.576 257.704 613.417 257.988C613.258 258.269 613.176 258.581 613.173 258.926V260.352C613.173 260.784 613.252 261.157 613.411 261.471C613.574 261.786 613.803 262.028 614.099 262.199C614.394 262.369 614.745 262.454 615.15 262.454C615.419 262.454 615.665 262.416 615.889 262.341C616.112 262.265 616.303 262.151 616.462 262C616.622 261.848 616.743 261.663 616.826 261.443L619.065 261.591C618.951 262.128 618.718 262.598 618.366 263C618.017 263.397 617.567 263.708 617.014 263.931C616.464 264.151 615.83 264.261 615.11 264.261ZM624.444 264.091V252.454H632.285V254.483H626.904V257.255H631.881V259.284H626.904V262.062H632.308V264.091H624.444ZM627.512 251.329L628.717 248.744H630.955L629.222 251.329H627.512ZM639.962 267.363V262.693H639.889C639.775 262.935 639.614 263.176 639.406 263.414C639.201 263.649 638.934 263.844 638.604 264C638.279 264.155 637.881 264.233 637.411 264.233C636.748 264.233 636.148 264.062 635.61 263.721C635.076 263.377 634.652 262.871 634.337 262.204C634.027 261.534 633.872 260.712 633.872 259.738C633.872 258.738 634.033 257.907 634.354 257.244C634.676 256.577 635.104 256.079 635.639 255.75C636.176 255.416 636.765 255.25 637.406 255.25C637.894 255.25 638.301 255.333 638.627 255.5C638.957 255.663 639.222 255.867 639.423 256.113C639.627 256.356 639.783 256.594 639.889 256.829H639.991V255.363H642.377V267.363H639.962ZM638.178 262.306C638.569 262.306 638.898 262.2 639.167 261.988C639.44 261.772 639.648 261.471 639.792 261.085C639.94 260.699 640.014 260.246 640.014 259.727C640.014 259.208 639.942 258.757 639.798 258.375C639.654 257.992 639.445 257.697 639.173 257.488C638.9 257.28 638.569 257.176 638.178 257.176C637.781 257.176 637.445 257.284 637.173 257.5C636.9 257.716 636.694 258.015 636.553 258.397C636.413 258.78 636.343 259.223 636.343 259.727C636.343 260.235 636.413 260.683 636.553 261.074C636.697 261.46 636.904 261.763 637.173 261.983C637.445 262.199 637.781 262.306 638.178 262.306ZM649.917 260.375V255.363H652.337V264.091H650.014V262.505H649.923C649.726 263.017 649.398 263.428 648.94 263.738C648.485 264.049 647.93 264.204 647.275 264.204C646.692 264.204 646.178 264.072 645.735 263.806C645.292 263.541 644.945 263.164 644.695 262.676C644.449 262.187 644.324 261.602 644.32 260.92V255.363H646.741V260.488C646.745 261.003 646.883 261.411 647.156 261.71C647.428 262.009 647.794 262.159 648.252 262.159C648.544 262.159 648.817 262.092 649.07 261.96C649.324 261.824 649.529 261.623 649.684 261.358C649.843 261.092 649.921 260.765 649.917 260.375ZM654.274 264.091V255.363H656.694V264.091H654.274ZM655.489 254.238C655.13 254.238 654.821 254.119 654.563 253.88C654.31 253.638 654.183 253.348 654.183 253.011C654.183 252.678 654.31 252.392 654.563 252.153C654.821 251.911 655.13 251.789 655.489 251.789C655.849 251.789 656.156 251.911 656.41 252.153C656.667 252.392 656.796 252.678 656.796 253.011C656.796 253.348 656.667 253.638 656.41 253.88C656.156 254.119 655.849 254.238 655.489 254.238ZM661.053 252.454V264.091H658.633V252.454H661.053ZM662.992 264.091V255.363H665.413V264.091H662.992ZM664.208 254.238C663.848 254.238 663.54 254.119 663.282 253.88C663.028 253.638 662.901 253.348 662.901 253.011C662.901 252.678 663.028 252.392 663.282 252.153C663.54 251.911 663.848 251.789 664.208 251.789C664.568 251.789 664.875 251.911 665.129 252.153C665.386 252.392 665.515 252.678 665.515 253.011C665.515 253.348 665.386 253.638 665.129 253.88C664.875 254.119 664.568 254.238 664.208 254.238ZM667.397 264.091V252.454H669.818V256.829H669.891C669.997 256.594 670.151 256.356 670.352 256.113C670.556 255.867 670.821 255.663 671.147 255.5C671.477 255.333 671.886 255.25 672.374 255.25C673.011 255.25 673.598 255.416 674.136 255.75C674.674 256.079 675.104 256.577 675.426 257.244C675.747 257.907 675.908 258.738 675.908 259.738C675.908 260.712 675.751 261.534 675.437 262.204C675.126 262.871 674.702 263.377 674.164 263.721C673.63 264.062 673.032 264.233 672.369 264.233C671.899 264.233 671.499 264.155 671.17 264C670.844 263.844 670.577 263.649 670.369 263.414C670.16 263.176 670.001 262.935 669.891 262.693H669.783V264.091H667.397ZM669.766 259.727C669.766 260.246 669.838 260.699 669.982 261.085C670.126 261.471 670.335 261.772 670.607 261.988C670.88 262.2 671.212 262.306 671.602 262.306C671.996 262.306 672.329 262.199 672.602 261.983C672.874 261.763 673.081 261.46 673.221 261.074C673.365 260.683 673.437 260.235 673.437 259.727C673.437 259.223 673.367 258.78 673.227 258.397C673.087 258.015 672.88 257.716 672.607 257.5C672.335 257.284 671.999 257.176 671.602 257.176C671.208 257.176 670.874 257.28 670.602 257.488C670.333 257.697 670.126 257.992 669.982 258.375C669.838 258.757 669.766 259.208 669.766 259.727ZM677.524 264.091V255.363H679.87V256.886H679.961C680.12 256.344 680.387 255.935 680.762 255.659C681.137 255.378 681.569 255.238 682.058 255.238C682.179 255.238 682.31 255.246 682.45 255.261C682.59 255.276 682.713 255.297 682.819 255.324V257.471C682.705 257.437 682.548 257.407 682.347 257.38C682.147 257.354 681.963 257.341 681.796 257.341C681.44 257.341 681.122 257.418 680.842 257.574C680.565 257.725 680.345 257.937 680.183 258.21C680.024 258.483 679.944 258.797 679.944 259.153V264.091H677.524ZM687.641 264.261C686.744 264.261 685.971 264.079 685.323 263.716C684.679 263.348 684.183 262.829 683.835 262.159C683.486 261.485 683.312 260.687 683.312 259.767C683.312 258.869 683.486 258.081 683.835 257.403C684.183 256.725 684.674 256.197 685.306 255.818C685.943 255.439 686.689 255.25 687.545 255.25C688.121 255.25 688.657 255.342 689.153 255.528C689.653 255.71 690.088 255.985 690.46 256.352C690.835 256.719 691.126 257.181 691.335 257.738C691.543 258.291 691.647 258.939 691.647 259.681V260.346H684.278V258.846H689.369C689.369 258.498 689.293 258.189 689.141 257.92C688.99 257.651 688.78 257.441 688.511 257.289C688.246 257.134 687.937 257.056 687.585 257.056C687.217 257.056 686.891 257.142 686.607 257.312C686.327 257.479 686.107 257.704 685.948 257.988C685.789 258.269 685.708 258.581 685.704 258.926V260.352C685.704 260.784 685.783 261.157 685.943 261.471C686.105 261.786 686.335 262.028 686.63 262.199C686.926 262.369 687.276 262.454 687.681 262.454C687.95 262.454 688.196 262.416 688.42 262.341C688.643 262.265 688.835 262.151 688.994 262C689.153 261.848 689.274 261.663 689.357 261.443L691.596 261.591C691.482 262.128 691.249 262.598 690.897 263C690.549 263.397 690.098 263.708 689.545 263.931C688.996 264.151 688.361 264.261 687.641 264.261Z" fill="#EDEDED"/>
<path d="M328.435 363.952L303.316 378.907H148.562" stroke="#E5E8B6" stroke-width="1.09014"/>
<path d="M149.573 383.271H152.607L155.812 391.089H155.948L159.152 383.271H162.187V394.907H159.8V387.334H159.704L156.692 394.851H155.067L152.056 387.305H151.959V394.907H149.573V383.271ZM168.111 395.078C167.229 395.078 166.465 394.89 165.821 394.515C165.181 394.137 164.687 393.61 164.339 392.936C163.99 392.258 163.816 391.472 163.816 390.578C163.816 389.676 163.99 388.889 164.339 388.214C164.687 387.536 165.181 387.01 165.821 386.635C166.465 386.256 167.229 386.067 168.111 386.067C168.994 386.067 169.755 386.256 170.395 386.635C171.039 387.01 171.535 387.536 171.884 388.214C172.232 388.889 172.407 389.676 172.407 390.578C172.407 391.472 172.232 392.258 171.884 392.936C171.535 393.61 171.039 394.137 170.395 394.515C169.755 394.89 168.994 395.078 168.111 395.078ZM168.123 393.203C168.524 393.203 168.859 393.089 169.128 392.862C169.397 392.631 169.6 392.317 169.736 391.919C169.876 391.521 169.946 391.068 169.946 390.561C169.946 390.053 169.876 389.601 169.736 389.203C169.6 388.805 169.397 388.491 169.128 388.26C168.859 388.029 168.524 387.913 168.123 387.913C167.717 387.913 167.376 388.029 167.1 388.26C166.827 388.491 166.621 388.805 166.481 389.203C166.344 389.601 166.276 390.053 166.276 390.561C166.276 391.068 166.344 391.521 166.481 391.919C166.621 392.317 166.827 392.631 167.1 392.862C167.376 393.089 167.717 393.203 168.123 393.203ZM177.196 395.05C176.534 395.05 175.933 394.879 175.395 394.538C174.861 394.193 174.437 393.688 174.123 393.021C173.812 392.351 173.657 391.529 173.657 390.555C173.657 389.555 173.818 388.724 174.14 388.061C174.462 387.394 174.89 386.896 175.424 386.567C175.962 386.233 176.551 386.067 177.191 386.067C177.679 386.067 178.087 386.15 178.412 386.317C178.742 386.479 179.007 386.684 179.208 386.93C179.412 387.173 179.568 387.411 179.674 387.646H179.748V383.271H182.162V394.907H179.776V393.51H179.674C179.56 393.752 179.399 393.993 179.191 394.231C178.986 394.466 178.719 394.661 178.39 394.817C178.064 394.972 177.666 395.05 177.196 395.05ZM177.964 393.123C178.354 393.123 178.683 393.017 178.952 392.805C179.225 392.589 179.433 392.288 179.577 391.902C179.725 391.515 179.799 391.063 179.799 390.544C179.799 390.025 179.727 389.574 179.583 389.192C179.439 388.809 179.231 388.514 178.958 388.305C178.685 388.097 178.354 387.993 177.964 387.993C177.566 387.993 177.231 388.101 176.958 388.317C176.685 388.532 176.479 388.832 176.339 389.214C176.198 389.597 176.128 390.04 176.128 390.544C176.128 391.051 176.198 391.5 176.339 391.89C176.482 392.277 176.689 392.58 176.958 392.8C177.231 393.015 177.566 393.123 177.964 393.123ZM188.13 395.078C187.232 395.078 186.459 394.896 185.812 394.532C185.168 394.165 184.671 393.646 184.323 392.976C183.974 392.301 183.8 391.504 183.8 390.584C183.8 389.686 183.974 388.898 184.323 388.22C184.671 387.542 185.162 387.014 185.794 386.635C186.431 386.256 187.177 386.067 188.033 386.067C188.609 386.067 189.145 386.159 189.641 386.345C190.141 386.527 190.577 386.801 190.948 387.169C191.323 387.536 191.615 387.998 191.823 388.555C192.031 389.108 192.135 389.756 192.135 390.498V391.163H184.766V389.663H189.857C189.857 389.315 189.781 389.006 189.63 388.737C189.478 388.468 189.268 388.258 188.999 388.106C188.734 387.951 188.425 387.873 188.073 387.873C187.705 387.873 187.38 387.959 187.096 388.129C186.815 388.296 186.596 388.521 186.437 388.805C186.277 389.086 186.196 389.398 186.192 389.743V391.169C186.192 391.601 186.272 391.974 186.431 392.288C186.594 392.603 186.823 392.845 187.118 393.015C187.414 393.186 187.764 393.271 188.169 393.271C188.438 393.271 188.685 393.233 188.908 393.157C189.132 393.082 189.323 392.968 189.482 392.817C189.641 392.665 189.762 392.479 189.846 392.26L192.084 392.407C191.971 392.945 191.738 393.415 191.385 393.817C191.037 394.214 190.586 394.525 190.033 394.748C189.484 394.968 188.849 395.078 188.13 395.078ZM197.464 394.907V383.271H202.054C202.933 383.271 203.683 383.428 204.304 383.743C204.929 384.053 205.405 384.495 205.731 385.067C206.06 385.635 206.225 386.303 206.225 387.072C206.225 387.845 206.058 388.51 205.725 389.067C205.392 389.62 204.909 390.044 204.276 390.339C203.647 390.635 202.886 390.782 201.992 390.782H198.918V388.805H201.594C202.064 388.805 202.454 388.741 202.765 388.612C203.075 388.483 203.306 388.29 203.458 388.032C203.613 387.775 203.691 387.455 203.691 387.072C203.691 386.686 203.613 386.36 203.458 386.095C203.306 385.83 203.073 385.629 202.759 385.493C202.448 385.353 202.056 385.282 201.583 385.282H199.924V394.907H197.464ZM203.748 389.612L206.64 394.907H203.924L201.094 389.612H203.748ZM210.407 395.072C209.85 395.072 209.354 394.976 208.918 394.782C208.482 394.586 208.138 394.296 207.884 393.913C207.634 393.527 207.509 393.046 207.509 392.47C207.509 391.985 207.598 391.578 207.776 391.248C207.954 390.919 208.196 390.654 208.503 390.453C208.81 390.252 209.159 390.101 209.549 389.998C209.943 389.896 210.356 389.824 210.787 389.782C211.295 389.729 211.704 389.68 212.015 389.635C212.325 389.586 212.551 389.514 212.691 389.419C212.831 389.324 212.901 389.184 212.901 388.998V388.964C212.901 388.604 212.787 388.326 212.56 388.129C212.337 387.932 212.018 387.834 211.606 387.834C211.17 387.834 210.823 387.93 210.566 388.123C210.308 388.313 210.138 388.551 210.054 388.839L207.816 388.657C207.929 388.127 208.153 387.669 208.486 387.282C208.82 386.892 209.249 386.593 209.776 386.385C210.306 386.173 210.92 386.067 211.617 386.067C212.102 386.067 212.566 386.123 213.009 386.237C213.456 386.351 213.852 386.527 214.196 386.765C214.545 387.004 214.82 387.311 215.02 387.686C215.221 388.057 215.321 388.502 215.321 389.021V394.907H213.026V393.697H212.958C212.818 393.97 212.63 394.211 212.395 394.419C212.16 394.623 211.878 394.784 211.549 394.902C211.219 395.015 210.839 395.072 210.407 395.072ZM211.1 393.402C211.456 393.402 211.77 393.332 212.043 393.192C212.316 393.048 212.53 392.854 212.685 392.612C212.84 392.37 212.918 392.095 212.918 391.788V390.862C212.842 390.911 212.738 390.957 212.606 390.998C212.477 391.036 212.331 391.072 212.168 391.106C212.005 391.137 211.842 391.165 211.679 391.192C211.517 391.214 211.369 391.235 211.236 391.254C210.952 391.296 210.704 391.362 210.492 391.453C210.28 391.544 210.115 391.667 209.998 391.822C209.88 391.974 209.821 392.163 209.821 392.39C209.821 392.72 209.941 392.972 210.179 393.146C210.422 393.317 210.729 393.402 211.1 393.402ZM217.199 398.18V386.18H219.586V387.646H219.694C219.8 387.411 219.953 387.173 220.154 386.93C220.358 386.684 220.624 386.479 220.949 386.317C221.279 386.15 221.688 386.067 222.177 386.067C222.813 386.067 223.4 386.233 223.938 386.567C224.476 386.896 224.906 387.394 225.228 388.061C225.55 388.724 225.711 389.555 225.711 390.555C225.711 391.529 225.553 392.351 225.239 393.021C224.928 393.688 224.504 394.193 223.966 394.538C223.432 394.879 222.834 395.05 222.171 395.05C221.701 395.05 221.302 394.972 220.972 394.817C220.646 394.661 220.379 394.466 220.171 394.231C219.963 393.993 219.803 393.752 219.694 393.51H219.62V398.18H217.199ZM219.569 390.544C219.569 391.063 219.641 391.515 219.785 391.902C219.928 392.288 220.137 392.589 220.41 392.805C220.682 393.017 221.014 393.123 221.404 393.123C221.798 393.123 222.131 393.015 222.404 392.8C222.677 392.58 222.883 392.277 223.023 391.89C223.167 391.5 223.239 391.051 223.239 390.544C223.239 390.04 223.169 389.597 223.029 389.214C222.889 388.832 222.682 388.532 222.41 388.317C222.137 388.101 221.802 387.993 221.404 387.993C221.01 387.993 220.677 388.097 220.404 388.305C220.135 388.514 219.928 388.809 219.785 389.192C219.641 389.574 219.569 390.025 219.569 390.544ZM227.324 398.18V386.18H229.711V387.646H229.819C229.925 387.411 230.078 387.173 230.279 386.93C230.483 386.684 230.749 386.479 231.074 386.317C231.404 386.15 231.813 386.067 232.302 386.067C232.938 386.067 233.525 386.233 234.063 386.567C234.601 386.896 235.031 387.394 235.353 388.061C235.675 388.724 235.836 389.555 235.836 390.555C235.836 391.529 235.678 392.351 235.364 393.021C235.053 393.688 234.629 394.193 234.091 394.538C233.557 394.879 232.959 395.05 232.296 395.05C231.826 395.05 231.427 394.972 231.097 394.817C230.771 394.661 230.504 394.466 230.296 394.231C230.088 393.993 229.928 393.752 229.819 393.51H229.745V398.18H227.324ZM229.694 390.544C229.694 391.063 229.766 391.515 229.91 391.902C230.053 392.288 230.262 392.589 230.535 392.805C230.807 393.017 231.139 393.123 231.529 393.123C231.923 393.123 232.256 393.015 232.529 392.8C232.802 392.58 233.008 392.277 233.148 391.89C233.292 391.5 233.364 391.051 233.364 390.544C233.364 390.04 233.294 389.597 233.154 389.214C233.014 388.832 232.807 388.532 232.535 388.317C232.262 388.101 231.927 387.993 231.529 387.993C231.135 387.993 230.802 388.097 230.529 388.305C230.26 388.514 230.053 388.809 229.91 389.192C229.766 389.574 229.694 390.025 229.694 390.544ZM241.427 395.078C240.529 395.078 239.756 394.896 239.108 394.532C238.464 394.165 237.968 393.646 237.62 392.976C237.271 392.301 237.097 391.504 237.097 390.584C237.097 389.686 237.271 388.898 237.62 388.22C237.968 387.542 238.459 387.014 239.091 386.635C239.728 386.256 240.474 386.067 241.33 386.067C241.906 386.067 242.442 386.159 242.938 386.345C243.438 386.527 243.874 386.801 244.245 387.169C244.62 387.536 244.911 387.998 245.12 388.555C245.328 389.108 245.432 389.756 245.432 390.498V391.163H238.063V389.663H243.154C243.154 389.315 243.078 389.006 242.927 388.737C242.775 388.468 242.565 388.258 242.296 388.106C242.031 387.951 241.722 387.873 241.37 387.873C241.002 387.873 240.677 387.959 240.392 388.129C240.112 388.296 239.892 388.521 239.733 388.805C239.574 389.086 239.493 389.398 239.489 389.743V391.169C239.489 391.601 239.569 391.974 239.728 392.288C239.891 392.603 240.12 392.845 240.415 393.015C240.711 393.186 241.061 393.271 241.466 393.271C241.735 393.271 241.982 393.233 242.205 393.157C242.428 393.082 242.62 392.968 242.779 392.817C242.938 392.665 243.059 392.479 243.142 392.26L245.381 392.407C245.267 392.945 245.035 393.415 244.682 393.817C244.334 394.214 243.883 394.525 243.33 394.748C242.781 394.968 242.146 395.078 241.427 395.078ZM249.432 383.271V394.907H247.012V383.271H249.432ZM257.125 394.907H254.489L258.506 383.271H261.677L265.688 394.907H263.052L260.137 385.93H260.046L257.125 394.907ZM256.961 390.334H263.188V392.254H256.961V390.334ZM270.58 395.078C269.686 395.078 268.917 394.889 268.273 394.51C267.633 394.127 267.141 393.597 266.796 392.919C266.455 392.241 266.285 391.461 266.285 390.578C266.285 389.684 266.457 388.9 266.802 388.226C267.15 387.548 267.644 387.019 268.285 386.64C268.925 386.258 269.686 386.067 270.569 386.067C271.33 386.067 271.997 386.205 272.569 386.481C273.141 386.758 273.593 387.146 273.927 387.646C274.26 388.146 274.444 388.733 274.478 389.407H272.194C272.129 388.972 271.959 388.621 271.682 388.356C271.41 388.087 271.052 387.953 270.608 387.953C270.233 387.953 269.906 388.055 269.625 388.26C269.349 388.461 269.133 388.754 268.978 389.14C268.822 389.527 268.745 389.995 268.745 390.544C268.745 391.101 268.821 391.574 268.972 391.964C269.127 392.354 269.345 392.652 269.625 392.856C269.906 393.061 270.233 393.163 270.608 393.163C270.885 393.163 271.133 393.106 271.353 392.993C271.576 392.879 271.76 392.714 271.904 392.498C272.052 392.279 272.148 392.015 272.194 391.709H274.478C274.44 392.375 274.258 392.962 273.932 393.47C273.61 393.974 273.165 394.368 272.597 394.652C272.029 394.936 271.357 395.078 270.58 395.078ZM280.669 386.18V387.998H275.414V386.18H280.669ZM276.607 384.089H279.027V392.226C279.027 392.449 279.062 392.623 279.13 392.748C279.198 392.87 279.293 392.955 279.414 393.004C279.539 393.053 279.683 393.078 279.846 393.078C279.959 393.078 280.073 393.068 280.187 393.05C280.3 393.027 280.387 393.01 280.448 392.998L280.829 394.8C280.707 394.837 280.537 394.881 280.317 394.93C280.098 394.983 279.83 395.015 279.516 395.027C278.933 395.05 278.421 394.972 277.982 394.794C277.546 394.616 277.207 394.339 276.965 393.964C276.723 393.589 276.603 393.116 276.607 392.544V384.089ZM282.246 394.907V386.18H284.667V394.907H282.246ZM283.462 385.055C283.102 385.055 282.794 384.936 282.536 384.697C282.282 384.455 282.155 384.165 282.155 383.828C282.155 383.495 282.282 383.209 282.536 382.97C282.794 382.728 283.102 382.606 283.462 382.606C283.822 382.606 284.129 382.728 284.383 382.97C284.64 383.209 284.769 383.495 284.769 383.828C284.769 384.165 284.64 384.455 284.383 384.697C284.129 384.936 283.822 385.055 283.462 385.055ZM291.299 386.18V387.998H285.912V386.18H291.299ZM287.145 394.907V385.55C287.145 384.917 287.268 384.392 287.515 383.976C287.765 383.559 288.106 383.246 288.537 383.038C288.969 382.83 289.46 382.726 290.009 382.726C290.38 382.726 290.719 382.754 291.026 382.811C291.337 382.868 291.568 382.919 291.719 382.964L291.287 384.782C291.193 384.752 291.075 384.724 290.935 384.697C290.799 384.671 290.659 384.657 290.515 384.657C290.159 384.657 289.91 384.741 289.77 384.907C289.63 385.07 289.56 385.3 289.56 385.595V394.907H287.145Z" fill="#EDEDED"/>
</g>
</g>
<defs>
<filter id="filter0_d_2385_552" x="0.886061" y="0.452119" width="731.276" height="437.19" filterUnits="userSpaceOnUse" color-interpolation-filters="sRGB">
<feFlood flood-opacity="0" result="BackgroundImageFix"/>
<feColorMatrix in="SourceAlpha" type="matrix" values="0 0 0 0 0 0 0 0 0 0 0 0 0 0 0 0 0 0 127 0" result="hardAlpha"/>
<feMorphology radius="2" operator="dilate" in="SourceAlpha" result="effect1_dropShadow_2385_552"/>
<feOffset dx="1.02407" dy="2.04813"/>
<feGaussianBlur stdDeviation="6.29801"/>
<feComposite in2="hardAlpha" operator="out"/>
<feColorMatrix type="matrix" values="0 0 0 0 0 0 0 0 0 0 0 0 0 0 0 0 0 0 0.1 0"/>
<feBlend mode="normal" in2="BackgroundImageFix" result="effect1_dropShadow_2385_552"/>
<feBlend mode="normal" in="SourceGraphic" in2="effect1_dropShadow_2385_552" result="shape"/>
</filter>
<filter id="filter1_i_2385_552" x="250.388" y="90.1296" width="122.198" height="205.064" filterUnits="userSpaceOnUse" color-interpolation-filters="sRGB">
<feFlood flood-opacity="0" result="BackgroundImageFix"/>
<feBlend mode="normal" in="SourceGraphic" in2="BackgroundImageFix" result="shape"/>
<feColorMatrix in="SourceAlpha" type="matrix" values="0 0 0 0 0 0 0 0 0 0 0 0 0 0 0 0 0 0 127 0" result="hardAlpha"/>
<feOffset dy="4"/>
<feGaussianBlur stdDeviation="2"/>
<feComposite in2="hardAlpha" operator="arithmetic" k2="-1" k3="1"/>
<feColorMatrix type="matrix" values="0 0 0 0 0 0 0 0 0 0 0 0 0 0 0 0 0 0 0.25 0"/>
<feBlend mode="normal" in2="shape" result="effect1_innerShadow_2385_552"/>
</filter>
<filter id="filter2_i_2385_552" x="372.586" y="90.1295" width="75.686" height="57.9805" filterUnits="userSpaceOnUse" color-interpolation-filters="sRGB">
<feFlood flood-opacity="0" result="BackgroundImageFix"/>
<feBlend mode="normal" in="SourceGraphic" in2="BackgroundImageFix" result="shape"/>
<feColorMatrix in="SourceAlpha" type="matrix" values="0 0 0 0 0 0 0 0 0 0 0 0 0 0 0 0 0 0 127 0" result="hardAlpha"/>
<feOffset dy="4"/>
<feGaussianBlur stdDeviation="2"/>
<feComposite in2="hardAlpha" operator="arithmetic" k2="-1" k3="1"/>
<feColorMatrix type="matrix" values="0 0 0 0 0 0 0 0 0 0 0 0 0 0 0 0 0 0 0.25 0"/>
<feBlend mode="normal" in2="shape" result="effect1_innerShadow_2385_552"/>
</filter>
<filter id="filter3_i_2385_552" x="414.352" y="120.31" width="80.4326" height="202.084" filterUnits="userSpaceOnUse" color-interpolation-filters="sRGB">
<feFlood flood-opacity="0" result="BackgroundImageFix"/>
<feBlend mode="normal" in="SourceGraphic" in2="BackgroundImageFix" result="shape"/>
<feColorMatrix in="SourceAlpha" type="matrix" values="0 0 0 0 0 0 0 0 0 0 0 0 0 0 0 0 0 0 127 0" result="hardAlpha"/>
<feOffset dy="4"/>
<feGaussianBlur stdDeviation="2"/>
<feComposite in2="hardAlpha" operator="arithmetic" k2="-1" k3="1"/>
<feColorMatrix type="matrix" values="0 0 0 0 0 0 0 0 0 0 0 0 0 0 0 0 0 0 0.25 0"/>
<feBlend mode="normal" in2="shape" result="effect1_innerShadow_2385_552"/>
</filter>
<filter id="filter4_i_2385_552" x="283.552" y="271.311" width="144.059" height="67.0984" filterUnits="userSpaceOnUse" color-interpolation-filters="sRGB">
<feFlood flood-opacity="0" result="BackgroundImageFix"/>
<feBlend mode="normal" in="SourceGraphic" in2="BackgroundImageFix" result="shape"/>
<feColorMatrix in="SourceAlpha" type="matrix" values="0 0 0 0 0 0 0 0 0 0 0 0 0 0 0 0 0 0 127 0" result="hardAlpha"/>
<feOffset dy="4"/>
<feGaussianBlur stdDeviation="2"/>
<feComposite in2="hardAlpha" operator="arithmetic" k2="-1" k3="1"/>
<feColorMatrix type="matrix" values="0 0 0 0 0 0 0 0 0 0 0 0 0 0 0 0 0 0 0.25 0"/>
<feBlend mode="normal" in2="shape" result="effect1_innerShadow_2385_552"/>
</filter>
<clipPath id="clip0_2385_552">
<rect width="654.084" height="359.998" fill="white" transform="translate(38.458 37)"/>
</clipPath>
</defs>
</svg>
