<svg width="392" height="164" viewBox="0 0 392 164" fill="none" xmlns="http://www.w3.org/2000/svg">
<g filter="url(#filter0_d_2385_1990)">
<rect x="14" y="12.9977" width="362" height="134" rx="8" fill="#2A2A2E" shape-rendering="crispEdges"/>
<path d="M38.972 60.4417V54.7177H48.944V80.9977H42.536V60.4417H38.972ZM66.1152 60.6937C68.4192 60.6937 70.2672 61.4617 71.6592 62.9977C73.0512 64.5097 73.7472 66.5977 73.7472 69.2617V80.9977H67.6272V70.0897C67.6272 68.7457 67.2792 67.7017 66.5832 66.9577C65.8872 66.2137 64.9512 65.8417 63.7752 65.8417C62.5992 65.8417 61.6632 66.2137 60.9672 66.9577C60.2712 67.7017 59.9232 68.7457 59.9232 70.0897V80.9977H53.7672V54.3577H59.9232V63.6097C60.5472 62.7217 61.3992 62.0137 62.4792 61.4857C63.5592 60.9577 64.7712 60.6937 66.1152 60.6937ZM77.413 67.4977C77.413 63.3697 78.205 60.1177 79.789 57.7417C81.397 55.3657 83.977 54.1777 87.529 54.1777C91.081 54.1777 93.649 55.3657 95.233 57.7417C96.841 60.1177 97.645 63.3697 97.645 67.4977C97.645 71.6737 96.841 74.9497 95.233 77.3257C93.649 79.7017 91.081 80.8897 87.529 80.8897C83.977 80.8897 81.397 79.7017 79.789 77.3257C78.205 74.9497 77.413 71.6737 77.413 67.4977ZM91.597 67.4977C91.597 65.0737 91.333 63.2137 90.805 61.9177C90.277 60.5977 89.185 59.9377 87.529 59.9377C85.873 59.9377 84.781 60.5977 84.253 61.9177C83.725 63.2137 83.461 65.0737 83.461 67.4977C83.461 69.1297 83.557 70.4857 83.749 71.5657C83.941 72.6217 84.325 73.4857 84.901 74.1577C85.501 74.8057 86.377 75.1297 87.529 75.1297C88.681 75.1297 89.545 74.8057 90.121 74.1577C90.721 73.4857 91.117 72.6217 91.309 71.5657C91.501 70.4857 91.597 69.1297 91.597 67.4977ZM119.401 60.0817H108.169V65.0497C108.649 64.5217 109.321 64.0897 110.185 63.7537C111.049 63.4177 111.985 63.2497 112.993 63.2497C114.793 63.2497 116.281 63.6577 117.457 64.4737C118.657 65.2897 119.533 66.3457 120.085 67.6417C120.637 68.9377 120.913 70.3417 120.913 71.8537C120.913 74.6617 120.121 76.8937 118.537 78.5497C116.953 80.1817 114.721 80.9977 111.841 80.9977C109.921 80.9977 108.253 80.6737 106.837 80.0257C105.421 79.3537 104.329 78.4297 103.561 77.2537C102.793 76.0777 102.373 74.7217 102.301 73.1857H108.313C108.457 73.9297 108.805 74.5537 109.357 75.0577C109.909 75.5377 110.665 75.7777 111.625 75.7777C112.753 75.7777 113.593 75.4177 114.145 74.6977C114.697 73.9777 114.973 73.0177 114.973 71.8177C114.973 70.6417 114.685 69.7417 114.109 69.1177C113.533 68.4937 112.693 68.1817 111.589 68.1817C110.773 68.1817 110.101 68.3857 109.573 68.7937C109.045 69.1777 108.697 69.6937 108.529 70.3417H102.589V54.6817H119.401V60.0817Z" fill="#EDEDED"/>
<path d="M41.75 100.998H39.0568V92.2704H41.8693C42.7159 92.2704 43.4403 92.4451 44.0426 92.7946C44.6449 93.1411 45.1065 93.6397 45.4276 94.2903C45.7486 94.938 45.9091 95.7136 45.9091 96.617C45.9091 97.5261 45.7472 98.3088 45.4233 98.965C45.0994 99.6184 44.6278 100.121 44.0085 100.474C43.3892 100.823 42.6364 100.998 41.75 100.998ZM40.1136 100.06H41.6818C42.4034 100.06 43.0014 99.921 43.4759 99.6426C43.9503 99.3642 44.304 98.9679 44.5369 98.4536C44.7699 97.9394 44.8864 97.3272 44.8864 96.617C44.8864 95.9125 44.7713 95.3059 44.5412 94.7974C44.3111 94.286 43.9673 93.894 43.5099 93.6213C43.0526 93.3457 42.483 93.2079 41.8011 93.2079H40.1136V100.06ZM51.6705 98.3215V94.4522H52.6761V100.998H51.6705V99.8897H51.6023C51.4489 100.222 51.2102 100.505 50.8864 100.738C50.5625 100.968 50.1534 101.083 49.6591 101.083C49.25 101.083 48.8864 100.993 48.5682 100.814C48.25 100.633 48 100.36 47.8182 99.9963C47.6364 99.6298 47.5455 99.1681 47.5455 98.6113V94.4522H48.5511V98.5431C48.5511 99.0204 48.6847 99.4011 48.9517 99.6852C49.2216 99.9693 49.5653 100.111 49.983 100.111C50.233 100.111 50.4872 100.047 50.7457 99.9196C51.0071 99.7917 51.2259 99.5957 51.402 99.3315C51.581 99.0673 51.6705 98.7306 51.6705 98.3215ZM54.5181 100.998V94.4522H55.4897V95.4409H55.5579C55.6772 95.117 55.8931 94.8542 56.2056 94.6525C56.5181 94.4508 56.8704 94.35 57.2624 94.35C57.3363 94.35 57.4286 94.3514 57.5394 94.3542C57.6502 94.3571 57.734 94.3613 57.7908 94.367V95.3897C57.7567 95.3812 57.6786 95.3684 57.5565 95.3514C57.4371 95.3315 57.3107 95.3215 57.1772 95.3215C56.859 95.3215 56.5749 95.3883 56.3249 95.5218C56.0778 95.6525 55.8817 95.8343 55.7369 96.0673C55.5948 96.2974 55.5238 96.5602 55.5238 96.8556V100.998H54.5181ZM61.5281 101.134C60.8974 101.134 60.3533 100.995 59.896 100.716C59.4414 100.435 59.0906 100.043 58.8434 99.5403C58.5991 99.0346 58.4769 98.4465 58.4769 97.7761C58.4769 97.1056 58.5991 96.5147 58.8434 96.0034C59.0906 95.4892 59.4343 95.0886 59.8746 94.8017C60.3178 94.5119 60.8349 94.367 61.4258 94.367C61.7667 94.367 62.1033 94.4238 62.4357 94.5375C62.7681 94.6511 63.0707 94.8357 63.3434 95.0914C63.6161 95.3443 63.8335 95.6795 63.9954 96.0971C64.1573 96.5147 64.2383 97.0289 64.2383 97.6397V98.0659H59.1928V97.1965H63.2156C63.2156 96.8272 63.1417 96.4977 62.994 96.2079C62.8491 95.9181 62.6417 95.6894 62.3718 95.5218C62.1048 95.3542 61.7894 95.2704 61.4258 95.2704C61.0252 95.2704 60.6786 95.3698 60.386 95.5687C60.0962 95.7647 59.8732 96.0204 59.717 96.3357C59.5607 96.6511 59.4826 96.9892 59.4826 97.35V97.9295C59.4826 98.4238 59.5678 98.8429 59.7383 99.1866C59.9116 99.5275 60.1516 99.7875 60.4585 99.9664C60.7653 100.143 61.1218 100.231 61.5281 100.231C61.7923 100.231 62.0309 100.194 62.244 100.12C62.4599 100.043 62.646 99.9295 62.8022 99.7789C62.9585 99.6255 63.0792 99.4352 63.1644 99.2079L64.136 99.4806C64.0337 99.8102 63.8619 100.1 63.6204 100.35C63.3789 100.597 63.0806 100.79 62.7255 100.929C62.3704 101.066 61.9712 101.134 61.5281 101.134ZM60.9144 93.5659L61.9542 91.5886H63.1303L61.8008 93.5659H60.9144ZM68.5124 101.134C67.8817 101.134 67.3377 100.995 66.8803 100.716C66.4258 100.435 66.0749 100.043 65.8278 99.5403C65.5835 99.0346 65.4613 98.4465 65.4613 97.7761C65.4613 97.1056 65.5835 96.5147 65.8278 96.0034C66.0749 95.4892 66.4187 95.0886 66.859 94.8017C67.3022 94.5119 67.8192 94.367 68.4102 94.367C68.7511 94.367 69.0877 94.4238 69.4201 94.5375C69.7525 94.6511 70.055 94.8357 70.3278 95.0914C70.6005 95.3443 70.8178 95.6795 70.9798 96.0971C71.1417 96.5147 71.2227 97.0289 71.2227 97.6397V98.0659H66.1772V97.1965H70.1999C70.1999 96.8272 70.1261 96.4977 69.9783 96.2079C69.8335 95.9181 69.6261 95.6894 69.3562 95.5218C69.0891 95.3542 68.7738 95.2704 68.4102 95.2704C68.0096 95.2704 67.663 95.3698 67.3704 95.5687C67.0806 95.7647 66.8576 96.0204 66.7013 96.3357C66.5451 96.6511 66.467 96.9892 66.467 97.35V97.9295C66.467 98.4238 66.5522 98.8429 66.7227 99.1866C66.896 99.5275 67.136 99.7875 67.4428 99.9664C67.7496 100.143 68.1062 100.231 68.5124 100.231C68.7766 100.231 69.0153 100.194 69.2283 100.12C69.4442 100.043 69.6303 99.9295 69.7866 99.7789C69.9428 99.6255 70.0636 99.4352 70.1488 99.2079L71.1204 99.4806C71.0181 99.8102 70.8462 100.1 70.6048 100.35C70.3633 100.597 70.065 100.79 69.7099 100.929C69.3548 101.066 68.9556 101.134 68.5124 101.134ZM76.1275 100.998V94.4522H77.0991V95.475H77.1843C77.3207 95.1255 77.5408 94.8542 77.8448 94.661C78.1488 94.465 78.5138 94.367 78.94 94.367C79.3718 94.367 79.7312 94.465 80.0181 94.661C80.3079 94.8542 80.5337 95.1255 80.6957 95.475H80.7638C80.9315 95.1369 81.1829 94.8684 81.5181 94.6696C81.8533 94.4679 82.2553 94.367 82.7241 94.367C83.3093 94.367 83.788 94.5502 84.1602 94.9167C84.5323 95.2804 84.7184 95.8471 84.7184 96.617V100.998H83.7127V96.617C83.7127 96.134 83.5806 95.7889 83.3164 95.5815C83.0522 95.3741 82.7411 95.2704 82.3832 95.2704C81.9229 95.2704 81.5664 95.4096 81.3136 95.688C81.0607 95.9636 80.9343 96.313 80.9343 96.7363V100.998H79.9116V96.5147C79.9116 96.1426 79.7908 95.8429 79.5494 95.6156C79.3079 95.3855 78.9968 95.2704 78.6161 95.2704C78.3548 95.2704 78.1104 95.34 77.8832 95.4792C77.6587 95.6184 77.4769 95.8116 77.3377 96.0588C77.2013 96.3031 77.1332 96.5857 77.1332 96.9068V100.998H76.1275ZM89.2163 101.134C88.6254 101.134 88.1069 100.993 87.6609 100.712C87.2177 100.431 86.8711 100.037 86.6211 99.5318C86.3739 99.0261 86.2504 98.4352 86.2504 97.759C86.2504 97.0772 86.3739 96.4821 86.6211 95.9735C86.8711 95.465 87.2177 95.0701 87.6609 94.7889C88.1069 94.5076 88.6254 94.367 89.2163 94.367C89.8072 94.367 90.3242 94.5076 90.7674 94.7889C91.2134 95.0701 91.56 95.465 91.8072 95.9735C92.0572 96.4821 92.1822 97.0772 92.1822 97.759C92.1822 98.4352 92.0572 99.0261 91.8072 99.5318C91.56 100.037 91.2134 100.431 90.7674 100.712C90.3242 100.993 89.8072 101.134 89.2163 101.134ZM89.2163 100.231C89.6651 100.231 90.0344 100.116 90.3242 99.8855C90.614 99.6554 90.8285 99.3528 90.9677 98.9778C91.1069 98.6028 91.1765 98.1965 91.1765 97.759C91.1765 97.3215 91.1069 96.9139 90.9677 96.536C90.8285 96.1582 90.614 95.8528 90.3242 95.6198C90.0344 95.3869 89.6651 95.2704 89.2163 95.2704C88.7674 95.2704 88.3981 95.3869 88.1083 95.6198C87.8185 95.8528 87.604 96.1582 87.4648 96.536C87.3256 96.9139 87.256 97.3215 87.256 97.759C87.256 98.1965 87.3256 98.6028 87.4648 98.9778C87.604 99.3528 87.8185 99.6554 88.1083 99.8855C88.3981 100.116 88.7674 100.231 89.2163 100.231ZM94.1307 103.452C93.9602 103.452 93.8082 103.438 93.6747 103.41C93.5412 103.384 93.4489 103.358 93.3977 103.333L93.6534 102.447C93.8977 102.509 94.1136 102.532 94.3011 102.515C94.4886 102.498 94.6548 102.414 94.7997 102.263C94.9474 102.116 95.0824 101.876 95.2045 101.543L95.392 101.032L92.9716 94.4522H94.0625L95.8693 99.6681H95.9375L97.7443 94.4522H98.8352L96.0568 101.952C95.9318 102.29 95.777 102.57 95.5923 102.792C95.4077 103.016 95.1932 103.182 94.9489 103.29C94.7074 103.398 94.4347 103.452 94.1307 103.452ZM102.673 101.134C102.042 101.134 101.498 100.995 101.04 100.716C100.586 100.435 100.235 100.043 99.9879 99.5403C99.7436 99.0346 99.6214 98.4465 99.6214 97.7761C99.6214 97.1056 99.7436 96.5147 99.9879 96.0034C100.235 95.4892 100.579 95.0886 101.019 94.8017C101.462 94.5119 101.979 94.367 102.57 94.367C102.911 94.367 103.248 94.4238 103.58 94.5375C103.913 94.6511 104.215 94.8357 104.488 95.0914C104.761 95.3443 104.978 95.6795 105.14 96.0971C105.302 96.5147 105.383 97.0289 105.383 97.6397V98.0659H100.337V97.1965H104.36C104.36 96.8272 104.286 96.4977 104.138 96.2079C103.994 95.9181 103.786 95.6894 103.516 95.5218C103.249 95.3542 102.934 95.2704 102.57 95.2704C102.17 95.2704 101.823 95.3698 101.531 95.5687C101.241 95.7647 101.018 96.0204 100.862 96.3357C100.705 96.6511 100.627 96.9892 100.627 97.35V97.9295C100.627 98.4238 100.712 98.8429 100.883 99.1866C101.056 99.5275 101.296 99.7875 101.603 99.9664C101.91 100.143 102.266 100.231 102.673 100.231C102.937 100.231 103.175 100.194 103.388 100.12C103.604 100.043 103.79 99.9295 103.947 99.7789C104.103 99.6255 104.224 99.4352 104.309 99.2079L105.281 99.4806C105.178 99.8102 105.006 100.1 104.765 100.35C104.523 100.597 104.225 100.79 103.87 100.929C103.515 101.066 103.116 101.134 102.673 101.134ZM107.918 97.0602V100.998H106.913V94.4522H107.884V95.475H107.969C108.123 95.1426 108.356 94.8755 108.668 94.6738C108.981 94.4693 109.384 94.367 109.879 94.367C110.322 94.367 110.71 94.4579 111.042 94.6397C111.374 94.8187 111.633 95.0914 111.817 95.4579C112.002 95.8215 112.094 96.2818 112.094 96.8386V100.998H111.089V96.9068C111.089 96.3926 110.955 95.992 110.688 95.7051C110.421 95.4153 110.055 95.2704 109.589 95.2704C109.268 95.2704 108.981 95.34 108.728 95.4792C108.478 95.6184 108.281 95.8215 108.136 96.0886C107.991 96.3556 107.918 96.6795 107.918 97.0602ZM114.938 97.0602V100.998H113.932V94.4522H114.904V95.475H114.989C115.142 95.1426 115.375 94.8755 115.688 94.6738C116 94.4693 116.404 94.367 116.898 94.367C117.341 94.367 117.729 94.4579 118.061 94.6397C118.394 94.8187 118.652 95.0914 118.837 95.4579C119.022 95.8215 119.114 96.2818 119.114 96.8386V100.998H118.108V96.9068C118.108 96.3926 117.975 95.992 117.708 95.7051C117.441 95.4153 117.074 95.2704 116.608 95.2704C116.287 95.2704 116 95.34 115.748 95.4792C115.498 95.6184 115.3 95.8215 115.155 96.0886C115.01 96.3556 114.938 96.6795 114.938 97.0602ZM123.696 101.134C123.065 101.134 122.521 100.995 122.064 100.716C121.609 100.435 121.259 100.043 121.011 99.5403C120.767 99.0346 120.645 98.4465 120.645 97.7761C120.645 97.1056 120.767 96.5147 121.011 96.0034C121.259 95.4892 121.602 95.0886 122.043 94.8017C122.486 94.5119 123.003 94.367 123.594 94.367C123.935 94.367 124.271 94.4238 124.604 94.5375C124.936 94.6511 125.239 94.8357 125.511 95.0914C125.784 95.3443 126.001 95.6795 126.163 96.0971C126.325 96.5147 126.406 97.0289 126.406 97.6397V98.0659H121.361V97.1965H125.384C125.384 96.8272 125.31 96.4977 125.162 96.2079C125.017 95.9181 124.81 95.6894 124.54 95.5218C124.273 95.3542 123.957 95.2704 123.594 95.2704C123.193 95.2704 122.847 95.3698 122.554 95.5687C122.264 95.7647 122.041 96.0204 121.885 96.3357C121.729 96.6511 121.651 96.9892 121.651 97.35V97.9295C121.651 98.4238 121.736 98.8429 121.906 99.1866C122.08 99.5275 122.32 99.7875 122.626 99.9664C122.933 100.143 123.29 100.231 123.696 100.231C123.96 100.231 124.199 100.194 124.412 100.12C124.628 100.043 124.814 99.9295 124.97 99.7789C125.126 99.6255 125.247 99.4352 125.332 99.2079L126.304 99.4806C126.202 99.8102 126.03 100.1 125.788 100.35C125.547 100.597 125.249 100.79 124.893 100.929C124.538 101.066 124.139 101.134 123.696 101.134ZM133.783 101.134C133.237 101.134 132.756 100.996 132.338 100.721C131.92 100.442 131.594 100.05 131.358 99.5446C131.122 99.036 131.004 98.4352 131.004 97.742C131.004 97.0545 131.122 96.4579 131.358 95.9522C131.594 95.4465 131.922 95.0559 132.342 94.7804C132.763 94.5048 133.249 94.367 133.8 94.367C134.226 94.367 134.563 94.438 134.81 94.5801C135.06 94.7193 135.25 94.8784 135.381 95.0573C135.514 95.2335 135.618 95.3784 135.692 95.492H135.777V92.2704H136.783V100.998H135.811V99.992H135.692C135.618 100.111 135.513 100.262 135.376 100.444C135.24 100.623 135.045 100.783 134.793 100.925C134.54 101.064 134.203 101.134 133.783 101.134ZM133.919 100.231C134.322 100.231 134.663 100.126 134.942 99.9153C135.22 99.7022 135.432 99.4082 135.577 99.0332C135.722 98.6554 135.794 98.2193 135.794 97.725C135.794 97.2363 135.723 96.8088 135.581 96.4423C135.439 96.073 135.229 95.786 134.95 95.5815C134.672 95.3741 134.328 95.2704 133.919 95.2704C133.493 95.2704 133.138 95.3798 132.854 95.5985C132.572 95.8144 132.361 96.1085 132.219 96.4806C132.08 96.85 132.01 97.2647 132.01 97.725C132.01 98.1909 132.081 98.6142 132.223 98.9948C132.368 99.3727 132.581 99.6738 132.862 99.8982C133.146 100.12 133.499 100.231 133.919 100.231ZM139.651 92.2704V93.0375C139.651 93.2704 139.608 93.519 139.523 93.7832C139.44 94.0446 139.318 94.2988 139.156 94.546C138.997 94.7903 138.804 95.0034 138.577 95.1852L138.031 94.742C138.21 94.4863 138.365 94.2207 138.496 93.9451C138.629 93.6667 138.696 93.3698 138.696 93.0545V92.2704H139.651ZM144.624 98.3215V94.4522H145.629V100.998H144.624V99.8897H144.555C144.402 100.222 144.163 100.505 143.839 100.738C143.516 100.968 143.107 101.083 142.612 101.083C142.203 101.083 141.839 100.993 141.521 100.814C141.203 100.633 140.953 100.36 140.771 99.9963C140.589 99.6298 140.499 99.1681 140.499 98.6113V94.4522H141.504V98.5431C141.504 99.0204 141.638 99.4011 141.905 99.6852C142.175 99.9693 142.518 100.111 142.936 100.111C143.186 100.111 143.44 100.047 143.699 99.9196C143.96 99.7917 144.179 99.5957 144.355 99.3315C144.534 99.0673 144.624 98.7306 144.624 98.3215ZM148.477 97.0602V100.998H147.471V94.4522H148.443V95.475H148.528C148.681 95.1426 148.914 94.8755 149.227 94.6738C149.539 94.4693 149.943 94.367 150.437 94.367C150.88 94.367 151.268 94.4579 151.6 94.6397C151.933 94.8187 152.191 95.0914 152.376 95.4579C152.561 95.8215 152.653 96.2818 152.653 96.8386V100.998H151.647V96.9068C151.647 96.3926 151.514 95.992 151.247 95.7051C150.98 95.4153 150.613 95.2704 150.147 95.2704C149.826 95.2704 149.539 95.34 149.287 95.4792C149.037 95.6184 148.839 95.8215 148.694 96.0886C148.549 96.3556 148.477 96.6795 148.477 97.0602ZM157.235 101.134C156.604 101.134 156.06 100.995 155.603 100.716C155.148 100.435 154.798 100.043 154.55 99.5403C154.306 99.0346 154.184 98.4465 154.184 97.7761C154.184 97.1056 154.306 96.5147 154.55 96.0034C154.798 95.4892 155.141 95.0886 155.582 94.8017C156.025 94.5119 156.542 94.367 157.133 94.367C157.474 94.367 157.81 94.4238 158.143 94.5375C158.475 94.6511 158.778 94.8357 159.05 95.0914C159.323 95.3443 159.54 95.6795 159.702 96.0971C159.864 96.5147 159.945 97.0289 159.945 97.6397V98.0659H154.9V97.1965H158.923C158.923 96.8272 158.849 96.4977 158.701 96.2079C158.556 95.9181 158.349 95.6894 158.079 95.5218C157.812 95.3542 157.496 95.2704 157.133 95.2704C156.732 95.2704 156.386 95.3698 156.093 95.5687C155.803 95.7647 155.58 96.0204 155.424 96.3357C155.268 96.6511 155.19 96.9892 155.19 97.35V97.9295C155.19 98.4238 155.275 98.8429 155.445 99.1866C155.619 99.5275 155.859 99.7875 156.165 99.9664C156.472 100.143 156.829 100.231 157.235 100.231C157.499 100.231 157.738 100.194 157.951 100.12C158.167 100.043 158.353 99.9295 158.509 99.7789C158.665 99.6255 158.786 99.4352 158.871 99.2079L159.843 99.4806C159.741 99.8102 159.569 100.1 159.327 100.35C159.086 100.597 158.788 100.79 158.433 100.929C158.077 101.066 157.678 101.134 157.235 101.134ZM169.487 95.9181L168.583 96.1738C168.526 96.0232 168.442 95.8769 168.332 95.7349C168.224 95.59 168.076 95.4707 167.888 95.3769C167.701 95.2832 167.461 95.2363 167.168 95.2363C166.768 95.2363 166.434 95.3286 166.167 95.5133C165.903 95.6951 165.771 95.9267 165.771 96.2079C165.771 96.4579 165.862 96.6554 166.043 96.8002C166.225 96.9451 166.509 97.0659 166.896 97.1625L167.867 97.4011C168.452 97.5431 168.888 97.7605 169.175 98.0531C169.462 98.3429 169.606 98.7164 169.606 99.1738C169.606 99.5488 169.498 99.884 169.282 100.179C169.069 100.475 168.771 100.708 168.387 100.878C168.004 101.049 167.558 101.134 167.049 101.134C166.381 101.134 165.829 100.989 165.391 100.699C164.954 100.41 164.677 99.9863 164.56 99.4295L165.515 99.1909C165.606 99.5431 165.778 99.8073 166.031 99.9835C166.286 100.16 166.62 100.248 167.032 100.248C167.501 100.248 167.873 100.148 168.148 99.9494C168.427 99.7477 168.566 99.5062 168.566 99.225C168.566 98.9977 168.487 98.8073 168.327 98.6539C168.168 98.4977 167.924 98.3812 167.594 98.3045L166.504 98.0488C165.904 97.9068 165.464 97.6866 165.183 97.3883C164.904 97.0872 164.765 96.7107 164.765 96.259C164.765 95.8897 164.869 95.563 165.076 95.2789C165.286 94.9948 165.572 94.7718 165.933 94.6099C166.296 94.448 166.708 94.367 167.168 94.367C167.816 94.367 168.325 94.509 168.694 94.7931C169.066 95.0772 169.33 95.4522 169.487 95.9181ZM173.864 101.134C173.233 101.134 172.689 100.995 172.232 100.716C171.777 100.435 171.426 100.043 171.179 99.5403C170.935 99.0346 170.813 98.4465 170.813 97.7761C170.813 97.1056 170.935 96.5147 171.179 96.0034C171.426 95.4892 171.77 95.0886 172.211 94.8017C172.654 94.5119 173.171 94.367 173.762 94.367C174.103 94.367 174.439 94.4238 174.772 94.5375C175.104 94.6511 175.407 94.8357 175.679 95.0914C175.952 95.3443 176.169 95.6795 176.331 96.0971C176.493 96.5147 176.574 97.0289 176.574 97.6397V98.0659H171.529V97.1965H175.551C175.551 96.8272 175.478 96.4977 175.33 96.2079C175.185 95.9181 174.978 95.6894 174.708 95.5218C174.441 95.3542 174.125 95.2704 173.762 95.2704C173.361 95.2704 173.015 95.3698 172.722 95.5687C172.432 95.7647 172.209 96.0204 172.053 96.3357C171.897 96.6511 171.819 96.9892 171.819 97.35V97.9295C171.819 98.4238 171.904 98.8429 172.074 99.1866C172.248 99.5275 172.488 99.7875 172.794 99.9664C173.101 100.143 173.458 100.231 173.864 100.231C174.128 100.231 174.367 100.194 174.58 100.12C174.796 100.043 174.982 99.9295 175.138 99.7789C175.294 99.6255 175.415 99.4352 175.5 99.2079L176.472 99.4806C176.37 99.8102 176.198 100.1 175.956 100.35C175.715 100.597 175.417 100.79 175.061 100.929C174.706 101.066 174.307 101.134 173.864 101.134ZM182.74 95.9181L181.837 96.1738C181.78 96.0232 181.696 95.8769 181.586 95.7349C181.478 95.59 181.33 95.4707 181.142 95.3769C180.955 95.2832 180.715 95.2363 180.422 95.2363C180.022 95.2363 179.688 95.3286 179.421 95.5133C179.157 95.6951 179.025 95.9267 179.025 96.2079C179.025 96.4579 179.115 96.6554 179.297 96.8002C179.479 96.9451 179.763 97.0659 180.15 97.1625L181.121 97.4011C181.706 97.5431 182.142 97.7605 182.429 98.0531C182.716 98.3429 182.86 98.7164 182.86 99.1738C182.86 99.5488 182.752 99.884 182.536 100.179C182.323 100.475 182.025 100.708 181.641 100.878C181.257 101.049 180.811 101.134 180.303 101.134C179.635 101.134 179.083 100.989 178.645 100.699C178.208 100.41 177.931 99.9863 177.814 99.4295L178.769 99.1909C178.86 99.5431 179.032 99.8073 179.284 99.9835C179.54 100.16 179.874 100.248 180.286 100.248C180.755 100.248 181.127 100.148 181.402 99.9494C181.681 99.7477 181.82 99.5062 181.82 99.225C181.82 98.9977 181.74 98.8073 181.581 98.6539C181.422 98.4977 181.178 98.3812 180.848 98.3045L179.757 98.0488C179.158 97.9068 178.718 97.6866 178.436 97.3883C178.158 97.0872 178.019 96.7107 178.019 96.259C178.019 95.8897 178.123 95.563 178.33 95.2789C178.54 94.9948 178.826 94.7718 179.186 94.6099C179.55 94.448 179.962 94.367 180.422 94.367C181.07 94.367 181.578 94.509 181.948 94.7931C182.32 95.0772 182.584 95.4522 182.74 95.9181ZM189.01 95.9181L188.107 96.1738C188.05 96.0232 187.966 95.8769 187.855 95.7349C187.747 95.59 187.599 95.4707 187.412 95.3769C187.224 95.2832 186.984 95.2363 186.692 95.2363C186.291 95.2363 185.957 95.3286 185.69 95.5133C185.426 95.6951 185.294 95.9267 185.294 96.2079C185.294 96.4579 185.385 96.6554 185.567 96.8002C185.749 96.9451 186.033 97.0659 186.419 97.1625L187.391 97.4011C187.976 97.5431 188.412 97.7605 188.699 98.0531C188.986 98.3429 189.129 98.7164 189.129 99.1738C189.129 99.5488 189.021 99.884 188.805 100.179C188.592 100.475 188.294 100.708 187.911 100.878C187.527 101.049 187.081 101.134 186.572 101.134C185.905 101.134 185.352 100.989 184.915 100.699C184.477 100.41 184.2 99.9863 184.084 99.4295L185.038 99.1909C185.129 99.5431 185.301 99.8073 185.554 99.9835C185.81 100.16 186.143 100.248 186.555 100.248C187.024 100.248 187.396 100.148 187.672 99.9494C187.95 99.7477 188.089 99.5062 188.089 99.225C188.089 98.9977 188.01 98.8073 187.851 98.6539C187.692 98.4977 187.447 98.3812 187.118 98.3045L186.027 98.0488C185.428 97.9068 184.987 97.6866 184.706 97.3883C184.428 97.0872 184.288 96.7107 184.288 96.259C184.288 95.8897 184.392 95.563 184.599 95.2789C184.81 94.9948 185.095 94.7718 185.456 94.6099C185.82 94.448 186.232 94.367 186.692 94.367C187.339 94.367 187.848 94.509 188.217 94.7931C188.589 95.0772 188.854 95.4522 189.01 95.9181ZM190.643 100.998V94.4522H191.649V100.998H190.643ZM191.154 93.3613C190.958 93.3613 190.789 93.2946 190.647 93.161C190.508 93.0275 190.439 92.867 190.439 92.6795C190.439 92.492 190.508 92.3315 190.647 92.198C190.789 92.0644 190.958 91.9977 191.154 91.9977C191.35 91.9977 191.518 92.0644 191.657 92.198C191.799 92.3315 191.87 92.492 191.87 92.6795C191.87 92.867 191.799 93.0275 191.657 93.161C191.518 93.2946 191.35 93.3613 191.154 93.3613ZM196.15 101.134C195.559 101.134 195.04 100.993 194.594 100.712C194.151 100.431 193.805 100.037 193.555 99.5318C193.308 99.0261 193.184 98.4352 193.184 97.759C193.184 97.0772 193.308 96.4821 193.555 95.9735C193.805 95.465 194.151 95.0701 194.594 94.7889C195.04 94.5076 195.559 94.367 196.15 94.367C196.741 94.367 197.258 94.5076 197.701 94.7889C198.147 95.0701 198.494 95.465 198.741 95.9735C198.991 96.4821 199.116 97.0772 199.116 97.759C199.116 98.4352 198.991 99.0261 198.741 99.5318C198.494 100.037 198.147 100.431 197.701 100.712C197.258 100.993 196.741 101.134 196.15 101.134ZM196.15 100.231C196.599 100.231 196.968 100.116 197.258 99.8855C197.548 99.6554 197.762 99.3528 197.901 98.9778C198.04 98.6028 198.11 98.1965 198.11 97.759C198.11 97.3215 198.04 96.9139 197.901 96.536C197.762 96.1582 197.548 95.8528 197.258 95.6198C196.968 95.3869 196.599 95.2704 196.15 95.2704C195.701 95.2704 195.332 95.3869 195.042 95.6198C194.752 95.8528 194.538 96.1582 194.398 96.536C194.259 96.9139 194.19 97.3215 194.19 97.759C194.19 98.1965 194.259 98.6028 194.398 98.9778C194.538 99.3528 194.752 99.6554 195.042 99.8855C195.332 100.116 195.701 100.231 196.15 100.231ZM201.657 97.0602V100.998H200.651V94.4522H201.623V95.475H201.708C201.861 95.1426 202.094 94.8755 202.407 94.6738C202.719 94.4693 203.123 94.367 203.617 94.367C204.06 94.367 204.448 94.4579 204.78 94.6397C205.113 94.8187 205.371 95.0914 205.556 95.4579C205.74 95.8215 205.833 96.2818 205.833 96.8386V100.998H204.827V96.9068C204.827 96.3926 204.694 95.992 204.426 95.7051C204.159 95.4153 203.793 95.2704 203.327 95.2704C203.006 95.2704 202.719 95.34 202.466 95.4792C202.216 95.6184 202.019 95.8215 201.874 96.0886C201.729 96.3556 201.657 96.6795 201.657 97.0602ZM211.182 100.998V92.2704H212.188V95.492H212.273C212.347 95.3784 212.449 95.2335 212.58 95.0573C212.713 94.8784 212.903 94.7193 213.151 94.5801C213.401 94.438 213.739 94.367 214.165 94.367C214.716 94.367 215.202 94.5048 215.622 94.7804C216.043 95.0559 216.371 95.4465 216.607 95.9522C216.842 96.4579 216.96 97.0545 216.96 97.742C216.96 98.4352 216.842 99.036 216.607 99.5446C216.371 100.05 216.044 100.442 215.626 100.721C215.209 100.996 214.727 101.134 214.182 101.134C213.761 101.134 213.425 101.064 213.172 100.925C212.919 100.783 212.724 100.623 212.588 100.444C212.452 100.262 212.347 100.111 212.273 99.992H212.153V100.998H211.182ZM212.17 97.725C212.17 98.2193 212.243 98.6554 212.388 99.0332C212.533 99.4082 212.744 99.7022 213.023 99.9153C213.301 100.126 213.642 100.231 214.045 100.231C214.466 100.231 214.817 100.12 215.098 99.8982C215.382 99.6738 215.595 99.3727 215.737 98.9948C215.882 98.6142 215.955 98.1909 215.955 97.725C215.955 97.2647 215.884 96.85 215.741 96.4806C215.602 96.1085 215.391 95.8144 215.107 95.5985C214.825 95.3798 214.472 95.2704 214.045 95.2704C213.636 95.2704 213.293 95.3741 213.014 95.5815C212.736 95.786 212.526 96.073 212.384 96.4423C212.241 96.8088 212.17 97.2363 212.17 97.725ZM218.499 100.998V94.4522H219.504V100.998H218.499ZM219.01 93.3613C218.814 93.3613 218.645 93.2946 218.503 93.161C218.364 93.0275 218.294 92.867 218.294 92.6795C218.294 92.492 218.364 92.3315 218.503 92.198C218.645 92.0644 218.814 91.9977 219.01 91.9977C219.206 91.9977 219.374 92.0644 219.513 92.198C219.655 92.3315 219.726 92.492 219.726 92.6795C219.726 92.867 219.655 93.0275 219.513 93.161C219.374 93.2946 219.206 93.3613 219.01 93.3613ZM222.352 97.0602V100.998H221.346V94.4522H222.318V95.475H222.403C222.556 95.1426 222.789 94.8755 223.102 94.6738C223.414 94.4693 223.818 94.367 224.312 94.367C224.755 94.367 225.143 94.4579 225.475 94.6397C225.808 94.8187 226.066 95.0914 226.251 95.4579C226.436 95.8215 226.528 96.2818 226.528 96.8386V100.998H225.522V96.9068C225.522 96.3926 225.389 95.992 225.122 95.7051C224.855 95.4153 224.488 95.2704 224.022 95.2704C223.701 95.2704 223.414 95.34 223.162 95.4792C222.912 95.6184 222.714 95.8215 222.569 96.0886C222.424 96.3556 222.352 96.6795 222.352 97.0602ZM231.008 103.589C230.522 103.589 230.104 103.526 229.755 103.401C229.406 103.279 229.114 103.117 228.881 102.915C228.651 102.716 228.468 102.503 228.332 102.276L229.133 101.714C229.224 101.833 229.339 101.969 229.478 102.123C229.617 102.279 229.808 102.414 230.049 102.528C230.293 102.644 230.613 102.702 231.008 102.702C231.536 102.702 231.972 102.574 232.316 102.319C232.66 102.063 232.832 101.662 232.832 101.117V99.7875H232.746C232.673 99.9068 232.567 100.054 232.431 100.231C232.298 100.404 232.104 100.559 231.852 100.695C231.602 100.829 231.263 100.895 230.837 100.895C230.309 100.895 229.835 100.77 229.414 100.52C228.996 100.27 228.665 99.9068 228.421 99.4295C228.18 98.9522 228.059 98.3727 228.059 97.6909C228.059 97.0204 228.177 96.4366 228.413 95.9394C228.648 95.4394 228.977 95.0531 229.397 94.7804C229.817 94.5048 230.303 94.367 230.854 94.367C231.281 94.367 231.619 94.438 231.869 94.5801C232.121 94.7193 232.315 94.8784 232.448 95.0573C232.585 95.2335 232.69 95.3784 232.763 95.492H232.866V94.4522H233.837V101.185C233.837 101.748 233.71 102.205 233.454 102.557C233.201 102.912 232.86 103.172 232.431 103.337C232.005 103.505 231.531 103.589 231.008 103.589ZM230.974 99.992C231.377 99.992 231.718 99.8997 231.996 99.715C232.275 99.5304 232.487 99.2647 232.631 98.9181C232.776 98.5715 232.849 98.1568 232.849 97.6738C232.849 97.2022 232.778 96.786 232.636 96.4252C232.494 96.0644 232.283 95.7818 232.005 95.5772C231.727 95.3727 231.383 95.2704 230.974 95.2704C230.548 95.2704 230.192 95.3784 229.908 95.5943C229.627 95.8102 229.415 96.1 229.273 96.4636C229.134 96.8272 229.065 97.2306 229.065 97.6738C229.065 98.1284 229.136 98.5304 229.278 98.8798C229.423 99.2264 229.636 99.4991 229.917 99.698C230.201 99.894 230.553 99.992 230.974 99.992ZM238.423 101.134C237.792 101.134 237.248 100.995 236.79 100.716C236.336 100.435 235.985 100.043 235.738 99.5403C235.494 99.0346 235.371 98.4465 235.371 97.7761C235.371 97.1056 235.494 96.5147 235.738 96.0034C235.985 95.4892 236.329 95.0886 236.769 94.8017C237.212 94.5119 237.729 94.367 238.32 94.367C238.661 94.367 238.998 94.4238 239.33 94.5375C239.663 94.6511 239.965 94.8357 240.238 95.0914C240.511 95.3443 240.728 95.6795 240.89 96.0971C241.052 96.5147 241.133 97.0289 241.133 97.6397V98.0659H236.087V97.1965H240.11C240.11 96.8272 240.036 96.4977 239.888 96.2079C239.744 95.9181 239.536 95.6894 239.266 95.5218C238.999 95.3542 238.684 95.2704 238.32 95.2704C237.92 95.2704 237.573 95.3698 237.281 95.5687C236.991 95.7647 236.768 96.0204 236.612 96.3357C236.455 96.6511 236.377 96.9892 236.377 97.35V97.9295C236.377 98.4238 236.462 98.8429 236.633 99.1866C236.806 99.5275 237.046 99.7875 237.353 99.9664C237.66 100.143 238.016 100.231 238.423 100.231C238.687 100.231 238.925 100.194 239.138 100.12C239.354 100.043 239.54 99.9295 239.697 99.7789C239.853 99.6255 239.974 99.4352 240.059 99.2079L241.031 99.4806C240.928 99.8102 240.756 100.1 240.515 100.35C240.273 100.597 239.975 100.79 239.62 100.929C239.265 101.066 238.866 101.134 238.423 101.134Z" fill="#EDEDED"/>
<path d="M279.991 105.099C278.054 106.776 275.101 106.577 273.643 104.47C269.791 98.9053 267.295 92.4901 266.385 85.7396C265.268 77.4513 266.593 69.0173 270.196 61.4703C273.8 53.9232 279.526 47.5908 286.673 43.2484C293.821 38.906 302.079 36.7421 310.438 37.0217C318.796 37.3013 326.892 40.0123 333.733 44.8226C340.574 49.633 345.864 56.3339 348.955 64.1049C352.046 71.8758 352.804 80.3795 351.136 88.5746C349.777 95.2493 346.857 101.483 342.642 106.778C341.047 108.783 338.087 108.784 336.266 106.982C334.445 105.18 334.46 102.259 335.996 100.208C338.973 96.2316 341.047 91.6296 342.045 86.7242C343.354 80.2971 342.759 73.6281 340.335 67.5337C337.911 61.4393 333.762 56.184 328.397 52.4115C323.032 48.639 316.683 46.5129 310.127 46.2936C303.572 46.0743 297.095 47.7714 291.49 51.1769C285.885 54.5825 281.394 59.5487 278.568 65.4675C275.742 71.3863 274.703 78.0007 275.579 84.5008C276.248 89.462 278.009 94.1922 280.714 98.3592C282.109 100.508 281.929 103.423 279.991 105.099Z" fill="#B1B1B1"/>
<g filter="url(#filter1_i_2385_1990)">
<path d="M280.069 105.189C278.137 106.872 275.184 106.682 273.72 104.58C269.975 99.2052 267.495 93.0276 266.496 86.512C265.498 79.9964 266.013 73.3598 267.977 67.1101C268.744 64.6661 271.505 63.6003 273.853 64.6268C276.2 65.6533 277.237 68.3839 276.542 70.8496C275.24 75.4678 274.934 80.3287 275.666 85.1066C276.399 89.8844 278.146 94.4306 280.771 98.447C282.173 100.591 282.001 103.507 280.069 105.189Z" fill="#1D985D"/>
</g>
<path d="M291.148 78.9977V70.2704H292.729V77.6724H296.573V78.9977H291.148ZM297.877 78.9977V72.4522H299.419V78.9977H297.877ZM298.652 71.5232C298.408 71.5232 298.198 71.4423 298.021 71.2804C297.845 71.1156 297.757 70.9181 297.757 70.688C297.757 70.4551 297.845 70.2576 298.021 70.0957C298.198 69.9309 298.408 69.8485 298.652 69.8485C298.899 69.8485 299.11 69.9309 299.283 70.0957C299.459 70.2576 299.547 70.4551 299.547 70.688C299.547 70.9181 299.459 71.1156 299.283 71.2804C299.11 71.4423 298.899 71.5232 298.652 71.5232ZM301.006 78.9977V72.4522H302.48V73.5644H302.557C302.693 73.1894 302.919 72.8968 303.234 72.6866C303.55 72.4735 303.926 72.367 304.363 72.367C304.807 72.367 305.18 72.475 305.484 72.6909C305.791 72.9039 306.007 73.1951 306.132 73.5644H306.2C306.345 73.2008 306.589 72.911 306.933 72.6951C307.28 72.4764 307.69 72.367 308.165 72.367C308.767 72.367 309.258 72.5573 309.639 72.938C310.02 73.3187 310.21 73.8741 310.21 74.6042V78.9977H308.663V74.8429C308.663 74.4366 308.555 74.1397 308.339 73.9522C308.123 73.7619 307.859 73.6667 307.547 73.6667C307.175 73.6667 306.883 73.7832 306.673 74.0161C306.466 74.2463 306.362 74.546 306.362 74.9153V78.9977H304.849V74.7789C304.849 74.4409 304.747 74.171 304.542 73.9693C304.341 73.7676 304.077 73.6667 303.75 73.6667C303.528 73.6667 303.327 73.7235 303.145 73.8372C302.963 73.948 302.818 74.1056 302.71 74.3102C302.602 74.5119 302.548 74.7477 302.548 75.0176V78.9977H301.006ZM311.775 78.9977V72.4522H313.318V78.9977H311.775ZM312.551 71.5232C312.306 71.5232 312.096 71.4423 311.92 71.2804C311.744 71.1156 311.656 70.9181 311.656 70.688C311.656 70.4551 311.744 70.2576 311.92 70.0957C312.096 69.9309 312.306 69.8485 312.551 69.8485C312.798 69.8485 313.008 69.9309 313.181 70.0957C313.357 70.2576 313.445 70.4551 313.445 70.688C313.445 70.9181 313.357 71.1156 313.181 71.2804C313.008 71.4423 312.798 71.5232 312.551 71.5232ZM318.172 72.4522V73.6454H314.41V72.4522H318.172ZM315.339 70.884H316.881V77.0289C316.881 77.2363 316.912 77.3954 316.975 77.5062C317.04 77.6142 317.126 77.688 317.231 77.7278C317.336 77.7676 317.452 77.7875 317.58 77.7875C317.677 77.7875 317.765 77.7804 317.844 77.7661C317.927 77.7519 317.989 77.7392 318.032 77.7278L318.292 78.9338C318.209 78.9622 318.091 78.9934 317.938 79.0275C317.787 79.0616 317.603 79.0815 317.384 79.0872C316.998 79.0985 316.65 79.0403 316.34 78.9125C316.03 78.7818 315.785 78.5801 315.603 78.3073C315.424 78.0346 315.336 77.6937 315.339 77.2846V70.884ZM322.29 79.1255C321.634 79.1255 321.067 78.9892 320.59 78.7164C320.115 78.4409 319.75 78.0517 319.494 77.5488C319.239 77.0431 319.111 76.448 319.111 75.7633C319.111 75.09 319.239 74.4991 319.494 73.9906C319.753 73.4792 320.114 73.0815 320.577 72.7974C321.04 72.5105 321.584 72.367 322.209 72.367C322.612 72.367 322.993 72.4323 323.351 72.563C323.712 72.6909 324.03 72.8897 324.306 73.1596C324.584 73.4295 324.803 73.7732 324.962 74.1909C325.121 74.6056 325.2 75.1 325.2 75.6738V76.1468H319.835V75.1071H323.722C323.719 74.8116 323.655 74.5488 323.53 74.3187C323.405 74.0857 323.23 73.9025 323.006 73.769C322.784 73.6355 322.526 73.5687 322.23 73.5687C321.915 73.5687 321.638 73.6454 321.399 73.7988C321.161 73.9494 320.975 74.1482 320.841 74.3954C320.71 74.6397 320.644 74.9082 320.641 75.2008V76.1085C320.641 76.4892 320.71 76.8159 320.85 77.0886C320.989 77.3585 321.183 77.5659 321.433 77.7107C321.683 77.8528 321.976 77.9238 322.311 77.9238C322.536 77.9238 322.739 77.8926 322.921 77.8301C323.102 77.7647 323.26 77.6696 323.394 77.5446C323.527 77.4196 323.628 77.2647 323.696 77.0801L325.137 77.242C325.046 77.6227 324.872 77.9551 324.617 78.2392C324.364 78.5204 324.04 78.7392 323.645 78.8954C323.25 79.0488 322.798 79.1255 322.29 79.1255Z" fill="#B1B1B1"/>
<path d="M296.91 92.117C296.296 92.117 295.751 92.0119 295.273 91.8017C294.799 91.5914 294.424 91.2988 294.148 90.9238C293.873 90.5488 293.726 90.1156 293.709 89.6241H295.312C295.326 89.8599 295.404 90.0659 295.546 90.242C295.688 90.4153 295.877 90.5502 296.113 90.6468C296.349 90.7434 296.613 90.7917 296.905 90.7917C297.218 90.7917 297.495 90.7377 297.736 90.6298C297.978 90.519 298.167 90.3656 298.303 90.1696C298.439 89.9735 298.506 89.7477 298.503 89.492C298.506 89.2278 298.438 88.9948 298.299 88.7931C298.16 88.5914 297.958 88.4338 297.694 88.3201C297.432 88.2065 297.117 88.1497 296.748 88.1497H295.976V86.9309H296.748C297.052 86.9309 297.317 86.8784 297.545 86.7732C297.775 86.6681 297.955 86.5204 298.086 86.3301C298.216 86.1369 298.28 85.9139 298.278 85.661C298.28 85.4139 298.225 85.1994 298.111 85.0176C298.001 84.8329 297.843 84.6894 297.638 84.5872C297.437 84.4849 297.199 84.4338 296.927 84.4338C296.66 84.4338 296.412 84.4821 296.185 84.5786C295.958 84.6752 295.775 84.813 295.635 84.992C295.496 85.1681 295.422 85.3784 295.414 85.6227H293.893C293.904 85.134 294.045 84.7051 294.314 84.3357C294.587 83.9636 294.951 83.6738 295.405 83.4664C295.86 83.2562 296.37 83.1511 296.935 83.1511C297.518 83.1511 298.023 83.2605 298.452 83.4792C298.884 83.6951 299.218 83.9863 299.454 84.3528C299.689 84.7193 299.807 85.1241 299.807 85.5673C299.81 86.0588 299.665 86.4707 299.373 86.8031C299.083 87.1355 298.702 87.3528 298.231 87.4551V87.5232C298.844 87.6085 299.314 87.8357 299.641 88.2051C299.971 88.5715 300.134 89.0275 300.131 89.573C300.131 90.0616 299.992 90.4991 299.714 90.8855C299.438 91.269 299.057 91.5701 298.572 91.7889C298.089 92.0076 297.535 92.117 296.91 92.117ZM303.154 88.1625V91.9977H301.611V83.2704H303.119V86.5644H303.196C303.35 86.1951 303.587 85.9039 303.908 85.6909C304.232 85.475 304.644 85.367 305.144 85.367C305.598 85.367 305.994 85.4622 306.333 85.6525C306.671 85.8429 306.932 86.1213 307.117 86.4877C307.304 86.8542 307.398 87.3017 307.398 87.8301V91.9977H305.855V88.0687C305.855 87.6284 305.742 87.286 305.514 87.0417C305.29 86.7946 304.975 86.671 304.568 86.671C304.296 86.671 304.051 86.7306 303.835 86.85C303.622 86.9664 303.455 87.1355 303.333 87.3571C303.213 87.5786 303.154 87.8471 303.154 88.1625ZM312.085 92.117C311.472 92.117 310.926 92.0119 310.449 91.8017C309.975 91.5914 309.6 91.2988 309.324 90.9238C309.048 90.5488 308.902 90.1156 308.885 89.6241H310.487C310.502 89.8599 310.58 90.0659 310.722 90.242C310.864 90.4153 311.053 90.5502 311.289 90.6468C311.524 90.7434 311.789 90.7917 312.081 90.7917C312.394 90.7917 312.671 90.7377 312.912 90.6298C313.154 90.519 313.343 90.3656 313.479 90.1696C313.615 89.9735 313.682 89.7477 313.679 89.492C313.682 89.2278 313.614 88.9948 313.475 88.7931C313.335 88.5914 313.134 88.4338 312.869 88.3201C312.608 88.2065 312.293 88.1497 311.923 88.1497H311.152V86.9309H311.923C312.227 86.9309 312.493 86.8784 312.72 86.7732C312.95 86.6681 313.131 86.5204 313.262 86.3301C313.392 86.1369 313.456 85.9139 313.453 85.661C313.456 85.4139 313.401 85.1994 313.287 85.0176C313.176 84.8329 313.019 84.6894 312.814 84.5872C312.612 84.4849 312.375 84.4338 312.102 84.4338C311.835 84.4338 311.588 84.4821 311.361 84.5786C311.134 84.6752 310.95 84.813 310.811 84.992C310.672 85.1681 310.598 85.3784 310.59 85.6227H309.068C309.08 85.134 309.22 84.7051 309.49 84.3357C309.763 83.9636 310.127 83.6738 310.581 83.4664C311.036 83.2562 311.546 83.1511 312.111 83.1511C312.693 83.1511 313.199 83.2605 313.628 83.4792C314.06 83.6951 314.394 83.9863 314.629 84.3528C314.865 84.7193 314.983 85.1241 314.983 85.5673C314.986 86.0588 314.841 86.4707 314.548 86.8031C314.259 87.1355 313.878 87.3528 313.406 87.4551V87.5232C314.02 87.6085 314.49 87.8357 314.817 88.2051C315.146 88.5715 315.31 89.0275 315.307 89.573C315.307 90.0616 315.168 90.4991 314.889 90.8855C314.614 91.269 314.233 91.5701 313.747 91.7889C313.264 92.0076 312.71 92.117 312.085 92.117ZM319.996 92.1639C319.294 92.1639 318.692 91.9863 318.189 91.6312C317.689 91.2732 317.304 90.7576 317.034 90.0843C316.767 89.4082 316.633 88.5943 316.633 87.6426C316.636 86.6909 316.771 85.8812 317.038 85.2136C317.308 84.5431 317.693 84.0318 318.193 83.6795C318.696 83.3272 319.297 83.1511 319.996 83.1511C320.694 83.1511 321.295 83.3272 321.798 83.6795C322.301 84.0318 322.686 84.5431 322.953 85.2136C323.223 85.884 323.358 86.6937 323.358 87.6426C323.358 88.5971 323.223 89.4125 322.953 90.0886C322.686 90.7619 322.301 91.2761 321.798 91.6312C321.298 91.9863 320.697 92.1639 319.996 92.1639ZM319.996 90.8301C320.541 90.8301 320.971 90.5616 321.287 90.0247C321.605 89.4849 321.764 88.6909 321.764 87.6426C321.764 86.9494 321.692 86.367 321.547 85.8954C321.402 85.4238 321.197 85.0687 320.933 84.8301C320.669 84.5886 320.356 84.4679 319.996 84.4679C319.453 84.4679 319.024 84.7377 318.709 85.2775C318.393 85.8144 318.234 86.6028 318.231 87.6426C318.229 88.3386 318.298 88.9238 318.44 89.3982C318.585 89.8727 318.79 90.2306 319.054 90.4721C319.318 90.7107 319.632 90.8301 319.996 90.8301Z" fill="#B1B1B1"/>
</g>
<defs>
<filter id="filter0_d_2385_1990" x="0.428053" y="0.4498" width="391.192" height="163.192" filterUnits="userSpaceOnUse" color-interpolation-filters="sRGB">
<feFlood flood-opacity="0" result="BackgroundImageFix"/>
<feColorMatrix in="SourceAlpha" type="matrix" values="0 0 0 0 0 0 0 0 0 0 0 0 0 0 0 0 0 0 127 0" result="hardAlpha"/>
<feMorphology radius="2" operator="dilate" in="SourceAlpha" result="effect1_dropShadow_2385_1990"/>
<feOffset dx="1.02407" dy="2.04813"/>
<feGaussianBlur stdDeviation="6.29801"/>
<feComposite in2="hardAlpha" operator="out"/>
<feColorMatrix type="matrix" values="0 0 0 0 0 0 0 0 0 0 0 0 0 0 0 0 0 0 0.1 0"/>
<feBlend mode="normal" in2="BackgroundImageFix" result="effect1_dropShadow_2385_1990"/>
<feBlend mode="normal" in="SourceGraphic" in2="effect1_dropShadow_2385_1990" result="shape"/>
</filter>
<filter id="filter1_i_2385_1990" x="266" y="64.2378" width="15.6919" height="46.0819" filterUnits="userSpaceOnUse" color-interpolation-filters="sRGB">
<feFlood flood-opacity="0" result="BackgroundImageFix"/>
<feBlend mode="normal" in="SourceGraphic" in2="BackgroundImageFix" result="shape"/>
<feColorMatrix in="SourceAlpha" type="matrix" values="0 0 0 0 0 0 0 0 0 0 0 0 0 0 0 0 0 0 127 0" result="hardAlpha"/>
<feOffset dy="4"/>
<feGaussianBlur stdDeviation="2"/>
<feComposite in2="hardAlpha" operator="arithmetic" k2="-1" k3="1"/>
<feColorMatrix type="matrix" values="0 0 0 0 0 0 0 0 0 0 0 0 0 0 0 0 0 0 0.25 0"/>
<feBlend mode="normal" in2="shape" result="effect1_innerShadow_2385_1990"/>
</filter>
</defs>
</svg>
