<svg width="21" height="20" viewBox="0 0 21 20" fill="none" xmlns="http://www.w3.org/2000/svg">
<path fill-rule="evenodd" clip-rule="evenodd" d="M1.24872 0.292454C0.857952 0.155068 0.429801 0.360474 0.292416 0.75124C0.15503 1.14201 0.360436 1.57016 0.751202 1.70754L1.01241 1.79938C1.68002 2.0341 2.11877 2.18965 2.44162 2.34805C2.74484 2.49684 2.87851 2.61727 2.96657 2.74613C3.05683 2.87822 3.12653 3.05964 3.16587 3.42299C3.20702 3.80319 3.20804 4.29841 3.20804 5.03836V7.76C3.20804 9.21252 3.22167 10.2599 3.35872 11.0601C3.50505 11.9144 3.79718 12.5261 4.34341 13.1022C4.93727 13.7286 5.69008 14.0012 6.58632 14.1283C7.44455 14.25 8.5344 14.25 9.88011 14.25L15.2858 14.25C16.0275 14.25 16.6516 14.25 17.1565 14.1882C17.6923 14.1227 18.1809 13.9794 18.6074 13.6318C19.0339 13.2842 19.2729 12.8346 19.4452 12.3232C19.6077 11.8411 19.7336 11.2299 19.8833 10.5035L20.3923 8.03415L20.3932 8.02955L20.4037 7.97727C20.5683 7.15238 20.7069 6.45849 20.7413 5.90038C20.7775 5.31418 20.7108 4.73617 20.3289 4.23978C20.094 3.93435 19.7636 3.76145 19.4631 3.65587C19.1566 3.54817 18.8101 3.48587 18.4603 3.44678C17.7733 3.36997 16.9386 3.36999 16.12 3.37L4.66784 3.37C4.66456 3.33325 4.661 3.2971 4.65715 3.26157C4.60342 2.76519 4.48701 2.31247 4.20503 1.89983C3.92085 1.48397 3.543 1.21763 3.10237 1.00143C2.69028 0.799226 2.16665 0.61515 1.55012 0.398418L1.24872 0.292454ZM4.70803 4.87H16.0888C16.9452 4.87 17.6989 4.871 18.2937 4.93749C18.5892 4.97053 18.8104 5.01643 18.9659 5.07104C19.0929 5.11568 19.1359 5.15214 19.1421 5.15741C19.1424 5.15763 19.142 5.1573 19.1421 5.15741C19.2034 5.23882 19.2702 5.38651 19.2442 5.80797C19.2168 6.25154 19.1003 6.84379 18.9227 7.73373L18.9222 7.73595L18.4234 10.1561C18.2621 10.9389 18.1535 11.4593 18.0238 11.8442C17.9006 12.2095 17.785 12.367 17.6598 12.469C17.5346 12.571 17.357 12.6525 16.9743 12.6994C16.5712 12.7487 16.0396 12.75 15.2403 12.75H9.93744C8.52065 12.75 7.53759 12.7482 6.79692 12.6432C6.08211 12.5418 5.70448 12.3576 5.43194 12.0702C5.11178 11.7325 4.93909 11.4018 4.83719 10.8069C4.72603 10.1578 4.70804 9.24904 4.70804 7.76L4.70803 4.87Z" fill="#D6C8B0"/>
<path fill-rule="evenodd" clip-rule="evenodd" d="M6.49996 19.75C5.25732 19.75 4.24996 18.7426 4.24996 17.5C4.24996 16.2574 5.25732 15.25 6.49996 15.25C7.7426 15.25 8.74996 16.2574 8.74996 17.5C8.74996 18.7426 7.7426 19.75 6.49996 19.75ZM5.74996 17.5C5.74996 17.9142 6.08575 18.25 6.49996 18.25C6.91417 18.25 7.24996 17.9142 7.24996 17.5C7.24996 17.0858 6.91417 16.75 6.49996 16.75C6.08575 16.75 5.74996 17.0858 5.74996 17.5Z" fill="#D6C8B0"/>
<path fill-rule="evenodd" clip-rule="evenodd" d="M15.5 19.7501C14.2573 19.7501 13.25 18.7427 13.25 17.5001C13.25 16.2574 14.2573 15.2501 15.5 15.2501C16.7426 15.2501 17.75 16.2574 17.75 17.5001C17.75 18.7427 16.7426 19.7501 15.5 19.7501ZM14.75 17.5001C14.75 17.9143 15.0857 18.2501 15.5 18.2501C15.9142 18.2501 16.25 17.9143 16.25 17.5001C16.25 17.0859 15.9142 16.7501 15.5 16.7501C15.0857 16.7501 14.75 17.0859 14.75 17.5001Z" fill="#D6C8B0"/>
</svg>
