<svg width="75" height="75" viewBox="0 0 75 75" fill="none" xmlns="http://www.w3.org/2000/svg">
<rect x="0.577881" width="74.2666" height="74.2666" rx="37.1333" fill="#D6C8B0"/>
<path opacity="0.5" d="M24.9556 33.4253C24.9556 26.6673 30.3095 21.1888 36.9139 21.1888C43.5183 21.1888 48.8722 26.6673 48.8722 33.4253C48.8722 37.0484 47.3319 40.3049 44.8883 42.5438C44.0739 43.2901 43.4705 43.8429 43.0429 44.2441C42.8291 44.4447 42.6656 44.6013 42.545 44.7216C42.4848 44.7815 42.4388 44.829 42.4046 44.8657C42.3876 44.8839 42.3749 44.8981 42.3656 44.9087C42.3561 44.9195 42.3522 44.9244 42.3522 44.9244C41.9751 45.4006 41.8935 45.5235 41.8449 45.6348C41.7963 45.7461 41.7613 45.8902 41.6661 46.4954C41.6286 46.7343 41.6247 47.1435 41.6247 48.2573V48.305C41.6248 48.9573 41.6248 49.52 41.5839 49.9817C41.5406 50.47 41.4449 50.9534 41.1878 51.4091C40.9015 51.9164 40.4898 52.3377 39.9941 52.6306C39.5487 52.8937 39.0763 52.9916 38.5991 53.0359C38.1479 53.0777 37.5981 53.0777 36.9607 53.0777H36.9606H36.8671H36.8671C36.2296 53.0777 35.6798 53.0777 35.2286 53.0359C34.7515 52.9916 34.279 52.8937 33.8337 52.6306C33.3379 52.3377 32.9262 51.9164 32.64 51.4091C32.3829 50.9534 32.2871 50.47 32.2439 49.9817C32.203 49.52 32.203 48.9574 32.203 48.3051V48.3051L32.203 48.2573C32.203 47.1435 32.1992 46.7343 32.1616 46.4954C32.0665 45.8902 32.0315 45.7461 31.9829 45.6348C31.9343 45.5235 31.8527 45.4006 31.4756 44.9244C31.4756 44.9244 31.4712 44.919 31.4622 44.9087C31.4529 44.8981 31.4401 44.8839 31.4232 44.8657C31.3889 44.829 31.3429 44.7815 31.2828 44.7216C31.1621 44.6013 30.9987 44.4447 30.7849 44.2441C30.3573 43.8429 29.7539 43.2901 28.9394 42.5438C26.4958 40.3049 24.9556 37.0484 24.9556 33.4253Z" fill="#1C1C1F"/>
<path d="M39.4416 49.3704H34.3871C34.3918 49.525 34.3989 49.6601 34.4097 49.7817C34.4393 50.1156 34.4892 50.2368 34.5234 50.2974C34.6188 50.4665 34.756 50.607 34.9213 50.7046C34.9805 50.7396 35.099 50.7906 35.4254 50.8209C35.7666 50.8526 36.217 50.8536 36.9144 50.8536C37.6117 50.8536 38.0621 50.8526 38.4034 50.8209C38.7297 50.7906 38.8482 50.7396 38.9074 50.7046C39.0727 50.607 39.2099 50.4665 39.3053 50.2974C39.3395 50.2368 39.3894 50.1156 39.419 49.7817C39.4298 49.6601 39.4369 49.525 39.4416 49.3704Z" fill="#1C1C1F"/>
<path d="M38.6849 31.0376C39.1735 31.3947 39.2866 32.0895 38.9377 32.5894L37.0595 35.28H39.2955C39.7027 35.28 40.0758 35.5129 40.2621 35.8834C40.4484 36.2539 40.4168 36.6999 40.1801 37.039L37.074 41.4886C36.7251 41.9885 36.0461 42.1043 35.5575 41.7472C35.069 41.3901 34.9558 40.6954 35.3048 40.1955L37.183 37.5048H34.947C34.5398 37.5048 34.1667 37.2719 33.9804 36.9014C33.794 36.5309 33.8257 36.0849 34.0624 35.7458L37.1684 31.2962C37.5174 30.7963 38.1964 30.6805 38.6849 31.0376Z" fill="#1C1C1F"/>
</svg>
