<svg width="75" height="75" viewBox="0 0 75 75" fill="none" xmlns="http://www.w3.org/2000/svg">
<rect x="0.155518" width="74.2666" height="74.2666" rx="37.1333" fill="#D6C8B0"/>
<path opacity="0.5" d="M27.5292 22.5898C26.1282 23.9908 26.1282 26.2457 26.1282 30.7555V43.511C26.1282 48.0208 26.1282 50.2757 27.5292 51.6767C28.9302 53.0777 31.1851 53.0777 35.6948 53.0777H38.8837C43.3935 53.0777 45.6484 53.0777 47.0494 51.6767C48.4504 50.2757 48.4504 48.0208 48.4504 43.511V30.7555C48.4504 26.2457 48.4504 23.9908 47.0494 22.5898C45.6484 21.1888 43.3935 21.1888 38.8837 21.1888H35.6948C31.1851 21.1888 28.9302 21.1888 27.5292 22.5898Z" fill="#1C1C1F"/>
<path d="M33.3028 47.0985C32.6423 47.0985 32.1069 47.6339 32.1069 48.2943C32.1069 48.9548 32.6423 49.4902 33.3028 49.4902H41.275C41.9354 49.4902 42.4708 48.9548 42.4708 48.2943C42.4708 47.6339 41.9354 47.0985 41.275 47.0985H33.3028Z" fill="#1C1C1F"/>
<path fill-rule="evenodd" clip-rule="evenodd" d="M20.81 26.4974C21.4007 26.202 22.119 26.4414 22.4144 27.0322L23.6523 29.508C24.045 30.2935 24.045 31.2181 23.6523 32.0037L22.7709 33.7664C22.7148 33.8787 22.7148 34.0108 22.7709 34.123L23.6523 35.8857C24.045 36.6713 24.045 37.5959 23.6523 38.3814L22.7709 40.1442C22.7148 40.2564 22.7148 40.3885 22.7709 40.5007L23.6523 42.2635C24.045 43.0491 24.045 43.9737 23.6523 44.7592L22.4144 47.235C22.119 47.8258 21.4007 48.0652 20.81 47.7698C20.2193 47.4745 19.9798 46.7562 20.2752 46.1655L21.5131 43.6896C21.5692 43.5774 21.5692 43.4453 21.5131 43.3331L20.6317 41.5703C20.2389 40.7848 20.2389 39.8602 20.6317 39.0746L21.5131 37.3119C21.5692 37.1996 21.5692 37.0675 21.5131 36.9553L20.6317 35.1926C20.2389 34.407 20.2389 33.4824 20.6317 32.6969L21.5131 30.9341C21.5692 30.8219 21.5692 30.6898 21.5131 30.5776L20.2752 28.1017C19.9798 27.511 20.2193 26.7927 20.81 26.4974ZM53.7684 26.4974C54.3591 26.7927 54.5986 27.511 54.3032 28.1017L53.0653 30.5776C53.0092 30.6898 53.0092 30.8219 53.0653 30.9341L53.9467 32.6969C54.3394 33.4824 54.3394 34.407 53.9467 35.1926L53.0653 36.9553C53.0092 37.0676 53.0092 37.1996 53.0653 37.3119L53.9467 39.0746C54.3394 39.8602 54.3394 40.7848 53.9467 41.5703L53.0653 43.3331C53.0092 43.4453 53.0092 43.5774 53.0653 43.6896L54.3032 46.1655C54.5986 46.7562 54.3591 47.4745 53.7684 47.7698C53.1777 48.0652 52.4594 47.8258 52.164 47.235L50.9261 44.7592C50.5333 43.9737 50.5333 43.0491 50.9261 42.2635L51.8075 40.5007C51.8636 40.3885 51.8636 40.2564 51.8075 40.1442L50.9261 38.3814C50.5333 37.5959 50.5333 36.6713 50.9261 35.8857L51.8075 34.123C51.8636 34.0108 51.8636 33.8787 51.8075 33.7664L50.9261 32.0037C50.5333 31.2181 50.5333 30.2935 50.9261 29.508L52.164 27.0322C52.4594 26.4414 53.1777 26.202 53.7684 26.4974Z" fill="#1C1C1F"/>
</svg>
