<svg width="75" height="75" viewBox="0 0 75 75" fill="none" xmlns="http://www.w3.org/2000/svg">
<rect width="74.2666" height="74.2666" rx="37.1333" fill="#D6C8B0"/>
<path fill-rule="evenodd" clip-rule="evenodd" d="M45.9025 22.3848C46.5629 22.3848 47.0983 22.9202 47.0983 23.5806V27.1681H50.6858C51.3463 27.1681 51.8817 27.7035 51.8817 28.3639C51.8817 29.0244 51.3463 29.5598 50.6858 29.5598H47.0983V33.1472C47.0983 33.8077 46.5629 34.3431 45.9025 34.3431C45.2421 34.3431 44.7067 33.8077 44.7067 33.1472V29.5598H41.1192C40.4587 29.5598 39.9233 29.0244 39.9233 28.3639C39.9233 27.7035 40.4587 27.1681 41.1192 27.1681H44.7067V23.5806C44.7067 22.9202 45.2421 22.3848 45.9025 22.3848Z" fill="#1C1C1F"/>
<path d="M21.189 28.3638C21.189 24.9815 21.189 23.2903 22.2397 22.2396C23.2905 21.1888 24.9816 21.1888 28.364 21.1888C31.7463 21.1888 33.4374 21.1888 34.4882 22.2396C35.5389 23.2903 35.5389 24.9815 35.5389 28.3638C35.5389 31.7462 35.5389 33.4373 34.4882 34.4881C33.4374 35.5388 31.7463 35.5388 28.364 35.5388C24.9816 35.5388 23.2905 35.5388 22.2397 34.4881C21.189 33.4373 21.189 31.7462 21.189 28.3638Z" fill="#1C1C1F"/>
<path d="M38.7275 45.9028C38.7275 42.5204 38.7275 40.8293 39.7783 39.7785C40.829 38.7278 42.5202 38.7278 45.9025 38.7278C49.2848 38.7278 50.976 38.7278 52.0268 39.7785C53.0775 40.8293 53.0775 42.5204 53.0775 45.9028C53.0775 49.2851 53.0775 50.9763 52.0268 52.027C50.976 53.0778 49.2848 53.0778 45.9025 53.0778C42.5202 53.0778 40.829 53.0778 39.7783 52.027C38.7275 50.9763 38.7275 49.2851 38.7275 45.9028Z" fill="#1C1C1F"/>
<path opacity="0.5" d="M21.189 45.9028C21.189 42.5204 21.189 40.8293 22.2397 39.7785C23.2905 38.7278 24.9816 38.7278 28.364 38.7278C31.7463 38.7278 33.4374 38.7278 34.4882 39.7785C35.5389 40.8293 35.5389 42.5204 35.5389 45.9028C35.5389 49.2851 35.5389 50.9763 34.4882 52.027C33.4374 53.0778 31.7463 53.0778 28.364 53.0778C24.9816 53.0778 23.2905 53.0778 22.2397 52.027C21.189 50.9763 21.189 49.2851 21.189 45.9028Z" fill="#1C1C1F"/>
</svg>
