<svg width="725" height="337" viewBox="0 0 725 337" fill="none" xmlns="http://www.w3.org/2000/svg">
<g filter="url(#filter0_d_2431_1099)">
<rect x="14" y="12.6621" width="694.729" height="307" rx="8" fill="#2A2A2E" shape-rendering="crispEdges"/>
<path d="M97.2567 288.53V289.55C97.2567 289.995 97.2151 290.382 97.1317 290.713C97.0484 291.04 96.9262 291.313 96.7651 291.529C96.6068 291.743 96.4124 291.903 96.1819 292.008C95.9542 292.114 95.6931 292.167 95.3987 292.167C95.1654 292.167 94.9516 292.133 94.7572 292.067C94.5628 292 94.3892 291.899 94.2364 291.762C94.0865 291.624 93.9587 291.45 93.8532 291.242C93.7476 291.033 93.6671 290.789 93.6115 290.509C93.556 290.225 93.5282 289.906 93.5282 289.55V288.53C93.5282 288.083 93.5699 287.697 93.6532 287.372C93.7393 287.047 93.8615 286.777 94.0198 286.563C94.1809 286.35 94.3767 286.191 94.6072 286.089C94.8377 285.983 95.0988 285.93 95.3904 285.93C95.6237 285.93 95.8375 285.965 96.0319 286.034C96.2291 286.101 96.4027 286.201 96.5527 286.334C96.7054 286.468 96.8332 286.638 96.9359 286.847C97.0415 287.052 97.1206 287.295 97.1734 287.576C97.2289 287.856 97.2567 288.174 97.2567 288.53ZM96.761 289.609V288.467C96.761 288.192 96.7415 287.942 96.7026 287.717C96.6665 287.492 96.6124 287.295 96.5402 287.126C96.468 286.956 96.3763 286.815 96.2652 286.701C96.1569 286.587 96.0292 286.502 95.882 286.447C95.7375 286.388 95.5737 286.359 95.3904 286.359C95.1654 286.359 94.9669 286.405 94.7947 286.497C94.6252 286.586 94.4836 286.719 94.3697 286.897C94.2559 287.072 94.1698 287.291 94.1115 287.555C94.0559 287.819 94.0281 288.123 94.0281 288.467V289.609C94.0281 289.881 94.0462 290.129 94.0823 290.354C94.1184 290.577 94.1739 290.774 94.2489 290.946C94.3239 291.118 94.4156 291.264 94.5239 291.383C94.635 291.5 94.7627 291.589 94.9071 291.65C95.0543 291.708 95.2182 291.737 95.3987 291.737C95.6292 291.737 95.8292 291.692 95.9986 291.6C96.168 291.506 96.3097 291.368 96.4235 291.188C96.5374 291.004 96.6221 290.781 96.6776 290.517C96.7332 290.25 96.761 289.948 96.761 289.609Z" fill="#EDEDED"/>
<path d="M151.516 285.993V292.083H151.02V286.622L149.37 287.234V286.763L151.432 285.993H151.516ZM157.391 288.53V289.55C157.391 289.995 157.35 290.382 157.266 290.713C157.183 291.04 157.061 291.313 156.9 291.529C156.742 291.743 156.547 291.903 156.317 292.008C156.089 292.114 155.828 292.167 155.533 292.167C155.3 292.167 155.086 292.133 154.892 292.067C154.698 292 154.524 291.899 154.371 291.762C154.221 291.624 154.093 291.45 153.988 291.242C153.882 291.033 153.802 290.789 153.746 290.509C153.691 290.225 153.663 289.906 153.663 289.55V288.53C153.663 288.083 153.705 287.697 153.788 287.372C153.874 287.047 153.996 286.777 154.155 286.563C154.316 286.35 154.511 286.191 154.742 286.089C154.972 285.983 155.234 285.93 155.525 285.93C155.758 285.93 155.972 285.965 156.167 286.034C156.364 286.101 156.537 286.201 156.687 286.334C156.84 286.468 156.968 286.638 157.071 286.847C157.176 287.052 157.255 287.295 157.308 287.576C157.364 287.856 157.391 288.174 157.391 288.53ZM156.896 289.609V288.467C156.896 288.192 156.876 287.942 156.837 287.717C156.801 287.492 156.747 287.295 156.675 287.126C156.603 286.956 156.511 286.815 156.4 286.701C156.292 286.587 156.164 286.502 156.017 286.447C155.872 286.388 155.708 286.359 155.525 286.359C155.3 286.359 155.102 286.405 154.929 286.497C154.76 286.586 154.618 286.719 154.504 286.897C154.391 287.072 154.305 287.291 154.246 287.555C154.191 287.819 154.163 288.123 154.163 288.467V289.609C154.163 289.881 154.181 290.129 154.217 290.354C154.253 290.577 154.309 290.774 154.384 290.946C154.459 291.118 154.55 291.264 154.659 291.383C154.77 291.5 154.897 291.589 155.042 291.65C155.189 291.708 155.353 291.737 155.533 291.737C155.764 291.737 155.964 291.692 156.133 291.6C156.303 291.506 156.444 291.368 156.558 291.188C156.672 291.004 156.757 290.781 156.812 290.517C156.868 290.25 156.896 289.948 156.896 289.609Z" fill="#EDEDED"/>
<path d="M208.023 291.654V292.083H204.228V291.696L206.215 289.442C206.463 289.162 206.66 288.916 206.807 288.705C206.954 288.491 207.06 288.296 207.124 288.121C207.19 287.944 207.223 287.772 207.223 287.605C207.223 287.361 207.175 287.145 207.078 286.959C206.983 286.773 206.842 286.627 206.653 286.522C206.464 286.416 206.231 286.363 205.953 286.363C205.675 286.363 205.434 286.423 205.228 286.543C205.023 286.662 204.864 286.829 204.753 287.043C204.645 287.254 204.591 287.494 204.591 287.763H204.095C204.095 287.43 204.169 287.124 204.316 286.847C204.466 286.569 204.68 286.348 204.957 286.184C205.235 286.018 205.567 285.934 205.953 285.934C206.319 285.934 206.635 286 206.899 286.13C207.162 286.258 207.365 286.443 207.507 286.684C207.651 286.926 207.723 287.217 207.723 287.559C207.723 287.742 207.69 287.927 207.623 288.113C207.56 288.299 207.471 288.485 207.357 288.671C207.246 288.855 207.118 289.037 206.974 289.217C206.832 289.398 206.683 289.575 206.528 289.75L204.836 291.654H208.023ZM212.42 288.53V289.55C212.42 289.995 212.379 290.382 212.295 290.713C212.212 291.04 212.09 291.313 211.929 291.529C211.77 291.743 211.576 291.903 211.345 292.008C211.118 292.114 210.857 292.167 210.562 292.167C210.329 292.167 210.115 292.133 209.921 292.067C209.726 292 209.553 291.899 209.4 291.762C209.25 291.624 209.122 291.45 209.017 291.242C208.911 291.033 208.831 290.789 208.775 290.509C208.72 290.225 208.692 289.906 208.692 289.55V288.53C208.692 288.083 208.733 287.697 208.817 287.372C208.903 287.047 209.025 286.777 209.183 286.563C209.344 286.35 209.54 286.191 209.771 286.089C210.001 285.983 210.262 285.93 210.554 285.93C210.787 285.93 211.001 285.965 211.195 286.034C211.393 286.101 211.566 286.201 211.716 286.334C211.869 286.468 211.997 286.638 212.099 286.847C212.205 287.052 212.284 287.295 212.337 287.576C212.392 287.856 212.42 288.174 212.42 288.53ZM211.925 289.609V288.467C211.925 288.192 211.905 287.942 211.866 287.717C211.83 287.492 211.776 287.295 211.704 287.126C211.632 286.956 211.54 286.815 211.429 286.701C211.32 286.587 211.193 286.502 211.046 286.447C210.901 286.388 210.737 286.359 210.554 286.359C210.329 286.359 210.13 286.405 209.958 286.497C209.789 286.586 209.647 286.719 209.533 286.897C209.419 287.072 209.333 287.291 209.275 287.555C209.219 287.819 209.192 288.123 209.192 288.467V289.609C209.192 289.881 209.21 290.129 209.246 290.354C209.282 290.577 209.338 290.774 209.412 290.946C209.487 291.118 209.579 291.264 209.687 291.383C209.799 291.5 209.926 291.589 210.071 291.65C210.218 291.708 210.382 291.737 210.562 291.737C210.793 291.737 210.993 291.692 211.162 291.6C211.332 291.506 211.473 291.368 211.587 291.188C211.701 291.004 211.786 290.781 211.841 290.517C211.897 290.25 211.925 289.948 211.925 289.609Z" fill="#EDEDED"/>
<path d="M260.932 288.776H261.44C261.751 288.776 262.011 288.723 262.219 288.617C262.43 288.509 262.589 288.366 262.694 288.188C262.803 288.01 262.857 287.813 262.857 287.597C262.857 287.352 262.811 287.138 262.719 286.955C262.628 286.769 262.487 286.625 262.298 286.522C262.112 286.416 261.874 286.363 261.582 286.363C261.326 286.363 261.099 286.413 260.899 286.513C260.699 286.613 260.54 286.756 260.424 286.943C260.307 287.129 260.249 287.351 260.249 287.609H259.753C259.753 287.279 259.832 286.988 259.991 286.738C260.149 286.486 260.367 286.288 260.645 286.147C260.922 286.005 261.235 285.934 261.582 285.934C261.94 285.934 262.251 286 262.515 286.13C262.782 286.261 262.987 286.451 263.132 286.701C263.279 286.951 263.352 287.255 263.352 287.613C263.352 287.797 263.312 287.977 263.232 288.155C263.154 288.333 263.037 288.494 262.882 288.638C262.726 288.78 262.533 288.894 262.303 288.98C262.072 289.066 261.804 289.109 261.499 289.109H260.932V288.776ZM260.932 289.205V288.876H261.499C261.846 288.876 262.143 288.916 262.39 288.996C262.637 289.074 262.84 289.185 262.998 289.33C263.159 289.471 263.277 289.636 263.352 289.825C263.427 290.014 263.465 290.217 263.465 290.434C263.465 290.711 263.419 290.957 263.327 291.171C263.236 291.385 263.105 291.567 262.936 291.717C262.769 291.864 262.572 291.976 262.344 292.054C262.119 292.129 261.872 292.167 261.603 292.167C261.358 292.167 261.12 292.13 260.886 292.058C260.656 291.986 260.447 291.879 260.261 291.737C260.078 291.593 259.932 291.413 259.824 291.196C259.716 290.977 259.661 290.724 259.661 290.438H260.157C260.157 290.693 260.218 290.92 260.34 291.117C260.463 291.311 260.632 291.464 260.849 291.575C261.068 291.683 261.319 291.737 261.603 291.737C261.889 291.737 262.133 291.689 262.336 291.592C262.541 291.492 262.698 291.346 262.807 291.154C262.915 290.963 262.969 290.728 262.969 290.45C262.969 290.159 262.904 289.921 262.773 289.738C262.646 289.555 262.466 289.42 262.236 289.334C262.008 289.248 261.743 289.205 261.44 289.205H260.932ZM268.016 288.53V289.55C268.016 289.995 267.974 290.382 267.891 290.713C267.808 291.04 267.685 291.313 267.524 291.529C267.366 291.743 267.172 291.903 266.941 292.008C266.713 292.114 266.452 292.167 266.158 292.167C265.925 292.167 265.711 292.133 265.516 292.067C265.322 292 265.148 291.899 264.996 291.762C264.846 291.624 264.718 291.45 264.612 291.242C264.507 291.033 264.426 290.789 264.371 290.509C264.315 290.225 264.287 289.906 264.287 289.55V288.53C264.287 288.083 264.329 287.697 264.412 287.372C264.499 287.047 264.621 286.777 264.779 286.563C264.94 286.35 265.136 286.191 265.366 286.089C265.597 285.983 265.858 285.93 266.15 285.93C266.383 285.93 266.597 285.965 266.791 286.034C266.988 286.101 267.162 286.201 267.312 286.334C267.465 286.468 267.592 286.638 267.695 286.847C267.801 287.052 267.88 287.295 267.933 287.576C267.988 287.856 268.016 288.174 268.016 288.53ZM267.52 289.609V288.467C267.52 288.192 267.501 287.942 267.462 287.717C267.426 287.492 267.372 287.295 267.299 287.126C267.227 286.956 267.136 286.815 267.024 286.701C266.916 286.587 266.788 286.502 266.641 286.447C266.497 286.388 266.333 286.359 266.15 286.359C265.925 286.359 265.726 286.405 265.554 286.497C265.385 286.586 265.243 286.719 265.129 286.897C265.015 287.072 264.929 287.291 264.871 287.555C264.815 287.819 264.787 288.123 264.787 288.467V289.609C264.787 289.881 264.805 290.129 264.842 290.354C264.878 290.577 264.933 290.774 265.008 290.946C265.083 291.118 265.175 291.264 265.283 291.383C265.394 291.5 265.522 291.589 265.666 291.65C265.814 291.708 265.977 291.737 266.158 291.737C266.388 291.737 266.588 291.692 266.758 291.6C266.927 291.506 267.069 291.368 267.183 291.188C267.297 291.004 267.381 290.781 267.437 290.517C267.492 290.25 267.52 289.948 267.52 289.609Z" fill="#EDEDED"/>
<path d="M318.856 290.125V290.55H314.561V290.263L317.365 286.018H317.781L317.19 287.047L315.169 290.125H318.856ZM317.91 286.018V292.083H317.415V286.018H317.91ZM323.045 288.53V289.55C323.045 289.995 323.003 290.382 322.92 290.713C322.836 291.04 322.714 291.313 322.553 291.529C322.395 291.743 322.2 291.903 321.97 292.008C321.742 292.114 321.481 292.167 321.187 292.167C320.953 292.167 320.74 292.133 320.545 292.067C320.351 292 320.177 291.899 320.025 291.762C319.875 291.624 319.747 291.45 319.641 291.242C319.536 291.033 319.455 290.789 319.4 290.509C319.344 290.225 319.316 289.906 319.316 289.55V288.53C319.316 288.083 319.358 287.697 319.441 287.372C319.527 287.047 319.65 286.777 319.808 286.563C319.969 286.35 320.165 286.191 320.395 286.089C320.626 285.983 320.887 285.93 321.178 285.93C321.412 285.93 321.626 285.965 321.82 286.034C322.017 286.101 322.191 286.201 322.341 286.334C322.493 286.468 322.621 286.638 322.724 286.847C322.83 287.052 322.909 287.295 322.961 287.576C323.017 287.856 323.045 288.174 323.045 288.53ZM322.549 289.609V288.467C322.549 288.192 322.53 287.942 322.491 287.717C322.455 287.492 322.4 287.295 322.328 287.126C322.256 286.956 322.164 286.815 322.053 286.701C321.945 286.587 321.817 286.502 321.67 286.447C321.526 286.388 321.362 286.359 321.178 286.359C320.953 286.359 320.755 286.405 320.583 286.497C320.413 286.586 320.272 286.719 320.158 286.897C320.044 287.072 319.958 287.291 319.9 287.555C319.844 287.819 319.816 288.123 319.816 288.467V289.609C319.816 289.881 319.834 290.129 319.87 290.354C319.906 290.577 319.962 290.774 320.037 290.946C320.112 291.118 320.204 291.264 320.312 291.383C320.423 291.5 320.551 291.589 320.695 291.65C320.842 291.708 321.006 291.737 321.187 291.737C321.417 291.737 321.617 291.692 321.787 291.6C321.956 291.506 322.098 291.368 322.212 291.188C322.325 291.004 322.41 290.781 322.466 290.517C322.521 290.25 322.549 289.948 322.549 289.609Z" fill="#EDEDED"/>
<path d="M371.178 289.084L370.786 288.971L371.082 286.018H374.115V286.484H371.507L371.295 288.526C371.4 288.451 371.553 288.377 371.753 288.305C371.956 288.23 372.183 288.192 372.436 288.192C372.705 288.192 372.95 288.238 373.169 288.33C373.391 288.419 373.582 288.549 373.74 288.721C373.898 288.891 374.02 289.096 374.107 289.338C374.193 289.577 374.236 289.848 374.236 290.15C374.236 290.442 374.2 290.71 374.127 290.954C374.055 291.199 373.945 291.413 373.798 291.596C373.651 291.776 373.464 291.917 373.236 292.017C373.008 292.117 372.737 292.167 372.424 292.167C372.182 292.167 371.954 292.133 371.74 292.067C371.529 291.997 371.34 291.893 371.174 291.754C371.007 291.615 370.871 291.44 370.766 291.229C370.663 291.018 370.599 290.771 370.574 290.488H371.053C371.086 290.76 371.16 290.989 371.274 291.175C371.388 291.361 371.54 291.501 371.732 291.596C371.926 291.69 372.157 291.737 372.424 291.737C372.64 291.737 372.829 291.703 372.99 291.633C373.154 291.564 373.29 291.463 373.398 291.329C373.509 291.193 373.593 291.028 373.648 290.833C373.707 290.636 373.736 290.411 373.736 290.159C373.736 289.942 373.705 289.743 373.644 289.563C373.583 289.38 373.493 289.22 373.373 289.084C373.257 288.945 373.112 288.838 372.94 288.763C372.768 288.688 372.571 288.651 372.349 288.651C372.06 288.651 371.829 288.689 371.657 288.767C371.488 288.845 371.328 288.95 371.178 289.084ZM378.641 288.53V289.55C378.641 289.995 378.599 290.382 378.516 290.713C378.433 291.04 378.31 291.313 378.149 291.529C377.991 291.743 377.797 291.903 377.566 292.008C377.338 292.114 377.077 292.167 376.783 292.167C376.55 292.167 376.336 292.133 376.141 292.067C375.947 292 375.773 291.899 375.621 291.762C375.471 291.624 375.343 291.45 375.237 291.242C375.132 291.033 375.051 290.789 374.996 290.509C374.94 290.225 374.912 289.906 374.912 289.55V288.53C374.912 288.083 374.954 287.697 375.037 287.372C375.124 287.047 375.246 286.777 375.404 286.563C375.565 286.35 375.761 286.191 375.991 286.089C376.222 285.983 376.483 285.93 376.775 285.93C377.008 285.93 377.222 285.965 377.416 286.034C377.613 286.101 377.787 286.201 377.937 286.334C378.09 286.468 378.217 286.638 378.32 286.847C378.426 287.052 378.505 287.295 378.558 287.576C378.613 287.856 378.641 288.174 378.641 288.53ZM378.145 289.609V288.467C378.145 288.192 378.126 287.942 378.087 287.717C378.051 287.492 377.997 287.295 377.924 287.126C377.852 286.956 377.761 286.815 377.649 286.701C377.541 286.587 377.413 286.502 377.266 286.447C377.122 286.388 376.958 286.359 376.775 286.359C376.55 286.359 376.351 286.405 376.179 286.497C376.01 286.586 375.868 286.719 375.754 286.897C375.64 287.072 375.554 287.291 375.496 287.555C375.44 287.819 375.412 288.123 375.412 288.467V289.609C375.412 289.881 375.43 290.129 375.467 290.354C375.503 290.577 375.558 290.774 375.633 290.946C375.708 291.118 375.8 291.264 375.908 291.383C376.019 291.5 376.147 291.589 376.291 291.65C376.439 291.708 376.602 291.737 376.783 291.737C377.013 291.737 377.213 291.692 377.383 291.6C377.552 291.506 377.694 291.368 377.808 291.188C377.922 291.004 378.006 290.781 378.062 290.517C378.117 290.25 378.145 289.948 378.145 289.609Z" fill="#EDEDED"/>
<path d="M428.344 285.972H428.415V286.409H428.344C427.961 286.409 427.619 286.472 427.319 286.597C427.022 286.722 426.771 286.902 426.565 287.138C426.362 287.372 426.208 287.655 426.103 287.988C425.997 288.321 425.944 288.695 425.944 289.109V289.946C425.944 290.227 425.982 290.478 426.057 290.7C426.132 290.92 426.236 291.107 426.369 291.263C426.503 291.418 426.658 291.536 426.836 291.617C427.014 291.697 427.205 291.737 427.411 291.737C427.613 291.737 427.795 291.696 427.956 291.613C428.118 291.529 428.254 291.413 428.365 291.263C428.479 291.113 428.565 290.94 428.623 290.746C428.684 290.549 428.715 290.338 428.715 290.113C428.715 289.899 428.687 289.698 428.631 289.509C428.579 289.317 428.497 289.148 428.386 289C428.274 288.853 428.136 288.738 427.969 288.655C427.802 288.571 427.607 288.53 427.382 288.53C427.126 288.53 426.887 288.588 426.665 288.705C426.443 288.821 426.261 288.977 426.119 289.171C425.98 289.366 425.907 289.578 425.898 289.809L425.611 289.805C425.63 289.543 425.69 289.309 425.79 289.1C425.89 288.889 426.022 288.71 426.186 288.563C426.353 288.413 426.543 288.299 426.757 288.221C426.973 288.141 427.207 288.101 427.457 288.101C427.748 288.101 428.002 288.153 428.219 288.259C428.438 288.364 428.62 288.51 428.765 288.696C428.912 288.88 429.022 289.092 429.094 289.334C429.169 289.573 429.206 289.825 429.206 290.092C429.206 290.384 429.165 290.656 429.081 290.908C429.001 291.158 428.881 291.378 428.723 291.567C428.567 291.756 428.379 291.903 428.156 292.008C427.937 292.114 427.688 292.167 427.411 292.167C427.105 292.167 426.832 292.108 426.59 291.992C426.348 291.875 426.141 291.714 425.969 291.508C425.8 291.303 425.669 291.067 425.578 290.8C425.489 290.531 425.444 290.243 425.444 289.938V289.405C425.444 288.888 425.504 288.42 425.624 288.001C425.743 287.579 425.922 287.216 426.161 286.913C426.403 286.611 426.704 286.379 427.065 286.218C427.429 286.054 427.855 285.972 428.344 285.972ZM433.67 288.53V289.55C433.67 289.995 433.628 290.382 433.545 290.713C433.461 291.04 433.339 291.313 433.178 291.529C433.02 291.743 432.825 291.903 432.595 292.008C432.367 292.114 432.106 292.167 431.812 292.167C431.578 292.167 431.365 292.133 431.17 292.067C430.976 292 430.802 291.899 430.65 291.762C430.5 291.624 430.372 291.45 430.266 291.242C430.161 291.033 430.08 290.789 430.025 290.509C429.969 290.225 429.941 289.906 429.941 289.55V288.53C429.941 288.083 429.983 287.697 430.066 287.372C430.152 287.047 430.275 286.777 430.433 286.563C430.594 286.35 430.79 286.191 431.02 286.089C431.251 285.983 431.512 285.93 431.803 285.93C432.037 285.93 432.251 285.965 432.445 286.034C432.642 286.101 432.816 286.201 432.966 286.334C433.118 286.468 433.246 286.638 433.349 286.847C433.455 287.052 433.534 287.295 433.586 287.576C433.642 287.856 433.67 288.174 433.67 288.53ZM433.174 289.609V288.467C433.174 288.192 433.155 287.942 433.116 287.717C433.08 287.492 433.025 287.295 432.953 287.126C432.881 286.956 432.789 286.815 432.678 286.701C432.57 286.587 432.442 286.502 432.295 286.447C432.151 286.388 431.987 286.359 431.803 286.359C431.578 286.359 431.38 286.405 431.208 286.497C431.038 286.586 430.897 286.719 430.783 286.897C430.669 287.072 430.583 287.291 430.525 287.555C430.469 287.819 430.441 288.123 430.441 288.467V289.609C430.441 289.881 430.459 290.129 430.495 290.354C430.531 290.577 430.587 290.774 430.662 290.946C430.737 291.118 430.829 291.264 430.937 291.383C431.048 291.5 431.176 291.589 431.32 291.65C431.467 291.708 431.631 291.737 431.812 291.737C432.042 291.737 432.242 291.692 432.412 291.6C432.581 291.506 432.723 291.368 432.837 291.188C432.95 291.004 433.035 290.781 433.091 290.517C433.146 290.25 433.174 289.948 433.174 289.609Z" fill="#EDEDED"/>
<path d="M484.807 286.018V286.305L482.215 292.083H481.699L484.273 286.447H480.82V286.018H484.807ZM489.266 288.53V289.55C489.266 289.995 489.224 290.382 489.141 290.713C489.058 291.04 488.935 291.313 488.774 291.529C488.616 291.743 488.422 291.903 488.191 292.008C487.963 292.114 487.702 292.167 487.408 292.167C487.175 292.167 486.961 292.133 486.766 292.067C486.572 292 486.398 291.899 486.246 291.762C486.096 291.624 485.968 291.45 485.862 291.242C485.757 291.033 485.676 290.789 485.621 290.509C485.565 290.225 485.537 289.906 485.537 289.55V288.53C485.537 288.083 485.579 287.697 485.662 287.372C485.749 287.047 485.871 286.777 486.029 286.563C486.19 286.35 486.386 286.191 486.616 286.089C486.847 285.983 487.108 285.93 487.4 285.93C487.633 285.93 487.847 285.965 488.041 286.034C488.238 286.101 488.412 286.201 488.562 286.334C488.715 286.468 488.842 286.638 488.945 286.847C489.051 287.052 489.13 287.295 489.183 287.576C489.238 287.856 489.266 288.174 489.266 288.53ZM488.77 289.609V288.467C488.77 288.192 488.751 287.942 488.712 287.717C488.676 287.492 488.622 287.295 488.549 287.126C488.477 286.956 488.386 286.815 488.274 286.701C488.166 286.587 488.038 286.502 487.891 286.447C487.747 286.388 487.583 286.359 487.4 286.359C487.175 286.359 486.976 286.405 486.804 286.497C486.635 286.586 486.493 286.719 486.379 286.897C486.265 287.072 486.179 287.291 486.121 287.555C486.065 287.819 486.037 288.123 486.037 288.467V289.609C486.037 289.881 486.055 290.129 486.092 290.354C486.128 290.577 486.183 290.774 486.258 290.946C486.333 291.118 486.425 291.264 486.533 291.383C486.644 291.5 486.772 291.589 486.916 291.65C487.064 291.708 487.227 291.737 487.408 291.737C487.638 291.737 487.838 291.692 488.008 291.6C488.177 291.506 488.319 291.368 488.433 291.188C488.547 291.004 488.631 290.781 488.687 290.517C488.742 290.25 488.77 289.948 488.77 289.609Z" fill="#EDEDED"/>
<path d="M539.831 290.475C539.831 290.842 539.745 291.151 539.572 291.404C539.403 291.657 539.173 291.847 538.881 291.975C538.589 292.103 538.263 292.167 537.902 292.167C537.538 292.167 537.21 292.103 536.919 291.975C536.627 291.847 536.395 291.657 536.223 291.404C536.054 291.151 535.969 290.842 535.969 290.475C535.969 290.234 536.016 290.014 536.111 289.817C536.208 289.617 536.342 289.445 536.515 289.3C536.69 289.153 536.894 289.039 537.127 288.959C537.36 288.878 537.616 288.838 537.894 288.838C538.26 288.838 538.589 288.909 538.881 289.05C539.173 289.189 539.403 289.381 539.572 289.625C539.745 289.87 539.831 290.153 539.831 290.475ZM539.331 290.475C539.331 290.217 539.268 289.991 539.143 289.796C539.018 289.602 538.848 289.452 538.631 289.346C538.414 289.238 538.169 289.184 537.894 289.184C537.616 289.184 537.37 289.238 537.156 289.346C536.942 289.452 536.774 289.602 536.652 289.796C536.53 289.991 536.469 290.217 536.469 290.475C536.469 290.745 536.529 290.974 536.648 291.163C536.77 291.351 536.94 291.494 537.156 291.592C537.373 291.689 537.621 291.737 537.902 291.737C538.182 291.737 538.43 291.689 538.643 291.592C538.857 291.494 539.025 291.351 539.148 291.163C539.27 290.974 539.331 290.745 539.331 290.475ZM539.672 287.576C539.672 287.873 539.593 288.138 539.435 288.371C539.279 288.602 539.068 288.784 538.802 288.917C538.535 289.048 538.234 289.113 537.898 289.113C537.559 289.113 537.255 289.048 536.985 288.917C536.719 288.784 536.508 288.602 536.352 288.371C536.199 288.138 536.123 287.873 536.123 287.576C536.123 287.223 536.199 286.926 536.352 286.684C536.508 286.44 536.719 286.254 536.985 286.126C537.252 285.998 537.555 285.934 537.894 285.934C538.23 285.934 538.531 285.998 538.798 286.126C539.067 286.254 539.279 286.44 539.435 286.684C539.593 286.926 539.672 287.223 539.672 287.576ZM539.177 287.572C539.177 287.336 539.12 287.127 539.006 286.947C538.895 286.766 538.742 286.625 538.548 286.522C538.356 286.416 538.138 286.363 537.894 286.363C537.646 286.363 537.427 286.412 537.235 286.509C537.047 286.606 536.897 286.745 536.785 286.926C536.677 287.106 536.623 287.322 536.623 287.572C536.623 287.816 536.677 288.027 536.785 288.205C536.897 288.38 537.048 288.516 537.24 288.613C537.431 288.71 537.651 288.759 537.898 288.759C538.145 288.759 538.364 288.71 538.556 288.613C538.748 288.516 538.899 288.38 539.01 288.205C539.121 288.027 539.177 287.816 539.177 287.572ZM544.294 288.53V289.55C544.294 289.995 544.253 290.382 544.169 290.713C544.086 291.04 543.964 291.313 543.803 291.529C543.644 291.743 543.45 291.903 543.219 292.008C542.992 292.114 542.731 292.167 542.436 292.167C542.203 292.167 541.989 292.133 541.795 292.067C541.6 292 541.427 291.899 541.274 291.762C541.124 291.624 540.996 291.45 540.891 291.242C540.785 291.033 540.705 290.789 540.649 290.509C540.594 290.225 540.566 289.906 540.566 289.55V288.53C540.566 288.083 540.607 287.697 540.691 287.372C540.777 287.047 540.899 286.777 541.057 286.563C541.218 286.35 541.414 286.191 541.645 286.089C541.875 285.983 542.136 285.93 542.428 285.93C542.661 285.93 542.875 285.965 543.07 286.034C543.267 286.101 543.44 286.201 543.59 286.334C543.743 286.468 543.871 286.638 543.974 286.847C544.079 287.052 544.158 287.295 544.211 287.576C544.267 287.856 544.294 288.174 544.294 288.53ZM543.799 289.609V288.467C543.799 288.192 543.779 287.942 543.74 287.717C543.704 287.492 543.65 287.295 543.578 287.126C543.506 286.956 543.414 286.815 543.303 286.701C543.194 286.587 543.067 286.502 542.92 286.447C542.775 286.388 542.611 286.359 542.428 286.359C542.203 286.359 542.004 286.405 541.832 286.497C541.663 286.586 541.521 286.719 541.407 286.897C541.293 287.072 541.207 287.291 541.149 287.555C541.093 287.819 541.066 288.123 541.066 288.467V289.609C541.066 289.881 541.084 290.129 541.12 290.354C541.156 290.577 541.212 290.774 541.287 290.946C541.361 291.118 541.453 291.264 541.561 291.383C541.673 291.5 541.8 291.589 541.945 291.65C542.092 291.708 542.256 291.737 542.436 291.737C542.667 291.737 542.867 291.692 543.036 291.6C543.206 291.506 543.347 291.368 543.461 291.188C543.575 291.004 543.66 290.781 543.715 290.517C543.771 290.25 543.799 289.948 543.799 289.609Z" fill="#EDEDED"/>
<path d="M592.382 291.692H592.49C592.932 291.692 593.301 291.628 593.598 291.5C593.895 291.369 594.133 291.19 594.31 290.963C594.491 290.732 594.62 290.463 594.698 290.154C594.776 289.846 594.815 289.512 594.815 289.15V288.305C594.815 287.985 594.78 287.705 594.71 287.463C594.641 287.222 594.542 287.02 594.415 286.859C594.287 286.695 594.135 286.572 593.961 286.488C593.788 286.405 593.597 286.363 593.386 286.363C593.177 286.363 592.988 286.408 592.819 286.497C592.652 286.586 592.511 286.709 592.394 286.868C592.28 287.023 592.191 287.202 592.128 287.405C592.066 287.605 592.036 287.817 592.036 288.042C592.036 288.248 592.064 288.448 592.119 288.642C592.178 288.834 592.262 289.007 592.373 289.163C592.484 289.316 592.62 289.438 592.782 289.53C592.945 289.618 593.134 289.663 593.348 289.663C593.59 289.663 593.804 289.617 593.99 289.525C594.179 289.434 594.338 289.316 594.469 289.171C594.602 289.024 594.703 288.866 594.773 288.696C594.845 288.524 594.884 288.358 594.89 288.196L595.139 288.192C595.139 288.445 595.092 288.687 594.998 288.917C594.906 289.145 594.776 289.348 594.606 289.525C594.44 289.7 594.244 289.839 594.019 289.942C593.794 290.045 593.551 290.096 593.29 290.096C593.007 290.096 592.755 290.041 592.536 289.929C592.319 289.816 592.137 289.663 591.99 289.471C591.846 289.277 591.736 289.059 591.661 288.817C591.586 288.576 591.548 288.324 591.548 288.063C591.548 287.772 591.589 287.498 591.669 287.242C591.753 286.984 591.873 286.758 592.032 286.563C592.19 286.366 592.382 286.212 592.607 286.101C592.834 285.99 593.091 285.934 593.377 285.934C593.702 285.934 593.986 285.994 594.227 286.114C594.469 286.23 594.669 286.397 594.827 286.613C594.988 286.83 595.108 287.086 595.185 287.38C595.266 287.674 595.306 287.999 595.306 288.355V288.834C595.306 289.192 595.278 289.535 595.223 289.863C595.167 290.191 595.074 290.493 594.944 290.771C594.816 291.046 594.644 291.285 594.427 291.488C594.21 291.69 593.942 291.849 593.623 291.962C593.304 292.074 592.926 292.129 592.49 292.129H592.377L592.382 291.692ZM599.89 288.53V289.55C599.89 289.995 599.849 290.382 599.766 290.713C599.682 291.04 599.56 291.313 599.399 291.529C599.241 291.743 599.046 291.903 598.816 292.008C598.588 292.114 598.327 292.167 598.032 292.167C597.799 292.167 597.585 292.133 597.391 292.067C597.197 292 597.023 291.899 596.87 291.762C596.72 291.624 596.592 291.45 596.487 291.242C596.381 291.033 596.301 290.789 596.245 290.509C596.19 290.225 596.162 289.906 596.162 289.55V288.53C596.162 288.083 596.204 287.697 596.287 287.372C596.373 287.047 596.495 286.777 596.654 286.563C596.815 286.35 597.01 286.191 597.241 286.089C597.471 285.983 597.733 285.93 598.024 285.93C598.257 285.93 598.471 285.965 598.666 286.034C598.863 286.101 599.036 286.201 599.186 286.334C599.339 286.468 599.467 286.638 599.57 286.847C599.675 287.052 599.754 287.295 599.807 287.576C599.863 287.856 599.89 288.174 599.89 288.53ZM599.395 289.609V288.467C599.395 288.192 599.375 287.942 599.336 287.717C599.3 287.492 599.246 287.295 599.174 287.126C599.102 286.956 599.01 286.815 598.899 286.701C598.791 286.587 598.663 286.502 598.516 286.447C598.371 286.388 598.207 286.359 598.024 286.359C597.799 286.359 597.601 286.405 597.428 286.497C597.259 286.586 597.117 286.719 597.004 286.897C596.89 287.072 596.804 287.291 596.745 287.555C596.69 287.819 596.662 288.123 596.662 288.467V289.609C596.662 289.881 596.68 290.129 596.716 290.354C596.752 290.577 596.808 290.774 596.883 290.946C596.958 291.118 597.049 291.264 597.158 291.383C597.269 291.5 597.396 291.589 597.541 291.65C597.688 291.708 597.852 291.737 598.032 291.737C598.263 291.737 598.463 291.692 598.632 291.6C598.802 291.506 598.943 291.368 599.057 291.188C599.171 291.004 599.256 290.781 599.311 290.517C599.367 290.25 599.395 289.948 599.395 289.609Z" fill="#EDEDED"/>
<path d="M649.043 285.993V292.083H648.548V286.622L646.898 287.234V286.763L648.96 285.993H649.043ZM654.919 288.53V289.55C654.919 289.995 654.878 290.382 654.794 290.713C654.711 291.04 654.589 291.313 654.428 291.529C654.269 291.743 654.075 291.903 653.844 292.008C653.617 292.114 653.356 292.167 653.061 292.167C652.828 292.167 652.614 292.133 652.42 292.067C652.225 292 652.052 291.899 651.899 291.762C651.749 291.624 651.621 291.45 651.516 291.242C651.41 291.033 651.33 290.789 651.274 290.509C651.219 290.225 651.191 289.906 651.191 289.55V288.53C651.191 288.083 651.232 287.697 651.316 287.372C651.402 287.047 651.524 286.777 651.682 286.563C651.843 286.35 652.039 286.191 652.27 286.089C652.5 285.983 652.761 285.93 653.053 285.93C653.286 285.93 653.5 285.965 653.695 286.034C653.892 286.101 654.065 286.201 654.215 286.334C654.368 286.468 654.496 286.638 654.599 286.847C654.704 287.052 654.783 287.295 654.836 287.576C654.892 287.856 654.919 288.174 654.919 288.53ZM654.424 289.609V288.467C654.424 288.192 654.404 287.942 654.365 287.717C654.329 287.492 654.275 287.295 654.203 287.126C654.131 286.956 654.039 286.815 653.928 286.701C653.819 286.587 653.692 286.502 653.545 286.447C653.4 286.388 653.236 286.359 653.053 286.359C652.828 286.359 652.629 286.405 652.457 286.497C652.288 286.586 652.146 286.719 652.032 286.897C651.918 287.072 651.832 287.291 651.774 287.555C651.718 287.819 651.691 288.123 651.691 288.467V289.609C651.691 289.881 651.709 290.129 651.745 290.354C651.781 290.577 651.837 290.774 651.912 290.946C651.986 291.118 652.078 291.264 652.186 291.383C652.298 291.5 652.425 291.589 652.57 291.65C652.717 291.708 652.881 291.737 653.061 291.737C653.292 291.737 653.492 291.692 653.661 291.6C653.831 291.506 653.972 291.368 654.086 291.188C654.2 291.004 654.285 290.781 654.34 290.517C654.396 290.25 654.424 289.948 654.424 289.609ZM659.458 288.53V289.55C659.458 289.995 659.416 290.382 659.333 290.713C659.25 291.04 659.127 291.313 658.966 291.529C658.808 291.743 658.614 291.903 658.383 292.008C658.155 292.114 657.894 292.167 657.6 292.167C657.367 292.167 657.153 292.133 656.958 292.067C656.764 292 656.59 291.899 656.438 291.762C656.288 291.624 656.16 291.45 656.054 291.242C655.949 291.033 655.868 290.789 655.813 290.509C655.757 290.225 655.729 289.906 655.729 289.55V288.53C655.729 288.083 655.771 287.697 655.854 287.372C655.94 287.047 656.063 286.777 656.221 286.563C656.382 286.35 656.578 286.191 656.808 286.089C657.039 285.983 657.3 285.93 657.592 285.93C657.825 285.93 658.039 285.965 658.233 286.034C658.43 286.101 658.604 286.201 658.754 286.334C658.907 286.468 659.034 286.638 659.137 286.847C659.243 287.052 659.322 287.295 659.375 287.576C659.43 287.856 659.458 288.174 659.458 288.53ZM658.962 289.609V288.467C658.962 288.192 658.943 287.942 658.904 287.717C658.868 287.492 658.814 287.295 658.741 287.126C658.669 286.956 658.577 286.815 658.466 286.701C658.358 286.587 658.23 286.502 658.083 286.447C657.939 286.388 657.775 286.359 657.592 286.359C657.367 286.359 657.168 286.405 656.996 286.497C656.826 286.586 656.685 286.719 656.571 286.897C656.457 287.072 656.371 287.291 656.313 287.555C656.257 287.819 656.229 288.123 656.229 288.467V289.609C656.229 289.881 656.247 290.129 656.283 290.354C656.32 290.577 656.375 290.774 656.45 290.946C656.525 291.118 656.617 291.264 656.725 291.383C656.836 291.5 656.964 291.589 657.108 291.65C657.255 291.708 657.419 291.737 657.6 291.737C657.83 291.737 658.03 291.692 658.2 291.6C658.369 291.506 658.511 291.368 658.625 291.188C658.739 291.004 658.823 290.781 658.879 290.517C658.934 290.25 658.962 289.948 658.962 289.609Z" fill="#EDEDED"/>
<path d="M38.6457 245.463H39.1456V250.987L39.1123 251.862H38.6457V245.463ZM42.2825 249.567V249.654C42.2825 249.99 42.2437 250.298 42.1659 250.579C42.0881 250.859 41.9757 251.102 41.8285 251.308C41.6813 251.511 41.5007 251.668 41.2869 251.779C41.0758 251.89 40.8328 251.945 40.5579 251.945C40.2885 251.945 40.0496 251.904 39.8413 251.82C39.633 251.734 39.4553 251.613 39.3081 251.458C39.1609 251.3 39.0429 251.115 38.954 250.904C38.8651 250.69 38.8026 250.455 38.7665 250.2V249.088C38.8082 248.815 38.8748 248.568 38.9665 248.346C39.0581 248.124 39.1762 247.932 39.3206 247.771C39.4678 247.61 39.6428 247.486 39.8455 247.4C40.051 247.314 40.2857 247.271 40.5495 247.271C40.8245 247.271 41.0689 247.325 41.2827 247.434C41.4994 247.539 41.6813 247.693 41.8285 247.896C41.9757 248.096 42.0881 248.338 42.1659 248.621C42.2437 248.901 42.2825 249.217 42.2825 249.567ZM41.7785 249.654V249.567C41.7785 249.303 41.7535 249.058 41.7035 248.833C41.6535 248.608 41.5743 248.413 41.466 248.246C41.3605 248.077 41.2244 247.945 41.0578 247.85C40.8911 247.756 40.6912 247.709 40.4579 247.709C40.219 247.709 40.0149 247.749 39.8455 247.829C39.6789 247.907 39.54 248.011 39.4289 248.142C39.3206 248.27 39.2345 248.41 39.1706 248.563C39.1067 248.715 39.0595 248.865 39.029 249.013V250.308C39.0762 250.516 39.1581 250.712 39.2748 250.896C39.3914 251.079 39.5483 251.227 39.7455 251.341C39.9427 251.452 40.1829 251.508 40.4662 251.508C40.6939 251.508 40.8897 251.461 41.0536 251.366C41.2202 251.272 41.3563 251.141 41.4619 250.975C41.5702 250.808 41.6493 250.612 41.6993 250.387C41.7521 250.162 41.7785 249.918 41.7785 249.654ZM43.6842 248.221V253.595H43.1843V247.355H43.6509L43.6842 248.221ZM46.8169 249.567V249.654C46.8169 249.99 46.7781 250.298 46.7003 250.579C46.6225 250.859 46.5101 251.102 46.3629 251.308C46.2184 251.511 46.0393 251.668 45.8255 251.779C45.6116 251.89 45.3686 251.945 45.0964 251.945C44.827 251.945 44.5868 251.904 44.3757 251.82C44.1646 251.737 43.9827 251.619 43.83 251.466C43.68 251.311 43.5592 251.13 43.4676 250.925C43.3787 250.716 43.3162 250.489 43.2801 250.242V249.088C43.3217 248.815 43.3898 248.568 43.4842 248.346C43.5786 248.124 43.6995 247.932 43.8467 247.771C43.9966 247.61 44.1744 247.486 44.3799 247.4C44.5854 247.314 44.8201 247.271 45.0839 247.271C45.3589 247.271 45.6033 247.325 45.8171 247.434C46.0338 247.539 46.2157 247.693 46.3629 247.896C46.5128 248.096 46.6253 248.338 46.7003 248.621C46.7781 248.901 46.8169 249.217 46.8169 249.567ZM46.317 249.654V249.567C46.317 249.303 46.2893 249.058 46.2337 248.833C46.1809 248.608 46.099 248.413 45.9879 248.246C45.8796 248.077 45.7407 247.945 45.5713 247.85C45.4047 247.756 45.2061 247.709 44.9756 247.709C44.7368 247.709 44.5326 247.749 44.3632 247.829C44.1966 247.907 44.0577 248.011 43.9466 248.142C43.8355 248.27 43.7481 248.41 43.6842 248.563C43.6203 248.715 43.5731 248.865 43.5425 249.013V250.342C43.5953 250.553 43.68 250.748 43.7967 250.929C43.9133 251.107 44.0688 251.25 44.2632 251.358C44.4604 251.464 44.7007 251.516 44.9839 251.516C45.2117 251.516 45.4089 251.469 45.5755 251.375C45.7421 251.28 45.8796 251.148 45.9879 250.979C46.099 250.809 46.1809 250.612 46.2337 250.387C46.2893 250.162 46.317 249.918 46.317 249.654ZM48.2019 248.288V251.862H47.702V247.355H48.1811L48.2019 248.288ZM48.1103 249.329L47.8686 249.204C47.8853 248.938 47.9353 248.688 48.0186 248.454C48.1047 248.221 48.2241 248.016 48.3769 247.838C48.5296 247.66 48.7129 247.521 48.9268 247.421C49.1406 247.321 49.3836 247.271 49.6558 247.271C49.8752 247.271 50.0738 247.302 50.2515 247.363C50.4321 247.421 50.5848 247.514 50.7098 247.642C50.8375 247.767 50.9361 247.931 51.0056 248.134C51.075 248.336 51.1097 248.579 51.1097 248.863V251.862H50.614V248.879C50.614 248.579 50.5668 248.345 50.4723 248.175C50.3807 248.006 50.2515 247.885 50.0849 247.813C49.921 247.741 49.7308 247.704 49.5142 247.704C49.2587 247.704 49.042 247.757 48.8643 247.863C48.6893 247.966 48.5463 248.1 48.4352 248.267C48.3269 248.431 48.2463 248.607 48.1936 248.796C48.1408 248.982 48.113 249.16 48.1103 249.329ZM51.1055 248.938L50.7723 248.946C50.7862 248.727 50.8362 248.517 50.9222 248.317C51.0111 248.117 51.1319 247.939 51.2847 247.784C51.4374 247.625 51.6193 247.5 51.8304 247.409C52.0443 247.317 52.2845 247.271 52.5511 247.271C52.7844 247.271 52.9927 247.303 53.176 247.367C53.3593 247.428 53.5134 247.527 53.6384 247.663C53.7662 247.796 53.8634 247.967 53.93 248.175C53.9967 248.384 54.03 248.633 54.03 248.925V251.862H53.5301V248.921C53.5301 248.602 53.4829 248.354 53.3885 248.179C53.2968 248.002 53.1691 247.878 53.0052 247.809C52.8413 247.739 52.6497 247.704 52.4303 247.704C52.2137 247.707 52.0234 247.748 51.8596 247.825C51.6957 247.9 51.5582 248 51.4471 248.125C51.3388 248.247 51.2555 248.379 51.1972 248.521C51.1416 248.663 51.1111 248.802 51.1055 248.938Z" fill="#EDEDED"/>
<path d="M38.6457 205.242H39.1456V210.766L39.1123 211.641H38.6457V205.242ZM42.2825 209.345V209.433C42.2825 209.769 42.2437 210.077 42.1659 210.358C42.0881 210.638 41.9757 210.881 41.8285 211.087C41.6813 211.29 41.5007 211.446 41.2869 211.558C41.0758 211.669 40.8328 211.724 40.5579 211.724C40.2885 211.724 40.0496 211.683 39.8413 211.599C39.633 211.513 39.4553 211.392 39.3081 211.237C39.1609 211.078 39.0429 210.894 38.954 210.683C38.8651 210.469 38.8026 210.234 38.7665 209.979V208.866C38.8082 208.594 38.8748 208.347 38.9665 208.125C39.0581 207.903 39.1762 207.711 39.3206 207.55C39.4678 207.389 39.6428 207.265 39.8455 207.179C40.051 207.093 40.2857 207.05 40.5495 207.05C40.8245 207.05 41.0689 207.104 41.2827 207.213C41.4994 207.318 41.6813 207.472 41.8285 207.675C41.9757 207.875 42.0881 208.117 42.1659 208.4C42.2437 208.68 42.2825 208.996 42.2825 209.345ZM41.7785 209.433V209.345C41.7785 209.082 41.7535 208.837 41.7035 208.612C41.6535 208.387 41.5743 208.192 41.466 208.025C41.3605 207.855 41.2244 207.724 41.0578 207.629C40.8911 207.535 40.6912 207.487 40.4579 207.487C40.219 207.487 40.0149 207.528 39.8455 207.608C39.6789 207.686 39.54 207.79 39.4289 207.921C39.3206 208.048 39.2345 208.189 39.1706 208.341C39.1067 208.494 39.0595 208.644 39.029 208.791V210.087C39.0762 210.295 39.1581 210.491 39.2748 210.674C39.3914 210.858 39.5483 211.006 39.7455 211.12C39.9427 211.231 40.1829 211.287 40.4662 211.287C40.6939 211.287 40.8897 211.24 41.0536 211.145C41.2202 211.051 41.3563 210.92 41.4619 210.754C41.5702 210.587 41.6493 210.391 41.6993 210.166C41.7521 209.941 41.7785 209.697 41.7785 209.433ZM43.6842 208V213.374H43.1843V207.133H43.6509L43.6842 208ZM46.8169 209.345V209.433C46.8169 209.769 46.7781 210.077 46.7003 210.358C46.6225 210.638 46.5101 210.881 46.3629 211.087C46.2184 211.29 46.0393 211.446 45.8255 211.558C45.6116 211.669 45.3686 211.724 45.0964 211.724C44.827 211.724 44.5868 211.683 44.3757 211.599C44.1646 211.516 43.9827 211.398 43.83 211.245C43.68 211.09 43.5592 210.909 43.4676 210.704C43.3787 210.495 43.3162 210.268 43.2801 210.02V208.866C43.3217 208.594 43.3898 208.347 43.4842 208.125C43.5786 207.903 43.6995 207.711 43.8467 207.55C43.9966 207.389 44.1744 207.265 44.3799 207.179C44.5854 207.093 44.8201 207.05 45.0839 207.05C45.3589 207.05 45.6033 207.104 45.8171 207.213C46.0338 207.318 46.2157 207.472 46.3629 207.675C46.5128 207.875 46.6253 208.117 46.7003 208.4C46.7781 208.68 46.8169 208.996 46.8169 209.345ZM46.317 209.433V209.345C46.317 209.082 46.2893 208.837 46.2337 208.612C46.1809 208.387 46.099 208.192 45.9879 208.025C45.8796 207.855 45.7407 207.724 45.5713 207.629C45.4047 207.535 45.2061 207.487 44.9756 207.487C44.7368 207.487 44.5326 207.528 44.3632 207.608C44.1966 207.686 44.0577 207.79 43.9466 207.921C43.8355 208.048 43.7481 208.189 43.6842 208.341C43.6203 208.494 43.5731 208.644 43.5425 208.791V210.12C43.5953 210.331 43.68 210.527 43.7967 210.708C43.9133 210.885 44.0688 211.028 44.2632 211.137C44.4604 211.242 44.7007 211.295 44.9839 211.295C45.2117 211.295 45.4089 211.248 45.5755 211.153C45.7421 211.059 45.8796 210.927 45.9879 210.758C46.099 210.588 46.1809 210.391 46.2337 210.166C46.2893 209.941 46.317 209.697 46.317 209.433ZM48.2019 208.067V211.641H47.702V207.133H48.1811L48.2019 208.067ZM48.1103 209.108L47.8686 208.983C47.8853 208.716 47.9353 208.466 48.0186 208.233C48.1047 208 48.2241 207.794 48.3769 207.617C48.5296 207.439 48.7129 207.3 48.9268 207.2C49.1406 207.1 49.3836 207.05 49.6558 207.05C49.8752 207.05 50.0738 207.081 50.2515 207.142C50.4321 207.2 50.5848 207.293 50.7098 207.421C50.8375 207.546 50.9361 207.71 51.0056 207.912C51.075 208.115 51.1097 208.358 51.1097 208.641V211.641H50.614V208.658C50.614 208.358 50.5668 208.123 50.4723 207.954C50.3807 207.785 50.2515 207.664 50.0849 207.592C49.921 207.519 49.7308 207.483 49.5142 207.483C49.2587 207.483 49.042 207.536 48.8643 207.642C48.6893 207.744 48.5463 207.879 48.4352 208.046C48.3269 208.21 48.2463 208.386 48.1936 208.575C48.1408 208.761 48.113 208.939 48.1103 209.108ZM51.1055 208.716L50.7723 208.725C50.7862 208.505 50.8362 208.296 50.9222 208.096C51.0111 207.896 51.1319 207.718 51.2847 207.562C51.4374 207.404 51.6193 207.279 51.8304 207.188C52.0443 207.096 52.2845 207.05 52.5511 207.05C52.7844 207.05 52.9927 207.082 53.176 207.146C53.3593 207.207 53.5134 207.306 53.6384 207.442C53.7662 207.575 53.8634 207.746 53.93 207.954C53.9967 208.162 54.03 208.412 54.03 208.704V211.641H53.5301V208.7C53.5301 208.38 53.4829 208.133 53.3885 207.958C53.2968 207.78 53.1691 207.657 53.0052 207.587C52.8413 207.518 52.6497 207.483 52.4303 207.483C52.2137 207.486 52.0234 207.526 51.8596 207.604C51.6957 207.679 51.5582 207.779 51.4471 207.904C51.3388 208.026 51.2555 208.158 51.1972 208.3C51.1416 208.441 51.1111 208.58 51.1055 208.716Z" fill="#EDEDED"/>
<path d="M38.6457 165.021H39.1456V170.545L39.1123 171.42H38.6457V165.021ZM42.2825 169.124V169.212C42.2825 169.548 42.2437 169.856 42.1659 170.137C42.0881 170.417 41.9757 170.66 41.8285 170.866C41.6813 171.068 41.5007 171.225 41.2869 171.336C41.0758 171.447 40.8328 171.503 40.5579 171.503C40.2885 171.503 40.0496 171.461 39.8413 171.378C39.633 171.292 39.4553 171.171 39.3081 171.016C39.1609 170.857 39.0429 170.673 38.954 170.462C38.8651 170.248 38.8026 170.013 38.7665 169.757V168.645C38.8082 168.373 38.8748 168.126 38.9665 167.904C39.0581 167.681 39.1762 167.49 39.3206 167.329C39.4678 167.168 39.6428 167.044 39.8455 166.958C40.051 166.872 40.2857 166.829 40.5495 166.829C40.8245 166.829 41.0689 166.883 41.2827 166.991C41.4994 167.097 41.6813 167.251 41.8285 167.454C41.9757 167.654 42.0881 167.895 42.1659 168.179C42.2437 168.459 42.2825 168.774 42.2825 169.124ZM41.7785 169.212V169.124C41.7785 168.86 41.7535 168.616 41.7035 168.391C41.6535 168.166 41.5743 167.97 41.466 167.804C41.3605 167.634 41.2244 167.502 41.0578 167.408C40.8911 167.313 40.6912 167.266 40.4579 167.266C40.219 167.266 40.0149 167.307 39.8455 167.387C39.6789 167.465 39.54 167.569 39.4289 167.7C39.3206 167.827 39.2345 167.968 39.1706 168.12C39.1067 168.273 39.0595 168.423 39.029 168.57V169.866C39.0762 170.074 39.1581 170.27 39.2748 170.453C39.3914 170.636 39.5483 170.785 39.7455 170.899C39.9427 171.01 40.1829 171.066 40.4662 171.066C40.6939 171.066 40.8897 171.018 41.0536 170.924C41.2202 170.83 41.3563 170.699 41.4619 170.532C41.5702 170.366 41.6493 170.17 41.6993 169.945C41.7521 169.72 41.7785 169.476 41.7785 169.212ZM43.6842 167.779V173.153H43.1843V166.912H43.6509L43.6842 167.779ZM46.8169 169.124V169.212C46.8169 169.548 46.7781 169.856 46.7003 170.137C46.6225 170.417 46.5101 170.66 46.3629 170.866C46.2184 171.068 46.0393 171.225 45.8255 171.336C45.6116 171.447 45.3686 171.503 45.0964 171.503C44.827 171.503 44.5868 171.461 44.3757 171.378C44.1646 171.295 43.9827 171.177 43.83 171.024C43.68 170.868 43.5592 170.688 43.4676 170.482C43.3787 170.274 43.3162 170.046 43.2801 169.799V168.645C43.3217 168.373 43.3898 168.126 43.4842 167.904C43.5786 167.681 43.6995 167.49 43.8467 167.329C43.9966 167.168 44.1744 167.044 44.3799 166.958C44.5854 166.872 44.8201 166.829 45.0839 166.829C45.3589 166.829 45.6033 166.883 45.8171 166.991C46.0338 167.097 46.2157 167.251 46.3629 167.454C46.5128 167.654 46.6253 167.895 46.7003 168.179C46.7781 168.459 46.8169 168.774 46.8169 169.124ZM46.317 169.212V169.124C46.317 168.86 46.2893 168.616 46.2337 168.391C46.1809 168.166 46.099 167.97 45.9879 167.804C45.8796 167.634 45.7407 167.502 45.5713 167.408C45.4047 167.313 45.2061 167.266 44.9756 167.266C44.7368 167.266 44.5326 167.307 44.3632 167.387C44.1966 167.465 44.0577 167.569 43.9466 167.7C43.8355 167.827 43.7481 167.968 43.6842 168.12C43.6203 168.273 43.5731 168.423 43.5425 168.57V169.899C43.5953 170.11 43.68 170.306 43.7967 170.487C43.9133 170.664 44.0688 170.807 44.2632 170.916C44.4604 171.021 44.7007 171.074 44.9839 171.074C45.2117 171.074 45.4089 171.027 45.5755 170.932C45.7421 170.838 45.8796 170.706 45.9879 170.537C46.099 170.367 46.1809 170.17 46.2337 169.945C46.2893 169.72 46.317 169.476 46.317 169.212ZM48.2019 167.845V171.42H47.702V166.912H48.1811L48.2019 167.845ZM48.1103 168.887L47.8686 168.762C47.8853 168.495 47.9353 168.245 48.0186 168.012C48.1047 167.779 48.2241 167.573 48.3769 167.395C48.5296 167.218 48.7129 167.079 48.9268 166.979C49.1406 166.879 49.3836 166.829 49.6558 166.829C49.8752 166.829 50.0738 166.859 50.2515 166.921C50.4321 166.979 50.5848 167.072 50.7098 167.2C50.8375 167.325 50.9361 167.488 51.0056 167.691C51.075 167.894 51.1097 168.137 51.1097 168.42V171.42H50.614V168.437C50.614 168.137 50.5668 167.902 50.4723 167.733C50.3807 167.563 50.2515 167.443 50.0849 167.37C49.921 167.298 49.7308 167.262 49.5142 167.262C49.2587 167.262 49.042 167.315 48.8643 167.42C48.6893 167.523 48.5463 167.658 48.4352 167.825C48.3269 167.988 48.2463 168.165 48.1936 168.354C48.1408 168.54 48.113 168.717 48.1103 168.887ZM51.1055 168.495L50.7723 168.504C50.7862 168.284 50.8362 168.074 50.9222 167.874C51.0111 167.675 51.1319 167.497 51.2847 167.341C51.4374 167.183 51.6193 167.058 51.8304 166.966C52.0443 166.875 52.2845 166.829 52.5511 166.829C52.7844 166.829 52.9927 166.861 53.176 166.925C53.3593 166.986 53.5134 167.084 53.6384 167.22C53.7662 167.354 53.8634 167.525 53.93 167.733C53.9967 167.941 54.03 168.191 54.03 168.483V171.42H53.5301V168.479C53.5301 168.159 53.4829 167.912 53.3885 167.737C53.2968 167.559 53.1691 167.436 53.0052 167.366C52.8413 167.297 52.6497 167.262 52.4303 167.262C52.2137 167.265 52.0234 167.305 51.8596 167.383C51.6957 167.458 51.5582 167.558 51.4471 167.683C51.3388 167.805 51.2555 167.937 51.1972 168.079C51.1416 168.22 51.1111 168.359 51.1055 168.495Z" fill="#EDEDED"/>
<path d="M38.6457 124.8H39.1456V130.324L39.1123 131.198H38.6457V124.8ZM42.2825 128.903V128.991C42.2825 129.327 42.2437 129.635 42.1659 129.915C42.0881 130.196 41.9757 130.439 41.8285 130.644C41.6813 130.847 41.5007 131.004 41.2869 131.115C41.0758 131.226 40.8328 131.282 40.5579 131.282C40.2885 131.282 40.0496 131.24 39.8413 131.157C39.633 131.071 39.4553 130.95 39.3081 130.794C39.1609 130.636 39.0429 130.451 38.954 130.24C38.8651 130.026 38.8026 129.792 38.7665 129.536V128.424C38.8082 128.152 38.8748 127.905 38.9665 127.682C39.0581 127.46 39.1762 127.269 39.3206 127.108C39.4678 126.946 39.6428 126.823 39.8455 126.737C40.051 126.651 40.2857 126.608 40.5495 126.608C40.8245 126.608 41.0689 126.662 41.2827 126.77C41.4994 126.876 41.6813 127.03 41.8285 127.233C41.9757 127.433 42.0881 127.674 42.1659 127.957C42.2437 128.238 42.2825 128.553 42.2825 128.903ZM41.7785 128.991V128.903C41.7785 128.639 41.7535 128.395 41.7035 128.17C41.6535 127.945 41.5743 127.749 41.466 127.582C41.3605 127.413 41.2244 127.281 41.0578 127.187C40.8911 127.092 40.6912 127.045 40.4579 127.045C40.219 127.045 40.0149 127.085 39.8455 127.166C39.6789 127.244 39.54 127.348 39.4289 127.478C39.3206 127.606 39.2345 127.746 39.1706 127.899C39.1067 128.052 39.0595 128.202 39.029 128.349V129.645C39.0762 129.853 39.1581 130.049 39.2748 130.232C39.3914 130.415 39.5483 130.564 39.7455 130.678C39.9427 130.789 40.1829 130.844 40.4662 130.844C40.6939 130.844 40.8897 130.797 41.0536 130.703C41.2202 130.608 41.3563 130.478 41.4619 130.311C41.5702 130.145 41.6493 129.949 41.6993 129.724C41.7521 129.499 41.7785 129.254 41.7785 128.991ZM43.6842 127.557V132.932H43.1843V126.691H43.6509L43.6842 127.557ZM46.8169 128.903V128.991C46.8169 129.327 46.7781 129.635 46.7003 129.915C46.6225 130.196 46.5101 130.439 46.3629 130.644C46.2184 130.847 46.0393 131.004 45.8255 131.115C45.6116 131.226 45.3686 131.282 45.0964 131.282C44.827 131.282 44.5868 131.24 44.3757 131.157C44.1646 131.074 43.9827 130.955 43.83 130.803C43.68 130.647 43.5592 130.467 43.4676 130.261C43.3787 130.053 43.3162 129.825 43.2801 129.578V128.424C43.3217 128.152 43.3898 127.905 43.4842 127.682C43.5786 127.46 43.6995 127.269 43.8467 127.108C43.9966 126.946 44.1744 126.823 44.3799 126.737C44.5854 126.651 44.8201 126.608 45.0839 126.608C45.3589 126.608 45.6033 126.662 45.8171 126.77C46.0338 126.876 46.2157 127.03 46.3629 127.233C46.5128 127.433 46.6253 127.674 46.7003 127.957C46.7781 128.238 46.8169 128.553 46.8169 128.903ZM46.317 128.991V128.903C46.317 128.639 46.2893 128.395 46.2337 128.17C46.1809 127.945 46.099 127.749 45.9879 127.582C45.8796 127.413 45.7407 127.281 45.5713 127.187C45.4047 127.092 45.2061 127.045 44.9756 127.045C44.7368 127.045 44.5326 127.085 44.3632 127.166C44.1966 127.244 44.0577 127.348 43.9466 127.478C43.8355 127.606 43.7481 127.746 43.6842 127.899C43.6203 128.052 43.5731 128.202 43.5425 128.349V129.678C43.5953 129.889 43.68 130.085 43.7967 130.265C43.9133 130.443 44.0688 130.586 44.2632 130.694C44.4604 130.8 44.7007 130.853 44.9839 130.853C45.2117 130.853 45.4089 130.806 45.5755 130.711C45.7421 130.617 45.8796 130.485 45.9879 130.315C46.099 130.146 46.1809 129.949 46.2337 129.724C46.2893 129.499 46.317 129.254 46.317 128.991ZM48.2019 127.624V131.198H47.702V126.691H48.1811L48.2019 127.624ZM48.1103 128.666L47.8686 128.541C47.8853 128.274 47.9353 128.024 48.0186 127.791C48.1047 127.557 48.2241 127.352 48.3769 127.174C48.5296 126.996 48.7129 126.858 48.9268 126.758C49.1406 126.658 49.3836 126.608 49.6558 126.608C49.8752 126.608 50.0738 126.638 50.2515 126.699C50.4321 126.758 50.5848 126.851 50.7098 126.978C50.8375 127.103 50.9361 127.267 51.0056 127.47C51.075 127.673 51.1097 127.916 51.1097 128.199V131.198H50.614V128.216C50.614 127.916 50.5668 127.681 50.4723 127.512C50.3807 127.342 50.2515 127.221 50.0849 127.149C49.921 127.077 49.7308 127.041 49.5142 127.041C49.2587 127.041 49.042 127.094 48.8643 127.199C48.6893 127.302 48.5463 127.437 48.4352 127.603C48.3269 127.767 48.2463 127.944 48.1936 128.132C48.1408 128.318 48.113 128.496 48.1103 128.666ZM51.1055 128.274L50.7723 128.282C50.7862 128.063 50.8362 127.853 50.9222 127.653C51.0111 127.453 51.1319 127.276 51.2847 127.12C51.4374 126.962 51.6193 126.837 51.8304 126.745C52.0443 126.653 52.2845 126.608 52.5511 126.608C52.7844 126.608 52.9927 126.64 53.176 126.703C53.3593 126.765 53.5134 126.863 53.6384 126.999C53.7662 127.133 53.8634 127.303 53.93 127.512C53.9967 127.72 54.03 127.97 54.03 128.262V131.198H53.5301V128.257C53.5301 127.938 53.4829 127.691 53.3885 127.516C53.2968 127.338 53.1691 127.214 53.0052 127.145C52.8413 127.076 52.6497 127.041 52.4303 127.041C52.2137 127.044 52.0234 127.084 51.8596 127.162C51.6957 127.237 51.5582 127.337 51.4471 127.462C51.3388 127.584 51.2555 127.716 51.1972 127.857C51.1416 127.999 51.1111 128.138 51.1055 128.274Z" fill="#EDEDED"/>
<path d="M38.6457 84.5785H39.1456V90.1025L39.1123 90.9773H38.6457V84.5785ZM42.2825 88.6819V88.7694C42.2825 89.1054 42.2437 89.4137 42.1659 89.6942C42.0881 89.9747 41.9757 90.2177 41.8285 90.4232C41.6813 90.626 41.5007 90.7829 41.2869 90.894C41.0758 91.0051 40.8328 91.0606 40.5579 91.0606C40.2885 91.0606 40.0496 91.019 39.8413 90.9356C39.633 90.8495 39.4553 90.7287 39.3081 90.5732C39.1609 90.4149 39.0429 90.2302 38.954 90.0191C38.8651 89.8053 38.8026 89.5706 38.7665 89.3151V88.2028C38.8082 87.9306 38.8748 87.6835 38.9665 87.4613C39.0581 87.2391 39.1762 87.0475 39.3206 86.8864C39.4678 86.7253 39.6428 86.6017 39.8455 86.5156C40.051 86.4295 40.2857 86.3865 40.5495 86.3865C40.8245 86.3865 41.0689 86.4406 41.2827 86.5489C41.4994 86.6545 41.6813 86.8086 41.8285 87.0114C41.9757 87.2113 42.0881 87.4529 42.1659 87.7362C42.2437 88.0167 42.2825 88.3319 42.2825 88.6819ZM41.7785 88.7694V88.6819C41.7785 88.418 41.7535 88.1736 41.7035 87.9487C41.6535 87.7237 41.5743 87.5279 41.466 87.3613C41.3605 87.1919 41.2244 87.06 41.0578 86.9655C40.8911 86.8711 40.6912 86.8239 40.4579 86.8239C40.219 86.8239 40.0149 86.8642 39.8455 86.9447C39.6789 87.0225 39.54 87.1266 39.4289 87.2571C39.3206 87.3849 39.2345 87.5252 39.1706 87.6779C39.1067 87.8307 39.0595 87.9806 39.029 88.1278V89.4234C39.0762 89.6317 39.1581 89.8275 39.2748 90.0108C39.3914 90.1941 39.5483 90.3427 39.7455 90.4566C39.9427 90.5676 40.1829 90.6232 40.4662 90.6232C40.6939 90.6232 40.8897 90.576 41.0536 90.4816C41.2202 90.3871 41.3563 90.2566 41.4619 90.09C41.5702 89.9233 41.6493 89.7275 41.6993 89.5026C41.7521 89.2776 41.7785 89.0332 41.7785 88.7694ZM43.6842 87.3363V92.7103H43.1843V86.4698H43.6509L43.6842 87.3363ZM46.8169 88.6819V88.7694C46.8169 89.1054 46.7781 89.4137 46.7003 89.6942C46.6225 89.9747 46.5101 90.2177 46.3629 90.4232C46.2184 90.626 46.0393 90.7829 45.8255 90.894C45.6116 91.0051 45.3686 91.0606 45.0964 91.0606C44.827 91.0606 44.5868 91.019 44.3757 90.9356C44.1646 90.8523 43.9827 90.7343 43.83 90.5815C43.68 90.426 43.5592 90.2455 43.4676 90.04C43.3787 89.8317 43.3162 89.6039 43.2801 89.3568V88.2028C43.3217 87.9306 43.3898 87.6835 43.4842 87.4613C43.5786 87.2391 43.6995 87.0475 43.8467 86.8864C43.9966 86.7253 44.1744 86.6017 44.3799 86.5156C44.5854 86.4295 44.8201 86.3865 45.0839 86.3865C45.3589 86.3865 45.6033 86.4406 45.8171 86.5489C46.0338 86.6545 46.2157 86.8086 46.3629 87.0114C46.5128 87.2113 46.6253 87.4529 46.7003 87.7362C46.7781 88.0167 46.8169 88.3319 46.8169 88.6819ZM46.317 88.7694V88.6819C46.317 88.418 46.2893 88.1736 46.2337 87.9487C46.1809 87.7237 46.099 87.5279 45.9879 87.3613C45.8796 87.1919 45.7407 87.06 45.5713 86.9655C45.4047 86.8711 45.2061 86.8239 44.9756 86.8239C44.7368 86.8239 44.5326 86.8642 44.3632 86.9447C44.1966 87.0225 44.0577 87.1266 43.9466 87.2571C43.8355 87.3849 43.7481 87.5252 43.6842 87.6779C43.6203 87.8307 43.5731 87.9806 43.5425 88.1278V89.4567C43.5953 89.6678 43.68 89.8636 43.7967 90.0441C43.9133 90.2219 44.0688 90.3649 44.2632 90.4732C44.4604 90.5788 44.7007 90.6315 44.9839 90.6315C45.2117 90.6315 45.4089 90.5843 45.5755 90.4899C45.7421 90.3955 45.8796 90.2635 45.9879 90.0941C46.099 89.9247 46.1809 89.7275 46.2337 89.5026C46.2893 89.2776 46.317 89.0332 46.317 88.7694ZM48.2019 87.403V90.9773H47.702V86.4698H48.1811L48.2019 87.403ZM48.1103 88.4444L47.8686 88.3195C47.8853 88.0528 47.9353 87.8029 48.0186 87.5696C48.1047 87.3363 48.2241 87.1308 48.3769 86.953C48.5296 86.7753 48.7129 86.6364 48.9268 86.5364C49.1406 86.4365 49.3836 86.3865 49.6558 86.3865C49.8752 86.3865 50.0738 86.417 50.2515 86.4781C50.4321 86.5364 50.5848 86.6295 50.7098 86.7572C50.8375 86.8822 50.9361 87.0461 51.0056 87.2488C51.075 87.4516 51.1097 87.6946 51.1097 87.9778V90.9773H50.614V87.9945C50.614 87.6946 50.5668 87.4599 50.4723 87.2905C50.3807 87.1211 50.2515 87.0002 50.0849 86.928C49.921 86.8558 49.7308 86.8197 49.5142 86.8197C49.2587 86.8197 49.042 86.8725 48.8643 86.978C48.6893 87.0808 48.5463 87.2155 48.4352 87.3821C48.3269 87.546 48.2463 87.7223 48.1936 87.9112C48.1408 88.0973 48.113 88.275 48.1103 88.4444ZM51.1055 88.0528L50.7723 88.0612C50.7862 87.8418 50.8362 87.6321 50.9222 87.4321C51.0111 87.2322 51.1319 87.0544 51.2847 86.8989C51.4374 86.7406 51.6193 86.6156 51.8304 86.5239C52.0443 86.4323 52.2845 86.3865 52.5511 86.3865C52.7844 86.3865 52.9927 86.4184 53.176 86.4823C53.3593 86.5434 53.5134 86.642 53.6384 86.7781C53.7662 86.9114 53.8634 87.0822 53.93 87.2905C53.9967 87.4988 54.03 87.7487 54.03 88.0403V90.9773H53.5301V88.0362C53.5301 87.7168 53.4829 87.4696 53.3885 87.2946C53.2968 87.1169 53.1691 86.9933 53.0052 86.9239C52.8413 86.8544 52.6497 86.8197 52.4303 86.8197C52.2137 86.8225 52.0234 86.8628 51.8596 86.9405C51.6957 87.0155 51.5582 87.1155 51.4471 87.2405C51.3388 87.3627 51.2555 87.4946 51.1972 87.6362C51.1416 87.7779 51.1111 87.9167 51.1055 88.0528Z" fill="#EDEDED"/>
<rect x="93.0283" y="246.909" width="591.701" height="0.609412" fill="#2E3C46"/>
<rect x="93.0283" y="206.688" width="591.701" height="0.609412" fill="#2E3C46"/>
<rect x="93.0283" y="166.467" width="591.701" height="0.609412" fill="#2E3C46"/>
<rect x="93.0283" y="126.246" width="591.701" height="0.609412" fill="#2E3C46"/>
<rect x="93.0283" y="86.0244" width="591.701" height="0.609412" fill="#2E3C46"/>
<path opacity="0.3" fill-rule="evenodd" clip-rule="evenodd" d="M93.0283 247.518V235.33L149.192 214.61L204.22 233.502L259.816 209.735L314.845 218.267L369.874 184.14L425.47 213.391L480.499 195.109L536.095 203.031L591.691 190.843L684.729 227.408V246.909L93.0283 247.518Z" fill="#6D867A"/>
<g filter="url(#filter1_d_2431_1099)">
<path d="M93.5957 201.203L149.759 174.999L204.22 207.907L259.817 146.356L317.114 98.2127L370.441 139.043L425.47 131.73L486.739 163.42L536.095 107.354L591.691 96.9939L646.72 139.043L684.729 119.542" stroke="#A98F75" stroke-width="2.43765" stroke-linecap="round" stroke-linejoin="round"/>
</g>
<g filter="url(#filter2_d_2431_1099)">
<rect x="312.009" y="94.5562" width="8.62981" height="9.14118" rx="4.31491" fill="white"/>
<rect x="313.228" y="95.775" width="6.19217" height="6.70353" rx="3.09608" stroke="#026FC2" stroke-width="2.43765"/>
</g>
<g filter="url(#filter3_d_2431_1099)">
<path d="M371.932 36.6621C373.615 36.6621 374.98 38.0262 374.98 39.709V80.7061C374.98 82.3889 373.615 83.7529 371.932 83.7529H320.9L316.964 88.4619L313.03 83.7529H261.162C259.479 83.7529 258.115 82.3889 258.115 80.7061V39.709C258.115 38.0262 259.479 36.6621 261.162 36.6621H371.932Z" fill="#D6C8B0"/>
</g>
<path d="M283.361 54.0101L285.659 47.3953H286.778L283.891 55.1938H283.093L283.361 54.0101ZM281.213 47.3953L283.49 54.0101L283.774 55.1938H282.976L280.094 47.3953H281.213ZM286.865 52.3604V52.2372C286.865 51.8195 286.925 51.432 287.047 51.075C287.168 50.7143 287.343 50.4019 287.572 50.1376C287.8 49.8698 288.077 49.6627 288.402 49.5163C288.727 49.3663 289.091 49.2914 289.495 49.2914C289.902 49.2914 290.268 49.3663 290.593 49.5163C290.921 49.6627 291.2 49.8698 291.428 50.1376C291.66 50.4019 291.837 50.7143 291.958 51.075C292.08 51.432 292.14 51.8195 292.14 52.2372V52.3604C292.14 52.7782 292.08 53.1656 291.958 53.5227C291.837 53.8798 291.66 54.1922 291.428 54.4601C291.2 54.7243 290.923 54.9314 290.598 55.0814C290.277 55.2278 289.912 55.301 289.505 55.301C289.098 55.301 288.732 55.2278 288.407 55.0814C288.082 54.9314 287.804 54.7243 287.572 54.4601C287.343 54.1922 287.168 53.8798 287.047 53.5227C286.925 53.1656 286.865 52.7782 286.865 52.3604ZM287.856 52.2372V52.3604C287.856 52.6497 287.889 52.9228 287.957 53.1799C288.025 53.4335 288.127 53.6584 288.263 53.8548C288.402 54.0512 288.575 54.2065 288.782 54.3208C288.989 54.4315 289.23 54.4868 289.505 54.4868C289.777 54.4868 290.014 54.4315 290.218 54.3208C290.425 54.2065 290.596 54.0512 290.732 53.8548C290.868 53.6584 290.969 53.4335 291.037 53.1799C291.109 52.9228 291.144 52.6497 291.144 52.3604V52.2372C291.144 51.9516 291.109 51.682 291.037 51.4285C290.969 51.1714 290.866 50.9446 290.726 50.7482C290.591 50.5483 290.419 50.3912 290.212 50.2769C290.009 50.1626 289.769 50.1055 289.495 50.1055C289.223 50.1055 288.984 50.1626 288.777 50.2769C288.573 50.3912 288.402 50.5483 288.263 50.7482C288.127 50.9446 288.025 51.1714 287.957 51.4285C287.889 51.682 287.856 51.9516 287.856 52.2372ZM296.624 53.8548V49.3985H297.62V55.1938H296.672L296.624 53.8548ZM296.812 52.6336L297.224 52.6229C297.224 53.0085 297.183 53.3656 297.101 53.6941C297.022 54.0191 296.894 54.3012 296.715 54.5404C296.537 54.7796 296.303 54.9671 296.014 55.1028C295.724 55.2349 295.373 55.301 294.958 55.301C294.676 55.301 294.417 55.2599 294.182 55.1778C293.95 55.0957 293.75 54.9689 293.582 54.7975C293.414 54.6261 293.284 54.4029 293.191 54.128C293.102 53.853 293.057 53.5227 293.057 53.1371V49.3985H294.048V53.1478C294.048 53.4085 294.076 53.6245 294.134 53.7959C294.194 53.9637 294.275 54.0976 294.375 54.1976C294.478 54.294 294.592 54.3619 294.717 54.4011C294.846 54.4404 294.978 54.4601 295.114 54.4601C295.535 54.4601 295.869 54.3797 296.115 54.219C296.362 54.0548 296.538 53.8352 296.646 53.5602C296.756 53.2817 296.812 52.9728 296.812 52.6336ZM302.201 53.6566C302.201 53.5138 302.168 53.3817 302.104 53.2603C302.043 53.1353 301.917 53.0228 301.724 52.9228C301.535 52.8193 301.249 52.73 300.867 52.655C300.545 52.5872 300.254 52.5068 299.994 52.414C299.737 52.3212 299.517 52.2087 299.335 52.0766C299.156 51.9444 299.019 51.7891 298.923 51.6106C298.826 51.432 298.778 51.2231 298.778 50.9839C298.778 50.7554 298.828 50.5393 298.928 50.3358C299.031 50.1323 299.176 49.952 299.362 49.7948C299.551 49.6377 299.778 49.5145 300.042 49.4253C300.306 49.336 300.601 49.2914 300.926 49.2914C301.39 49.2914 301.786 49.3735 302.115 49.5377C302.443 49.702 302.695 49.9216 302.87 50.1966C303.045 50.4679 303.133 50.7697 303.133 51.1017H302.142C302.142 50.9411 302.093 50.7857 301.997 50.6358C301.904 50.4822 301.767 50.3555 301.585 50.2555C301.406 50.1555 301.186 50.1055 300.926 50.1055C300.651 50.1055 300.428 50.1483 300.256 50.234C300.088 50.3162 299.965 50.4215 299.887 50.5501C299.812 50.6786 299.774 50.8143 299.774 50.9571C299.774 51.0642 299.792 51.1607 299.828 51.2464C299.867 51.3285 299.935 51.4053 300.031 51.4767C300.128 51.5445 300.263 51.6088 300.438 51.6695C300.613 51.7302 300.837 51.7909 301.108 51.8516C301.583 51.9587 301.974 52.0873 302.281 52.2372C302.588 52.3872 302.817 52.5711 302.966 52.7889C303.116 53.0067 303.191 53.271 303.191 53.5816C303.191 53.8352 303.138 54.0673 303.031 54.2779C302.927 54.4886 302.775 54.6707 302.575 54.8243C302.379 54.9742 302.143 55.0921 301.868 55.1778C301.597 55.2599 301.292 55.301 300.953 55.301C300.442 55.301 300.01 55.2099 299.656 55.0278C299.303 54.8457 299.035 54.61 298.853 54.3208C298.671 54.0316 298.58 53.7263 298.58 53.4049H299.576C299.59 53.6763 299.669 53.8923 299.812 54.053C299.955 54.2101 300.129 54.3226 300.337 54.3904C300.544 54.4547 300.749 54.4868 300.953 54.4868C301.224 54.4868 301.451 54.4511 301.633 54.3797C301.818 54.3083 301.96 54.2101 302.056 54.0851C302.152 53.9601 302.201 53.8173 302.201 53.6566ZM307.595 50.309V55.1938H306.604V49.3985H307.569L307.595 50.309ZM309.406 49.3663L309.4 50.2876C309.318 50.2698 309.24 50.259 309.165 50.2555C309.093 50.2483 309.011 50.2448 308.918 50.2448C308.69 50.2448 308.488 50.2805 308.313 50.3519C308.138 50.4233 307.99 50.5233 307.869 50.6518C307.747 50.7804 307.651 50.9339 307.579 51.1125C307.511 51.2874 307.467 51.4802 307.445 51.6909L307.167 51.8516C307.167 51.5017 307.201 51.1732 307.269 50.8661C307.34 50.559 307.449 50.2876 307.595 50.0519C307.742 49.8127 307.927 49.627 308.152 49.4949C308.381 49.3592 308.652 49.2914 308.967 49.2914C309.038 49.2914 309.12 49.3003 309.213 49.3181C309.306 49.3324 309.37 49.3485 309.406 49.3663ZM312.315 55.301C311.911 55.301 311.545 55.2331 311.217 55.0974C310.892 54.9582 310.611 54.7636 310.376 54.5136C310.144 54.2637 309.965 53.9673 309.84 53.6245C309.715 53.2817 309.653 52.9068 309.653 52.4997V52.2747C309.653 51.8034 309.722 51.3838 309.862 51.016C310.001 50.6447 310.19 50.3305 310.429 50.0734C310.669 49.8163 310.94 49.6217 311.244 49.4895C311.547 49.3574 311.861 49.2914 312.186 49.2914C312.6 49.2914 312.957 49.3628 313.257 49.5056C313.561 49.6484 313.809 49.8484 314.002 50.1055C314.195 50.359 314.338 50.659 314.43 51.0053C314.523 51.3481 314.57 51.7231 314.57 52.1301V52.5747H310.242V51.7659H313.579V51.6909C313.565 51.4338 313.511 51.1839 313.418 50.9411C313.329 50.6982 313.186 50.4983 312.99 50.3412C312.793 50.1841 312.525 50.1055 312.186 50.1055C311.961 50.1055 311.754 50.1537 311.565 50.2501C311.376 50.343 311.213 50.4822 311.077 50.6679C310.942 50.8536 310.836 51.0803 310.761 51.3481C310.686 51.6159 310.649 51.9248 310.649 52.2747V52.4997C310.649 52.7746 310.686 53.0335 310.761 53.2763C310.84 53.5156 310.953 53.7263 311.099 53.9084C311.249 54.0905 311.429 54.2333 311.64 54.3369C311.854 54.4404 312.097 54.4922 312.368 54.4922C312.718 54.4922 313.015 54.4208 313.257 54.2779C313.5 54.1351 313.713 53.9441 313.895 53.7048L314.495 54.1815C314.37 54.3708 314.211 54.5511 314.018 54.7225C313.825 54.8939 313.588 55.0332 313.306 55.1403C313.027 55.2474 312.697 55.301 312.315 55.301ZM319.177 49.3985H320.076V55.0707C320.076 55.5813 319.973 56.0169 319.766 56.3776C319.559 56.7382 319.269 57.0114 318.898 57.1971C318.53 57.3863 318.105 57.4809 317.623 57.4809C317.423 57.4809 317.188 57.4488 316.916 57.3845C316.648 57.3238 316.384 57.2185 316.124 57.0685C315.866 56.9221 315.65 56.7239 315.475 56.474L315.995 55.8848C316.238 56.1776 316.491 56.3811 316.756 56.4954C317.023 56.6097 317.288 56.6668 317.548 56.6668C317.863 56.6668 318.134 56.6079 318.362 56.49C318.591 56.3722 318.768 56.1972 318.893 55.9651C319.021 55.7366 319.086 55.4545 319.086 55.1189V50.6733L319.177 49.3985ZM315.186 52.3604V52.248C315.186 51.8052 315.238 51.4035 315.342 51.0428C315.449 50.6786 315.6 50.3662 315.797 50.1055C315.997 49.8448 316.238 49.6449 316.52 49.5056C316.802 49.3628 317.12 49.2914 317.473 49.2914C317.838 49.2914 318.155 49.3556 318.427 49.4842C318.702 49.6092 318.934 49.7931 319.123 50.0359C319.316 50.2751 319.468 50.5643 319.578 50.9036C319.689 51.2428 319.766 51.6266 319.809 52.0551V52.5479C319.769 52.9728 319.693 53.3549 319.578 53.6941C319.468 54.0333 319.316 54.3226 319.123 54.5618C318.934 54.8011 318.702 54.985 318.427 55.1135C318.152 55.2385 317.83 55.301 317.463 55.301C317.116 55.301 316.802 55.2278 316.52 55.0814C316.241 54.935 316.002 54.7296 315.802 54.4654C315.602 54.2012 315.449 53.8905 315.342 53.5334C315.238 53.1728 315.186 52.7818 315.186 52.3604ZM316.177 52.248V52.3604C316.177 52.6497 316.206 52.9211 316.263 53.1746C316.324 53.4281 316.415 53.6513 316.536 53.8441C316.661 54.0369 316.82 54.1887 317.013 54.2994C317.206 54.4065 317.436 54.4601 317.704 54.4601C318.032 54.4601 318.304 54.3904 318.518 54.2512C318.732 54.1119 318.902 53.928 319.027 53.6995C319.155 53.471 319.255 53.2228 319.327 52.955V51.6641C319.287 51.4677 319.227 51.2785 319.144 51.0964C319.066 50.9107 318.962 50.7465 318.834 50.6036C318.709 50.4572 318.553 50.3412 318.368 50.2555C318.182 50.1698 317.964 50.1269 317.714 50.1269C317.443 50.1269 317.209 50.1841 317.013 50.2983C316.82 50.409 316.661 50.5626 316.536 50.7589C316.415 50.9518 316.324 51.1767 316.263 51.4338C316.206 51.6873 316.177 51.9587 316.177 52.248ZM324.694 54.203V51.2196C324.694 50.991 324.648 50.7929 324.555 50.625C324.466 50.4536 324.33 50.3215 324.148 50.2287C323.966 50.1358 323.741 50.0894 323.473 50.0894C323.223 50.0894 323.003 50.1323 322.814 50.218C322.628 50.3037 322.482 50.4162 322.375 50.5554C322.271 50.6947 322.219 50.8446 322.219 51.0053H321.229C321.229 50.7982 321.282 50.5929 321.389 50.3894C321.496 50.1858 321.65 50.0019 321.85 49.8377C322.053 49.6699 322.296 49.5377 322.578 49.4413C322.864 49.3414 323.182 49.2914 323.532 49.2914C323.953 49.2914 324.324 49.3628 324.646 49.5056C324.971 49.6484 325.224 49.8645 325.406 50.1537C325.592 50.4394 325.685 50.7982 325.685 51.2303V53.9298C325.685 54.1226 325.701 54.3279 325.733 54.5458C325.769 54.7636 325.821 54.951 325.888 55.1081V55.1938H324.855C324.805 55.0796 324.765 54.9278 324.737 54.7386C324.708 54.5458 324.694 54.3672 324.694 54.203ZM324.865 51.6802L324.876 52.3765H323.875C323.592 52.3765 323.341 52.3997 323.119 52.4461C322.898 52.489 322.712 52.555 322.562 52.6443C322.412 52.7336 322.298 52.8461 322.219 52.9818C322.141 53.1139 322.102 53.2692 322.102 53.4477C322.102 53.6298 322.143 53.7959 322.225 53.9459C322.307 54.0958 322.43 54.2155 322.594 54.3047C322.762 54.3904 322.968 54.4333 323.21 54.4333C323.514 54.4333 323.782 54.369 324.014 54.2405C324.246 54.1119 324.43 53.9548 324.565 53.7691C324.705 53.5834 324.78 53.4031 324.79 53.2281L325.214 53.7048C325.189 53.8548 325.121 54.0208 325.01 54.203C324.899 54.3851 324.751 54.56 324.565 54.7279C324.383 54.8921 324.166 55.0296 323.912 55.1403C323.662 55.2474 323.38 55.301 323.066 55.301C322.673 55.301 322.328 55.2242 322.032 55.0707C321.739 54.9171 321.511 54.7118 321.346 54.4547C321.186 54.194 321.105 53.903 321.105 53.5816C321.105 53.271 321.166 52.9978 321.288 52.7622C321.409 52.5229 321.584 52.3247 321.812 52.1676C322.041 52.0069 322.316 51.8855 322.637 51.8034C322.959 51.7213 323.317 51.6802 323.714 51.6802H324.865ZM327.93 50.309V55.1938H326.939V49.3985H327.903L327.93 50.309ZM329.74 49.3663L329.735 50.2876C329.653 50.2698 329.574 50.259 329.499 50.2555C329.428 50.2483 329.346 50.2448 329.253 50.2448C329.024 50.2448 328.822 50.2805 328.647 50.3519C328.473 50.4233 328.324 50.5233 328.203 50.6518C328.082 50.7804 327.985 50.9339 327.914 51.1125C327.846 51.2874 327.801 51.4802 327.78 51.6909L327.501 51.8516C327.501 51.5017 327.535 51.1732 327.603 50.8661C327.674 50.559 327.783 50.2876 327.93 50.0519C328.076 49.8127 328.262 49.627 328.487 49.4949C328.715 49.3592 328.987 49.2914 329.301 49.2914C329.372 49.2914 329.454 49.3003 329.547 49.3181C329.64 49.3324 329.704 49.3485 329.74 49.3663ZM333.897 54.0691V46.9668H334.893V55.1938H333.983L333.897 54.0691ZM329.998 52.3604V52.248C329.998 51.8052 330.051 51.4035 330.159 51.0428C330.269 50.6786 330.425 50.3662 330.624 50.1055C330.828 49.8448 331.069 49.6449 331.348 49.5056C331.63 49.3628 331.944 49.2914 332.29 49.2914C332.654 49.2914 332.972 49.3556 333.244 49.4842C333.519 49.6092 333.751 49.7931 333.94 50.0359C334.133 50.2751 334.285 50.5643 334.395 50.9036C334.506 51.2428 334.583 51.6266 334.626 52.0551V52.5479C334.586 52.9728 334.509 53.3549 334.395 53.6941C334.285 54.0333 334.133 54.3226 333.94 54.5618C333.751 54.8011 333.519 54.985 333.244 55.1135C332.969 55.2385 332.647 55.301 332.28 55.301C331.94 55.301 331.63 55.2278 331.348 55.0814C331.069 54.935 330.828 54.7296 330.624 54.4654C330.425 54.2012 330.269 53.8905 330.159 53.5334C330.051 53.1728 329.998 52.7818 329.998 52.3604ZM330.994 52.248V52.3604C330.994 52.6497 331.023 52.9211 331.08 53.1746C331.14 53.4281 331.233 53.6513 331.358 53.8441C331.483 54.0369 331.642 54.1887 331.835 54.2994C332.028 54.4065 332.258 54.4601 332.526 54.4601C332.854 54.4601 333.124 54.3904 333.335 54.2512C333.549 54.1119 333.72 53.928 333.849 53.6995C333.977 53.471 334.077 53.2228 334.149 52.955V51.6641C334.106 51.4677 334.044 51.2785 333.961 51.0964C333.883 50.9107 333.779 50.7465 333.651 50.6036C333.526 50.4572 333.37 50.3412 333.185 50.2555C333.003 50.1698 332.787 50.1269 332.537 50.1269C332.265 50.1269 332.031 50.1841 331.835 50.2983C331.642 50.409 331.483 50.5626 331.358 50.7589C331.233 50.9518 331.14 51.1767 331.08 51.4338C331.023 51.6873 330.994 51.9587 330.994 52.248ZM337.208 49.3985V55.1938H336.212V49.3985H337.208ZM336.137 47.8613C336.137 47.7006 336.185 47.5649 336.281 47.4542C336.381 47.3435 336.528 47.2882 336.72 47.2882C336.91 47.2882 337.054 47.3435 337.154 47.4542C337.258 47.5649 337.31 47.7006 337.31 47.8613C337.31 48.0148 337.258 48.1469 337.154 48.2576C337.054 48.3647 336.91 48.4183 336.72 48.4183C336.528 48.4183 336.381 48.3647 336.281 48.2576C336.185 48.1469 336.137 48.0148 336.137 47.8613ZM340.899 55.301C340.495 55.301 340.129 55.2331 339.801 55.0974C339.476 54.9582 339.196 54.7636 338.96 54.5136C338.728 54.2637 338.549 53.9673 338.424 53.6245C338.299 53.2817 338.237 52.9068 338.237 52.4997V52.2747C338.237 51.8034 338.306 51.3838 338.446 51.016C338.585 50.6447 338.774 50.3305 339.013 50.0734C339.253 49.8163 339.524 49.6217 339.828 49.4895C340.131 49.3574 340.445 49.2914 340.77 49.2914C341.184 49.2914 341.542 49.3628 341.841 49.5056C342.145 49.6484 342.393 49.8484 342.586 50.1055C342.779 50.359 342.922 50.659 343.014 51.0053C343.107 51.3481 343.154 51.7231 343.154 52.1301V52.5747H338.826V51.7659H342.163V51.6909C342.149 51.4338 342.095 51.1839 342.002 50.9411C341.913 50.6982 341.77 50.4983 341.574 50.3412C341.377 50.1841 341.109 50.1055 340.77 50.1055C340.545 50.1055 340.338 50.1537 340.149 50.2501C339.96 50.343 339.797 50.4822 339.662 50.6679C339.526 50.8536 339.42 51.0803 339.346 51.3481C339.271 51.6159 339.233 51.9248 339.233 52.2747V52.4997C339.233 52.7746 339.271 53.0335 339.346 53.2763C339.424 53.5156 339.537 53.7263 339.683 53.9084C339.833 54.0905 340.013 54.2333 340.224 54.3369C340.438 54.4404 340.681 54.4922 340.952 54.4922C341.302 54.4922 341.599 54.4208 341.841 54.2779C342.084 54.1351 342.297 53.9441 342.479 53.7048L343.079 54.1815C342.954 54.3708 342.795 54.5511 342.602 54.7225C342.409 54.8939 342.172 55.0332 341.89 55.1403C341.611 55.2474 341.281 55.301 340.899 55.301ZM348.323 54.3797V55.1938H344.108V54.3797H348.323ZM348.168 50.1001L344.333 55.1938H343.727V54.4654L347.536 49.3985H348.168V50.1001ZM347.728 49.3985V50.218H343.77V49.3985H347.728ZM351.516 54.6689C351.516 54.5011 351.568 54.3601 351.672 54.2458C351.779 54.128 351.932 54.0691 352.132 54.0691C352.332 54.0691 352.484 54.128 352.588 54.2458C352.695 54.3601 352.748 54.5011 352.748 54.6689C352.748 54.8332 352.695 54.9725 352.588 55.0867C352.484 55.201 352.332 55.2581 352.132 55.2581C351.932 55.2581 351.779 55.201 351.672 55.0867C351.568 54.9725 351.516 54.8332 351.516 54.6689ZM351.522 49.9395C351.522 49.7716 351.574 49.6306 351.677 49.5163C351.784 49.3985 351.938 49.3396 352.138 49.3396C352.338 49.3396 352.49 49.3985 352.593 49.5163C352.7 49.6306 352.754 49.7716 352.754 49.9395C352.754 50.1037 352.7 50.243 352.593 50.3572C352.49 50.4715 352.338 50.5286 352.138 50.5286C351.938 50.5286 351.784 50.4715 351.677 50.3572C351.574 50.243 351.522 50.1037 351.522 49.9395ZM296.478 63.3953V71.1938H295.439L291.513 65.1789V71.1938H290.479V63.3953H291.513L295.455 69.4263V63.3953H296.478ZM297.592 68.3604V68.2372C297.592 67.8195 297.653 67.432 297.775 67.075C297.896 66.7143 298.071 66.4019 298.299 66.1376C298.528 65.8698 298.805 65.6627 299.13 65.5163C299.455 65.3663 299.819 65.2914 300.222 65.2914C300.629 65.2914 300.995 65.3663 301.32 65.5163C301.649 65.6627 301.927 65.8698 302.156 66.1376C302.388 66.4019 302.565 66.7143 302.686 67.075C302.808 67.432 302.868 67.8195 302.868 68.2372V68.3604C302.868 68.7782 302.808 69.1656 302.686 69.5227C302.565 69.8798 302.388 70.1922 302.156 70.4601C301.927 70.7243 301.651 70.9314 301.326 71.0814C301.004 71.2278 300.64 71.301 300.233 71.301C299.826 71.301 299.46 71.2278 299.135 71.0814C298.81 70.9314 298.532 70.7243 298.299 70.4601C298.071 70.1922 297.896 69.8798 297.775 69.5227C297.653 69.1656 297.592 68.7782 297.592 68.3604ZM298.583 68.2372V68.3604C298.583 68.6497 298.617 68.9228 298.685 69.1799C298.753 69.4335 298.855 69.6584 298.99 69.8548C299.13 70.0512 299.303 70.2065 299.51 70.3208C299.717 70.4315 299.958 70.4868 300.233 70.4868C300.504 70.4868 300.742 70.4315 300.945 70.3208C301.153 70.2065 301.324 70.0512 301.46 69.8548C301.595 69.6584 301.697 69.4335 301.765 69.1799C301.836 68.9228 301.872 68.6497 301.872 68.3604V68.2372C301.872 67.9516 301.836 67.682 301.765 67.4285C301.697 67.1714 301.594 66.9446 301.454 66.7482C301.319 66.5483 301.147 66.3912 300.94 66.2769C300.737 66.1626 300.497 66.1055 300.222 66.1055C299.951 66.1055 299.712 66.1626 299.505 66.2769C299.301 66.3912 299.13 66.5483 298.99 66.7482C298.855 66.9446 298.753 67.1714 298.685 67.4285C298.617 67.682 298.583 67.9516 298.583 68.2372ZM304.792 66.5501V71.1938H303.795V65.3985H304.738L304.792 66.5501ZM304.588 68.0766L304.128 68.0605C304.131 67.6641 304.183 67.2981 304.283 66.9625C304.383 66.6233 304.531 66.3287 304.727 66.0787C304.924 65.8288 305.168 65.6359 305.461 65.5003C305.754 65.361 306.093 65.2914 306.479 65.2914C306.75 65.2914 307 65.3306 307.229 65.4092C307.457 65.4842 307.655 65.6038 307.823 65.7681C307.991 65.9323 308.121 66.143 308.214 66.4001C308.307 66.6572 308.354 66.9678 308.354 67.3321V71.1938H307.363V67.3803C307.363 67.0767 307.311 66.8339 307.207 66.6518C307.107 66.4697 306.965 66.3376 306.779 66.2555C306.593 66.1698 306.375 66.1269 306.125 66.1269C305.833 66.1269 305.588 66.1787 305.392 66.2823C305.195 66.3858 305.038 66.5286 304.92 66.7107C304.802 66.8929 304.717 67.1017 304.663 67.3374C304.613 67.5695 304.588 67.8159 304.588 68.0766ZM308.343 67.5302L307.679 67.7338C307.682 67.416 307.734 67.1107 307.834 66.8179C307.938 66.5251 308.086 66.2644 308.279 66.0359C308.475 65.8073 308.716 65.627 309.002 65.4949C309.287 65.3592 309.614 65.2914 309.982 65.2914C310.293 65.2914 310.567 65.3324 310.807 65.4146C311.05 65.4967 311.253 65.6234 311.417 65.7948C311.585 65.9627 311.712 66.1787 311.798 66.4429C311.883 66.7072 311.926 67.0214 311.926 67.3856V71.1938H310.93V67.3749C310.93 67.05 310.878 66.7982 310.775 66.6197C310.675 66.4376 310.532 66.3108 310.346 66.2394C310.164 66.1644 309.946 66.1269 309.693 66.1269C309.475 66.1269 309.282 66.1644 309.114 66.2394C308.946 66.3144 308.805 66.4179 308.691 66.5501C308.577 66.6786 308.489 66.8268 308.429 66.9946C308.371 67.1624 308.343 67.341 308.343 67.5302ZM316.523 66.5501V71.1938H315.527V65.3985H316.469L316.523 66.5501ZM316.319 68.0766L315.859 68.0605C315.862 67.6641 315.914 67.2981 316.014 66.9625C316.114 66.6233 316.262 66.3287 316.459 66.0787C316.655 65.8288 316.9 65.6359 317.192 65.5003C317.485 65.361 317.824 65.2914 318.21 65.2914C318.481 65.2914 318.731 65.3306 318.96 65.4092C319.188 65.4842 319.387 65.6038 319.555 65.7681C319.722 65.9323 319.853 66.143 319.946 66.4001C320.038 66.6572 320.085 66.9678 320.085 67.3321V71.1938H319.094V67.3803C319.094 67.0767 319.042 66.8339 318.939 66.6518C318.839 66.4697 318.696 66.3376 318.51 66.2555C318.324 66.1698 318.107 66.1269 317.857 66.1269C317.564 66.1269 317.319 66.1787 317.123 66.2823C316.926 66.3858 316.769 66.5286 316.651 66.7107C316.534 66.8929 316.448 67.1017 316.394 67.3374C316.344 67.5695 316.319 67.8159 316.319 68.0766ZM320.074 67.5302L319.41 67.7338C319.413 67.416 319.465 67.1107 319.565 66.8179C319.669 66.5251 319.817 66.2644 320.01 66.0359C320.206 65.8073 320.447 65.627 320.733 65.4949C321.019 65.3592 321.345 65.2914 321.713 65.2914C322.024 65.2914 322.299 65.3324 322.538 65.4146C322.781 65.4967 322.984 65.6234 323.148 65.7948C323.316 65.9627 323.443 66.1787 323.529 66.4429C323.614 66.7072 323.657 67.0214 323.657 67.3856V71.1938H322.661V67.3749C322.661 67.05 322.609 66.7982 322.506 66.6197C322.406 66.4376 322.263 66.3108 322.077 66.2394C321.895 66.1644 321.677 66.1269 321.424 66.1269C321.206 66.1269 321.013 66.1644 320.845 66.2394C320.678 66.3144 320.536 66.4179 320.422 66.5501C320.308 66.6786 320.22 66.8268 320.16 66.9946C320.103 67.1624 320.074 67.341 320.074 67.5302ZM327.257 71.301C326.854 71.301 326.488 71.2331 326.159 71.0974C325.834 70.9582 325.554 70.7636 325.318 70.5136C325.086 70.2637 324.908 69.9673 324.783 69.6245C324.658 69.2817 324.595 68.9068 324.595 68.4997V68.2747C324.595 67.8034 324.665 67.3838 324.804 67.016C324.943 66.6447 325.133 66.3305 325.372 66.0734C325.611 65.8163 325.883 65.6217 326.186 65.4895C326.49 65.3574 326.804 65.2914 327.129 65.2914C327.543 65.2914 327.9 65.3628 328.2 65.5056C328.503 65.6484 328.752 65.8484 328.944 66.1055C329.137 66.359 329.28 66.659 329.373 67.0053C329.466 67.3481 329.512 67.7231 329.512 68.1301V68.5747H325.184V67.7659H328.521V67.6909C328.507 67.4338 328.453 67.1839 328.361 66.9411C328.271 66.6982 328.129 66.4983 327.932 66.3412C327.736 66.1841 327.468 66.1055 327.129 66.1055C326.904 66.1055 326.697 66.1537 326.507 66.2501C326.318 66.343 326.156 66.4822 326.02 66.6679C325.884 66.8536 325.779 67.0803 325.704 67.3481C325.629 67.6159 325.591 67.9248 325.591 68.2747V68.4997C325.591 68.7746 325.629 69.0335 325.704 69.2763C325.783 69.5156 325.895 69.7263 326.041 69.9084C326.191 70.0905 326.372 70.2333 326.582 70.3369C326.797 70.4404 327.039 70.4922 327.311 70.4922C327.661 70.4922 327.957 70.4208 328.2 70.2779C328.443 70.1351 328.655 69.9441 328.837 69.7048L329.437 70.1815C329.312 70.3708 329.153 70.5511 328.961 70.7225C328.768 70.8939 328.53 71.0332 328.248 71.1403C327.97 71.2474 327.639 71.301 327.257 71.301ZM326.577 64.5415L327.616 62.9668H328.811L327.375 64.5415H326.577ZM334.017 70.0691V62.9668H335.014V71.1938H334.103L334.017 70.0691ZM330.118 68.3604V68.248C330.118 67.8052 330.172 67.4035 330.279 67.0428C330.389 66.6786 330.545 66.3662 330.745 66.1055C330.948 65.8448 331.189 65.6449 331.468 65.5056C331.75 65.3628 332.064 65.2914 332.41 65.2914C332.775 65.2914 333.092 65.3556 333.364 65.4842C333.639 65.6092 333.871 65.7931 334.06 66.0359C334.253 66.2751 334.405 66.5643 334.515 66.9036C334.626 67.2428 334.703 67.6266 334.746 68.0551V68.5479C334.706 68.9728 334.63 69.3549 334.515 69.6941C334.405 70.0333 334.253 70.3226 334.06 70.5618C333.871 70.8011 333.639 70.985 333.364 71.1135C333.089 71.2385 332.768 71.301 332.4 71.301C332.061 71.301 331.75 71.2278 331.468 71.0814C331.189 70.935 330.948 70.7296 330.745 70.4654C330.545 70.2012 330.389 69.8905 330.279 69.5334C330.172 69.1728 330.118 68.7818 330.118 68.3604ZM331.114 68.248V68.3604C331.114 68.6497 331.143 68.9211 331.2 69.1746C331.261 69.4281 331.354 69.6513 331.478 69.8441C331.603 70.0369 331.762 70.1887 331.955 70.2994C332.148 70.4065 332.378 70.4601 332.646 70.4601C332.975 70.4601 333.244 70.3904 333.455 70.2512C333.669 70.1119 333.841 69.928 333.969 69.6995C334.098 69.471 334.198 69.2228 334.269 68.955V67.6641C334.226 67.4677 334.164 67.2785 334.082 67.0964C334.003 66.9107 333.899 66.7465 333.771 66.6036C333.646 66.4572 333.491 66.3412 333.305 66.2555C333.123 66.1698 332.907 66.1269 332.657 66.1269C332.385 66.1269 332.152 66.1841 331.955 66.2983C331.762 66.409 331.603 66.5626 331.478 66.7589C331.354 66.9518 331.261 67.1767 331.2 67.4338C331.143 67.6873 331.114 67.9587 331.114 68.248ZM337.328 65.3985V71.1938H336.332V65.3985H337.328ZM336.257 63.8613C336.257 63.7006 336.305 63.5649 336.401 63.4542C336.501 63.3435 336.648 63.2882 336.841 63.2882C337.03 63.2882 337.174 63.3435 337.274 63.4542C337.378 63.5649 337.43 63.7006 337.43 63.8613C337.43 64.0148 337.378 64.1469 337.274 64.2576C337.174 64.3647 337.03 64.4183 336.841 64.4183C336.648 64.4183 336.501 64.3647 336.401 64.2576C336.305 64.1469 336.257 64.0148 336.257 63.8613ZM342.031 70.203V67.2196C342.031 66.991 341.985 66.7929 341.892 66.625C341.803 66.4536 341.667 66.3215 341.485 66.2287C341.303 66.1358 341.078 66.0894 340.81 66.0894C340.56 66.0894 340.341 66.1323 340.151 66.218C339.966 66.3037 339.819 66.4162 339.712 66.5554C339.609 66.6947 339.557 66.8446 339.557 67.0053H338.566C338.566 66.7982 338.619 66.5929 338.727 66.3894C338.834 66.1858 338.987 66.0019 339.187 65.8377C339.391 65.6699 339.634 65.5377 339.916 65.4413C340.201 65.3414 340.519 65.2914 340.869 65.2914C341.29 65.2914 341.662 65.3628 341.983 65.5056C342.308 65.6484 342.562 65.8645 342.744 66.1537C342.929 66.4394 343.022 66.7982 343.022 67.2303V69.9298C343.022 70.1226 343.038 70.3279 343.07 70.5458C343.106 70.7636 343.158 70.951 343.226 71.1081V71.1938H342.192C342.142 71.0796 342.103 70.9278 342.074 70.7386C342.046 70.5458 342.031 70.3672 342.031 70.203ZM342.203 67.6802L342.213 68.3765H341.212C340.93 68.3765 340.678 68.3997 340.457 68.4461C340.235 68.489 340.05 68.555 339.9 68.6443C339.75 68.7336 339.635 68.8461 339.557 68.9818C339.478 69.1139 339.439 69.2692 339.439 69.4477C339.439 69.6298 339.48 69.7959 339.562 69.9459C339.644 70.0958 339.767 70.2155 339.932 70.3047C340.1 70.3904 340.305 70.4333 340.548 70.4333C340.851 70.4333 341.119 70.369 341.351 70.2405C341.583 70.1119 341.767 69.9548 341.903 69.7691C342.042 69.5834 342.117 69.4031 342.128 69.2281L342.551 69.7048C342.526 69.8548 342.458 70.0208 342.347 70.203C342.237 70.3851 342.088 70.56 341.903 70.7279C341.721 70.8921 341.503 71.0296 341.249 71.1403C340.999 71.2474 340.717 71.301 340.403 71.301C340.01 71.301 339.666 71.2242 339.369 71.0707C339.077 70.9171 338.848 70.7118 338.684 70.4547C338.523 70.194 338.443 69.903 338.443 69.5816C338.443 69.271 338.503 68.9978 338.625 68.7622C338.746 68.5229 338.921 68.3247 339.15 68.1676C339.378 68.0069 339.653 67.8855 339.975 67.8034C340.296 67.7213 340.655 67.6802 341.051 67.6802H342.203Z" fill="#1C1C1F"/>
</g>
<defs>
<filter id="filter0_d_2431_1099" x="0.428053" y="0.114228" width="723.922" height="336.192" filterUnits="userSpaceOnUse" color-interpolation-filters="sRGB">
<feFlood flood-opacity="0" result="BackgroundImageFix"/>
<feColorMatrix in="SourceAlpha" type="matrix" values="0 0 0 0 0 0 0 0 0 0 0 0 0 0 0 0 0 0 127 0" result="hardAlpha"/>
<feMorphology radius="2" operator="dilate" in="SourceAlpha" result="effect1_dropShadow_2431_1099"/>
<feOffset dx="1.02407" dy="2.04813"/>
<feGaussianBlur stdDeviation="6.29801"/>
<feComposite in2="hardAlpha" operator="out"/>
<feColorMatrix type="matrix" values="0 0 0 0 0 0 0 0 0 0 0 0 0 0 0 0 0 0 0.1 0"/>
<feBlend mode="normal" in2="BackgroundImageFix" result="effect1_dropShadow_2431_1099"/>
<feBlend mode="normal" in="SourceGraphic" in2="effect1_dropShadow_2431_1099" result="shape"/>
</filter>
<filter id="filter1_d_2431_1099" x="74.0941" y="86.634" width="630.136" height="149.915" filterUnits="userSpaceOnUse" color-interpolation-filters="sRGB">
<feFlood flood-opacity="0" result="BackgroundImageFix"/>
<feColorMatrix in="SourceAlpha" type="matrix" values="0 0 0 0 0 0 0 0 0 0 0 0 0 0 0 0 0 0 127 0" result="hardAlpha"/>
<feOffset dy="9.14118"/>
<feGaussianBlur stdDeviation="9.14118"/>
<feColorMatrix type="matrix" values="0 0 0 0 0 0 0 0 0 0 0 0 0 0 0 0 0 0 0.5 0"/>
<feBlend mode="normal" in2="BackgroundImageFix" result="effect1_dropShadow_2431_1099"/>
<feBlend mode="normal" in="SourceGraphic" in2="effect1_dropShadow_2431_1099" result="shape"/>
</filter>
<filter id="filter2_d_2431_1099" x="299.821" y="88.462" width="33.0064" height="33.5176" filterUnits="userSpaceOnUse" color-interpolation-filters="sRGB">
<feFlood flood-opacity="0" result="BackgroundImageFix"/>
<feColorMatrix in="SourceAlpha" type="matrix" values="0 0 0 0 0 0 0 0 0 0 0 0 0 0 0 0 0 0 127 0" result="hardAlpha"/>
<feOffset dy="6.09412"/>
<feGaussianBlur stdDeviation="6.09412"/>
<feColorMatrix type="matrix" values="0 0 0 0 0 0 0 0 0 0 0 0 0 0 0 0 0 0 0.3 0"/>
<feBlend mode="normal" in2="BackgroundImageFix" result="effect1_dropShadow_2431_1099"/>
<feBlend mode="normal" in="SourceGraphic" in2="effect1_dropShadow_2431_1099" result="shape"/>
</filter>
<filter id="filter3_d_2431_1099" x="233.738" y="24.4739" width="165.618" height="100.553" filterUnits="userSpaceOnUse" color-interpolation-filters="sRGB">
<feFlood flood-opacity="0" result="BackgroundImageFix"/>
<feColorMatrix in="SourceAlpha" type="matrix" values="0 0 0 0 0 0 0 0 0 0 0 0 0 0 0 0 0 0 127 0" result="hardAlpha"/>
<feOffset dy="12.1882"/>
<feGaussianBlur stdDeviation="12.1882"/>
<feColorMatrix type="matrix" values="0 0 0 0 0 0 0 0 0 0 0 0 0 0 0 0 0 0 0.3 0"/>
<feBlend mode="normal" in2="BackgroundImageFix" result="effect1_dropShadow_2431_1099"/>
<feBlend mode="normal" in="SourceGraphic" in2="effect1_dropShadow_2431_1099" result="shape"/>
</filter>
</defs>
</svg>
