<svg width="1230" height="465" viewBox="0 0 1230 465" fill="none" xmlns="http://www.w3.org/2000/svg">
<g filter="url(#filter0_d_2385_700)">
<rect x="14" y="12.6621" width="1200" height="435" rx="8" fill="#2A2A2E" shape-rendering="crispEdges"/>
<rect x="685.5" y="37.1621" width="34" height="34" rx="17" stroke="#D6C8B0"/>
<path d="M705.329 56.9905L706.743 58.4047" stroke="#B1B1B1" stroke-width="1.5" stroke-linecap="round" stroke-linejoin="round"/>
<path d="M698.257 49.9194L702.26 53.9217" stroke="#B1B1B1" stroke-width="1.5" stroke-linecap="round" stroke-linejoin="round"/>
<path d="M698.257 58.4047L706.743 49.9194" stroke="#B1B1B1" stroke-width="1.5" stroke-linecap="round" stroke-linejoin="round"/>
<rect x="734" y="36.6621" width="80" height="35" rx="17.5" fill="#D6C8B0"/>
<path d="M753.596 52.1621C753.49 51.7757 753.335 51.414 753.13 51.0769C752.926 50.736 752.672 50.4386 752.369 50.1848C752.07 49.9273 751.723 49.7265 751.329 49.5826C750.939 49.4386 750.503 49.3667 750.022 49.3667C749.265 49.3667 748.587 49.5636 747.988 49.9576C747.39 50.3515 746.916 50.9197 746.568 51.6621C746.223 52.4045 746.051 53.2985 746.051 54.3439C746.051 55.3856 746.225 56.2776 746.573 57.0201C746.922 57.7625 747.399 58.3326 748.005 58.7303C748.615 59.1242 749.312 59.3212 750.096 59.3212C750.812 59.3212 751.445 59.1621 751.994 58.8439C752.543 58.5257 752.971 58.0712 753.278 57.4803C753.589 56.8894 753.74 56.1867 753.732 55.3723L754.073 55.4803H750.346V54.5257H754.767V55.4803C754.767 56.4727 754.566 57.3307 754.164 58.0542C753.763 58.7776 753.212 59.3364 752.511 59.7303C751.81 60.1242 751.005 60.3212 750.096 60.3212C749.081 60.3212 748.193 60.0769 747.431 59.5882C746.67 59.0958 746.077 58.4026 745.653 57.5087C745.232 56.611 745.022 55.556 745.022 54.3439C745.022 53.431 745.143 52.6072 745.386 51.8723C745.628 51.1375 745.971 50.5087 746.414 49.986C746.861 49.4632 747.39 49.0636 748 48.7871C748.609 48.5068 749.284 48.3667 750.022 48.3667C750.659 48.3667 751.24 48.467 751.767 48.6678C752.297 48.8685 752.763 49.1451 753.164 49.4973C753.57 49.8458 753.901 50.2492 754.159 50.7076C754.42 51.1621 754.596 51.647 754.687 52.1621H753.596ZM760.723 60.3439C759.908 60.3439 759.204 60.1545 758.609 59.7757C758.014 59.3932 757.554 58.8648 757.228 58.1905C756.906 57.5125 756.745 56.7322 756.745 55.8496C756.745 54.9708 756.906 54.1905 757.228 53.5087C757.554 52.8231 758.003 52.2871 758.575 51.9007C759.151 51.5106 759.815 51.3155 760.569 51.3155C761.043 51.3155 761.499 51.4026 761.938 51.5769C762.378 51.7473 762.772 52.0106 763.12 52.3667C763.473 52.7189 763.751 53.164 763.955 53.7019C764.16 54.236 764.262 54.8685 764.262 55.5996V56.0996H757.444V55.2076H763.228C763.228 54.647 763.115 54.1432 762.887 53.6962C762.664 53.2454 762.351 52.8894 761.95 52.628C761.552 52.3667 761.092 52.236 760.569 52.236C760.016 52.236 759.529 52.3837 759.109 52.6792C758.688 52.9746 758.359 53.3648 758.12 53.8496C757.885 54.3345 757.766 54.8648 757.762 55.4405V55.9746C757.762 56.6678 757.882 57.2739 758.12 57.7928C758.363 58.3079 758.705 58.7076 759.149 58.9917C759.592 59.2757 760.116 59.4178 760.723 59.4178C761.135 59.4178 761.497 59.3534 761.808 59.2246C762.122 59.0958 762.385 58.9235 762.598 58.7076C762.813 58.4879 762.976 58.2473 763.086 57.986L764.046 58.2985C763.914 58.6659 763.696 59.0049 763.393 59.3155C763.094 59.6261 762.719 59.8761 762.268 60.0655C761.821 60.2511 761.306 60.3439 760.723 60.3439ZM767.502 54.7076V60.1621H766.491V51.4348H767.474V52.8042H767.565C767.769 52.3572 768.088 51.9992 768.519 51.7303C768.955 51.4576 769.493 51.3212 770.133 51.3212C770.72 51.3212 771.235 51.4443 771.678 51.6905C772.125 51.9329 772.472 52.2909 772.718 52.7644C772.968 53.2379 773.093 53.8193 773.093 54.5087V60.1621H772.082V54.5712C772.082 53.8553 771.881 53.289 771.48 52.8723C771.082 52.4557 770.548 52.2473 769.877 52.2473C769.419 52.2473 769.012 52.3458 768.656 52.5428C768.3 52.7398 768.018 53.0239 767.809 53.3951C767.605 53.7625 767.502 54.2 767.502 54.7076ZM775.757 60.1621V51.4348H776.74V52.7757H776.813C776.988 52.3364 777.291 51.9822 777.723 51.7132C778.158 51.4405 778.651 51.3042 779.2 51.3042C779.283 51.3042 779.376 51.306 779.478 51.3098C779.58 51.3136 779.666 51.3174 779.734 51.3212V52.3496C779.688 52.342 779.609 52.3307 779.495 52.3155C779.382 52.3004 779.259 52.2928 779.126 52.2928C778.671 52.2928 778.266 52.3894 777.91 52.5826C777.558 52.772 777.279 53.0352 777.075 53.3723C776.87 53.7095 776.768 54.0939 776.768 54.5257V60.1621H775.757ZM784.723 60.3439C783.908 60.3439 783.204 60.1545 782.609 59.7757C782.014 59.3932 781.554 58.8648 781.228 58.1905C780.906 57.5125 780.745 56.7322 780.745 55.8496C780.745 54.9708 780.906 54.1905 781.228 53.5087C781.554 52.8231 782.003 52.2871 782.575 51.9007C783.151 51.5106 783.815 51.3155 784.569 51.3155C785.043 51.3155 785.499 51.4026 785.938 51.5769C786.378 51.7473 786.772 52.0106 787.12 52.3667C787.473 52.7189 787.751 53.164 787.955 53.7019C788.16 54.236 788.262 54.8685 788.262 55.5996V56.0996H781.444V55.2076H787.228C787.228 54.647 787.115 54.1432 786.887 53.6962C786.664 53.2454 786.351 52.8894 785.95 52.628C785.552 52.3667 785.092 52.236 784.569 52.236C784.016 52.236 783.529 52.3837 783.109 52.6792C782.688 52.9746 782.359 53.3648 782.12 53.8496C781.885 54.3345 781.766 54.8648 781.762 55.4405V55.9746C781.762 56.6678 781.882 57.2739 782.12 57.7928C782.363 58.3079 782.705 58.7076 783.149 58.9917C783.592 59.2757 784.116 59.4178 784.723 59.4178C785.135 59.4178 785.497 59.3534 785.808 59.2246C786.122 59.0958 786.385 58.9235 786.598 58.7076C786.813 58.4879 786.976 58.2473 787.086 57.986L788.046 58.2985C787.914 58.6659 787.696 59.0049 787.393 59.3155C787.094 59.6261 786.719 59.8761 786.268 60.0655C785.821 60.2511 785.306 60.3439 784.723 60.3439ZM794.951 60.1621V59.3837L798.752 55.111C799.249 54.5504 799.648 54.0712 799.951 53.6735C800.254 53.2757 800.474 52.9083 800.61 52.5712C800.75 52.2341 800.821 51.8837 800.821 51.5201C800.821 51.0769 800.716 50.6905 800.508 50.361C800.303 50.0276 800.021 49.7682 799.661 49.5826C799.302 49.397 798.896 49.3042 798.446 49.3042C797.968 49.3042 797.55 49.4064 797.19 49.611C796.834 49.8155 796.557 50.0958 796.36 50.4519C796.163 50.8079 796.065 51.217 796.065 51.6792H795.048C795.048 51.0352 795.196 50.4651 795.491 49.9689C795.79 49.4689 796.197 49.0769 796.713 48.7928C797.232 48.5087 797.819 48.3667 798.474 48.3667C799.122 48.3667 799.697 48.5068 800.201 48.7871C800.705 49.0636 801.101 49.4405 801.389 49.9178C801.677 50.3951 801.821 50.9292 801.821 51.5201C801.821 51.9481 801.745 52.3629 801.593 52.7644C801.446 53.1659 801.19 53.6129 800.826 54.1053C800.463 54.5977 799.959 55.2 799.315 55.9121L796.428 59.1337V59.2076H802.184V60.1621H794.951Z" fill="#1C1C1F"/>
<rect x="828.5" y="37.1621" width="79" height="34" rx="17" stroke="#D6C8B0"/>
<path d="M849.096 52.1621C848.99 51.7757 848.835 51.414 848.63 51.0769C848.426 50.736 848.172 50.4386 847.869 50.1848C847.57 49.9273 847.223 49.7265 846.829 49.5826C846.439 49.4386 846.003 49.3667 845.522 49.3667C844.765 49.3667 844.087 49.5636 843.488 49.9576C842.89 50.3515 842.416 50.9197 842.068 51.6621C841.723 52.4045 841.551 53.2985 841.551 54.3439C841.551 55.3856 841.725 56.2776 842.073 57.0201C842.422 57.7625 842.899 58.3326 843.505 58.7303C844.115 59.1242 844.812 59.3212 845.596 59.3212C846.312 59.3212 846.945 59.1621 847.494 58.8439C848.043 58.5257 848.471 58.0712 848.778 57.4803C849.089 56.8894 849.24 56.1867 849.232 55.3723L849.573 55.4803H845.846V54.5257H850.267V55.4803C850.267 56.4727 850.066 57.3307 849.664 58.0542C849.263 58.7776 848.712 59.3364 848.011 59.7303C847.31 60.1242 846.505 60.3212 845.596 60.3212C844.581 60.3212 843.693 60.0769 842.931 59.5882C842.17 59.0958 841.577 58.4026 841.153 57.5087C840.732 56.611 840.522 55.556 840.522 54.3439C840.522 53.431 840.643 52.6072 840.886 51.8723C841.128 51.1375 841.471 50.5087 841.914 49.986C842.361 49.4632 842.89 49.0636 843.5 48.7871C844.109 48.5068 844.784 48.3667 845.522 48.3667C846.159 48.3667 846.74 48.467 847.267 48.6678C847.797 48.8685 848.263 49.1451 848.664 49.4973C849.07 49.8458 849.401 50.2492 849.659 50.7076C849.92 51.1621 850.096 51.647 850.187 52.1621H849.096ZM856.223 60.3439C855.408 60.3439 854.704 60.1545 854.109 59.7757C853.514 59.3932 853.054 58.8648 852.728 58.1905C852.406 57.5125 852.245 56.7322 852.245 55.8496C852.245 54.9708 852.406 54.1905 852.728 53.5087C853.054 52.8231 853.503 52.2871 854.075 51.9007C854.651 51.5106 855.315 51.3155 856.069 51.3155C856.543 51.3155 856.999 51.4026 857.438 51.5769C857.878 51.7473 858.272 52.0106 858.62 52.3667C858.973 52.7189 859.251 53.164 859.455 53.7019C859.66 54.236 859.762 54.8685 859.762 55.5996V56.0996H852.944V55.2076H858.728C858.728 54.647 858.615 54.1432 858.387 53.6962C858.164 53.2454 857.851 52.8894 857.45 52.628C857.052 52.3667 856.592 52.236 856.069 52.236C855.516 52.236 855.029 52.3837 854.609 52.6792C854.188 52.9746 853.859 53.3648 853.62 53.8496C853.385 54.3345 853.266 54.8648 853.262 55.4405V55.9746C853.262 56.6678 853.382 57.2739 853.62 57.7928C853.863 58.3079 854.205 58.7076 854.649 58.9917C855.092 59.2757 855.616 59.4178 856.223 59.4178C856.635 59.4178 856.997 59.3534 857.308 59.2246C857.622 59.0958 857.885 58.9235 858.098 58.7076C858.313 58.4879 858.476 58.2473 858.586 57.986L859.546 58.2985C859.414 58.6659 859.196 59.0049 858.893 59.3155C858.594 59.6261 858.219 59.8761 857.768 60.0655C857.321 60.2511 856.806 60.3439 856.223 60.3439ZM863.002 54.7076V60.1621H861.991V51.4348H862.974V52.8042H863.065C863.269 52.3572 863.588 51.9992 864.019 51.7303C864.455 51.4576 864.993 51.3212 865.633 51.3212C866.22 51.3212 866.735 51.4443 867.178 51.6905C867.625 51.9329 867.972 52.2909 868.218 52.7644C868.468 53.2379 868.593 53.8193 868.593 54.5087V60.1621H867.582V54.5712C867.582 53.8553 867.381 53.289 866.98 52.8723C866.582 52.4557 866.048 52.2473 865.377 52.2473C864.919 52.2473 864.512 52.3458 864.156 52.5428C863.8 52.7398 863.518 53.0239 863.309 53.3951C863.105 53.7625 863.002 54.2 863.002 54.7076ZM871.257 60.1621V51.4348H872.24V52.7757H872.313C872.488 52.3364 872.791 51.9822 873.223 51.7132C873.658 51.4405 874.151 51.3042 874.7 51.3042C874.783 51.3042 874.876 51.306 874.978 51.3098C875.08 51.3136 875.166 51.3174 875.234 51.3212V52.3496C875.188 52.342 875.109 52.3307 874.995 52.3155C874.882 52.3004 874.759 52.2928 874.626 52.2928C874.171 52.2928 873.766 52.3894 873.41 52.5826C873.058 52.772 872.779 53.0352 872.575 53.3723C872.37 53.7095 872.268 54.0939 872.268 54.5257V60.1621H871.257ZM880.223 60.3439C879.408 60.3439 878.704 60.1545 878.109 59.7757C877.514 59.3932 877.054 58.8648 876.728 58.1905C876.406 57.5125 876.245 56.7322 876.245 55.8496C876.245 54.9708 876.406 54.1905 876.728 53.5087C877.054 52.8231 877.503 52.2871 878.075 51.9007C878.651 51.5106 879.315 51.3155 880.069 51.3155C880.543 51.3155 880.999 51.4026 881.438 51.5769C881.878 51.7473 882.272 52.0106 882.62 52.3667C882.973 52.7189 883.251 53.164 883.455 53.7019C883.66 54.236 883.762 54.8685 883.762 55.5996V56.0996H876.944V55.2076H882.728C882.728 54.647 882.615 54.1432 882.387 53.6962C882.164 53.2454 881.851 52.8894 881.45 52.628C881.052 52.3667 880.592 52.236 880.069 52.236C879.516 52.236 879.029 52.3837 878.609 52.6792C878.188 52.9746 877.859 53.3648 877.62 53.8496C877.385 54.3345 877.266 54.8648 877.262 55.4405V55.9746C877.262 56.6678 877.382 57.2739 877.62 57.7928C877.863 58.3079 878.205 58.7076 878.649 58.9917C879.092 59.2757 879.616 59.4178 880.223 59.4178C880.635 59.4178 880.997 59.3534 881.308 59.2246C881.622 59.0958 881.885 58.9235 882.098 58.7076C882.313 58.4879 882.476 58.2473 882.586 57.986L883.546 58.2985C883.414 58.6659 883.196 59.0049 882.893 59.3155C882.594 59.6261 882.219 59.8761 881.768 60.0655C881.321 60.2511 880.806 60.3439 880.223 60.3439ZM894.042 48.5257V60.1621H892.98V49.6394H892.911L890.184 51.4519V50.3496L892.934 48.5257H894.042Z" fill="#B1B1B1"/>
<rect x="922" y="36.6621" width="80" height="35" rx="17.5" fill="#D6C8B0"/>
<path d="M941.596 52.1621C941.49 51.7757 941.335 51.414 941.13 51.0769C940.926 50.736 940.672 50.4386 940.369 50.1848C940.07 49.9273 939.723 49.7265 939.329 49.5826C938.939 49.4386 938.503 49.3667 938.022 49.3667C937.265 49.3667 936.587 49.5636 935.988 49.9576C935.39 50.3515 934.916 50.9197 934.568 51.6621C934.223 52.4045 934.051 53.2985 934.051 54.3439C934.051 55.3856 934.225 56.2776 934.573 57.0201C934.922 57.7625 935.399 58.3326 936.005 58.7303C936.615 59.1242 937.312 59.3212 938.096 59.3212C938.812 59.3212 939.445 59.1621 939.994 58.8439C940.543 58.5257 940.971 58.0712 941.278 57.4803C941.589 56.8894 941.74 56.1867 941.732 55.3723L942.073 55.4803H938.346V54.5257H942.767V55.4803C942.767 56.4727 942.566 57.3307 942.164 58.0542C941.763 58.7776 941.212 59.3364 940.511 59.7303C939.81 60.1242 939.005 60.3212 938.096 60.3212C937.081 60.3212 936.193 60.0769 935.431 59.5882C934.67 59.0958 934.077 58.4026 933.653 57.5087C933.232 56.611 933.022 55.556 933.022 54.3439C933.022 53.431 933.143 52.6072 933.386 51.8723C933.628 51.1375 933.971 50.5087 934.414 49.986C934.861 49.4632 935.39 49.0636 936 48.7871C936.609 48.5068 937.284 48.3667 938.022 48.3667C938.659 48.3667 939.24 48.467 939.767 48.6678C940.297 48.8685 940.763 49.1451 941.164 49.4973C941.57 49.8458 941.901 50.2492 942.159 50.7076C942.42 51.1621 942.596 51.647 942.687 52.1621H941.596ZM948.723 60.3439C947.908 60.3439 947.204 60.1545 946.609 59.7757C946.014 59.3932 945.554 58.8648 945.228 58.1905C944.906 57.5125 944.745 56.7322 944.745 55.8496C944.745 54.9708 944.906 54.1905 945.228 53.5087C945.554 52.8231 946.003 52.2871 946.575 51.9007C947.151 51.5106 947.815 51.3155 948.569 51.3155C949.043 51.3155 949.499 51.4026 949.938 51.5769C950.378 51.7473 950.772 52.0106 951.12 52.3667C951.473 52.7189 951.751 53.164 951.955 53.7019C952.16 54.236 952.262 54.8685 952.262 55.5996V56.0996H945.444V55.2076H951.228C951.228 54.647 951.115 54.1432 950.887 53.6962C950.664 53.2454 950.351 52.8894 949.95 52.628C949.552 52.3667 949.092 52.236 948.569 52.236C948.016 52.236 947.529 52.3837 947.109 52.6792C946.688 52.9746 946.359 53.3648 946.12 53.8496C945.885 54.3345 945.766 54.8648 945.762 55.4405V55.9746C945.762 56.6678 945.882 57.2739 946.12 57.7928C946.363 58.3079 946.705 58.7076 947.149 58.9917C947.592 59.2757 948.116 59.4178 948.723 59.4178C949.135 59.4178 949.497 59.3534 949.808 59.2246C950.122 59.0958 950.385 58.9235 950.598 58.7076C950.813 58.4879 950.976 58.2473 951.086 57.986L952.046 58.2985C951.914 58.6659 951.696 59.0049 951.393 59.3155C951.094 59.6261 950.719 59.8761 950.268 60.0655C949.821 60.2511 949.306 60.3439 948.723 60.3439ZM955.502 54.7076V60.1621H954.491V51.4348H955.474V52.8042H955.565C955.769 52.3572 956.088 51.9992 956.519 51.7303C956.955 51.4576 957.493 51.3212 958.133 51.3212C958.72 51.3212 959.235 51.4443 959.678 51.6905C960.125 51.9329 960.472 52.2909 960.718 52.7644C960.968 53.2379 961.093 53.8193 961.093 54.5087V60.1621H960.082V54.5712C960.082 53.8553 959.881 53.289 959.48 52.8723C959.082 52.4557 958.548 52.2473 957.877 52.2473C957.419 52.2473 957.012 52.3458 956.656 52.5428C956.3 52.7398 956.018 53.0239 955.809 53.3951C955.605 53.7625 955.502 54.2 955.502 54.7076ZM963.757 60.1621V51.4348H964.74V52.7757H964.813C964.988 52.3364 965.291 51.9822 965.723 51.7132C966.158 51.4405 966.651 51.3042 967.2 51.3042C967.283 51.3042 967.376 51.306 967.478 51.3098C967.58 51.3136 967.666 51.3174 967.734 51.3212V52.3496C967.688 52.342 967.609 52.3307 967.495 52.3155C967.382 52.3004 967.259 52.2928 967.126 52.2928C966.671 52.2928 966.266 52.3894 965.91 52.5826C965.558 52.772 965.279 53.0352 965.075 53.3723C964.87 53.7095 964.768 54.0939 964.768 54.5257V60.1621H963.757ZM972.723 60.3439C971.908 60.3439 971.204 60.1545 970.609 59.7757C970.014 59.3932 969.554 58.8648 969.228 58.1905C968.906 57.5125 968.745 56.7322 968.745 55.8496C968.745 54.9708 968.906 54.1905 969.228 53.5087C969.554 52.8231 970.003 52.2871 970.575 51.9007C971.151 51.5106 971.815 51.3155 972.569 51.3155C973.043 51.3155 973.499 51.4026 973.938 51.5769C974.378 51.7473 974.772 52.0106 975.12 52.3667C975.473 52.7189 975.751 53.164 975.955 53.7019C976.16 54.236 976.262 54.8685 976.262 55.5996V56.0996H969.444V55.2076H975.228C975.228 54.647 975.115 54.1432 974.887 53.6962C974.664 53.2454 974.351 52.8894 973.95 52.628C973.552 52.3667 973.092 52.236 972.569 52.236C972.016 52.236 971.529 52.3837 971.109 52.6792C970.688 52.9746 970.359 53.3648 970.12 53.8496C969.885 54.3345 969.766 54.8648 969.762 55.4405V55.9746C969.762 56.6678 969.882 57.2739 970.12 57.7928C970.363 58.3079 970.705 58.7076 971.149 58.9917C971.592 59.2757 972.116 59.4178 972.723 59.4178C973.135 59.4178 973.497 59.3534 973.808 59.2246C974.122 59.0958 974.385 58.9235 974.598 58.7076C974.813 58.4879 974.976 58.2473 975.086 57.986L976.046 58.2985C975.914 58.6659 975.696 59.0049 975.393 59.3155C975.094 59.6261 974.719 59.8761 974.268 60.0655C973.821 60.2511 973.306 60.3439 972.723 60.3439ZM982.951 60.1621V59.3837L986.752 55.111C987.249 54.5504 987.648 54.0712 987.951 53.6735C988.254 53.2757 988.474 52.9083 988.61 52.5712C988.75 52.2341 988.821 51.8837 988.821 51.5201C988.821 51.0769 988.716 50.6905 988.508 50.361C988.303 50.0276 988.021 49.7682 987.661 49.5826C987.302 49.397 986.896 49.3042 986.446 49.3042C985.968 49.3042 985.55 49.4064 985.19 49.611C984.834 49.8155 984.557 50.0958 984.36 50.4519C984.163 50.8079 984.065 51.217 984.065 51.6792H983.048C983.048 51.0352 983.196 50.4651 983.491 49.9689C983.79 49.4689 984.197 49.0769 984.713 48.7928C985.232 48.5087 985.819 48.3667 986.474 48.3667C987.122 48.3667 987.697 48.5068 988.201 48.7871C988.705 49.0636 989.101 49.4405 989.389 49.9178C989.677 50.3951 989.821 50.9292 989.821 51.5201C989.821 51.9481 989.745 52.3629 989.593 52.7644C989.446 53.1659 989.19 53.6129 988.826 54.1053C988.463 54.5977 987.959 55.2 987.315 55.9121L984.428 59.1337V59.2076H990.184V60.1621H982.951Z" fill="#1C1C1F"/>
<rect x="1016.5" y="37.1621" width="79" height="34" rx="17" stroke="#D6C8B0"/>
<path d="M1037.1 52.1621C1036.99 51.7757 1036.83 51.414 1036.63 51.0769C1036.43 50.736 1036.17 50.4386 1035.87 50.1848C1035.57 49.9273 1035.22 49.7265 1034.83 49.5826C1034.44 49.4386 1034 49.3667 1033.52 49.3667C1032.76 49.3667 1032.09 49.5636 1031.49 49.9576C1030.89 50.3515 1030.42 50.9197 1030.07 51.6621C1029.72 52.4045 1029.55 53.2985 1029.55 54.3439C1029.55 55.3856 1029.72 56.2776 1030.07 57.0201C1030.42 57.7625 1030.9 58.3326 1031.51 58.7303C1032.12 59.1242 1032.81 59.3212 1033.6 59.3212C1034.31 59.3212 1034.94 59.1621 1035.49 58.8439C1036.04 58.5257 1036.47 58.0712 1036.78 57.4803C1037.09 56.8894 1037.24 56.1867 1037.23 55.3723L1037.57 55.4803H1033.85V54.5257H1038.27V55.4803C1038.27 56.4727 1038.07 57.3307 1037.66 58.0542C1037.26 58.7776 1036.71 59.3364 1036.01 59.7303C1035.31 60.1242 1034.51 60.3212 1033.6 60.3212C1032.58 60.3212 1031.69 60.0769 1030.93 59.5882C1030.17 59.0958 1029.58 58.4026 1029.15 57.5087C1028.73 56.611 1028.52 55.556 1028.52 54.3439C1028.52 53.431 1028.64 52.6072 1028.89 51.8723C1029.13 51.1375 1029.47 50.5087 1029.91 49.986C1030.36 49.4632 1030.89 49.0636 1031.5 48.7871C1032.11 48.5068 1032.78 48.3667 1033.52 48.3667C1034.16 48.3667 1034.74 48.467 1035.27 48.6678C1035.8 48.8685 1036.26 49.1451 1036.66 49.4973C1037.07 49.8458 1037.4 50.2492 1037.66 50.7076C1037.92 51.1621 1038.1 51.647 1038.19 52.1621H1037.1ZM1044.22 60.3439C1043.41 60.3439 1042.7 60.1545 1042.11 59.7757C1041.51 59.3932 1041.05 58.8648 1040.73 58.1905C1040.41 57.5125 1040.25 56.7322 1040.25 55.8496C1040.25 54.9708 1040.41 54.1905 1040.73 53.5087C1041.05 52.8231 1041.5 52.2871 1042.07 51.9007C1042.65 51.5106 1043.32 51.3155 1044.07 51.3155C1044.54 51.3155 1045 51.4026 1045.44 51.5769C1045.88 51.7473 1046.27 52.0106 1046.62 52.3667C1046.97 52.7189 1047.25 53.164 1047.46 53.7019C1047.66 54.236 1047.76 54.8685 1047.76 55.5996V56.0996H1040.94V55.2076H1046.73C1046.73 54.647 1046.61 54.1432 1046.39 53.6962C1046.16 53.2454 1045.85 52.8894 1045.45 52.628C1045.05 52.3667 1044.59 52.236 1044.07 52.236C1043.52 52.236 1043.03 52.3837 1042.61 52.6792C1042.19 52.9746 1041.86 53.3648 1041.62 53.8496C1041.39 54.3345 1041.27 54.8648 1041.26 55.4405V55.9746C1041.26 56.6678 1041.38 57.2739 1041.62 57.7928C1041.86 58.3079 1042.21 58.7076 1042.65 58.9917C1043.09 59.2757 1043.62 59.4178 1044.22 59.4178C1044.64 59.4178 1045 59.3534 1045.31 59.2246C1045.62 59.0958 1045.89 58.9235 1046.1 58.7076C1046.31 58.4879 1046.48 58.2473 1046.59 57.986L1047.55 58.2985C1047.41 58.6659 1047.2 59.0049 1046.89 59.3155C1046.59 59.6261 1046.22 59.8761 1045.77 60.0655C1045.32 60.2511 1044.81 60.3439 1044.22 60.3439ZM1051 54.7076V60.1621H1049.99V51.4348H1050.97V52.8042H1051.06C1051.27 52.3572 1051.59 51.9992 1052.02 51.7303C1052.46 51.4576 1052.99 51.3212 1053.63 51.3212C1054.22 51.3212 1054.74 51.4443 1055.18 51.6905C1055.63 51.9329 1055.97 52.2909 1056.22 52.7644C1056.47 53.2379 1056.59 53.8193 1056.59 54.5087V60.1621H1055.58V54.5712C1055.58 53.8553 1055.38 53.289 1054.98 52.8723C1054.58 52.4557 1054.05 52.2473 1053.38 52.2473C1052.92 52.2473 1052.51 52.3458 1052.16 52.5428C1051.8 52.7398 1051.52 53.0239 1051.31 53.3951C1051.1 53.7625 1051 54.2 1051 54.7076ZM1059.26 60.1621V51.4348H1060.24V52.7757H1060.31C1060.49 52.3364 1060.79 51.9822 1061.22 51.7132C1061.66 51.4405 1062.15 51.3042 1062.7 51.3042C1062.78 51.3042 1062.88 51.306 1062.98 51.3098C1063.08 51.3136 1063.17 51.3174 1063.23 51.3212V52.3496C1063.19 52.342 1063.11 52.3307 1063 52.3155C1062.88 52.3004 1062.76 52.2928 1062.63 52.2928C1062.17 52.2928 1061.77 52.3894 1061.41 52.5826C1061.06 52.772 1060.78 53.0352 1060.57 53.3723C1060.37 53.7095 1060.27 54.0939 1060.27 54.5257V60.1621H1059.26ZM1068.22 60.3439C1067.41 60.3439 1066.7 60.1545 1066.11 59.7757C1065.51 59.3932 1065.05 58.8648 1064.73 58.1905C1064.41 57.5125 1064.25 56.7322 1064.25 55.8496C1064.25 54.9708 1064.41 54.1905 1064.73 53.5087C1065.05 52.8231 1065.5 52.2871 1066.07 51.9007C1066.65 51.5106 1067.32 51.3155 1068.07 51.3155C1068.54 51.3155 1069 51.4026 1069.44 51.5769C1069.88 51.7473 1070.27 52.0106 1070.62 52.3667C1070.97 52.7189 1071.25 53.164 1071.46 53.7019C1071.66 54.236 1071.76 54.8685 1071.76 55.5996V56.0996H1064.94V55.2076H1070.73C1070.73 54.647 1070.61 54.1432 1070.39 53.6962C1070.16 53.2454 1069.85 52.8894 1069.45 52.628C1069.05 52.3667 1068.59 52.236 1068.07 52.236C1067.52 52.236 1067.03 52.3837 1066.61 52.6792C1066.19 52.9746 1065.86 53.3648 1065.62 53.8496C1065.39 54.3345 1065.27 54.8648 1065.26 55.4405V55.9746C1065.26 56.6678 1065.38 57.2739 1065.62 57.7928C1065.86 58.3079 1066.21 58.7076 1066.65 58.9917C1067.09 59.2757 1067.62 59.4178 1068.22 59.4178C1068.64 59.4178 1069 59.3534 1069.31 59.2246C1069.62 59.0958 1069.89 58.9235 1070.1 58.7076C1070.31 58.4879 1070.48 58.2473 1070.59 57.986L1071.55 58.2985C1071.41 58.6659 1071.2 59.0049 1070.89 59.3155C1070.59 59.6261 1070.22 59.8761 1069.77 60.0655C1069.32 60.2511 1068.81 60.3439 1068.22 60.3439ZM1082.04 48.5257V60.1621H1080.98V49.6394H1080.91L1078.18 51.4519V50.3496L1080.93 48.5257H1082.04Z" fill="#B1B1B1"/>
<rect x="1110.5" y="37.1621" width="79" height="34" rx="17" stroke="#D6C8B0"/>
<path d="M1131.1 52.1621C1130.99 51.7757 1130.83 51.414 1130.63 51.0769C1130.43 50.736 1130.17 50.4386 1129.87 50.1848C1129.57 49.9273 1129.22 49.7265 1128.83 49.5826C1128.44 49.4386 1128 49.3667 1127.52 49.3667C1126.76 49.3667 1126.09 49.5636 1125.49 49.9576C1124.89 50.3515 1124.42 50.9197 1124.07 51.6621C1123.72 52.4045 1123.55 53.2985 1123.55 54.3439C1123.55 55.3856 1123.72 56.2776 1124.07 57.0201C1124.42 57.7625 1124.9 58.3326 1125.51 58.7303C1126.12 59.1242 1126.81 59.3212 1127.6 59.3212C1128.31 59.3212 1128.94 59.1621 1129.49 58.8439C1130.04 58.5257 1130.47 58.0712 1130.78 57.4803C1131.09 56.8894 1131.24 56.1867 1131.23 55.3723L1131.57 55.4803H1127.85V54.5257H1132.27V55.4803C1132.27 56.4727 1132.07 57.3307 1131.66 58.0542C1131.26 58.7776 1130.71 59.3364 1130.01 59.7303C1129.31 60.1242 1128.51 60.3212 1127.6 60.3212C1126.58 60.3212 1125.69 60.0769 1124.93 59.5882C1124.17 59.0958 1123.58 58.4026 1123.15 57.5087C1122.73 56.611 1122.52 55.556 1122.52 54.3439C1122.52 53.431 1122.64 52.6072 1122.89 51.8723C1123.13 51.1375 1123.47 50.5087 1123.91 49.986C1124.36 49.4632 1124.89 49.0636 1125.5 48.7871C1126.11 48.5068 1126.78 48.3667 1127.52 48.3667C1128.16 48.3667 1128.74 48.467 1129.27 48.6678C1129.8 48.8685 1130.26 49.1451 1130.66 49.4973C1131.07 49.8458 1131.4 50.2492 1131.66 50.7076C1131.92 51.1621 1132.1 51.647 1132.19 52.1621H1131.1ZM1138.22 60.3439C1137.41 60.3439 1136.7 60.1545 1136.11 59.7757C1135.51 59.3932 1135.05 58.8648 1134.73 58.1905C1134.41 57.5125 1134.25 56.7322 1134.25 55.8496C1134.25 54.9708 1134.41 54.1905 1134.73 53.5087C1135.05 52.8231 1135.5 52.2871 1136.07 51.9007C1136.65 51.5106 1137.32 51.3155 1138.07 51.3155C1138.54 51.3155 1139 51.4026 1139.44 51.5769C1139.88 51.7473 1140.27 52.0106 1140.62 52.3667C1140.97 52.7189 1141.25 53.164 1141.46 53.7019C1141.66 54.236 1141.76 54.8685 1141.76 55.5996V56.0996H1134.94V55.2076H1140.73C1140.73 54.647 1140.61 54.1432 1140.39 53.6962C1140.16 53.2454 1139.85 52.8894 1139.45 52.628C1139.05 52.3667 1138.59 52.236 1138.07 52.236C1137.52 52.236 1137.03 52.3837 1136.61 52.6792C1136.19 52.9746 1135.86 53.3648 1135.62 53.8496C1135.39 54.3345 1135.27 54.8648 1135.26 55.4405V55.9746C1135.26 56.6678 1135.38 57.2739 1135.62 57.7928C1135.86 58.3079 1136.21 58.7076 1136.65 58.9917C1137.09 59.2757 1137.62 59.4178 1138.22 59.4178C1138.64 59.4178 1139 59.3534 1139.31 59.2246C1139.62 59.0958 1139.89 58.9235 1140.1 58.7076C1140.31 58.4879 1140.48 58.2473 1140.59 57.986L1141.55 58.2985C1141.41 58.6659 1141.2 59.0049 1140.89 59.3155C1140.59 59.6261 1140.22 59.8761 1139.77 60.0655C1139.32 60.2511 1138.81 60.3439 1138.22 60.3439ZM1145 54.7076V60.1621H1143.99V51.4348H1144.97V52.8042H1145.06C1145.27 52.3572 1145.59 51.9992 1146.02 51.7303C1146.46 51.4576 1146.99 51.3212 1147.63 51.3212C1148.22 51.3212 1148.74 51.4443 1149.18 51.6905C1149.63 51.9329 1149.97 52.2909 1150.22 52.7644C1150.47 53.2379 1150.59 53.8193 1150.59 54.5087V60.1621H1149.58V54.5712C1149.58 53.8553 1149.38 53.289 1148.98 52.8723C1148.58 52.4557 1148.05 52.2473 1147.38 52.2473C1146.92 52.2473 1146.51 52.3458 1146.16 52.5428C1145.8 52.7398 1145.52 53.0239 1145.31 53.3951C1145.1 53.7625 1145 54.2 1145 54.7076ZM1153.26 60.1621V51.4348H1154.24V52.7757H1154.31C1154.49 52.3364 1154.79 51.9822 1155.22 51.7132C1155.66 51.4405 1156.15 51.3042 1156.7 51.3042C1156.78 51.3042 1156.88 51.306 1156.98 51.3098C1157.08 51.3136 1157.17 51.3174 1157.23 51.3212V52.3496C1157.19 52.342 1157.11 52.3307 1157 52.3155C1156.88 52.3004 1156.76 52.2928 1156.63 52.2928C1156.17 52.2928 1155.77 52.3894 1155.41 52.5826C1155.06 52.772 1154.78 53.0352 1154.57 53.3723C1154.37 53.7095 1154.27 54.0939 1154.27 54.5257V60.1621H1153.26ZM1162.22 60.3439C1161.41 60.3439 1160.7 60.1545 1160.11 59.7757C1159.51 59.3932 1159.05 58.8648 1158.73 58.1905C1158.41 57.5125 1158.25 56.7322 1158.25 55.8496C1158.25 54.9708 1158.41 54.1905 1158.73 53.5087C1159.05 52.8231 1159.5 52.2871 1160.07 51.9007C1160.65 51.5106 1161.32 51.3155 1162.07 51.3155C1162.54 51.3155 1163 51.4026 1163.44 51.5769C1163.88 51.7473 1164.27 52.0106 1164.62 52.3667C1164.97 52.7189 1165.25 53.164 1165.46 53.7019C1165.66 54.236 1165.76 54.8685 1165.76 55.5996V56.0996H1158.94V55.2076H1164.73C1164.73 54.647 1164.61 54.1432 1164.39 53.6962C1164.16 53.2454 1163.85 52.8894 1163.45 52.628C1163.05 52.3667 1162.59 52.236 1162.07 52.236C1161.52 52.236 1161.03 52.3837 1160.61 52.6792C1160.19 52.9746 1159.86 53.3648 1159.62 53.8496C1159.39 54.3345 1159.27 54.8648 1159.26 55.4405V55.9746C1159.26 56.6678 1159.38 57.2739 1159.62 57.7928C1159.86 58.3079 1160.21 58.7076 1160.65 58.9917C1161.09 59.2757 1161.62 59.4178 1162.22 59.4178C1162.64 59.4178 1163 59.3534 1163.31 59.2246C1163.62 59.0958 1163.89 58.9235 1164.1 58.7076C1164.31 58.4879 1164.48 58.2473 1164.59 57.986L1165.55 58.2985C1165.41 58.6659 1165.2 59.0049 1164.89 59.3155C1164.59 59.6261 1164.22 59.8761 1163.77 60.0655C1163.32 60.2511 1162.81 60.3439 1162.22 60.3439ZM1176.04 48.5257V60.1621H1174.98V49.6394H1174.91L1172.18 51.4519V50.3496L1174.93 48.5257H1176.04Z" fill="#B1B1B1"/>
<path d="M102.189 387.935H103.245V394.173C103.245 394.73 103.143 395.203 102.939 395.593C102.734 395.982 102.446 396.277 102.073 396.479C101.701 396.681 101.262 396.781 100.757 396.781C100.279 396.781 99.8547 396.695 99.4826 396.521C99.1104 396.345 98.8178 396.095 98.6047 395.771C98.3917 395.448 98.2851 395.063 98.2851 394.617H99.3249C99.3249 394.864 99.386 395.08 99.5081 395.264C99.6331 395.446 99.8036 395.588 100.019 395.691C100.235 395.793 100.481 395.844 100.757 395.844C101.061 395.844 101.319 395.78 101.532 395.652C101.745 395.524 101.907 395.337 102.018 395.09C102.132 394.84 102.189 394.534 102.189 394.173V387.935ZM109.352 393.986V390.117H110.358V396.662H109.352V395.554H109.284C109.13 395.887 108.892 396.169 108.568 396.402C108.244 396.632 107.835 396.747 107.341 396.747C106.931 396.747 106.568 396.658 106.25 396.479C105.931 396.297 105.681 396.024 105.5 395.661C105.318 395.294 105.227 394.833 105.227 394.276V390.117H106.233V394.208C106.233 394.685 106.366 395.066 106.633 395.35C106.903 395.634 107.247 395.776 107.664 395.776C107.914 395.776 108.169 395.712 108.427 395.584C108.689 395.456 108.907 395.26 109.083 394.996C109.262 394.732 109.352 394.395 109.352 393.986ZM112.2 396.662V390.117H113.205V396.662H112.2ZM112.711 389.026C112.515 389.026 112.346 388.959 112.204 388.825C112.065 388.692 111.995 388.531 111.995 388.344C111.995 388.156 112.065 387.996 112.204 387.862C112.346 387.729 112.515 387.662 112.711 387.662C112.907 387.662 113.075 387.729 113.214 387.862C113.356 387.996 113.427 388.156 113.427 388.344C113.427 388.531 113.356 388.692 113.214 388.825C113.075 388.959 112.907 389.026 112.711 389.026ZM116.053 387.935V396.662H115.047V387.935H116.053ZM118.901 387.935V396.662H117.895V387.935H118.901ZM123.487 396.798C122.856 396.798 122.312 396.659 121.855 396.381C121.4 396.1 121.049 395.708 120.802 395.205C120.558 394.699 120.436 394.111 120.436 393.441C120.436 392.77 120.558 392.179 120.802 391.668C121.049 391.154 121.393 390.753 121.833 390.466C122.277 390.176 122.794 390.031 123.385 390.031C123.725 390.031 124.062 390.088 124.394 390.202C124.727 390.316 125.029 390.5 125.302 390.756C125.575 391.009 125.792 391.344 125.954 391.762C126.116 392.179 126.197 392.693 126.197 393.304V393.73H121.152V392.861H125.174C125.174 392.492 125.1 392.162 124.953 391.872C124.808 391.583 124.6 391.354 124.331 391.186C124.064 391.019 123.748 390.935 123.385 390.935C122.984 390.935 122.637 391.034 122.345 391.233C122.055 391.429 121.832 391.685 121.676 392C121.519 392.316 121.441 392.654 121.441 393.014V393.594C121.441 394.088 121.527 394.507 121.697 394.851C121.87 395.192 122.11 395.452 122.417 395.631C122.724 395.807 123.081 395.895 123.487 395.895C123.751 395.895 123.99 395.858 124.203 395.784C124.419 395.708 124.605 395.594 124.761 395.443C124.917 395.29 125.038 395.1 125.123 394.872L126.095 395.145C125.993 395.475 125.821 395.764 125.579 396.014C125.338 396.262 125.039 396.455 124.684 396.594C124.329 396.73 123.93 396.798 123.487 396.798ZM130.573 390.117V390.969H127.181V390.117H130.573ZM128.17 388.548H129.176V394.787C129.176 395.071 129.217 395.284 129.299 395.426C129.385 395.566 129.493 395.659 129.623 395.708C129.757 395.753 129.897 395.776 130.045 395.776C130.156 395.776 130.247 395.77 130.318 395.759C130.389 395.744 130.446 395.733 130.488 395.725L130.693 396.628C130.625 396.654 130.529 396.679 130.407 396.705C130.285 396.733 130.13 396.747 129.943 396.747C129.659 396.747 129.38 396.686 129.108 396.564C128.838 396.442 128.613 396.256 128.434 396.006C128.258 395.756 128.17 395.441 128.17 395.06V388.548Z" fill="#9DAFBD"/>
<path d="M300.918 396.662H299.81L303.015 387.935H304.105L307.31 396.662H306.202L303.594 389.316H303.526L300.918 396.662ZM301.327 393.253H305.793V394.191H301.327V393.253ZM311.192 396.798C310.601 396.798 310.083 396.658 309.637 396.377C309.194 396.095 308.847 395.702 308.597 395.196C308.35 394.691 308.226 394.1 308.226 393.423C308.226 392.742 308.35 392.146 308.597 391.638C308.847 391.129 309.194 390.735 309.637 390.453C310.083 390.172 310.601 390.031 311.192 390.031C311.783 390.031 312.3 390.172 312.743 390.453C313.189 390.735 313.536 391.129 313.783 391.638C314.033 392.146 314.158 392.742 314.158 393.423C314.158 394.1 314.033 394.691 313.783 395.196C313.536 395.702 313.189 396.095 312.743 396.377C312.3 396.658 311.783 396.798 311.192 396.798ZM311.192 395.895C311.641 395.895 312.01 395.78 312.3 395.55C312.59 395.32 312.804 395.017 312.944 394.642C313.083 394.267 313.152 393.861 313.152 393.423C313.152 392.986 313.083 392.578 312.944 392.2C312.804 391.823 312.59 391.517 312.3 391.284C312.01 391.051 311.641 390.935 311.192 390.935C310.743 390.935 310.374 391.051 310.084 391.284C309.794 391.517 309.58 391.823 309.441 392.2C309.301 392.578 309.232 392.986 309.232 393.423C309.232 393.861 309.301 394.267 309.441 394.642C309.58 395.017 309.794 395.32 310.084 395.55C310.374 395.78 310.743 395.895 311.192 395.895ZM319.818 393.986V390.117H320.824V396.662H319.818V395.554H319.75C319.597 395.887 319.358 396.169 319.034 396.402C318.71 396.632 318.301 396.747 317.807 396.747C317.398 396.747 317.034 396.658 316.716 396.479C316.398 396.297 316.148 396.024 315.966 395.661C315.784 395.294 315.693 394.833 315.693 394.276V390.117H316.699V394.208C316.699 394.685 316.832 395.066 317.099 395.35C317.369 395.634 317.713 395.776 318.131 395.776C318.381 395.776 318.635 395.712 318.893 395.584C319.155 395.456 319.374 395.26 319.55 394.996C319.729 394.732 319.818 394.395 319.818 393.986ZM319.153 389.333L318.267 388.139L317.381 389.333H316.426V389.264L317.807 387.492H318.727L320.108 389.264V389.333H319.153ZM325.512 390.117V390.969H322.12V390.117H325.512ZM323.109 388.548H324.115V394.787C324.115 395.071 324.156 395.284 324.238 395.426C324.324 395.566 324.431 395.659 324.562 395.708C324.696 395.753 324.836 395.776 324.984 395.776C325.095 395.776 325.186 395.77 325.257 395.759C325.328 395.744 325.385 395.733 325.427 395.725L325.632 396.628C325.564 396.654 325.468 396.679 325.346 396.705C325.224 396.733 325.069 396.747 324.882 396.747C324.598 396.747 324.319 396.686 324.047 396.564C323.777 396.442 323.552 396.256 323.373 396.006C323.197 395.756 323.109 395.441 323.109 395.06V388.548Z" fill="#9DAFBD"/>
<path d="M485.781 390.117C485.73 389.685 485.523 389.35 485.159 389.111C484.796 388.872 484.35 388.753 483.821 388.753C483.435 388.753 483.097 388.816 482.807 388.941C482.52 389.066 482.296 389.237 482.134 389.456C481.975 389.675 481.895 389.923 481.895 390.202C481.895 390.435 481.951 390.635 482.061 390.803C482.175 390.968 482.32 391.105 482.496 391.216C482.672 391.324 482.857 391.414 483.05 391.485C483.243 391.553 483.421 391.608 483.583 391.651L484.469 391.889C484.696 391.949 484.949 392.031 485.228 392.137C485.509 392.242 485.777 392.385 486.033 392.567C486.291 392.746 486.504 392.976 486.672 393.257C486.84 393.539 486.924 393.884 486.924 394.293C486.924 394.764 486.8 395.191 486.553 395.571C486.308 395.952 485.951 396.254 485.479 396.479C485.01 396.703 484.441 396.816 483.77 396.816C483.145 396.816 482.604 396.715 482.147 396.513C481.692 396.311 481.334 396.03 481.073 395.669C480.814 395.308 480.668 394.889 480.634 394.412H481.725C481.753 394.742 481.864 395.014 482.057 395.23C482.253 395.443 482.5 395.602 482.799 395.708C483.1 395.81 483.424 395.861 483.77 395.861C484.174 395.861 484.536 395.796 484.857 395.665C485.178 395.531 485.432 395.347 485.62 395.111C485.807 394.872 485.901 394.594 485.901 394.276C485.901 393.986 485.82 393.75 485.658 393.568C485.496 393.387 485.283 393.239 485.019 393.125C484.754 393.012 484.469 392.912 484.162 392.827L483.088 392.52C482.406 392.324 481.867 392.044 481.469 391.681C481.071 391.317 480.872 390.841 480.872 390.253C480.872 389.764 481.004 389.338 481.269 388.975C481.536 388.608 481.894 388.324 482.343 388.122C482.794 387.918 483.299 387.816 483.855 387.816C484.418 387.816 484.918 387.916 485.355 388.118C485.793 388.317 486.139 388.59 486.395 388.936C486.654 389.283 486.79 389.676 486.804 390.117H485.781ZM491.269 396.798C490.638 396.798 490.094 396.659 489.637 396.381C489.182 396.1 488.832 395.708 488.584 395.205C488.34 394.699 488.218 394.111 488.218 393.441C488.218 392.77 488.34 392.179 488.584 391.668C488.832 391.154 489.175 390.753 489.616 390.466C490.059 390.176 490.576 390.031 491.167 390.031C491.508 390.031 491.844 390.088 492.177 390.202C492.509 390.316 492.812 390.5 493.084 390.756C493.357 391.009 493.574 391.344 493.736 391.762C493.898 392.179 493.979 392.693 493.979 393.304V393.73H488.934V392.861H492.957C492.957 392.492 492.883 392.162 492.735 391.872C492.59 391.583 492.383 391.354 492.113 391.186C491.846 391.019 491.53 390.935 491.167 390.935C490.766 390.935 490.42 391.034 490.127 391.233C489.837 391.429 489.614 391.685 489.458 392C489.302 392.316 489.224 392.654 489.224 393.014V393.594C489.224 394.088 489.309 394.507 489.479 394.851C489.653 395.192 489.893 395.452 490.199 395.631C490.506 395.807 490.863 395.895 491.269 395.895C491.533 395.895 491.772 395.858 491.985 395.784C492.201 395.708 492.387 395.594 492.543 395.443C492.699 395.29 492.82 395.1 492.905 394.872L493.877 395.145C493.775 395.475 493.603 395.764 493.361 396.014C493.12 396.262 492.822 396.455 492.466 396.594C492.111 396.73 491.712 396.798 491.269 396.798ZM495.509 399.117V390.117H496.481V391.156H496.6C496.674 391.043 496.776 390.898 496.907 390.722C497.04 390.543 497.231 390.384 497.478 390.244C497.728 390.102 498.066 390.031 498.492 390.031C499.043 390.031 499.529 390.169 499.949 390.445C500.37 390.72 500.698 391.111 500.934 391.617C501.17 392.122 501.288 392.719 501.288 393.406C501.288 394.1 501.17 394.7 500.934 395.209C500.698 395.715 500.371 396.107 499.954 396.385C499.536 396.661 499.055 396.798 498.509 396.798C498.089 396.798 497.752 396.729 497.499 396.59C497.246 396.448 497.052 396.287 496.915 396.108C496.779 395.926 496.674 395.776 496.6 395.656H496.515V399.117H495.509ZM496.498 393.389C496.498 393.884 496.57 394.32 496.715 394.698C496.86 395.073 497.072 395.367 497.35 395.58C497.628 395.79 497.969 395.895 498.373 395.895C498.793 395.895 499.144 395.784 499.425 395.563C499.709 395.338 499.922 395.037 500.065 394.659C500.209 394.279 500.282 393.855 500.282 393.389C500.282 392.929 500.211 392.514 500.069 392.145C499.93 391.773 499.718 391.479 499.434 391.263C499.153 391.044 498.799 390.935 498.373 390.935C497.964 390.935 497.62 391.039 497.341 391.246C497.063 391.45 496.853 391.737 496.711 392.107C496.569 392.473 496.498 392.901 496.498 393.389ZM505.668 390.117V390.969H502.276V390.117H505.668ZM503.265 388.548H504.27V394.787C504.27 395.071 504.312 395.284 504.394 395.426C504.479 395.566 504.587 395.659 504.718 395.708C504.851 395.753 504.992 395.776 505.14 395.776C505.251 395.776 505.341 395.77 505.413 395.759C505.484 395.744 505.54 395.733 505.583 395.725L505.788 396.628C505.719 396.654 505.624 396.679 505.502 396.705C505.38 396.733 505.225 396.747 505.038 396.747C504.753 396.747 504.475 396.686 504.202 396.564C503.932 396.442 503.708 396.256 503.529 396.006C503.353 395.756 503.265 395.441 503.265 395.06V388.548ZM509.855 396.798C509.224 396.798 508.68 396.659 508.223 396.381C507.768 396.1 507.417 395.708 507.17 395.205C506.926 394.699 506.804 394.111 506.804 393.441C506.804 392.77 506.926 392.179 507.17 391.668C507.417 391.154 507.761 390.753 508.202 390.466C508.645 390.176 509.162 390.031 509.753 390.031C510.094 390.031 510.43 390.088 510.763 390.202C511.095 390.316 511.398 390.5 511.67 390.756C511.943 391.009 512.16 391.344 512.322 391.762C512.484 392.179 512.565 392.693 512.565 393.304V393.73H507.52V392.861H511.542C511.542 392.492 511.469 392.162 511.321 391.872C511.176 391.583 510.969 391.354 510.699 391.186C510.432 391.019 510.116 390.935 509.753 390.935C509.352 390.935 509.006 391.034 508.713 391.233C508.423 391.429 508.2 391.685 508.044 392C507.888 392.316 507.81 392.654 507.81 393.014V393.594C507.81 394.088 507.895 394.507 508.065 394.851C508.239 395.192 508.479 395.452 508.785 395.631C509.092 395.807 509.449 395.895 509.855 395.895C510.119 395.895 510.358 395.858 510.571 395.784C510.787 395.708 510.973 395.594 511.129 395.443C511.285 395.29 511.406 395.1 511.491 394.872L512.463 395.145C512.361 395.475 512.189 395.764 511.947 396.014C511.706 396.262 511.408 396.455 511.052 396.594C510.697 396.73 510.298 396.798 509.855 396.798ZM514.095 396.662V390.117H515.067V391.139H515.152C515.288 390.79 515.508 390.519 515.812 390.325C516.116 390.129 516.481 390.031 516.908 390.031C517.339 390.031 517.699 390.129 517.986 390.325C518.275 390.519 518.501 390.79 518.663 391.139H518.731C518.899 390.801 519.15 390.533 519.486 390.334C519.821 390.132 520.223 390.031 520.692 390.031C521.277 390.031 521.756 390.215 522.128 390.581C522.5 390.945 522.686 391.512 522.686 392.281V396.662H521.68V392.281C521.68 391.798 521.548 391.453 521.284 391.246C521.02 391.039 520.709 390.935 520.351 390.935C519.891 390.935 519.534 391.074 519.281 391.352C519.028 391.628 518.902 391.977 518.902 392.401V396.662H517.879V392.179C517.879 391.807 517.758 391.507 517.517 391.28C517.275 391.05 516.964 390.935 516.584 390.935C516.322 390.935 516.078 391.004 515.851 391.144C515.626 391.283 515.444 391.476 515.305 391.723C515.169 391.968 515.101 392.25 515.101 392.571V396.662H514.095ZM524.661 396.662V387.935H525.667V391.156H525.752C525.826 391.043 525.928 390.898 526.059 390.722C526.192 390.543 526.383 390.384 526.63 390.244C526.88 390.102 527.218 390.031 527.644 390.031C528.195 390.031 528.681 390.169 529.101 390.445C529.522 390.72 529.85 391.111 530.086 391.617C530.322 392.122 530.44 392.719 530.44 393.406C530.44 394.1 530.322 394.7 530.086 395.209C529.85 395.715 529.523 396.107 529.106 396.385C528.688 396.661 528.207 396.798 527.661 396.798C527.241 396.798 526.904 396.729 526.651 396.59C526.398 396.448 526.204 396.287 526.067 396.108C525.931 395.926 525.826 395.776 525.752 395.656H525.633V396.662H524.661ZM525.65 393.389C525.65 393.884 525.722 394.32 525.867 394.698C526.012 395.073 526.224 395.367 526.502 395.58C526.78 395.79 527.121 395.895 527.525 395.895C527.945 395.895 528.296 395.784 528.577 395.563C528.861 395.338 529.074 395.037 529.216 394.659C529.361 394.279 529.434 393.855 529.434 393.389C529.434 392.929 529.363 392.514 529.221 392.145C529.082 391.773 528.87 391.479 528.586 391.263C528.305 391.044 527.951 390.935 527.525 390.935C527.116 390.935 526.772 391.039 526.493 391.246C526.215 391.45 526.005 391.737 525.863 392.107C525.721 392.473 525.65 392.901 525.65 393.389ZM531.978 396.662V390.117H532.949V391.105H533.018C533.137 390.781 533.353 390.519 533.665 390.317C533.978 390.115 534.33 390.014 534.722 390.014C534.796 390.014 534.888 390.016 534.999 390.019C535.11 390.021 535.194 390.026 535.251 390.031V391.054C535.216 391.046 535.138 391.033 535.016 391.016C534.897 390.996 534.77 390.986 534.637 390.986C534.319 390.986 534.035 391.053 533.785 391.186C533.538 391.317 533.341 391.499 533.197 391.732C533.055 391.962 532.984 392.225 532.984 392.52V396.662H531.978ZM538.988 396.798C538.357 396.798 537.813 396.659 537.356 396.381C536.901 396.1 536.55 395.708 536.303 395.205C536.059 394.699 535.937 394.111 535.937 393.441C535.937 392.77 536.059 392.179 536.303 391.668C536.55 391.154 536.894 390.753 537.334 390.466C537.778 390.176 538.295 390.031 538.886 390.031C539.226 390.031 539.563 390.088 539.895 390.202C540.228 390.316 540.53 390.5 540.803 390.756C541.076 391.009 541.293 391.344 541.455 391.762C541.617 392.179 541.698 392.693 541.698 393.304V393.73H536.653V392.861H540.675C540.675 392.492 540.601 392.162 540.454 391.872C540.309 391.583 540.101 391.354 539.832 391.186C539.565 391.019 539.249 390.935 538.886 390.935C538.485 390.935 538.138 391.034 537.846 391.233C537.556 391.429 537.333 391.685 537.177 392C537.02 392.316 536.942 392.654 536.942 393.014V393.594C536.942 394.088 537.028 394.507 537.198 394.851C537.371 395.192 537.611 395.452 537.918 395.631C538.225 395.807 538.582 395.895 538.988 395.895C539.252 395.895 539.491 395.858 539.704 395.784C539.92 395.708 540.106 395.594 540.262 395.443C540.418 395.29 540.539 395.1 540.624 394.872L541.596 395.145C541.493 395.475 541.322 395.764 541.08 396.014C540.839 396.262 540.54 396.455 540.185 396.594C539.83 396.73 539.431 396.798 538.988 396.798Z" fill="#9DAFBD"/>
<path d="M694.878 392.298C694.878 393.219 694.712 394.014 694.379 394.685C694.047 395.355 693.591 395.872 693.011 396.236C692.432 396.6 691.77 396.781 691.025 396.781C690.281 396.781 689.619 396.6 689.04 396.236C688.46 395.872 688.004 395.355 687.672 394.685C687.339 394.014 687.173 393.219 687.173 392.298C687.173 391.378 687.339 390.583 687.672 389.912C688.004 389.242 688.46 388.725 689.04 388.361C689.619 387.997 690.281 387.816 691.025 387.816C691.77 387.816 692.432 387.997 693.011 388.361C693.591 388.725 694.047 389.242 694.379 389.912C694.712 390.583 694.878 391.378 694.878 392.298ZM693.855 392.298C693.855 391.543 693.729 390.905 693.476 390.385C693.226 389.865 692.886 389.472 692.457 389.205C692.031 388.938 691.554 388.804 691.025 388.804C690.497 388.804 690.018 388.938 689.589 389.205C689.163 389.472 688.824 389.865 688.571 390.385C688.321 390.905 688.196 391.543 688.196 392.298C688.196 393.054 688.321 393.692 688.571 394.212C688.824 394.732 689.163 395.125 689.589 395.392C690.018 395.659 690.497 395.793 691.025 395.793C691.554 395.793 692.031 395.659 692.457 395.392C692.886 395.125 693.226 394.732 693.476 394.212C693.729 393.692 693.855 393.054 693.855 392.298ZM699.177 396.798C698.564 396.798 698.035 396.654 697.592 396.364C697.149 396.074 696.808 395.675 696.57 395.166C696.331 394.658 696.212 394.077 696.212 393.423C696.212 392.759 696.334 392.172 696.578 391.664C696.825 391.152 697.169 390.753 697.609 390.466C698.052 390.176 698.57 390.031 699.16 390.031C699.621 390.031 700.035 390.117 700.405 390.287C700.774 390.458 701.077 390.696 701.312 391.003C701.548 391.31 701.695 391.668 701.751 392.077H700.746C700.669 391.779 700.498 391.514 700.234 391.284C699.973 391.051 699.621 390.935 699.177 390.935C698.785 390.935 698.442 391.037 698.146 391.242C697.854 391.443 697.625 391.729 697.46 392.098C697.298 392.465 697.217 392.895 697.217 393.389C697.217 393.895 697.297 394.335 697.456 394.71C697.618 395.085 697.845 395.377 698.138 395.584C698.433 395.791 698.78 395.895 699.177 395.895C699.439 395.895 699.676 395.85 699.889 395.759C700.102 395.668 700.283 395.537 700.43 395.367C700.578 395.196 700.683 394.992 700.746 394.753H701.751C701.695 395.139 701.554 395.487 701.329 395.797C701.108 396.104 700.814 396.348 700.447 396.53C700.084 396.709 699.66 396.798 699.177 396.798ZM706.068 390.117V390.969H702.676V390.117H706.068ZM703.665 388.548H704.67V394.787C704.67 395.071 704.712 395.284 704.794 395.426C704.879 395.566 704.987 395.659 705.118 395.708C705.251 395.753 705.392 395.776 705.54 395.776C705.65 395.776 705.741 395.77 705.812 395.759C705.883 395.744 705.94 395.733 705.983 395.725L706.187 396.628C706.119 396.654 706.024 396.679 705.902 396.705C705.78 396.733 705.625 396.747 705.437 396.747C705.153 396.747 704.875 396.686 704.602 396.564C704.332 396.442 704.108 396.256 703.929 396.006C703.753 395.756 703.665 395.441 703.665 395.06V388.548ZM710.17 396.798C709.579 396.798 709.06 396.658 708.614 396.377C708.171 396.095 707.824 395.702 707.574 395.196C707.327 394.691 707.204 394.1 707.204 393.423C707.204 392.742 707.327 392.146 707.574 391.638C707.824 391.129 708.171 390.735 708.614 390.453C709.06 390.172 709.579 390.031 710.17 390.031C710.761 390.031 711.278 390.172 711.721 390.453C712.167 390.735 712.513 391.129 712.761 391.638C713.011 392.146 713.136 392.742 713.136 393.423C713.136 394.1 713.011 394.691 712.761 395.196C712.513 395.702 712.167 396.095 711.721 396.377C711.278 396.658 710.761 396.798 710.17 396.798ZM710.17 395.895C710.619 395.895 710.988 395.78 711.278 395.55C711.567 395.32 711.782 395.017 711.921 394.642C712.06 394.267 712.13 393.861 712.13 393.423C712.13 392.986 712.06 392.578 711.921 392.2C711.782 391.823 711.567 391.517 711.278 391.284C710.988 391.051 710.619 390.935 710.17 390.935C709.721 390.935 709.351 391.051 709.062 391.284C708.772 391.517 708.557 391.823 708.418 392.2C708.279 392.578 708.209 392.986 708.209 393.423C708.209 393.861 708.279 394.267 708.418 394.642C708.557 395.017 708.772 395.32 709.062 395.55C709.351 395.78 709.721 395.895 710.17 395.895ZM714.807 396.662V387.935H715.813V391.156H715.898C715.972 391.043 716.074 390.898 716.205 390.722C716.338 390.543 716.529 390.384 716.776 390.244C717.026 390.102 717.364 390.031 717.79 390.031C718.341 390.031 718.827 390.169 719.247 390.445C719.668 390.72 719.996 391.111 720.232 391.617C720.468 392.122 720.586 392.719 720.586 393.406C720.586 394.1 720.468 394.7 720.232 395.209C719.996 395.715 719.669 396.107 719.252 396.385C718.834 396.661 718.353 396.798 717.807 396.798C717.387 396.798 717.05 396.729 716.797 396.59C716.544 396.448 716.35 396.287 716.213 396.108C716.077 395.926 715.972 395.776 715.898 395.656H715.779V396.662H714.807ZM715.796 393.389C715.796 393.884 715.868 394.32 716.013 394.698C716.158 395.073 716.37 395.367 716.648 395.58C716.926 395.79 717.267 395.895 717.671 395.895C718.091 395.895 718.442 395.784 718.723 395.563C719.007 395.338 719.22 395.037 719.362 394.659C719.507 394.279 719.58 393.855 719.58 393.389C719.58 392.929 719.509 392.514 719.367 392.145C719.228 391.773 719.016 391.479 718.732 391.263C718.451 391.044 718.097 390.935 717.671 390.935C717.262 390.935 716.918 391.039 716.639 391.246C716.361 391.45 716.151 391.737 716.009 392.107C715.867 392.473 715.796 392.901 715.796 393.389ZM722.124 396.662V390.117H723.095V391.105H723.164C723.283 390.781 723.499 390.519 723.811 390.317C724.124 390.115 724.476 390.014 724.868 390.014C724.942 390.014 725.034 390.016 725.145 390.019C725.256 390.021 725.34 390.026 725.397 390.031V391.054C725.362 391.046 725.284 391.033 725.162 391.016C725.043 390.996 724.916 390.986 724.783 390.986C724.465 390.986 724.181 391.053 723.931 391.186C723.684 391.317 723.487 391.499 723.343 391.732C723.201 391.962 723.13 392.225 723.13 392.52V396.662H722.124ZM729.134 396.798C728.503 396.798 727.959 396.659 727.502 396.381C727.047 396.1 726.696 395.708 726.449 395.205C726.205 394.699 726.083 394.111 726.083 393.441C726.083 392.77 726.205 392.179 726.449 391.668C726.696 391.154 727.04 390.753 727.48 390.466C727.924 390.176 728.441 390.031 729.032 390.031C729.372 390.031 729.709 390.088 730.041 390.202C730.374 390.316 730.676 390.5 730.949 390.756C731.222 391.009 731.439 391.344 731.601 391.762C731.763 392.179 731.844 392.693 731.844 393.304V393.73H726.799V392.861H730.821C730.821 392.492 730.747 392.162 730.6 391.872C730.455 391.583 730.247 391.354 729.978 391.186C729.711 391.019 729.395 390.935 729.032 390.935C728.631 390.935 728.284 391.034 727.992 391.233C727.702 391.429 727.479 391.685 727.323 392C727.166 392.316 727.088 392.654 727.088 393.014V393.594C727.088 394.088 727.174 394.507 727.344 394.851C727.517 395.192 727.757 395.452 728.064 395.631C728.371 395.807 728.728 395.895 729.134 395.895C729.398 395.895 729.637 395.858 729.85 395.784C730.066 395.708 730.252 395.594 730.408 395.443C730.564 395.29 730.685 395.1 730.77 394.872L731.742 395.145C731.639 395.475 731.468 395.764 731.226 396.014C730.985 396.262 730.686 396.455 730.331 396.594C729.976 396.73 729.577 396.798 729.134 396.798Z" fill="#9DAFBD"/>
<path d="M886.497 387.935V396.662H885.474L880.718 389.81H880.633V396.662H879.576V387.935H880.599L885.372 394.804H885.457V387.935H886.497ZM891.134 396.798C890.543 396.798 890.025 396.658 889.579 396.377C889.135 396.095 888.789 395.702 888.539 395.196C888.292 394.691 888.168 394.1 888.168 393.423C888.168 392.742 888.292 392.146 888.539 391.638C888.789 391.129 889.135 390.735 889.579 390.453C890.025 390.172 890.543 390.031 891.134 390.031C891.725 390.031 892.242 390.172 892.685 390.453C893.131 390.735 893.478 391.129 893.725 391.638C893.975 392.146 894.1 392.742 894.1 393.423C894.1 394.1 893.975 394.691 893.725 395.196C893.478 395.702 893.131 396.095 892.685 396.377C892.242 396.658 891.725 396.798 891.134 396.798ZM891.134 395.895C891.583 395.895 891.952 395.78 892.242 395.55C892.532 395.32 892.746 395.017 892.885 394.642C893.025 394.267 893.094 393.861 893.094 393.423C893.094 392.986 893.025 392.578 892.885 392.2C892.746 391.823 892.532 391.517 892.242 391.284C891.952 391.051 891.583 390.935 891.134 390.935C890.685 390.935 890.316 391.051 890.026 391.284C889.736 391.517 889.522 391.823 889.383 392.2C889.243 392.578 889.174 392.986 889.174 393.423C889.174 393.861 889.243 394.267 889.383 394.642C889.522 395.017 889.736 395.32 890.026 395.55C890.316 395.78 890.685 395.895 891.134 395.895ZM900.753 390.117L898.333 396.662H897.31L894.889 390.117H895.98L897.787 395.333H897.855L899.662 390.117H900.753ZM904.59 396.798C903.96 396.798 903.416 396.659 902.958 396.381C902.504 396.1 902.153 395.708 901.906 395.205C901.661 394.699 901.539 394.111 901.539 393.441C901.539 392.77 901.661 392.179 901.906 391.668C902.153 391.154 902.497 390.753 902.937 390.466C903.38 390.176 903.897 390.031 904.488 390.031C904.829 390.031 905.166 390.088 905.498 390.202C905.83 390.316 906.133 390.5 906.406 390.756C906.678 391.009 906.896 391.344 907.058 391.762C907.22 392.179 907.301 392.693 907.301 393.304V393.73H902.255V392.861H906.278C906.278 392.492 906.204 392.162 906.056 391.872C905.911 391.583 905.704 391.354 905.434 391.186C905.167 391.019 904.852 390.935 904.488 390.935C904.087 390.935 903.741 391.034 903.448 391.233C903.159 391.429 902.936 391.685 902.779 392C902.623 392.316 902.545 392.654 902.545 393.014V393.594C902.545 394.088 902.63 394.507 902.801 394.851C902.974 395.192 903.214 395.452 903.521 395.631C903.828 395.807 904.184 395.895 904.59 395.895C904.855 395.895 905.093 395.858 905.306 395.784C905.522 395.708 905.708 395.594 905.864 395.443C906.021 395.29 906.141 395.1 906.227 394.872L907.198 395.145C907.096 395.475 906.924 395.764 906.683 396.014C906.441 396.262 906.143 396.455 905.788 396.594C905.433 396.73 905.034 396.798 904.59 396.798ZM908.83 396.662V390.117H909.802V391.139H909.887C910.024 390.79 910.244 390.519 910.548 390.325C910.852 390.129 911.217 390.031 911.643 390.031C912.075 390.031 912.434 390.129 912.721 390.325C913.011 390.519 913.237 390.79 913.399 391.139H913.467C913.634 390.801 913.886 390.533 914.221 390.334C914.556 390.132 914.958 390.031 915.427 390.031C916.012 390.031 916.491 390.215 916.863 390.581C917.235 390.945 917.421 391.512 917.421 392.281V396.662H916.416V392.281C916.416 391.798 916.284 391.453 916.019 391.246C915.755 391.039 915.444 390.935 915.086 390.935C914.626 390.935 914.269 391.074 914.016 391.352C913.764 391.628 913.637 391.977 913.637 392.401V396.662H912.614V392.179C912.614 391.807 912.494 391.507 912.252 391.28C912.011 391.05 911.7 390.935 911.319 390.935C911.058 390.935 910.813 391.004 910.586 391.144C910.362 391.283 910.18 391.476 910.041 391.723C909.904 391.968 909.836 392.25 909.836 392.571V396.662H908.83ZM919.396 396.662V387.935H920.402V391.156H920.487C920.561 391.043 920.663 390.898 920.794 390.722C920.928 390.543 921.118 390.384 921.365 390.244C921.615 390.102 921.953 390.031 922.379 390.031C922.931 390.031 923.416 390.169 923.837 390.445C924.257 390.72 924.585 391.111 924.821 391.617C925.057 392.122 925.175 392.719 925.175 393.406C925.175 394.1 925.057 394.7 924.821 395.209C924.585 395.715 924.259 396.107 923.841 396.385C923.423 396.661 922.942 396.798 922.396 396.798C921.976 396.798 921.639 396.729 921.387 396.59C921.134 396.448 920.939 396.287 920.803 396.108C920.666 395.926 920.561 395.776 920.487 395.656H920.368V396.662H919.396ZM920.385 393.389C920.385 393.884 920.458 394.32 920.602 394.698C920.747 395.073 920.959 395.367 921.237 395.58C921.516 395.79 921.857 395.895 922.26 395.895C922.681 395.895 923.031 395.784 923.313 395.563C923.597 395.338 923.81 395.037 923.952 394.659C924.097 394.279 924.169 393.855 924.169 393.389C924.169 392.929 924.098 392.514 923.956 392.145C923.817 391.773 923.605 391.479 923.321 391.263C923.04 391.044 922.686 390.935 922.26 390.935C921.851 390.935 921.507 391.039 921.229 391.246C920.95 391.45 920.74 391.737 920.598 392.107C920.456 392.473 920.385 392.901 920.385 393.389ZM926.713 396.662V390.117H927.685V391.105H927.753C927.872 390.781 928.088 390.519 928.401 390.317C928.713 390.115 929.065 390.014 929.458 390.014C929.531 390.014 929.624 390.016 929.735 390.019C929.845 390.021 929.929 390.026 929.986 390.031V391.054C929.952 391.046 929.874 391.033 929.752 391.016C929.632 390.996 929.506 390.986 929.372 390.986C929.054 390.986 928.77 391.053 928.52 391.186C928.273 391.317 928.077 391.499 927.932 391.732C927.79 391.962 927.719 392.225 927.719 392.52V396.662H926.713ZM933.723 396.798C933.092 396.798 932.548 396.659 932.091 396.381C931.637 396.1 931.286 395.708 931.038 395.205C930.794 394.699 930.672 394.111 930.672 393.441C930.672 392.77 930.794 392.179 931.038 391.668C931.286 391.154 931.629 390.753 932.07 390.466C932.513 390.176 933.03 390.031 933.621 390.031C933.962 390.031 934.298 390.088 934.631 390.202C934.963 390.316 935.266 390.5 935.538 390.756C935.811 391.009 936.029 391.344 936.19 391.762C936.352 392.179 936.433 392.693 936.433 393.304V393.73H931.388V392.861H935.411C935.411 392.492 935.337 392.162 935.189 391.872C935.044 391.583 934.837 391.354 934.567 391.186C934.3 391.019 933.985 390.935 933.621 390.935C933.22 390.935 932.874 391.034 932.581 391.233C932.291 391.429 932.068 391.685 931.912 392C931.756 392.316 931.678 392.654 931.678 393.014V393.594C931.678 394.088 931.763 394.507 931.933 394.851C932.107 395.192 932.347 395.452 932.654 395.631C932.96 395.807 933.317 395.895 933.723 395.895C933.987 395.895 934.226 395.858 934.439 395.784C934.655 395.708 934.841 395.594 934.997 395.443C935.154 395.29 935.274 395.1 935.36 394.872L936.331 395.145C936.229 395.475 936.057 395.764 935.815 396.014C935.574 396.262 935.276 396.455 934.921 396.594C934.565 396.73 934.166 396.798 933.723 396.798Z" fill="#9DAFBD"/>
<path d="M1080.64 396.662H1077.95V387.935H1080.76C1081.61 387.935 1082.33 388.11 1082.93 388.459C1083.54 388.806 1084 389.304 1084.32 389.955C1084.64 390.602 1084.8 391.378 1084.8 392.281C1084.8 393.191 1084.64 393.973 1084.32 394.629C1083.99 395.283 1083.52 395.786 1082.9 396.138C1082.28 396.487 1081.53 396.662 1080.64 396.662ZM1079.01 395.725H1080.57C1081.3 395.725 1081.89 395.585 1082.37 395.307C1082.84 395.029 1083.2 394.632 1083.43 394.118C1083.66 393.604 1083.78 392.992 1083.78 392.281C1083.78 391.577 1083.66 390.97 1083.43 390.462C1083.2 389.95 1082.86 389.558 1082.4 389.286C1081.94 389.01 1081.38 388.872 1080.69 388.872H1079.01V395.725ZM1089.18 396.798C1088.55 396.798 1088.01 396.659 1087.55 396.381C1087.1 396.1 1086.74 395.708 1086.5 395.205C1086.25 394.699 1086.13 394.111 1086.13 393.441C1086.13 392.77 1086.25 392.179 1086.5 391.668C1086.74 391.154 1087.09 390.753 1087.53 390.466C1087.97 390.176 1088.49 390.031 1089.08 390.031C1089.42 390.031 1089.76 390.088 1090.09 390.202C1090.42 390.316 1090.72 390.5 1091 390.756C1091.27 391.009 1091.49 391.344 1091.65 391.762C1091.81 392.179 1091.89 392.693 1091.89 393.304V393.73H1086.85V392.861H1090.87C1090.87 392.492 1090.8 392.162 1090.65 391.872C1090.5 391.583 1090.3 391.354 1090.03 391.186C1089.76 391.019 1089.44 390.935 1089.08 390.935C1088.68 390.935 1088.33 391.034 1088.04 391.233C1087.75 391.429 1087.53 391.685 1087.37 392C1087.21 392.316 1087.14 392.654 1087.14 393.014V393.594C1087.14 394.088 1087.22 394.507 1087.39 394.851C1087.57 395.192 1087.81 395.452 1088.11 395.631C1088.42 395.807 1088.78 395.895 1089.18 395.895C1089.45 395.895 1089.68 395.858 1089.9 395.784C1090.11 395.708 1090.3 395.594 1090.46 395.443C1090.61 395.29 1090.73 395.1 1090.82 394.872L1091.79 395.145C1091.69 395.475 1091.52 395.764 1091.27 396.014C1091.03 396.262 1090.73 396.455 1090.38 396.594C1090.02 396.73 1089.63 396.798 1089.18 396.798ZM1096.08 396.798C1095.47 396.798 1094.94 396.654 1094.5 396.364C1094.05 396.074 1093.71 395.675 1093.47 395.166C1093.23 394.658 1093.12 394.077 1093.12 393.423C1093.12 392.759 1093.24 392.172 1093.48 391.664C1093.73 391.152 1094.07 390.753 1094.51 390.466C1094.96 390.176 1095.47 390.031 1096.06 390.031C1096.52 390.031 1096.94 390.117 1097.31 390.287C1097.68 390.458 1097.98 390.696 1098.22 391.003C1098.45 391.31 1098.6 391.668 1098.66 392.077H1097.65C1097.57 391.779 1097.4 391.514 1097.14 391.284C1096.88 391.051 1096.52 390.935 1096.08 390.935C1095.69 390.935 1095.35 391.037 1095.05 391.242C1094.76 391.443 1094.53 391.729 1094.36 392.098C1094.2 392.465 1094.12 392.895 1094.12 393.389C1094.12 393.895 1094.2 394.335 1094.36 394.71C1094.52 395.085 1094.75 395.377 1095.04 395.584C1095.34 395.791 1095.68 395.895 1096.08 395.895C1096.34 395.895 1096.58 395.85 1096.79 395.759C1097.01 395.668 1097.19 395.537 1097.33 395.367C1097.48 395.196 1097.59 394.992 1097.65 394.753H1098.66C1098.6 395.139 1098.46 395.487 1098.23 395.797C1098.01 396.104 1097.72 396.348 1097.35 396.53C1096.99 396.709 1096.56 396.798 1096.08 396.798ZM1102.87 396.798C1102.24 396.798 1101.69 396.659 1101.24 396.381C1100.78 396.1 1100.43 395.708 1100.18 395.205C1099.94 394.699 1099.82 394.111 1099.82 393.441C1099.82 392.77 1099.94 392.179 1100.18 391.668C1100.43 391.154 1100.78 390.753 1101.22 390.466C1101.66 390.176 1102.18 390.031 1102.77 390.031C1103.11 390.031 1103.44 390.088 1103.78 390.202C1104.11 390.316 1104.41 390.5 1104.68 390.756C1104.96 391.009 1105.18 391.344 1105.34 391.762C1105.5 392.179 1105.58 392.693 1105.58 393.304V393.73H1100.53V392.861H1104.56C1104.56 392.492 1104.48 392.162 1104.34 391.872C1104.19 391.583 1103.98 391.354 1103.71 391.186C1103.45 391.019 1103.13 390.935 1102.77 390.935C1102.37 390.935 1102.02 391.034 1101.73 391.233C1101.44 391.429 1101.21 391.685 1101.06 392C1100.9 392.316 1100.82 392.654 1100.82 393.014V393.594C1100.82 394.088 1100.91 394.507 1101.08 394.851C1101.25 395.192 1101.49 395.452 1101.8 395.631C1102.11 395.807 1102.46 395.895 1102.87 395.895C1103.13 395.895 1103.37 395.858 1103.59 395.784C1103.8 395.708 1103.99 395.594 1104.14 395.443C1104.3 395.29 1104.42 395.1 1104.51 394.872L1105.48 395.145C1105.38 395.475 1105.2 395.764 1104.96 396.014C1104.72 396.262 1104.42 396.455 1104.07 396.594C1103.71 396.73 1103.31 396.798 1102.87 396.798ZM1107.11 396.662V390.117H1108.08V391.139H1108.17C1108.3 390.79 1108.52 390.519 1108.83 390.325C1109.13 390.129 1109.5 390.031 1109.92 390.031C1110.35 390.031 1110.71 390.129 1111 390.325C1111.29 390.519 1111.52 390.79 1111.68 391.139H1111.75C1111.91 390.801 1112.17 390.533 1112.5 390.334C1112.84 390.132 1113.24 390.031 1113.71 390.031C1114.29 390.031 1114.77 390.215 1115.14 390.581C1115.51 390.945 1115.7 391.512 1115.7 392.281V396.662H1114.69V392.281C1114.69 391.798 1114.56 391.453 1114.3 391.246C1114.03 391.039 1113.72 390.935 1113.37 390.935C1112.91 390.935 1112.55 391.074 1112.3 391.352C1112.04 391.628 1111.92 391.977 1111.92 392.401V396.662H1110.89V392.179C1110.89 391.807 1110.77 391.507 1110.53 391.28C1110.29 391.05 1109.98 390.935 1109.6 390.935C1109.34 390.935 1109.09 391.004 1108.87 391.144C1108.64 391.283 1108.46 391.476 1108.32 391.723C1108.18 391.968 1108.12 392.25 1108.12 392.571V396.662H1107.11ZM1117.68 396.662V387.935H1118.68V391.156H1118.77C1118.84 391.043 1118.94 390.898 1119.07 390.722C1119.21 390.543 1119.4 390.384 1119.64 390.244C1119.89 390.102 1120.23 390.031 1120.66 390.031C1121.21 390.031 1121.7 390.169 1122.12 390.445C1122.54 390.72 1122.86 391.111 1123.1 391.617C1123.34 392.122 1123.45 392.719 1123.45 393.406C1123.45 394.1 1123.34 394.7 1123.1 395.209C1122.86 395.715 1122.54 396.107 1122.12 396.385C1121.7 396.661 1121.22 396.798 1120.68 396.798C1120.26 396.798 1119.92 396.729 1119.67 396.59C1119.41 396.448 1119.22 396.287 1119.08 396.108C1118.95 395.926 1118.84 395.776 1118.77 395.656H1118.65V396.662H1117.68ZM1118.66 393.389C1118.66 393.884 1118.74 394.32 1118.88 394.698C1119.03 395.073 1119.24 395.367 1119.52 395.58C1119.8 395.79 1120.14 395.895 1120.54 395.895C1120.96 395.895 1121.31 395.784 1121.59 395.563C1121.88 395.338 1122.09 395.037 1122.23 394.659C1122.38 394.279 1122.45 393.855 1122.45 393.389C1122.45 392.929 1122.38 392.514 1122.24 392.145C1122.1 391.773 1121.88 391.479 1121.6 391.263C1121.32 391.044 1120.97 390.935 1120.54 390.935C1120.13 390.935 1119.79 391.039 1119.51 391.246C1119.23 391.45 1119.02 391.737 1118.88 392.107C1118.74 392.473 1118.66 392.901 1118.66 393.389ZM1124.99 396.662V390.117H1125.96V391.105H1126.03C1126.15 390.781 1126.37 390.519 1126.68 390.317C1126.99 390.115 1127.34 390.014 1127.74 390.014C1127.81 390.014 1127.9 390.016 1128.01 390.019C1128.12 390.021 1128.21 390.026 1128.27 390.031V391.054C1128.23 391.046 1128.15 391.033 1128.03 391.016C1127.91 390.996 1127.79 390.986 1127.65 390.986C1127.33 390.986 1127.05 391.053 1126.8 391.186C1126.55 391.317 1126.36 391.499 1126.21 391.732C1126.07 391.962 1126 392.225 1126 392.52V396.662H1124.99ZM1132 396.798C1131.37 396.798 1130.83 396.659 1130.37 396.381C1129.92 396.1 1129.56 395.708 1129.32 395.205C1129.07 394.699 1128.95 394.111 1128.95 393.441C1128.95 392.77 1129.07 392.179 1129.32 391.668C1129.56 391.154 1129.91 390.753 1130.35 390.466C1130.79 390.176 1131.31 390.031 1131.9 390.031C1132.24 390.031 1132.58 390.088 1132.91 390.202C1133.24 390.316 1133.55 390.5 1133.82 390.756C1134.09 391.009 1134.31 391.344 1134.47 391.762C1134.63 392.179 1134.71 392.693 1134.71 393.304V393.73H1129.67V392.861H1133.69C1133.69 392.492 1133.62 392.162 1133.47 391.872C1133.32 391.583 1133.12 391.354 1132.85 391.186C1132.58 391.019 1132.26 390.935 1131.9 390.935C1131.5 390.935 1131.15 391.034 1130.86 391.233C1130.57 391.429 1130.35 391.685 1130.19 392C1130.04 392.316 1129.96 392.654 1129.96 393.014V393.594C1129.96 394.088 1130.04 394.507 1130.21 394.851C1130.39 395.192 1130.63 395.452 1130.93 395.631C1131.24 395.807 1131.6 395.895 1132 395.895C1132.27 395.895 1132.51 395.858 1132.72 395.784C1132.93 395.708 1133.12 395.594 1133.28 395.443C1133.43 395.29 1133.55 395.1 1133.64 394.872L1134.61 395.145C1134.51 395.475 1134.34 395.764 1134.09 396.014C1133.85 396.262 1133.56 396.455 1133.2 396.594C1132.84 396.73 1132.45 396.798 1132 396.798Z" fill="#9DAFBD"/>
<path d="M112.051 290.273L313.057 311.788L510.825 258.001L704.485 268.758L904.914 136.44L1102.62 258.001" stroke="#B1B1B1" stroke-width="2" stroke-linecap="round" stroke-linejoin="round"/>
<rect x="108.981" y="283.667" width="11.2084" height="12.1364" rx="5.60419" fill="#B1B1B1" stroke="#B1B1B1" stroke-width="4"/>
<rect x="309.732" y="305.182" width="11.2084" height="12.1364" rx="5.60419" fill="#B1B1B1" stroke="#B1B1B1" stroke-width="4"/>
<rect x="506.427" y="251.394" width="11.2084" height="12.1364" rx="5.60419" fill="#B1B1B1" stroke="#B1B1B1" stroke-width="4"/>
<rect x="701.094" y="261.076" width="11.2084" height="12.1364" rx="5.60419" fill="#B1B1B1" stroke="#B1B1B1" stroke-width="4"/>
<rect x="901.845" y="130.909" width="11.2084" height="12.1364" rx="5.60419" fill="#B1B1B1" stroke="#B1B1B1" stroke-width="4"/>
<rect x="1098.54" y="252.47" width="11.2084" height="12.1364" rx="5.60419" fill="#B1B1B1" stroke="#B1B1B1" stroke-width="4"/>
<g filter="url(#filter1_d_2385_700)">
<path d="M99.9243 309.667L303.378 239.667L503.554 279.667L699.571 199.667L902.441 166.667L1102.56 199.667" stroke="#D6C8B0" stroke-width="2" stroke-linecap="round" stroke-linejoin="round"/>
</g>
<g filter="url(#filter2_d_2385_700)">
<rect x="94.793" y="301.667" width="15.3935" height="15" rx="7.5" fill="white"/>
<rect x="96.793" y="303.667" width="11.3935" height="11" rx="5.5" stroke="#EDEDED" stroke-width="4"/>
</g>
<g filter="url(#filter3_d_2385_700)">
<rect x="297.988" y="232.667" width="15.3935" height="15" rx="7.5" fill="white"/>
<rect x="299.988" y="234.667" width="11.3935" height="11" rx="5.5" stroke="#EDEDED" stroke-width="4"/>
</g>
<g filter="url(#filter4_d_2385_700)">
<rect x="497.078" y="271.667" width="15.3935" height="15" rx="7.5" fill="white"/>
<rect x="499.078" y="273.667" width="11.3935" height="11" rx="5.5" stroke="#EDEDED" stroke-width="4"/>
</g>
<g filter="url(#filter5_d_2385_700)">
<rect x="694.115" y="191.667" width="15.3935" height="15" rx="7.5" fill="white"/>
<rect x="696.115" y="193.667" width="11.3935" height="11" rx="5.5" stroke="#EDEDED" stroke-width="4"/>
</g>
<g filter="url(#filter6_d_2385_700)">
<rect x="897.31" y="159.667" width="15.3935" height="15" rx="7.5" fill="white"/>
<rect x="899.31" y="161.667" width="11.3935" height="11" rx="5.5" stroke="#EDEDED" stroke-width="4"/>
</g>
<g filter="url(#filter7_d_2385_700)">
<rect x="1096.4" y="191.667" width="15.3935" height="15" rx="7.5" fill="white"/>
<rect x="1098.4" y="193.667" width="11.3935" height="11" rx="5.5" stroke="#EDEDED" stroke-width="4"/>
</g>
<g filter="url(#filter8_d_2385_700)">
<path d="M768 101.667C770.761 101.667 773 103.905 773 106.667V178.068C773 180.829 770.761 183.068 768 183.068H707.289L702.507 191.208L697.726 183.068H636C633.239 183.068 631 180.829 631 178.068V106.667C631 103.905 633.239 101.667 636 101.667H768Z" fill="#2A2A2E"/>
</g>
<path d="M664.396 147.636V139.199H665.827V147.636H664.396ZM660.893 144.134V142.702H669.33V144.134H660.893ZM681.886 150.116C681.042 150.116 680.29 149.972 679.629 149.682C678.973 149.392 678.451 148.989 678.063 148.474C677.68 147.954 677.471 147.351 677.437 146.665H679.048C679.082 147.087 679.227 147.451 679.482 147.758C679.738 148.06 680.073 148.295 680.486 148.461C680.899 148.627 681.357 148.71 681.86 148.71C682.423 148.71 682.921 148.612 683.356 148.416C683.791 148.22 684.132 147.947 684.379 147.598C684.626 147.249 684.749 146.844 684.749 146.384C684.749 145.902 684.63 145.478 684.392 145.112C684.153 144.741 683.803 144.451 683.343 144.242C682.883 144.033 682.32 143.929 681.656 143.929H680.607V142.523H681.656C682.176 142.523 682.632 142.429 683.024 142.241C683.42 142.054 683.729 141.79 683.95 141.449C684.176 141.108 684.289 140.707 684.289 140.247C684.289 139.804 684.191 139.418 683.995 139.09C683.799 138.762 683.522 138.506 683.164 138.323C682.811 138.14 682.393 138.048 681.911 138.048C681.46 138.048 681.034 138.131 680.633 138.298C680.237 138.46 679.913 138.696 679.661 139.007C679.41 139.314 679.274 139.685 679.252 140.119H677.718C677.744 139.433 677.95 138.832 678.338 138.317C678.726 137.797 679.233 137.392 679.86 137.102C680.49 136.812 681.183 136.668 681.937 136.668C682.747 136.668 683.441 136.832 684.021 137.16C684.6 137.484 685.046 137.912 685.357 138.445C685.668 138.977 685.823 139.553 685.823 140.17C685.823 140.908 685.629 141.536 685.242 142.056C684.858 142.576 684.336 142.936 683.676 143.136V143.239C684.502 143.375 685.148 143.727 685.612 144.293C686.077 144.856 686.309 145.553 686.309 146.384C686.309 147.095 686.115 147.734 685.727 148.301C685.344 148.864 684.82 149.307 684.155 149.631C683.49 149.955 682.734 150.116 681.886 150.116ZM693.014 150.116C692.264 150.116 691.589 149.967 690.988 149.669C690.387 149.371 689.906 148.962 689.544 148.442C689.181 147.922 688.983 147.33 688.949 146.665H690.483C690.543 147.257 690.811 147.747 691.289 148.135C691.77 148.518 692.345 148.71 693.014 148.71C693.551 148.71 694.029 148.585 694.446 148.333C694.868 148.082 695.198 147.737 695.437 147.298C695.68 146.854 695.801 146.354 695.801 145.795C695.801 145.224 695.676 144.715 695.424 144.268C695.177 143.816 694.836 143.46 694.401 143.2C693.967 142.94 693.47 142.808 692.912 142.804C692.512 142.8 692.1 142.862 691.678 142.989C691.257 143.113 690.909 143.273 690.637 143.469L689.154 143.29L689.946 136.847H696.747V138.253H691.276L690.816 142.114H690.892C691.161 141.901 691.497 141.724 691.902 141.583C692.307 141.442 692.729 141.372 693.168 141.372C693.969 141.372 694.683 141.564 695.309 141.947C695.94 142.327 696.434 142.847 696.792 143.507C697.154 144.168 697.335 144.922 697.335 145.77C697.335 146.605 697.148 147.351 696.773 148.007C696.402 148.659 695.891 149.175 695.239 149.554C694.587 149.929 693.845 150.116 693.014 150.116ZM700.507 150.04C700.192 150.04 699.922 149.927 699.696 149.701C699.47 149.475 699.357 149.205 699.357 148.889C699.357 148.574 699.47 148.303 699.696 148.077C699.922 147.852 700.192 147.739 700.507 147.739C700.823 147.739 701.093 147.852 701.319 148.077C701.545 148.303 701.658 148.574 701.658 148.889C701.658 149.098 701.605 149.29 701.498 149.464C701.396 149.639 701.257 149.78 701.083 149.886C700.912 149.989 700.721 150.04 700.507 150.04ZM708.167 150.116C707.417 150.116 706.741 149.967 706.14 149.669C705.54 149.371 705.058 148.962 704.696 148.442C704.334 147.922 704.135 147.33 704.101 146.665H705.635C705.695 147.257 705.964 147.747 706.441 148.135C706.922 148.518 707.498 148.71 708.167 148.71C708.704 148.71 709.181 148.585 709.599 148.333C710.02 148.082 710.351 147.737 710.589 147.298C710.832 146.854 710.954 146.354 710.954 145.795C710.954 145.224 710.828 144.715 710.577 144.268C710.329 143.816 709.988 143.46 709.554 143.2C709.119 142.94 708.623 142.808 708.064 142.804C707.664 142.8 707.253 142.862 706.831 142.989C706.409 143.113 706.062 143.273 705.789 143.469L704.306 143.29L705.099 136.847H711.9V138.253H706.428L705.968 142.114H706.045C706.313 141.901 706.65 141.724 707.055 141.583C707.459 141.442 707.881 141.372 708.32 141.372C709.121 141.372 709.835 141.564 710.461 141.947C711.092 142.327 711.586 142.847 711.944 143.507C712.307 144.168 712.488 144.922 712.488 145.77C712.488 146.605 712.3 147.351 711.925 148.007C711.555 148.659 711.043 149.175 710.391 149.554C709.739 149.929 708.998 150.116 708.167 150.116ZM719.45 150.116C718.607 150.116 717.854 149.972 717.194 149.682C716.538 149.392 716.016 148.989 715.628 148.474C715.244 147.954 715.036 147.351 715.001 146.665H716.612C716.646 147.087 716.791 147.451 717.047 147.758C717.303 148.06 717.637 148.295 718.05 148.461C718.464 148.627 718.922 148.71 719.425 148.71C719.987 148.71 720.486 148.612 720.92 148.416C721.355 148.22 721.696 147.947 721.943 147.598C722.19 147.249 722.314 146.844 722.314 146.384C722.314 145.902 722.195 145.478 721.956 145.112C721.717 144.741 721.368 144.451 720.908 144.242C720.447 144.033 719.885 143.929 719.22 143.929H718.172V142.523H719.22C719.74 142.523 720.196 142.429 720.588 142.241C720.984 142.054 721.293 141.79 721.515 141.449C721.741 141.108 721.854 140.707 721.854 140.247C721.854 139.804 721.756 139.418 721.56 139.09C721.364 138.762 721.087 138.506 720.729 138.323C720.375 138.14 719.957 138.048 719.476 138.048C719.024 138.048 718.598 138.131 718.197 138.298C717.801 138.46 717.477 138.696 717.226 139.007C716.974 139.314 716.838 139.685 716.817 140.119H715.283C715.308 139.433 715.515 138.832 715.903 138.317C716.29 137.797 716.798 137.392 717.424 137.102C718.055 136.812 718.747 136.668 719.501 136.668C720.311 136.668 721.006 136.832 721.585 137.16C722.165 137.484 722.61 137.912 722.921 138.445C723.232 138.977 723.388 139.553 723.388 140.17C723.388 140.908 723.194 141.536 722.806 142.056C722.423 142.576 721.901 142.936 721.24 143.136V143.239C722.067 143.375 722.712 143.727 723.177 144.293C723.641 144.856 723.874 145.553 723.874 146.384C723.874 147.095 723.68 147.734 723.292 148.301C722.908 148.864 722.384 149.307 721.719 149.631C721.055 149.955 720.298 150.116 719.45 150.116ZM738.224 147.483V146.793C738.224 146.315 738.322 145.879 738.518 145.482C738.718 145.082 739.008 144.762 739.387 144.523C739.771 144.281 740.235 144.159 740.781 144.159C741.335 144.159 741.799 144.281 742.174 144.523C742.549 144.762 742.832 145.082 743.024 145.482C743.216 145.879 743.312 146.315 743.312 146.793V147.483C743.312 147.96 743.214 148.399 743.018 148.8C742.826 149.196 742.54 149.516 742.161 149.759C741.786 149.997 741.326 150.116 740.781 150.116C740.227 150.116 739.76 149.997 739.381 149.759C739.001 149.516 738.714 149.196 738.518 148.8C738.322 148.399 738.224 147.96 738.224 147.483ZM739.528 146.793V147.483C739.528 147.879 739.621 148.235 739.809 148.55C739.996 148.862 740.32 149.017 740.781 149.017C741.228 149.017 741.543 148.862 741.727 148.55C741.914 148.235 742.008 147.879 742.008 147.483V146.793C742.008 146.396 741.918 146.043 741.739 145.732C741.56 145.416 741.241 145.259 740.781 145.259C740.333 145.259 740.011 145.416 739.815 145.732C739.624 146.043 739.528 146.396 739.528 146.793ZM731.704 139.991V139.301C731.704 138.824 731.802 138.387 731.998 137.991C732.198 137.59 732.488 137.271 732.867 137.032C733.251 136.789 733.715 136.668 734.261 136.668C734.815 136.668 735.279 136.789 735.654 137.032C736.029 137.271 736.313 137.59 736.504 137.991C736.696 138.387 736.792 138.824 736.792 139.301V139.991C736.792 140.469 736.694 140.908 736.498 141.308C736.306 141.705 736.021 142.024 735.641 142.267C735.266 142.506 734.806 142.625 734.261 142.625C733.707 142.625 733.24 142.506 732.861 142.267C732.482 142.024 732.194 141.705 731.998 141.308C731.802 140.908 731.704 140.469 731.704 139.991ZM733.008 139.301V139.991C733.008 140.388 733.102 140.744 733.289 141.059C733.477 141.37 733.8 141.526 734.261 141.526C734.708 141.526 735.023 141.37 735.207 141.059C735.394 140.744 735.488 140.388 735.488 139.991V139.301C735.488 138.905 735.398 138.551 735.219 138.24C735.04 137.925 734.721 137.767 734.261 137.767C733.813 137.767 733.491 137.925 733.295 138.24C733.104 138.551 733.008 138.905 733.008 139.301ZM732.19 149.938L741.19 136.847H742.647L733.647 149.938H732.19Z" fill="white"/>
</g>
<defs>
<filter id="filter0_d_2385_700" x="0.428053" y="0.114228" width="1229.19" height="464.192" filterUnits="userSpaceOnUse" color-interpolation-filters="sRGB">
<feFlood flood-opacity="0" result="BackgroundImageFix"/>
<feColorMatrix in="SourceAlpha" type="matrix" values="0 0 0 0 0 0 0 0 0 0 0 0 0 0 0 0 0 0 127 0" result="hardAlpha"/>
<feMorphology radius="2" operator="dilate" in="SourceAlpha" result="effect1_dropShadow_2385_700"/>
<feOffset dx="1.02407" dy="2.04813"/>
<feGaussianBlur stdDeviation="6.29801"/>
<feComposite in2="hardAlpha" operator="out"/>
<feColorMatrix type="matrix" values="0 0 0 0 0 0 0 0 0 0 0 0 0 0 0 0 0 0 0.1 0"/>
<feBlend mode="normal" in2="BackgroundImageFix" result="effect1_dropShadow_2385_700"/>
<feBlend mode="normal" in="SourceGraphic" in2="effect1_dropShadow_2385_700" result="shape"/>
</filter>
<filter id="filter1_d_2385_700" x="68.9238" y="155.667" width="1064.63" height="205" filterUnits="userSpaceOnUse" color-interpolation-filters="sRGB">
<feFlood flood-opacity="0" result="BackgroundImageFix"/>
<feColorMatrix in="SourceAlpha" type="matrix" values="0 0 0 0 0 0 0 0 0 0 0 0 0 0 0 0 0 0 127 0" result="hardAlpha"/>
<feOffset dy="20"/>
<feGaussianBlur stdDeviation="15"/>
<feColorMatrix type="matrix" values="0 0 0 0 0 0 0 0 0 0 0 0 0 0 0 0 0 0 0.5 0"/>
<feBlend mode="normal" in2="BackgroundImageFix" result="effect1_dropShadow_2385_700"/>
<feBlend mode="normal" in="SourceGraphic" in2="effect1_dropShadow_2385_700" result="shape"/>
</filter>
<filter id="filter2_d_2385_700" x="74.793" y="291.667" width="55.3936" height="55" filterUnits="userSpaceOnUse" color-interpolation-filters="sRGB">
<feFlood flood-opacity="0" result="BackgroundImageFix"/>
<feColorMatrix in="SourceAlpha" type="matrix" values="0 0 0 0 0 0 0 0 0 0 0 0 0 0 0 0 0 0 127 0" result="hardAlpha"/>
<feOffset dy="10"/>
<feGaussianBlur stdDeviation="10"/>
<feColorMatrix type="matrix" values="0 0 0 0 0 0 0 0 0 0 0 0 0 0 0 0 0 0 0.3 0"/>
<feBlend mode="normal" in2="BackgroundImageFix" result="effect1_dropShadow_2385_700"/>
<feBlend mode="normal" in="SourceGraphic" in2="effect1_dropShadow_2385_700" result="shape"/>
</filter>
<filter id="filter3_d_2385_700" x="277.988" y="222.667" width="55.3936" height="55" filterUnits="userSpaceOnUse" color-interpolation-filters="sRGB">
<feFlood flood-opacity="0" result="BackgroundImageFix"/>
<feColorMatrix in="SourceAlpha" type="matrix" values="0 0 0 0 0 0 0 0 0 0 0 0 0 0 0 0 0 0 127 0" result="hardAlpha"/>
<feOffset dy="10"/>
<feGaussianBlur stdDeviation="10"/>
<feColorMatrix type="matrix" values="0 0 0 0 0 0 0 0 0 0 0 0 0 0 0 0 0 0 0.3 0"/>
<feBlend mode="normal" in2="BackgroundImageFix" result="effect1_dropShadow_2385_700"/>
<feBlend mode="normal" in="SourceGraphic" in2="effect1_dropShadow_2385_700" result="shape"/>
</filter>
<filter id="filter4_d_2385_700" x="477.078" y="261.667" width="55.3936" height="55" filterUnits="userSpaceOnUse" color-interpolation-filters="sRGB">
<feFlood flood-opacity="0" result="BackgroundImageFix"/>
<feColorMatrix in="SourceAlpha" type="matrix" values="0 0 0 0 0 0 0 0 0 0 0 0 0 0 0 0 0 0 127 0" result="hardAlpha"/>
<feOffset dy="10"/>
<feGaussianBlur stdDeviation="10"/>
<feColorMatrix type="matrix" values="0 0 0 0 0 0 0 0 0 0 0 0 0 0 0 0 0 0 0.3 0"/>
<feBlend mode="normal" in2="BackgroundImageFix" result="effect1_dropShadow_2385_700"/>
<feBlend mode="normal" in="SourceGraphic" in2="effect1_dropShadow_2385_700" result="shape"/>
</filter>
<filter id="filter5_d_2385_700" x="674.115" y="181.667" width="55.3936" height="55" filterUnits="userSpaceOnUse" color-interpolation-filters="sRGB">
<feFlood flood-opacity="0" result="BackgroundImageFix"/>
<feColorMatrix in="SourceAlpha" type="matrix" values="0 0 0 0 0 0 0 0 0 0 0 0 0 0 0 0 0 0 127 0" result="hardAlpha"/>
<feOffset dy="10"/>
<feGaussianBlur stdDeviation="10"/>
<feColorMatrix type="matrix" values="0 0 0 0 0 0 0 0 0 0 0 0 0 0 0 0 0 0 0.3 0"/>
<feBlend mode="normal" in2="BackgroundImageFix" result="effect1_dropShadow_2385_700"/>
<feBlend mode="normal" in="SourceGraphic" in2="effect1_dropShadow_2385_700" result="shape"/>
</filter>
<filter id="filter6_d_2385_700" x="877.31" y="149.667" width="55.3936" height="55" filterUnits="userSpaceOnUse" color-interpolation-filters="sRGB">
<feFlood flood-opacity="0" result="BackgroundImageFix"/>
<feColorMatrix in="SourceAlpha" type="matrix" values="0 0 0 0 0 0 0 0 0 0 0 0 0 0 0 0 0 0 127 0" result="hardAlpha"/>
<feOffset dy="10"/>
<feGaussianBlur stdDeviation="10"/>
<feColorMatrix type="matrix" values="0 0 0 0 0 0 0 0 0 0 0 0 0 0 0 0 0 0 0.3 0"/>
<feBlend mode="normal" in2="BackgroundImageFix" result="effect1_dropShadow_2385_700"/>
<feBlend mode="normal" in="SourceGraphic" in2="effect1_dropShadow_2385_700" result="shape"/>
</filter>
<filter id="filter7_d_2385_700" x="1076.4" y="181.667" width="55.3936" height="55" filterUnits="userSpaceOnUse" color-interpolation-filters="sRGB">
<feFlood flood-opacity="0" result="BackgroundImageFix"/>
<feColorMatrix in="SourceAlpha" type="matrix" values="0 0 0 0 0 0 0 0 0 0 0 0 0 0 0 0 0 0 127 0" result="hardAlpha"/>
<feOffset dy="10"/>
<feGaussianBlur stdDeviation="10"/>
<feColorMatrix type="matrix" values="0 0 0 0 0 0 0 0 0 0 0 0 0 0 0 0 0 0 0.3 0"/>
<feBlend mode="normal" in2="BackgroundImageFix" result="effect1_dropShadow_2385_700"/>
<feBlend mode="normal" in="SourceGraphic" in2="effect1_dropShadow_2385_700" result="shape"/>
</filter>
<filter id="filter8_d_2385_700" x="591" y="81.6667" width="222" height="169.541" filterUnits="userSpaceOnUse" color-interpolation-filters="sRGB">
<feFlood flood-opacity="0" result="BackgroundImageFix"/>
<feColorMatrix in="SourceAlpha" type="matrix" values="0 0 0 0 0 0 0 0 0 0 0 0 0 0 0 0 0 0 127 0" result="hardAlpha"/>
<feOffset dy="20"/>
<feGaussianBlur stdDeviation="20"/>
<feColorMatrix type="matrix" values="0 0 0 0 0 0 0 0 0 0 0 0 0 0 0 0 0 0 0.3 0"/>
<feBlend mode="normal" in2="BackgroundImageFix" result="effect1_dropShadow_2385_700"/>
<feBlend mode="normal" in="SourceGraphic" in2="effect1_dropShadow_2385_700" result="shape"/>
</filter>
</defs>
</svg>
