<svg width="325" height="164" viewBox="0 0 325 164" fill="none" xmlns="http://www.w3.org/2000/svg">
<g filter="url(#filter0_d_2385_1851)">
<rect x="14" y="12.9977" width="295" height="134" rx="8" fill="#2A2A2E" shape-rendering="crispEdges"/>
<path d="M56.396 59.3257L47.36 80.9977H41.06L50.204 60.0097H39.008V54.7537H56.396V59.3257ZM59.1016 62.1337C59.1976 59.5657 60.0376 57.5857 61.6216 56.1937C63.2056 54.8017 65.3536 54.1057 68.0656 54.1057C69.8656 54.1057 71.4016 54.4177 72.6736 55.0417C73.9696 55.6657 74.9416 56.5177 75.5896 57.5977C76.2616 58.6777 76.5976 59.8897 76.5976 61.2337C76.5976 62.8177 76.2016 64.1137 75.4096 65.1217C74.6176 66.1057 73.6936 66.7777 72.6376 67.1377V67.2817C74.0056 67.7377 75.0856 68.4937 75.8776 69.5497C76.6696 70.6057 77.0656 71.9617 77.0656 73.6177C77.0656 75.1057 76.7176 76.4257 76.0216 77.5777C75.3496 78.7057 74.3536 79.5937 73.0336 80.2417C71.7376 80.8897 70.1896 81.2137 68.3896 81.2137C65.5096 81.2137 63.2056 80.5057 61.4776 79.0897C59.7736 77.6737 58.8736 75.5377 58.7776 72.6817H64.7536C64.7776 73.7377 65.0776 74.5777 65.6536 75.2017C66.2296 75.8017 67.0696 76.1017 68.1736 76.1017C69.1096 76.1017 69.8296 75.8377 70.3336 75.3097C70.8616 74.7577 71.1256 74.0377 71.1256 73.1497C71.1256 71.9977 70.7536 71.1697 70.0096 70.6657C69.2896 70.1377 68.1256 69.8737 66.5176 69.8737H65.3656V64.8697H66.5176C67.7416 64.8697 68.7256 64.6657 69.4696 64.2577C70.2376 63.8257 70.6216 63.0697 70.6216 61.9897C70.6216 61.1257 70.3816 60.4537 69.9016 59.9737C69.4216 59.4937 68.7616 59.2537 67.9216 59.2537C67.0096 59.2537 66.3256 59.5297 65.8696 60.0817C65.4376 60.6337 65.1856 61.3177 65.1136 62.1337H59.1016ZM93.6425 60.6937C95.9465 60.6937 97.7945 61.4617 99.1865 62.9977C100.579 64.5097 101.275 66.5977 101.275 69.2617V80.9977H95.1545V70.0897C95.1545 68.7457 94.8065 67.7017 94.1105 66.9577C93.4145 66.2137 92.4785 65.8417 91.3025 65.8417C90.1265 65.8417 89.1905 66.2137 88.4945 66.9577C87.7985 67.7017 87.4505 68.7457 87.4505 70.0897V80.9977H81.2945V54.3577H87.4505V63.6097C88.0745 62.7217 88.9265 62.0137 90.0065 61.4857C91.0865 60.9577 92.2985 60.6937 93.6425 60.6937Z" fill="#EDEDED"/>
<path d="M39.0568 100.998V92.2704H42.0057C42.6903 92.2704 43.25 92.394 43.6847 92.6411C44.1222 92.8855 44.446 93.2164 44.6562 93.634C44.8665 94.0517 44.9716 94.5176 44.9716 95.0318C44.9716 95.546 44.8665 96.0133 44.6562 96.4338C44.4489 96.8542 44.1278 97.1894 43.6932 97.4394C43.2585 97.6866 42.7017 97.8102 42.0227 97.8102H39.9091V96.8727H41.9886C42.4574 96.8727 42.8338 96.7917 43.1179 96.6298C43.402 96.4679 43.608 96.2491 43.7358 95.9735C43.8665 95.6951 43.9318 95.3812 43.9318 95.0318C43.9318 94.6823 43.8665 94.3698 43.7358 94.0943C43.608 93.8187 43.4006 93.6028 43.1136 93.4465C42.8267 93.2875 42.446 93.2079 41.9716 93.2079H40.1136V100.998H39.0568ZM48.4638 101.151C48.049 101.151 47.6726 101.073 47.3345 100.917C46.9964 100.758 46.728 100.529 46.5291 100.231C46.3303 99.9295 46.2308 99.5659 46.2308 99.1397C46.2308 98.7647 46.3047 98.4607 46.4524 98.2278C46.6001 97.992 46.7976 97.8073 47.0447 97.6738C47.2919 97.5403 47.5646 97.4409 47.8629 97.3755C48.1641 97.3073 48.4666 97.2534 48.7706 97.2136C49.1683 97.1625 49.4908 97.1241 49.7379 97.0985C49.9879 97.0701 50.1697 97.0232 50.2834 96.9579C50.3999 96.8926 50.4581 96.7789 50.4581 96.617V96.5829C50.4581 96.1625 50.343 95.8357 50.1129 95.6028C49.8857 95.3698 49.5405 95.2534 49.0774 95.2534C48.5973 95.2534 48.2209 95.3585 47.9482 95.5687C47.6754 95.7789 47.4837 96.0034 47.3729 96.242L46.4183 95.9011C46.5888 95.5034 46.8161 95.1937 47.1001 94.9721C47.3871 94.7477 47.6996 94.5914 48.0376 94.5034C48.3786 94.4125 48.7138 94.367 49.0433 94.367C49.2536 94.367 49.495 94.3926 49.7678 94.4437C50.0433 94.492 50.3089 94.5929 50.5646 94.7463C50.8232 94.8997 51.0376 95.1312 51.2081 95.4409C51.3786 95.7505 51.4638 96.1653 51.4638 96.6852V100.998H50.4581V100.111H50.407C50.3388 100.253 50.2251 100.405 50.0661 100.567C49.907 100.729 49.6953 100.867 49.4311 100.981C49.1669 101.094 48.8445 101.151 48.4638 101.151ZM48.6172 100.248C49.0149 100.248 49.3501 100.17 49.6229 100.013C49.8984 99.8571 50.1058 99.6554 50.245 99.4082C50.3871 99.161 50.4581 98.9011 50.4581 98.6284V97.7079C50.4155 97.759 50.3217 97.8059 50.1768 97.8485C50.0348 97.8883 49.87 97.9238 49.6825 97.9551C49.4979 97.9835 49.3175 98.009 49.1413 98.0318C48.968 98.0517 48.8274 98.0687 48.7195 98.0829C48.4581 98.117 48.2138 98.1724 47.9865 98.2491C47.7621 98.323 47.5803 98.4352 47.4411 98.5857C47.3047 98.7335 47.2365 98.9352 47.2365 99.1909C47.2365 99.5403 47.3658 99.8045 47.6243 99.9835C47.8857 100.16 48.2166 100.248 48.6172 100.248ZM57.9357 95.9181L57.0323 96.1738C56.9755 96.0232 56.8917 95.8769 56.7809 95.7349C56.6729 95.59 56.5252 95.4707 56.3377 95.3769C56.1502 95.2832 55.9102 95.2363 55.6175 95.2363C55.217 95.2363 54.8832 95.3286 54.6161 95.5133C54.3519 95.6951 54.2198 95.9267 54.2198 96.2079C54.2198 96.4579 54.3107 96.6554 54.4925 96.8002C54.6744 96.9451 54.9585 97.0659 55.3448 97.1625L56.3164 97.4011C56.9016 97.5431 57.3377 97.7605 57.6246 98.0531C57.9116 98.3429 58.055 98.7164 58.055 99.1738C58.055 99.5488 57.9471 99.884 57.7312 100.179C57.5181 100.475 57.2198 100.708 56.8363 100.878C56.4528 101.049 56.0067 101.134 55.4982 101.134C54.8306 101.134 54.2781 100.989 53.8406 100.699C53.4031 100.41 53.1261 99.9863 53.0096 99.4295L53.9641 99.1909C54.055 99.5431 54.2269 99.8073 54.4798 99.9835C54.7354 100.16 55.0692 100.248 55.4812 100.248C55.9499 100.248 56.3221 100.148 56.5977 99.9494C56.8761 99.7477 57.0153 99.5062 57.0153 99.225C57.0153 98.9977 56.9357 98.8073 56.7766 98.6539C56.6175 98.4977 56.3732 98.3812 56.0437 98.3045L54.9528 98.0488C54.3533 97.9068 53.913 97.6866 53.6317 97.3883C53.3533 97.0872 53.2141 96.7107 53.2141 96.259C53.2141 95.8897 53.3178 95.563 53.5252 95.2789C53.7354 94.9948 54.021 94.7718 54.3817 94.6099C54.7454 94.448 55.1573 94.367 55.6175 94.367C56.2653 94.367 56.7738 94.509 57.1431 94.7931C57.5153 95.0772 57.7795 95.4522 57.9357 95.9181ZM64.2053 95.9181L63.3018 96.1738C63.245 96.0232 63.1612 95.8769 63.0504 95.7349C62.9425 95.59 62.7947 95.4707 62.6072 95.3769C62.4197 95.2832 62.1797 95.2363 61.8871 95.2363C61.4865 95.2363 61.1527 95.3286 60.8857 95.5133C60.6214 95.6951 60.4893 95.9267 60.4893 96.2079C60.4893 96.4579 60.5803 96.6554 60.7621 96.8002C60.9439 96.9451 61.228 97.0659 61.6143 97.1625L62.5859 97.4011C63.1712 97.5431 63.6072 97.7605 63.8942 98.0531C64.1811 98.3429 64.3246 98.7164 64.3246 99.1738C64.3246 99.5488 64.2166 99.884 64.0007 100.179C63.7876 100.475 63.4893 100.708 63.1058 100.878C62.7223 101.049 62.2763 101.134 61.7678 101.134C61.1001 101.134 60.5476 100.989 60.1101 100.699C59.6726 100.41 59.3956 99.9863 59.2791 99.4295L60.2337 99.1909C60.3246 99.5431 60.4964 99.8073 60.7493 99.9835C61.005 100.16 61.3388 100.248 61.7507 100.248C62.2195 100.248 62.5916 100.148 62.8672 99.9494C63.1456 99.7477 63.2848 99.5062 63.2848 99.225C63.2848 98.9977 63.2053 98.8073 63.0462 98.6539C62.8871 98.4977 62.6428 98.3812 62.3132 98.3045L61.2223 98.0488C60.6229 97.9068 60.1825 97.6866 59.9013 97.3883C59.6229 97.0872 59.4837 96.7107 59.4837 96.259C59.4837 95.8897 59.5874 95.563 59.7947 95.2789C60.005 94.9948 60.2905 94.7718 60.6513 94.6099C61.0149 94.448 61.4268 94.367 61.8871 94.367C62.5348 94.367 63.0433 94.509 63.4126 94.7931C63.7848 95.0772 64.049 95.4522 64.2053 95.9181ZM68.5827 101.134C67.9521 101.134 67.408 100.995 66.9506 100.716C66.4961 100.435 66.1452 100.043 65.8981 99.5403C65.6538 99.0346 65.5316 98.4465 65.5316 97.7761C65.5316 97.1056 65.6538 96.5147 65.8981 96.0034C66.1452 95.4892 66.489 95.0886 66.9293 94.8017C67.3725 94.5119 67.8896 94.367 68.4805 94.367C68.8214 94.367 69.158 94.4238 69.4904 94.5375C69.8228 94.6511 70.1254 94.8357 70.3981 95.0914C70.6708 95.3443 70.8881 95.6795 71.0501 96.0971C71.212 96.5147 71.293 97.0289 71.293 97.6397V98.0659H66.2475V97.1965H70.2702C70.2702 96.8272 70.1964 96.4977 70.0487 96.2079C69.9038 95.9181 69.6964 95.6894 69.4265 95.5218C69.1594 95.3542 68.8441 95.2704 68.4805 95.2704C68.0799 95.2704 67.7333 95.3698 67.4407 95.5687C67.1509 95.7647 66.9279 96.0204 66.7717 96.3357C66.6154 96.6511 66.5373 96.9892 66.5373 97.35V97.9295C66.5373 98.4238 66.6225 98.8429 66.793 99.1866C66.9663 99.5275 67.2063 99.7875 67.5131 99.9664C67.82 100.143 68.1765 100.231 68.5827 100.231C68.8469 100.231 69.0856 100.194 69.2987 100.12C69.5146 100.043 69.7006 99.9295 69.8569 99.7789C70.0131 99.6255 70.1339 99.4352 70.2191 99.2079L71.1907 99.4806C71.0884 99.8102 70.9165 100.1 70.6751 100.35C70.4336 100.597 70.1353 100.79 69.7802 100.929C69.4251 101.066 69.0259 101.134 68.5827 101.134ZM67.9691 93.5659L69.0089 91.5886H70.185L68.8555 93.5659H67.9691ZM75.5671 101.134C74.9364 101.134 74.3924 100.995 73.935 100.716C73.4805 100.435 73.1296 100.043 72.8825 99.5403C72.6381 99.0346 72.516 98.4465 72.516 97.7761C72.516 97.1056 72.6381 96.5147 72.8825 96.0034C73.1296 95.4892 73.4734 95.0886 73.9137 94.8017C74.3569 94.5119 74.8739 94.367 75.4648 94.367C75.8058 94.367 76.1424 94.4238 76.4748 94.5375C76.8072 94.6511 77.1097 94.8357 77.3825 95.0914C77.6552 95.3443 77.8725 95.6795 78.0344 96.0971C78.1964 96.5147 78.2773 97.0289 78.2773 97.6397V98.0659H73.2319V97.1965H77.2546C77.2546 96.8272 77.1808 96.4977 77.033 96.2079C76.8881 95.9181 76.6808 95.6894 76.4109 95.5218C76.1438 95.3542 75.8285 95.2704 75.4648 95.2704C75.0643 95.2704 74.7177 95.3698 74.4251 95.5687C74.1353 95.7647 73.9123 96.0204 73.756 96.3357C73.5998 96.6511 73.5217 96.9892 73.5217 97.35V97.9295C73.5217 98.4238 73.6069 98.8429 73.7773 99.1866C73.9506 99.5275 74.1907 99.7875 74.4975 99.9664C74.8043 100.143 75.1609 100.231 75.5671 100.231C75.8313 100.231 76.07 100.194 76.283 100.12C76.4989 100.043 76.685 99.9295 76.8413 99.7789C76.9975 99.6255 77.1183 99.4352 77.2035 99.2079L78.1751 99.4806C78.0728 99.8102 77.9009 100.1 77.6594 100.35C77.418 100.597 77.1197 100.79 76.7646 100.929C76.4094 101.066 76.0103 101.134 75.5671 101.134ZM84.4435 95.9181L83.5401 96.1738C83.4833 96.0232 83.3995 95.8769 83.2887 95.7349C83.1808 95.59 83.033 95.4707 82.8455 95.3769C82.658 95.2832 82.418 95.2363 82.1254 95.2363C81.7248 95.2363 81.391 95.3286 81.1239 95.5133C80.8597 95.6951 80.7276 95.9267 80.7276 96.2079C80.7276 96.4579 80.8185 96.6554 81.0004 96.8002C81.1822 96.9451 81.4663 97.0659 81.8526 97.1625L82.8242 97.4011C83.4094 97.5431 83.8455 97.7605 84.1325 98.0531C84.4194 98.3429 84.5629 98.7164 84.5629 99.1738C84.5629 99.5488 84.4549 99.884 84.239 100.179C84.0259 100.475 83.7276 100.708 83.3441 100.878C82.9606 101.049 82.5146 101.134 82.006 101.134C81.3384 101.134 80.7859 100.989 80.3484 100.699C79.9109 100.41 79.6339 99.9863 79.5174 99.4295L80.4719 99.1909C80.5629 99.5431 80.7347 99.8073 80.9876 99.9835C81.2433 100.16 81.5771 100.248 81.989 100.248C82.4577 100.248 82.8299 100.148 83.1055 99.9494C83.3839 99.7477 83.5231 99.5062 83.5231 99.225C83.5231 98.9977 83.4435 98.8073 83.2844 98.6539C83.1254 98.4977 82.881 98.3812 82.5515 98.3045L81.4606 98.0488C80.8612 97.9068 80.4208 97.6866 80.1396 97.3883C79.8612 97.0872 79.7219 96.7107 79.7219 96.259C79.7219 95.8897 79.8256 95.563 80.033 95.2789C80.2433 94.9948 80.5288 94.7718 80.8896 94.6099C81.2532 94.448 81.6651 94.367 82.1254 94.367C82.7731 94.367 83.2816 94.509 83.6509 94.7931C84.0231 95.0772 84.2873 95.4522 84.4435 95.9181ZM91.9233 101.134C91.3778 101.134 90.8963 100.996 90.4787 100.721C90.0611 100.442 89.7344 100.05 89.4986 99.5446C89.2628 99.036 89.1449 98.4352 89.1449 97.742C89.1449 97.0545 89.2628 96.4579 89.4986 95.9522C89.7344 95.4465 90.0625 95.0559 90.483 94.7804C90.9034 94.5048 91.3892 94.367 91.9403 94.367C92.3665 94.367 92.7031 94.438 92.9503 94.5801C93.2003 94.7193 93.3906 94.8784 93.5213 95.0573C93.6548 95.2335 93.7585 95.3784 93.8324 95.492H93.9176V92.2704H94.9233V100.998H93.9517V99.992H93.8324C93.7585 100.111 93.6534 100.262 93.517 100.444C93.3807 100.623 93.1861 100.783 92.9332 100.925C92.6804 101.064 92.3438 101.134 91.9233 101.134ZM92.0597 100.231C92.4631 100.231 92.804 100.126 93.0824 99.9153C93.3608 99.7022 93.5724 99.4082 93.7173 99.0332C93.8622 98.6554 93.9347 98.2193 93.9347 97.725C93.9347 97.2363 93.8636 96.8088 93.7216 96.4423C93.5795 96.073 93.3693 95.786 93.0909 95.5815C92.8125 95.3741 92.4688 95.2704 92.0597 95.2704C91.6335 95.2704 91.2784 95.3798 90.9943 95.5985C90.7131 95.8144 90.5014 96.1085 90.3594 96.4806C90.2202 96.85 90.1506 97.2647 90.1506 97.725C90.1506 98.1909 90.2216 98.6142 90.3636 98.9948C90.5085 99.3727 90.7216 99.6738 91.0028 99.8982C91.2869 100.12 91.6392 100.231 92.0597 100.231ZM98.831 101.151C98.4162 101.151 98.0398 101.073 97.7017 100.917C97.3636 100.758 97.0952 100.529 96.8963 100.231C96.6974 99.9295 96.598 99.5659 96.598 99.1397C96.598 98.7647 96.6719 98.4607 96.8196 98.2278C96.9673 97.992 97.1648 97.8073 97.4119 97.6738C97.6591 97.5403 97.9318 97.4409 98.2301 97.3755C98.5313 97.3073 98.8338 97.2534 99.1378 97.2136C99.5355 97.1625 99.858 97.1241 100.105 97.0985C100.355 97.0701 100.537 97.0232 100.651 96.9579C100.767 96.8926 100.825 96.7789 100.825 96.617V96.5829C100.825 96.1625 100.71 95.8357 100.48 95.6028C100.253 95.3698 99.9077 95.2534 99.4446 95.2534C98.9645 95.2534 98.5881 95.3585 98.3153 95.5687C98.0426 95.7789 97.8509 96.0034 97.7401 96.242L96.7855 95.9011C96.956 95.5034 97.1832 95.1937 97.4673 94.9721C97.7543 94.7477 98.0668 94.5914 98.4048 94.5034C98.7457 94.4125 99.081 94.367 99.4105 94.367C99.6207 94.367 99.8622 94.3926 100.135 94.4437C100.411 94.492 100.676 94.5929 100.932 94.7463C101.19 94.8997 101.405 95.1312 101.575 95.4409C101.746 95.7505 101.831 96.1653 101.831 96.6852V100.998H100.825V100.111H100.774C100.706 100.253 100.592 100.405 100.433 100.567C100.274 100.729 100.063 100.867 99.7983 100.981C99.5341 101.094 99.2116 101.151 98.831 101.151ZM98.9844 100.248C99.3821 100.248 99.7173 100.17 99.9901 100.013C100.266 99.8571 100.473 99.6554 100.612 99.4082C100.754 99.161 100.825 98.9011 100.825 98.6284V97.7079C100.783 97.759 100.689 97.8059 100.544 97.8485C100.402 97.8883 100.237 97.9238 100.05 97.9551C99.8651 97.9835 99.6847 98.009 99.5085 98.0318C99.3352 98.0517 99.1946 98.0687 99.0866 98.0829C98.8253 98.117 98.581 98.1724 98.3537 98.2491C98.1293 98.323 97.9474 98.4352 97.8082 98.5857C97.6719 98.7335 97.6037 98.9352 97.6037 99.1909C97.6037 99.5403 97.733 99.8045 97.9915 99.9835C98.2528 100.16 98.5838 100.248 98.9844 100.248ZM104.672 97.0602V100.998H103.667V94.4522H104.638V95.475H104.723C104.877 95.1426 105.11 94.8755 105.422 94.6738C105.735 94.4693 106.138 94.367 106.632 94.367C107.076 94.367 107.463 94.4579 107.796 94.6397C108.128 94.8187 108.387 95.0914 108.571 95.4579C108.756 95.8215 108.848 96.2818 108.848 96.8386V100.998H107.843V96.9068C107.843 96.3926 107.709 95.992 107.442 95.7051C107.175 95.4153 106.809 95.2704 106.343 95.2704C106.022 95.2704 105.735 95.34 105.482 95.4792C105.232 95.6184 105.034 95.8215 104.89 96.0886C104.745 96.3556 104.672 96.6795 104.672 97.0602ZM115.322 95.9181L114.419 96.1738C114.362 96.0232 114.278 95.8769 114.168 95.7349C114.06 95.59 113.912 95.4707 113.724 95.3769C113.537 95.2832 113.297 95.2363 113.004 95.2363C112.604 95.2363 112.27 95.3286 112.003 95.5133C111.739 95.6951 111.607 95.9267 111.607 96.2079C111.607 96.4579 111.697 96.6554 111.879 96.8002C112.061 96.9451 112.345 97.0659 112.732 97.1625L113.703 97.4011C114.288 97.5431 114.724 97.7605 115.011 98.0531C115.298 98.3429 115.442 98.7164 115.442 99.1738C115.442 99.5488 115.334 99.884 115.118 100.179C114.905 100.475 114.607 100.708 114.223 100.878C113.839 101.049 113.393 101.134 112.885 101.134C112.217 101.134 111.665 100.989 111.227 100.699C110.79 100.41 110.513 99.9863 110.396 99.4295L111.351 99.1909C111.442 99.5431 111.614 99.8073 111.866 99.9835C112.122 100.16 112.456 100.248 112.868 100.248C113.337 100.248 113.709 100.148 113.984 99.9494C114.263 99.7477 114.402 99.5062 114.402 99.225C114.402 98.9977 114.322 98.8073 114.163 98.6539C114.004 98.4977 113.76 98.3812 113.43 98.3045L112.339 98.0488C111.74 97.9068 111.3 97.6866 111.018 97.3883C110.74 97.0872 110.601 96.7107 110.601 96.259C110.601 95.8897 110.705 95.563 110.912 95.2789C111.122 94.9948 111.408 94.7718 111.768 94.6099C112.132 94.448 112.544 94.367 113.004 94.367C113.652 94.367 114.161 94.509 114.53 94.7931C114.902 95.0772 115.166 95.4522 115.322 95.9181ZM121.336 92.2704V100.998H120.331V92.2704H121.336ZM125.923 101.134C125.292 101.134 124.748 100.995 124.29 100.716C123.836 100.435 123.485 100.043 123.238 99.5403C122.994 99.0346 122.871 98.4465 122.871 97.7761C122.871 97.1056 122.994 96.5147 123.238 96.0034C123.485 95.4892 123.829 95.0886 124.269 94.8017C124.712 94.5119 125.229 94.367 125.82 94.367C126.161 94.367 126.498 94.4238 126.83 94.5375C127.163 94.6511 127.465 94.8357 127.738 95.0914C128.011 95.3443 128.228 95.6795 128.39 96.0971C128.552 96.5147 128.633 97.0289 128.633 97.6397V98.0659H123.587V97.1965H127.61C127.61 96.8272 127.536 96.4977 127.388 96.2079C127.244 95.9181 127.036 95.6894 126.766 95.5218C126.499 95.3542 126.184 95.2704 125.82 95.2704C125.42 95.2704 125.073 95.3698 124.781 95.5687C124.491 95.7647 124.268 96.0204 124.112 96.3357C123.955 96.6511 123.877 96.9892 123.877 97.35V97.9295C123.877 98.4238 123.962 98.8429 124.133 99.1866C124.306 99.5275 124.546 99.7875 124.853 99.9664C125.16 100.143 125.516 100.231 125.923 100.231C126.187 100.231 126.425 100.194 126.638 100.12C126.854 100.043 127.04 99.9295 127.197 99.7789C127.353 99.6255 127.474 99.4352 127.559 99.2079L128.531 99.4806C128.428 99.8102 128.256 100.1 128.015 100.35C127.773 100.597 127.475 100.79 127.12 100.929C126.765 101.066 126.366 101.134 125.923 101.134ZM136.452 94.4522V95.3045H132.924V94.4522H136.452ZM133.981 100.998V93.5488C133.981 93.1738 134.069 92.8613 134.245 92.6113C134.421 92.3613 134.65 92.1738 134.931 92.0488C135.212 91.9238 135.509 91.8613 135.822 91.8613C136.069 91.8613 136.271 91.8812 136.427 91.921C136.583 91.9607 136.7 91.9977 136.776 92.0318L136.487 92.9011C136.435 92.884 136.364 92.8627 136.273 92.8372C136.185 92.8116 136.069 92.7988 135.924 92.7988C135.592 92.7988 135.352 92.8826 135.204 93.0502C135.059 93.2179 134.987 93.4636 134.987 93.7875V100.998H133.981ZM139.6 101.151C139.186 101.151 138.809 101.073 138.471 100.917C138.133 100.758 137.865 100.529 137.666 100.231C137.467 99.9295 137.368 99.5659 137.368 99.1397C137.368 98.7647 137.441 98.4607 137.589 98.2278C137.737 97.992 137.934 97.8073 138.181 97.6738C138.429 97.5403 138.701 97.4409 139 97.3755C139.301 97.3073 139.603 97.2534 139.907 97.2136C140.305 97.1625 140.627 97.1241 140.875 97.0985C141.125 97.0701 141.306 97.0232 141.42 96.9579C141.537 96.8926 141.595 96.7789 141.595 96.617V96.5829C141.595 96.1625 141.48 95.8357 141.25 95.6028C141.022 95.3698 140.677 95.2534 140.214 95.2534C139.734 95.2534 139.358 95.3585 139.085 95.5687C138.812 95.7789 138.62 96.0034 138.51 96.242L137.555 95.9011C137.725 95.5034 137.953 95.1937 138.237 94.9721C138.524 94.7477 138.836 94.5914 139.174 94.5034C139.515 94.4125 139.85 94.367 140.18 94.367C140.39 94.367 140.632 94.3926 140.904 94.4437C141.18 94.492 141.446 94.5929 141.701 94.7463C141.96 94.8997 142.174 95.1312 142.345 95.4409C142.515 95.7505 142.6 96.1653 142.6 96.6852V100.998H141.595V100.111H141.544C141.475 100.253 141.362 100.405 141.203 100.567C141.044 100.729 140.832 100.867 140.568 100.981C140.304 101.094 139.981 101.151 139.6 101.151ZM139.754 100.248C140.152 100.248 140.487 100.17 140.76 100.013C141.035 99.8571 141.243 99.6554 141.382 99.4082C141.524 99.161 141.595 98.9011 141.595 98.6284V97.7079C141.552 97.759 141.458 97.8059 141.314 97.8485C141.172 97.8883 141.007 97.9238 140.819 97.9551C140.635 97.9835 140.454 98.009 140.278 98.0318C140.105 98.0517 139.964 98.0687 139.856 98.0829C139.595 98.117 139.35 98.1724 139.123 98.2491C138.899 98.323 138.717 98.4352 138.578 98.5857C138.441 98.7335 138.373 98.9352 138.373 99.1909C138.373 99.5403 138.502 99.8045 138.761 99.9835C139.022 100.16 139.353 100.248 139.754 100.248ZM148.561 98.3215V94.4522H149.567V100.998H148.561V99.8897H148.493C148.339 100.222 148.101 100.505 147.777 100.738C147.453 100.968 147.044 101.083 146.55 101.083C146.141 101.083 145.777 100.993 145.459 100.814C145.141 100.633 144.891 100.36 144.709 99.9963C144.527 99.6298 144.436 99.1681 144.436 98.6113V94.4522H145.442V98.5431C145.442 99.0204 145.575 99.4011 145.842 99.6852C146.112 99.9693 146.456 100.111 146.874 100.111C147.124 100.111 147.378 100.047 147.636 99.9196C147.898 99.7917 148.116 99.5957 148.293 99.3315C148.472 99.0673 148.561 98.7306 148.561 98.3215ZM154.255 94.4522V95.3045H150.863V94.4522H154.255ZM151.852 92.884H152.858V99.1227C152.858 99.4068 152.899 99.6198 152.981 99.7619C153.066 99.9011 153.174 99.9948 153.305 100.043C153.439 100.089 153.579 100.111 153.727 100.111C153.838 100.111 153.929 100.106 154 100.094C154.071 100.08 154.127 100.069 154.17 100.06L154.375 100.964C154.306 100.989 154.211 101.015 154.089 101.04C153.967 101.069 153.812 101.083 153.625 101.083C153.341 101.083 153.062 101.022 152.789 100.9C152.52 100.778 152.295 100.591 152.116 100.341C151.94 100.091 151.852 99.7761 151.852 99.3954V92.884ZM158.442 101.134C157.811 101.134 157.267 100.995 156.81 100.716C156.355 100.435 156.005 100.043 155.757 99.5403C155.513 99.0346 155.391 98.4465 155.391 97.7761C155.391 97.1056 155.513 96.5147 155.757 96.0034C156.005 95.4892 156.348 95.0886 156.789 94.8017C157.232 94.5119 157.749 94.367 158.34 94.367C158.681 94.367 159.017 94.4238 159.35 94.5375C159.682 94.6511 159.985 94.8357 160.257 95.0914C160.53 95.3443 160.748 95.6795 160.909 96.0971C161.071 96.5147 161.152 97.0289 161.152 97.6397V98.0659H156.107V97.1965H160.13C160.13 96.8272 160.056 96.4977 159.908 96.2079C159.763 95.9181 159.556 95.6894 159.286 95.5218C159.019 95.3542 158.703 95.2704 158.34 95.2704C157.939 95.2704 157.593 95.3698 157.3 95.5687C157.01 95.7647 156.787 96.0204 156.631 96.3357C156.475 96.6511 156.397 96.9892 156.397 97.35V97.9295C156.397 98.4238 156.482 98.8429 156.652 99.1866C156.826 99.5275 157.066 99.7875 157.373 99.9664C157.679 100.143 158.036 100.231 158.442 100.231C158.706 100.231 158.945 100.194 159.158 100.12C159.374 100.043 159.56 99.9295 159.716 99.7789C159.873 99.6255 159.993 99.4352 160.078 99.2079L161.05 99.4806C160.948 99.8102 160.776 100.1 160.534 100.35C160.293 100.597 159.995 100.79 159.64 100.929C159.284 101.066 158.885 101.134 158.442 101.134ZM166.807 98.3215V94.4522H167.813V100.998H166.807V99.8897H166.739C166.586 100.222 166.347 100.505 166.023 100.738C165.699 100.968 165.29 101.083 164.796 101.083C164.387 101.083 164.023 100.993 163.705 100.814C163.387 100.633 163.137 100.36 162.955 99.9963C162.773 99.6298 162.682 99.1681 162.682 98.6113V94.4522H163.688V98.5431C163.688 99.0204 163.821 99.4011 164.088 99.6852C164.358 99.9693 164.702 100.111 165.12 100.111C165.37 100.111 165.624 100.047 165.882 99.9196C166.144 99.7917 166.363 99.5957 166.539 99.3315C166.718 99.0673 166.807 98.7306 166.807 98.3215ZM169.655 100.998V94.4522H170.661V100.998H169.655ZM170.166 93.3613C169.97 93.3613 169.801 93.2946 169.659 93.161C169.52 93.0275 169.45 92.867 169.45 92.6795C169.45 92.492 169.52 92.3315 169.659 92.198C169.801 92.0644 169.97 91.9977 170.166 91.9977C170.362 91.9977 170.53 92.0644 170.669 92.198C170.811 92.3315 170.882 92.492 170.882 92.6795C170.882 92.867 170.811 93.0275 170.669 93.161C170.53 93.2946 170.362 93.3613 170.166 93.3613ZM173.508 92.2704V100.998H172.502V92.2704H173.508Z" fill="#EDEDED"/>
<path d="M212.991 105.099C211.054 106.776 208.101 106.577 206.643 104.47C202.791 98.9053 200.295 92.4901 199.385 85.7396C198.268 77.4513 199.593 69.0173 203.196 61.4703C206.8 53.9232 212.526 47.5908 219.673 43.2484C226.821 38.906 235.079 36.7421 243.438 37.0217C251.796 37.3013 259.892 40.0123 266.733 44.8226C273.574 49.633 278.864 56.3339 281.955 64.1049C285.046 71.8758 285.804 80.3795 284.136 88.5746C282.777 95.2493 279.857 101.483 275.642 106.778C274.047 108.783 271.087 108.784 269.266 106.982C267.445 105.18 267.46 102.259 268.996 100.208C271.973 96.2316 274.047 91.6296 275.045 86.7242C276.354 80.2971 275.759 73.6281 273.335 67.5337C270.911 61.4393 266.762 56.184 261.397 52.4115C256.032 48.639 249.683 46.5129 243.127 46.2936C236.572 46.0743 230.095 47.7714 224.49 51.1769C218.885 54.5825 214.394 59.5487 211.568 65.4675C208.742 71.3863 207.703 78.0007 208.579 84.5008C209.248 89.462 211.009 94.1922 213.714 98.3592C215.109 100.508 214.929 103.423 212.991 105.099Z" fill="#B1B1B1"/>
<g filter="url(#filter1_i_2385_1851)">
<path d="M213.069 105.189C211.137 106.872 208.184 106.682 206.72 104.58C202.771 98.9126 200.232 92.3568 199.348 85.4602C198.268 77.0245 199.713 68.4579 203.502 60.8436C207.29 53.2294 213.251 46.9095 220.631 42.6831C228.011 38.4568 236.479 36.5138 244.963 37.0999C253.448 37.686 261.568 40.7748 268.297 45.9758C275.026 51.1768 280.061 58.2564 282.766 66.3192C285.472 74.382 285.725 83.066 283.495 91.273C281.672 97.9826 278.256 104.127 273.565 109.198C271.826 111.078 268.874 110.86 267.192 108.928C265.509 106.996 265.741 104.085 267.424 102.153C270.759 98.3257 273.201 93.7782 274.543 88.8404C276.292 82.404 276.093 75.5936 273.971 69.2703C271.85 62.947 267.9 57.3948 262.623 53.3159C257.346 49.237 250.978 46.8146 244.324 46.3549C237.67 45.8953 231.029 47.4191 225.241 50.7336C219.454 54.0481 214.779 59.0045 211.808 64.976C208.837 70.9476 207.703 77.666 208.55 84.2817C209.2 89.3571 210.994 94.1971 213.771 98.447C215.173 100.591 215.001 103.507 213.069 105.189Z" fill="#CE2727"/>
</g>
<path d="M224.148 78.9977V70.2704H225.729V77.6724H229.573V78.9977H224.148ZM230.877 78.9977V72.4522H232.419V78.9977H230.877ZM231.652 71.5232C231.408 71.5232 231.198 71.4423 231.021 71.2804C230.845 71.1156 230.757 70.9181 230.757 70.688C230.757 70.4551 230.845 70.2576 231.021 70.0957C231.198 69.9309 231.408 69.8485 231.652 69.8485C231.899 69.8485 232.11 69.9309 232.283 70.0957C232.459 70.2576 232.547 70.4551 232.547 70.688C232.547 70.9181 232.459 71.1156 232.283 71.2804C232.11 71.4423 231.899 71.5232 231.652 71.5232ZM234.006 78.9977V72.4522H235.48V73.5644H235.557C235.693 73.1894 235.919 72.8968 236.234 72.6866C236.55 72.4735 236.926 72.367 237.363 72.367C237.807 72.367 238.18 72.475 238.484 72.6909C238.791 72.9039 239.007 73.1951 239.132 73.5644H239.2C239.345 73.2008 239.589 72.911 239.933 72.6951C240.28 72.4764 240.69 72.367 241.165 72.367C241.767 72.367 242.258 72.5573 242.639 72.938C243.02 73.3187 243.21 73.8741 243.21 74.6042V78.9977H241.663V74.8429C241.663 74.4366 241.555 74.1397 241.339 73.9522C241.123 73.7619 240.859 73.6667 240.547 73.6667C240.175 73.6667 239.883 73.7832 239.673 74.0161C239.466 74.2463 239.362 74.546 239.362 74.9153V78.9977H237.849V74.7789C237.849 74.4409 237.747 74.171 237.542 73.9693C237.341 73.7676 237.077 73.6667 236.75 73.6667C236.528 73.6667 236.327 73.7235 236.145 73.8372C235.963 73.948 235.818 74.1056 235.71 74.3102C235.602 74.5119 235.548 74.7477 235.548 75.0176V78.9977H234.006ZM244.775 78.9977V72.4522H246.318V78.9977H244.775ZM245.551 71.5232C245.306 71.5232 245.096 71.4423 244.92 71.2804C244.744 71.1156 244.656 70.9181 244.656 70.688C244.656 70.4551 244.744 70.2576 244.92 70.0957C245.096 69.9309 245.306 69.8485 245.551 69.8485C245.798 69.8485 246.008 69.9309 246.181 70.0957C246.357 70.2576 246.445 70.4551 246.445 70.688C246.445 70.9181 246.357 71.1156 246.181 71.2804C246.008 71.4423 245.798 71.5232 245.551 71.5232ZM251.172 72.4522V73.6454H247.41V72.4522H251.172ZM248.339 70.884H249.881V77.0289C249.881 77.2363 249.912 77.3954 249.975 77.5062C250.04 77.6142 250.126 77.688 250.231 77.7278C250.336 77.7676 250.452 77.7875 250.58 77.7875C250.677 77.7875 250.765 77.7804 250.844 77.7661C250.927 77.7519 250.989 77.7392 251.032 77.7278L251.292 78.9338C251.209 78.9622 251.091 78.9934 250.938 79.0275C250.787 79.0616 250.603 79.0815 250.384 79.0872C249.998 79.0985 249.65 79.0403 249.34 78.9125C249.03 78.7818 248.785 78.5801 248.603 78.3073C248.424 78.0346 248.336 77.6937 248.339 77.2846V70.884ZM255.29 79.1255C254.634 79.1255 254.067 78.9892 253.59 78.7164C253.115 78.4409 252.75 78.0517 252.494 77.5488C252.239 77.0431 252.111 76.448 252.111 75.7633C252.111 75.09 252.239 74.4991 252.494 73.9906C252.753 73.4792 253.114 73.0815 253.577 72.7974C254.04 72.5105 254.584 72.367 255.209 72.367C255.612 72.367 255.993 72.4323 256.351 72.563C256.712 72.6909 257.03 72.8897 257.306 73.1596C257.584 73.4295 257.803 73.7732 257.962 74.1909C258.121 74.6056 258.2 75.1 258.2 75.6738V76.1468H252.835V75.1071H256.722C256.719 74.8116 256.655 74.5488 256.53 74.3187C256.405 74.0857 256.23 73.9025 256.006 73.769C255.784 73.6355 255.526 73.5687 255.23 73.5687C254.915 73.5687 254.638 73.6454 254.399 73.7988C254.161 73.9494 253.975 74.1482 253.841 74.3954C253.71 74.6397 253.644 74.9082 253.641 75.2008V76.1085C253.641 76.4892 253.71 76.8159 253.85 77.0886C253.989 77.3585 254.183 77.5659 254.433 77.7107C254.683 77.8528 254.976 77.9238 255.311 77.9238C255.536 77.9238 255.739 77.8926 255.921 77.8301C256.102 77.7647 256.26 77.6696 256.394 77.5446C256.527 77.4196 256.628 77.2647 256.696 77.0801L258.137 77.242C258.046 77.6227 257.872 77.9551 257.617 78.2392C257.364 78.5204 257.04 78.7392 256.645 78.8954C256.25 79.0488 255.798 79.1255 255.29 79.1255Z" fill="#B1B1B1"/>
<path d="M233.233 83.1511C233.651 83.1539 234.057 83.2278 234.452 83.3727C234.85 83.5147 235.208 83.7477 235.526 84.0715C235.844 84.3926 236.097 84.823 236.284 85.3627C236.472 85.9025 236.566 86.5701 236.566 87.3656C236.568 88.1156 236.489 88.786 236.327 89.3769C236.168 89.965 235.939 90.4622 235.641 90.8684C235.343 91.2747 234.983 91.5843 234.563 91.7974C234.142 92.0105 233.669 92.117 233.144 92.117C232.593 92.117 232.104 92.009 231.678 91.7931C231.254 91.5772 230.912 91.2818 230.651 90.9068C230.389 90.5318 230.229 90.1028 230.169 89.6198H231.725C231.804 89.9664 231.966 90.242 232.21 90.4465C232.458 90.6482 232.769 90.7491 233.144 90.7491C233.749 90.7491 234.215 90.4863 234.541 89.9607C234.868 89.4352 235.031 88.7051 235.031 87.7704H234.972C234.833 88.0204 234.652 88.2363 234.431 88.4181C234.209 88.5971 233.958 88.7349 233.676 88.8315C233.398 88.9281 233.102 88.9764 232.79 88.9764C232.279 88.9764 231.818 88.8542 231.409 88.6099C231.003 88.3656 230.681 88.0304 230.442 87.6042C230.206 87.1781 230.087 86.6909 230.084 86.1426C230.084 85.5744 230.215 85.0644 230.476 84.6127C230.74 84.1582 231.108 83.8002 231.58 83.5389C232.051 83.2747 232.602 83.1454 233.233 83.1511ZM233.237 84.4295C232.931 84.4295 232.654 84.5048 232.406 84.6554C232.162 84.8031 231.969 85.0048 231.827 85.2605C231.688 85.5133 231.618 85.796 231.618 86.1085C231.621 86.4181 231.691 86.6994 231.827 86.9522C231.966 87.2051 232.155 87.4054 232.394 87.5531C232.635 87.7008 232.911 87.7747 233.22 87.7747C233.45 87.7747 233.665 87.7306 233.864 87.6426C234.063 87.5545 234.236 87.4323 234.384 87.2761C234.534 87.117 234.651 86.9366 234.733 86.7349C234.818 86.5332 234.86 86.3201 234.857 86.0957C234.857 85.7974 234.786 85.5218 234.644 85.269C234.504 85.0161 234.313 84.813 234.068 84.6596C233.827 84.5062 233.55 84.4295 233.237 84.4295ZM241.21 92.1639C240.509 92.1639 239.906 91.9863 239.404 91.6312C238.904 91.2732 238.519 90.7576 238.249 90.0843C237.982 89.4082 237.848 88.5943 237.848 87.6426C237.851 86.6909 237.986 85.8812 238.253 85.2136C238.523 84.5431 238.908 84.0318 239.408 83.6795C239.911 83.3272 240.512 83.1511 241.21 83.1511C241.909 83.1511 242.51 83.3272 243.013 83.6795C243.516 84.0318 243.901 84.5431 244.168 85.2136C244.438 85.884 244.573 86.6937 244.573 87.6426C244.573 88.5971 244.438 89.4125 244.168 90.0886C243.901 90.7619 243.516 91.2761 243.013 91.6312C242.513 91.9863 241.912 92.1639 241.21 92.1639ZM241.21 90.8301C241.756 90.8301 242.186 90.5616 242.502 90.0247C242.82 89.4849 242.979 88.6909 242.979 87.6426C242.979 86.9494 242.906 86.367 242.762 85.8954C242.617 85.4238 242.412 85.0687 242.148 84.8301C241.884 84.5886 241.571 84.4679 241.21 84.4679C240.668 84.4679 240.239 84.7377 239.923 85.2775C239.608 85.8144 239.449 86.6028 239.446 87.6426C239.443 88.3386 239.513 88.9238 239.655 89.3982C239.8 89.8727 240.004 90.2306 240.269 90.4721C240.533 90.7107 240.847 90.8301 241.21 90.8301ZM247.548 88.1625V91.9977H246.006V83.2704H247.514V86.5644H247.591C247.744 86.1951 247.981 85.9039 248.302 85.6909C248.626 85.475 249.038 85.367 249.538 85.367C249.993 85.367 250.389 85.4622 250.727 85.6525C251.065 85.8429 251.327 86.1213 251.511 86.4877C251.699 86.8542 251.792 87.3017 251.792 87.8301V91.9977H250.25V88.0687C250.25 87.6284 250.136 87.286 249.909 87.0417C249.684 86.7946 249.369 86.671 248.963 86.671C248.69 86.671 248.446 86.7306 248.23 86.85C248.017 86.9664 247.849 87.1355 247.727 87.3571C247.608 87.5786 247.548 87.8471 247.548 88.1625Z" fill="#B1B1B1"/>
</g>
<defs>
<filter id="filter0_d_2385_1851" x="0.428053" y="0.4498" width="324.192" height="163.192" filterUnits="userSpaceOnUse" color-interpolation-filters="sRGB">
<feFlood flood-opacity="0" result="BackgroundImageFix"/>
<feColorMatrix in="SourceAlpha" type="matrix" values="0 0 0 0 0 0 0 0 0 0 0 0 0 0 0 0 0 0 127 0" result="hardAlpha"/>
<feMorphology radius="2" operator="dilate" in="SourceAlpha" result="effect1_dropShadow_2385_1851"/>
<feOffset dx="1.02407" dy="2.04813"/>
<feGaussianBlur stdDeviation="6.29801"/>
<feComposite in2="hardAlpha" operator="out"/>
<feColorMatrix type="matrix" values="0 0 0 0 0 0 0 0 0 0 0 0 0 0 0 0 0 0 0.1 0"/>
<feBlend mode="normal" in2="BackgroundImageFix" result="effect1_dropShadow_2385_1851"/>
<feBlend mode="normal" in="SourceGraphic" in2="effect1_dropShadow_2385_1851" result="shape"/>
</filter>
<filter id="filter1_i_2385_1851" x="199" y="36.9977" width="86" height="77.5007" filterUnits="userSpaceOnUse" color-interpolation-filters="sRGB">
<feFlood flood-opacity="0" result="BackgroundImageFix"/>
<feBlend mode="normal" in="SourceGraphic" in2="BackgroundImageFix" result="shape"/>
<feColorMatrix in="SourceAlpha" type="matrix" values="0 0 0 0 0 0 0 0 0 0 0 0 0 0 0 0 0 0 127 0" result="hardAlpha"/>
<feOffset dy="4"/>
<feGaussianBlur stdDeviation="2"/>
<feComposite in2="hardAlpha" operator="arithmetic" k2="-1" k3="1"/>
<feColorMatrix type="matrix" values="0 0 0 0 0 0 0 0 0 0 0 0 0 0 0 0 0 0 0.25 0"/>
<feBlend mode="normal" in2="shape" result="effect1_innerShadow_2385_1851"/>
</filter>
</defs>
</svg>
