<svg width="114" height="24" viewBox="0 0 114 24" fill="none" xmlns="http://www.w3.org/2000/svg">
<path d="M0 17.8697V17.6199L0.449593 17.445C0.782624 17.3118 1.00742 17.1453 1.12398 16.9455C1.25719 16.7457 1.3238 16.4793 1.3238 16.1462V3.10803C1.3238 2.75835 1.25719 2.4836 1.12398 2.28378C1.00742 2.08396 0.782624 1.92577 0.449593 1.80921L0 1.63437V1.38459H7.16851C9.2 1.38459 10.6653 1.75925 11.5645 2.50858C12.4637 3.24125 12.9133 4.17373 12.9133 5.30604C12.9133 6.15527 12.5803 6.92957 11.9142 7.62894C11.2648 8.31165 10.1408 8.79455 8.54226 9.07763C10.3739 9.27744 11.7144 9.76034 12.5636 10.5263C13.4129 11.2756 13.8375 12.1915 13.8375 13.2738C13.8375 13.8067 13.7209 14.3479 13.4878 14.8974C13.2547 15.4302 12.855 15.9214 12.2889 16.371C11.7394 16.8206 10.9817 17.1869 10.0159 17.47C9.05014 17.7364 7.82624 17.8697 6.34425 17.8697H0ZM5.02045 9.05265H6.09448C7.21014 9.05265 8.00941 8.79455 8.49231 8.27835C8.99186 7.76215 9.24163 6.86296 9.24163 5.58079C9.24163 4.24867 9.01683 3.29953 8.56724 2.73337C8.11765 2.16722 7.38498 1.88414 6.36923 1.88414H5.02045V9.05265ZM5.02045 17.3701H6.26932C7.51819 17.3701 8.44235 17.0371 9.04181 16.371C9.65792 15.705 9.96597 14.6642 9.96597 13.2488C9.96597 11.9167 9.67457 10.9676 9.09176 10.4014C8.50896 9.83527 7.55149 9.5522 6.21937 9.5522H5.02045V17.3701Z" fill="#D6C8B0"/>
<path d="M17.8752 4.18206C17.3091 4.18206 16.8262 4.00722 16.4265 3.65754C16.0435 3.2912 15.852 2.83328 15.852 2.28378C15.852 1.71762 16.0435 1.25971 16.4265 0.910024C16.8262 0.56034 17.3091 0.385498 17.8752 0.385498C18.4414 0.385498 18.9159 0.56034 19.2989 0.910024C19.6819 1.25971 19.8734 1.71762 19.8734 2.28378C19.8734 2.83328 19.6819 3.2912 19.2989 3.65754C18.9159 4.00722 18.4414 4.18206 17.8752 4.18206ZM14.9279 17.8697V17.6199L15.2776 17.52C15.6106 17.4201 15.8354 17.2702 15.952 17.0704C16.0852 16.8706 16.1518 16.6041 16.1518 16.2711V8.45319C16.1518 8.10351 16.0852 7.84541 15.952 7.67889C15.8354 7.49572 15.6106 7.37084 15.2776 7.30423L14.9279 7.2293V6.97953L19.4987 5.50586L19.7485 5.75563L19.6736 9.30242V16.2961C19.6736 16.6291 19.7319 16.8955 19.8484 17.0954C19.9816 17.2952 20.2064 17.445 20.5228 17.545L20.7726 17.6199V17.8697H14.9279Z" fill="#D6C8B0"/>
<path d="M21.8784 17.8697V17.6199L22.2281 17.52C22.8109 17.3535 23.1023 16.9455 23.1023 16.2961V8.47817C23.1023 8.11183 23.044 7.84541 22.9275 7.67889C22.8109 7.49572 22.5861 7.37084 22.2531 7.30423L21.8784 7.20432V6.95455L26.1496 5.50586L26.3993 5.75563L26.5991 7.25428C27.182 6.73808 27.8397 6.31346 28.5724 5.98043C29.305 5.6474 30.0294 5.48088 30.7454 5.48088C31.8444 5.48088 32.6853 5.78061 33.2681 6.38007C33.8676 6.97953 34.1673 7.89536 34.1673 9.12758V16.3211C34.1673 16.9705 34.4837 17.3784 35.1164 17.545L35.3412 17.6199V17.8697H29.4466V17.6199L29.7713 17.52C30.3541 17.3368 30.6455 16.9288 30.6455 16.2961V8.3283C30.6455 7.2626 30.1126 6.72975 29.0469 6.72975C28.3143 6.72975 27.515 7.09609 26.6491 7.82876V16.3211C26.6491 16.9705 26.9405 17.3784 27.5233 17.545L27.7481 17.6199V17.8697H21.8784Z" fill="#D6C8B0"/>
<path d="M41.7635 13.5486C40.6146 13.5486 39.6405 13.3571 38.8412 12.9741V13.8233C38.8412 14.3395 39.0993 14.6476 39.6155 14.7475L44.3112 15.6217C45.0939 15.7716 45.8015 15.9714 46.4343 16.2212C47.0671 16.4543 47.5749 16.7956 47.9579 17.2452C48.3409 17.6782 48.5324 18.2776 48.5324 19.0436C48.5324 19.8595 48.266 20.6088 47.7331 21.2916C47.2003 21.9909 46.4093 22.5488 45.3603 22.965C44.3279 23.398 43.0374 23.6145 41.4888 23.6145C40.1567 23.6145 39.0993 23.4729 38.3167 23.1898C37.534 22.9234 36.9762 22.5737 36.6432 22.1408C36.3268 21.7079 36.1686 21.2499 36.1686 20.767C36.1686 20.1676 36.3684 19.5598 36.7681 18.9437C37.1844 18.3442 37.6922 17.8613 38.2917 17.495C37.7755 17.2952 37.4008 17.0371 37.1677 16.7207C36.9346 16.4043 36.818 16.063 36.818 15.6966C36.818 15.3636 36.9013 15.0555 37.0678 14.7725C37.251 14.4727 37.4674 14.173 37.7172 13.8733L38.5415 12.8242C37.3259 12.1249 36.7181 11.0259 36.7181 9.52722C36.7181 8.3283 37.1427 7.35419 37.992 6.60486C38.8578 5.85554 40.1234 5.48088 41.7885 5.48088C42.6377 5.48088 43.3787 5.58079 44.0115 5.78061C44.6609 5.98043 45.1938 6.26351 45.6101 6.62984C46.1429 6.54658 46.6425 6.41337 47.1087 6.2302C47.5916 6.03039 48.0245 5.76396 48.4075 5.43093L48.7572 5.6807V6.95455H45.9348C46.5342 7.62061 46.8339 8.47817 46.8339 9.52722C46.8339 10.6928 46.401 11.6586 45.5351 12.4246C44.6859 13.1739 43.4287 13.5486 41.7635 13.5486ZM41.7386 13.049C42.4046 13.049 42.8875 12.7743 43.1872 12.2248C43.5036 11.6753 43.6618 10.7594 43.6618 9.47726C43.6618 8.19509 43.5036 7.29591 43.1872 6.77971C42.8875 6.24686 42.4213 5.98043 41.7885 5.98043C41.1724 5.98043 40.7062 6.25518 40.3898 6.80468C40.0734 7.33753 39.9152 8.24505 39.9152 9.52722C39.9152 10.8094 40.0567 11.7169 40.3398 12.2498C40.6396 12.7826 41.1058 13.049 41.7386 13.049ZM38.0169 19.9678C38.0169 20.9502 38.3167 21.6912 38.9161 22.1907C39.5322 22.6903 40.498 22.9401 41.8135 22.9401C43.1956 22.9401 44.2363 22.7153 44.9357 22.2657C45.635 21.8161 45.9847 21.1833 45.9847 20.3674C45.9847 19.9012 45.8099 19.5265 45.4602 19.2434C45.1272 18.9603 44.5527 18.7439 43.7367 18.594L39.2158 17.7448C39.0826 17.7115 38.9494 17.6782 38.8162 17.6449C38.5831 17.9779 38.3916 18.3526 38.2417 18.7688C38.0919 19.2018 38.0169 19.6014 38.0169 19.9678Z" fill="#D6C8B0"/>
<path d="M55.4668 5.48088C56.5491 5.48088 57.4733 5.70568 58.2392 6.15527C59.0052 6.58821 59.588 7.18767 59.9877 7.95364C60.4039 8.70296 60.6121 9.56052 60.6121 10.5263C60.6121 10.7095 60.6038 10.901 60.5871 11.1008C60.5705 11.284 60.5372 11.4505 60.4872 11.6003H53.0439C53.0606 13.3987 53.377 14.6975 53.9931 15.4968C54.6258 16.2794 55.5583 16.6707 56.7906 16.6707C57.6231 16.6707 58.2975 16.5375 58.8137 16.2711C59.3299 16.0047 59.8128 15.6134 60.2624 15.0972L60.5122 15.322C59.996 16.2378 59.3049 16.9538 58.4391 17.47C57.5898 17.9862 56.5658 18.2443 55.3668 18.2443C54.1846 18.2443 53.1355 17.9945 52.2197 17.495C51.3039 16.9788 50.5878 16.2461 50.0716 15.297C49.5554 14.3479 49.2973 13.2155 49.2973 11.9001C49.2973 10.5346 49.5971 9.37735 50.1965 8.42821C50.796 7.46242 51.562 6.72975 52.4944 6.2302C53.4436 5.73066 54.4344 5.48088 55.4668 5.48088ZM55.3918 5.98043C54.9089 5.98043 54.4926 6.1303 54.1429 6.43002C53.8099 6.7131 53.5435 7.2293 53.3437 7.97862C53.1605 8.71129 53.0606 9.75201 53.0439 11.1008H57.3151C57.4816 9.28577 57.415 7.97862 57.1153 7.17934C56.8155 6.38007 56.241 5.98043 55.3918 5.98043Z" fill="#D6C8B0"/>
<path d="M69.4046 10.5215H65.6891L65.6693 8.47503H68.7887C69.3384 8.47503 69.7888 8.40549 70.1398 8.26641C70.4908 8.1207 70.7524 7.91208 70.9246 7.64053C71.1034 7.36237 71.1928 7.0246 71.1928 6.62722C71.1928 6.17685 71.1067 5.81259 70.9345 5.53442C70.769 5.25626 70.5074 5.05426 70.1497 4.92842C69.7987 4.80258 69.345 4.73967 68.7887 4.73967H66.7223V16.8697H63.742V2.40506H68.7887C69.6298 2.40506 70.3815 2.48454 71.0438 2.64349C71.7127 2.80244 72.279 3.04418 72.7426 3.36871C73.2062 3.69323 73.5606 4.10386 73.8056 4.60058C74.0507 5.09068 74.1732 5.67351 74.1732 6.34905C74.1732 6.94512 74.0374 7.49483 73.7659 7.99817C73.5009 8.50152 73.0804 8.91215 72.5042 9.23005C71.9346 9.54795 71.1895 9.72346 70.2689 9.75658L69.4046 10.5215ZM69.2755 16.8697H64.8745L66.0368 14.545H69.2755C69.7987 14.545 70.2259 14.4622 70.557 14.2966C70.8882 14.1244 71.1332 13.8926 71.2922 13.6012C71.4511 13.3098 71.5306 12.9753 71.5306 12.5978C71.5306 12.174 71.4578 11.8064 71.312 11.4951C71.173 11.1838 70.9478 10.9454 70.6365 10.7798C70.3252 10.6076 69.9146 10.5215 69.4046 10.5215H66.5336L66.5534 8.47503H70.1298L70.8153 9.27972C71.6962 9.26648 72.4048 9.42212 72.9413 9.74664C73.4844 10.0645 73.8785 10.4785 74.1235 10.9885C74.3752 11.4984 74.501 12.0448 74.501 12.6276C74.501 13.5549 74.299 14.3364 73.895 14.9722C73.491 15.6014 72.8983 16.0749 72.1167 16.3928C71.3419 16.7107 70.3948 16.8697 69.2755 16.8697Z" fill="#D6C8B0"/>
<path d="M79.5775 1.61031V16.8697H76.7065V1.61031H79.5775Z" fill="#D6C8B0"/>
<path d="M81.485 11.6044V11.3958C81.485 10.6076 81.5975 9.88241 81.8227 9.22011C82.0479 8.55119 82.3757 7.97168 82.8062 7.48158C83.2367 6.99148 83.7666 6.61066 84.3958 6.33912C85.0249 6.06095 85.7468 5.92187 86.5615 5.92187C87.3761 5.92187 88.1013 6.06095 88.7371 6.33912C89.3729 6.61066 89.9061 6.99148 90.3366 7.48158C90.7737 7.97168 91.1048 8.55119 91.33 9.22011C91.5552 9.88241 91.6678 10.6076 91.6678 11.3958V11.6044C91.6678 12.3859 91.5552 13.1111 91.33 13.78C91.1048 14.4423 90.7737 15.0218 90.3366 15.5186C89.9061 16.0087 89.3762 16.3895 88.7471 16.661C88.1179 16.9326 87.396 17.0684 86.5813 17.0684C85.7667 17.0684 85.0415 16.9326 84.4057 16.661C83.7765 16.3895 83.2434 16.0087 82.8062 15.5186C82.3757 15.0218 82.0479 14.4423 81.8227 13.78C81.5975 13.1111 81.485 12.3859 81.485 11.6044ZM84.3461 11.3958V11.6044C84.3461 12.0548 84.3858 12.4753 84.4653 12.8661C84.5448 13.2568 84.6706 13.6012 84.8428 13.8993C85.0216 14.1907 85.2534 14.4192 85.5382 14.5847C85.823 14.7503 86.1707 14.8331 86.5813 14.8331C86.9787 14.8331 87.3198 14.7503 87.6046 14.5847C87.8894 14.4192 88.1179 14.1907 88.2901 13.8993C88.4623 13.6012 88.5881 13.2568 88.6676 12.8661C88.7537 12.4753 88.7967 12.0548 88.7967 11.6044V11.3958C88.7967 10.9586 88.7537 10.548 88.6676 10.1639C88.5881 9.77313 88.459 9.42874 88.2801 9.1307C88.1079 8.82605 87.8794 8.58762 87.5947 8.41542C87.3099 8.24322 86.9655 8.15713 86.5615 8.15713C86.1575 8.15713 85.8131 8.24322 85.5283 8.41542C85.2501 8.58762 85.0216 8.82605 84.8428 9.1307C84.6706 9.42874 84.5448 9.77313 84.4653 10.1639C84.3858 10.548 84.3461 10.9586 84.3461 11.3958Z" fill="#D6C8B0"/>
<path d="M97.8669 14.8331C98.2179 14.8331 98.5292 14.7669 98.8008 14.6344C99.0723 14.4953 99.2842 14.3033 99.4366 14.0582C99.5955 13.8065 99.6783 13.5118 99.6849 13.174H102.377C102.371 13.9291 102.169 14.6013 101.771 15.1907C101.374 15.7736 100.841 16.2339 100.172 16.5716C99.5028 16.9028 98.7544 17.0684 97.9265 17.0684C97.092 17.0684 96.3635 16.9293 95.7409 16.6511C95.125 16.3729 94.6117 15.9888 94.2011 15.4987C93.7905 15.002 93.4825 14.4258 93.2772 13.7701C93.0719 13.1078 92.9692 12.3991 92.9692 11.6441V11.356C92.9692 10.5944 93.0719 9.88572 93.2772 9.23005C93.4825 8.56775 93.7905 7.99155 94.2011 7.50145C94.6117 7.00473 95.125 6.61728 95.7409 6.33912C96.3569 6.06095 97.0788 5.92187 97.9066 5.92187C98.7875 5.92187 99.5591 6.09075 100.221 6.42853C100.89 6.7663 101.414 7.24978 101.791 7.87896C102.175 8.50152 102.371 9.23998 102.377 10.0943H99.6849C99.6783 9.73671 99.6021 9.41218 99.4564 9.12077C99.3173 8.82936 99.112 8.59755 98.8405 8.42536C98.5756 8.24654 98.2477 8.15713 97.857 8.15713C97.4397 8.15713 97.0986 8.24654 96.8337 8.42536C96.5688 8.59755 96.3635 8.83598 96.2178 9.14064C96.0721 9.43867 95.9694 9.77976 95.9098 10.1639C95.8568 10.5414 95.8303 10.9388 95.8303 11.356V11.6441C95.8303 12.0614 95.8568 12.4621 95.9098 12.8462C95.9628 13.2303 96.0621 13.5714 96.2078 13.8694C96.3602 14.1675 96.5688 14.4026 96.8337 14.5748C97.0986 14.747 97.443 14.8331 97.8669 14.8331Z" fill="#D6C8B0"/>
<path d="M106.897 1.60037V16.8697H104.036V1.60037H106.897ZM113.673 6.12056L109.003 11.4454L106.5 13.9787L105.457 11.9124L107.444 9.389L110.235 6.12056H113.673ZM110.702 16.8697L107.523 11.9024L109.5 10.1738L114 16.8697H110.702Z" fill="#D6C8B0"/>
</svg>
