<svg width="75" height="75" viewBox="0 0 75 75" fill="none" xmlns="http://www.w3.org/2000/svg">
<rect x="0.733398" width="74.2666" height="74.2666" rx="37.1333" fill="#D6C8B0"/>
<path d="M45.0946 46.7H29.7133C29.6146 46.7 29.5652 46.7 29.5204 46.6994C29.5122 46.6993 29.5041 46.6991 29.496 46.699V48.2937V49.8889C29.496 50.5494 28.9606 51.0848 28.3001 51.0848C27.6397 51.0848 27.1043 50.5494 27.1043 49.8889V46.1828C25.7828 45.6059 24.7297 44.5812 24.2215 43.287C24.2067 43.2492 24.1911 43.2074 24.1598 43.1237L22.0823 37.5548C21.4196 35.7787 22.8993 33.9445 24.9947 33.9445C26.2867 33.9445 27.4404 34.6672 27.8808 35.7524L29.6317 40.0671C29.791 40.4598 29.8707 40.6561 29.9862 40.8166C30.2558 41.1915 30.6793 41.4568 31.1656 41.5555C31.3738 41.5978 31.6076 41.5978 32.0751 41.5978H43.2029C44.1103 41.5978 44.564 41.5978 44.9434 41.4414C45.1506 41.356 45.3389 41.2381 45.4994 41.0931C45.7932 40.8277 45.9479 40.4466 46.2572 39.6844L47.8528 35.7524C48.2932 34.6672 49.4469 33.9445 50.7389 33.9445C52.8343 33.9445 54.3139 35.7787 53.6513 37.5548L51.8664 42.3391C51.5553 43.1729 51.3998 43.5899 51.1944 43.9443C50.6236 44.9289 49.718 45.7076 48.6293 46.1826V49.8889C48.6293 50.5494 48.0939 51.0848 47.4334 51.0848C46.773 51.0848 46.2376 50.5494 46.2376 49.8889V46.6927C45.94 46.7 45.5763 46.7 45.0946 46.7Z" fill="#1C1C1F"/>
<path opacity="0.5" d="M39.8371 23.5806H35.8965C34.141 23.5806 32.746 23.5805 31.6533 23.7205C30.5297 23.8643 29.6056 24.1684 28.8711 24.8679C28.1312 25.5726 27.8045 26.4681 27.6509 27.5563C27.5029 28.6044 27.5029 29.9393 27.5029 31.6049V35.1055C27.6581 35.302 27.786 35.5188 27.8808 35.7524L29.6317 40.0671C29.791 40.4598 29.8707 40.6561 29.9862 40.8166C30.2558 41.1914 30.6793 41.4567 31.1656 41.5555C31.3739 41.5978 31.6076 41.5978 32.0751 41.5978H43.2029C44.1103 41.5978 44.564 41.5978 44.9435 41.4414C45.1506 41.356 45.3389 41.238 45.4994 41.0931C45.7933 40.8277 45.9479 40.4466 46.2572 39.6844L47.8528 35.7524C47.9476 35.5188 48.0755 35.302 48.2307 35.1055V31.605C48.2307 29.9394 48.2307 28.6045 48.0827 27.5563C47.9291 26.4681 47.6024 25.5726 46.8625 24.8679C46.128 24.1684 45.2039 23.8643 44.0803 23.7205C42.9876 23.5805 41.5927 23.5806 39.8371 23.5806Z" fill="#1C1C1F"/>
</svg>
